<svg width="10" height="10" viewBox="0 0 10 10" fill="none" xmlns="http://www.w3.org/2000/svg">
<path d="M0.646447 9.1318C0.451184 9.32706 0.451184 9.64364 0.646447 9.8389C0.841709 10.0342 1.15829 10.0342 1.35355 9.8389L0.646447 9.1318ZM9.98528 1.00007C9.98528 0.723928 9.76142 0.50007 9.48528 0.50007L4.98528 0.50007C4.70914 0.50007 4.48528 0.723928 4.48528 1.00007C4.48528 1.27621 4.70914 1.50007 4.98528 1.50007L8.98528 1.50007L8.98528 5.50007C8.98528 5.77621 9.20914 6.00007 9.48528 6.00007C9.76142 6.00007 9.98528 5.77621 9.98528 5.50007L9.98528 1.00007ZM1.35355 9.8389L9.83883 1.35362L9.13173 0.646517L0.646447 9.1318L1.35355 9.8389Z" fill="#5E5E5E"/>
</svg>
