<svg width="101" height="49" viewBox="0 0 101 49" fill="none" xmlns="http://www.w3.org/2000/svg">
<g clip-path="url(#clip0_358_5947)">
<path d="M0 36.62V36H1.2C1.81 36 2.25 35.86 2.52 35.59C2.79 35.32 2.93 34.88 2.93 34.27V5.38C2.93 4.77 2.79 4.33 2.52 4.06C2.25 3.79 1.81 3.65 1.2 3.65H0V3.03H17.57C21.25 3.03 24.07 3.69 26.02 5.02C27.97 6.35 28.95 8.32 28.95 10.95C28.95 13.16 28.07 14.93 26.31 16.28C24.55 17.62 22.1 18.5 18.97 18.92V19.02C22.68 19.37 25.55 20.24 27.59 21.64C29.62 23.03 30.64 25.09 30.64 27.81C30.64 30.98 29.58 33.24 27.45 34.6C25.32 35.96 22.15 36.64 17.92 36.64H0V36.62ZM14.45 18.91C16.4 18.91 17.89 18.27 18.91 16.99C19.93 15.71 20.45 13.79 20.45 11.23C20.45 8.51 19.99 6.58 19.06 5.45C18.13 4.31 16.8 3.75 15.08 3.75H11.67V18.92H14.45V18.91ZM15.79 35.9C17.71 35.9 19.19 35.24 20.23 33.91C21.27 32.58 21.79 30.65 21.79 28.13C21.79 25.12 21.25 22.95 20.16 21.63C19.07 20.3 17.33 19.64 14.93 19.64H11.67V31.83C11.67 33.27 11.86 34.31 12.25 34.95C12.63 35.59 13.31 35.91 14.27 35.91H15.81L15.79 35.9Z" fill="white"/>
<path d="M33.2603 36.62V36H34.1203C34.6303 36 35.0104 35.89 35.2504 35.66C35.4904 35.44 35.6104 35.07 35.6104 34.56V5.04C35.6104 4.37 35.5104 3.92 35.3204 3.7C35.1304 3.48 34.7904 3.43 34.3104 3.56L33.1104 3.9V3.28L44.1003 0.0200005V0.600001L42.7603 1.08V34.58C42.7603 35.09 42.8904 35.46 43.1404 35.68C43.4004 35.9 43.7804 36.02 44.2904 36.02H45.1104V36.64H33.2504L33.2603 36.62Z" fill="white"/>
<path d="M60.3802 37.15C57.8802 37.15 55.7002 36.65 53.8302 35.66C51.9602 34.67 50.5102 33.24 49.4902 31.36C48.4702 29.49 47.9502 27.29 47.9502 24.76C47.9502 22.23 48.4802 20.04 49.5302 18.18C50.5902 16.32 52.0902 14.89 54.0402 13.88C55.9902 12.87 58.2602 12.37 60.8602 12.37C63.4602 12.37 65.5502 12.87 67.4402 13.88C69.3302 14.89 70.7802 16.32 71.8102 18.18C72.8302 20.04 73.3502 22.23 73.3502 24.76C73.3502 27.29 72.8202 29.49 71.7702 31.36C70.7102 33.23 69.2102 34.66 67.2602 35.66C65.3102 36.65 63.0202 37.15 60.4002 37.15H60.3802ZM60.5202 36.48C61.5802 36.48 62.4602 36.09 63.1802 35.3C63.9002 34.52 64.4402 33.31 64.8102 31.68C65.1802 30.05 65.3602 27.94 65.3602 25.34C65.3602 21.08 64.9702 17.97 64.1802 16C63.4002 14.03 62.2402 13.05 60.7002 13.05C59.6402 13.05 58.7602 13.43 58.0602 14.2C57.3602 14.97 56.8202 16.18 56.4502 17.82C56.0802 19.47 55.9002 21.59 55.9002 24.18C55.9002 27.03 56.0802 29.36 56.4302 31.16C56.7802 32.97 57.2902 34.3 57.9702 35.17C58.6402 36.03 59.4902 36.47 60.5102 36.47L60.5202 36.48Z" fill="white"/>
<path d="M86.8805 48.67C83.0105 48.67 80.0205 48.23 77.9005 47.35C75.7905 46.47 74.7305 45.25 74.7305 43.68C74.7305 42.43 75.2305 41.42 76.2205 40.63C77.2105 39.85 78.5705 39.39 80.3005 39.26V38.01L82.9405 38.25L83.8505 39.98C82.0905 40.01 80.7505 40.32 79.8405 40.89C78.9305 41.47 78.4705 42.35 78.4705 43.53C78.4705 44.91 79.2005 45.99 80.6505 46.77C82.1105 47.55 84.2705 47.95 87.1505 47.95C88.8505 47.95 90.3105 47.77 91.5405 47.42C92.7705 47.07 93.7205 46.57 94.3705 45.93C95.0305 45.29 95.3505 44.55 95.3505 43.72C95.3505 42.79 94.9305 42.02 94.1005 41.39C93.2705 40.77 92.0205 40.42 90.3605 40.36L83.8305 39.98C81.8105 39.88 80.2505 39.33 79.1305 38.32C78.0105 37.31 77.4505 36.1 77.4505 34.7C77.4505 33.2 77.9105 31.97 78.8205 31.03C79.7305 30.09 80.9705 29.44 82.5405 29.09V28.32L84.5605 28.46L84.3705 29.32C83.5105 29.38 82.8605 29.57 82.4305 29.87C82.0005 30.17 81.7805 30.57 81.7805 31.05C81.7805 31.53 81.9905 31.89 82.4005 32.13C82.8205 32.37 83.4205 32.52 84.2205 32.59L91.6605 32.97C94.4405 33.13 96.6005 33.79 98.1405 34.94C99.6805 36.09 100.44 37.66 100.44 39.64C100.44 41.46 99.9005 43.05 98.8105 44.39C97.7205 45.73 96.1605 46.78 94.1305 47.53C92.1005 48.28 89.6705 48.66 86.8605 48.66L86.8805 48.67ZM87.3605 29.66C85.0905 29.66 83.1405 29.28 81.5305 28.51C79.9105 27.74 78.6905 26.71 77.8605 25.41C77.0305 24.11 76.6105 22.7 76.6105 21.16C76.6105 18.41 77.5805 16.23 79.5105 14.63C81.4505 13.03 84.1105 12.23 87.5005 12.23C88.8105 12.23 90.0405 12.35 91.1705 12.59C92.3105 12.83 93.1805 13.09 93.7905 13.38V13.76C95.0705 14.37 96.1305 15.33 96.9805 16.64C97.8305 17.95 98.2505 19.41 98.2505 21.01C98.2505 22.61 97.8205 24.16 96.9505 25.47C96.0905 26.78 94.8205 27.81 93.1605 28.54C91.5005 29.28 89.5605 29.64 87.3505 29.64L87.3605 29.66ZM87.3605 28.94C88.5805 28.94 89.5505 28.31 90.2905 27.04C91.0305 25.78 91.3905 23.88 91.3905 21.35C91.3905 18.6 91.0405 16.52 90.3305 15.11C89.6305 13.7 88.6805 13 87.5005 13C86.2505 13 85.2805 13.61 84.5705 14.82C83.8705 16.04 83.5105 17.94 83.5105 20.53C83.5105 23.12 83.8505 25.29 84.5405 26.75C85.2305 28.21 86.1605 28.93 87.3505 28.93L87.3605 28.94ZM100.75 14.54L92.8305 13.48L92.0605 13L100.75 12.04V14.54Z" fill="white"/>
</g>
<defs>
<clipPath id="clip0_358_5947">
<rect width="100.75" height="48.67" fill="white"/>
</clipPath>
</defs>
</svg>
