<svg width="200" height="38" viewBox="0 0 200 38" fill="none" xmlns="http://www.w3.org/2000/svg">
<path d="M35.14 35.98H35.81V36.6H19.68V35.98H21.17C22.03 35.98 22.58 35.71 22.8 35.16C23.02 34.62 22.93 33.82 22.51 32.76L13.82 10.16H13.77L6.28 29.65C5.54 31.67 5.47 33.23 6.06 34.33C6.65 35.43 7.76 35.99 9.4 35.99H10.6V36.61H0V35.99H0.58C1.44 35.99 2.28 35.48 3.08 34.45C3.88 33.43 4.71 31.75 5.58 29.41L15.7 3H20.02L32.16 33.53C32.51 34.36 32.93 34.98 33.41 35.38C33.89 35.78 34.47 35.98 35.14 35.98ZM19.97 24.22L20.02 24.94H7.87L8.06 24.22H19.96H19.97Z" fill="white"/>
<path d="M44.83 35.16C45.21 35.45 45.65 35.67 46.13 35.83C46.61 35.99 47.06 36.07 47.47 36.07C49.97 36.07 51.91 35.17 53.3 33.38C54.69 31.59 55.39 29.01 55.39 25.65C55.39 23.54 55.15 21.77 54.67 20.35C54.19 18.93 53.53 17.85 52.7 17.11C51.87 16.37 50.88 16.01 49.72 16.01C48.92 16.01 48.22 16.15 47.61 16.42C47 16.69 46.47 17.05 46.03 17.5V17.55L45.79 17.31C46.4 15.77 47.43 14.54 48.89 13.61C50.35 12.68 51.95 12.22 53.71 12.22C55.47 12.22 57.13 12.72 58.58 13.71C60.04 14.7 61.19 16.09 62.04 17.86C62.89 19.64 63.31 21.66 63.31 23.93C63.31 26.78 62.77 29.19 61.68 31.15C60.59 33.12 59.04 34.62 57.02 35.66C55 36.7 52.6 37.22 49.82 37.22C48.57 37.22 47.2 37.09 45.72 36.84C44.23 36.58 42.85 36.25 41.57 35.83L39.22 37.22H38.88V5.02C38.88 4.35 38.78 3.9 38.59 3.68C38.4 3.46 38.08 3.41 37.63 3.54L36.38 3.88V3.26L47.37 0V0.58L46.07 1.06V36.2L44.82 35.19L44.83 35.16ZM45.74 16.3H46.51L46.46 16.83H45.74V16.3Z" fill="white"/>
<path d="M78.8601 37.13C76.3601 37.13 74.1801 36.63 72.3101 35.64C70.4401 34.65 68.9901 33.22 67.9701 31.34C66.9501 29.47 66.4301 27.27 66.4301 24.74C66.4301 22.21 66.9601 20.02 68.0101 18.16C69.0701 16.3 70.5701 14.87 72.5201 13.86C74.47 12.85 76.74 12.35 79.34 12.35C81.9401 12.35 84.0301 12.85 85.9201 13.86C87.8101 14.87 89.2601 16.3 90.2901 18.16C91.3101 20.02 91.8301 22.21 91.8301 24.74C91.8301 27.27 91.3001 29.47 90.2501 31.34C89.1901 33.21 87.6901 34.64 85.7401 35.64C83.7901 36.63 81.5001 37.13 78.8801 37.13H78.8601ZM79.0001 36.46C80.0601 36.46 80.9401 36.07 81.6601 35.28C82.3801 34.5 82.9201 33.29 83.2901 31.66C83.6601 30.03 83.84 27.92 83.84 25.32C83.84 21.06 83.4501 17.95 82.6601 15.98C81.8801 14.01 80.7201 13.03 79.1801 13.03C78.1201 13.03 77.2401 13.41 76.5401 14.18C75.8401 14.95 75.3001 16.16 74.9301 17.8C74.5601 19.45 74.3801 21.57 74.3801 24.16C74.3801 27.01 74.5601 29.34 74.9101 31.14C75.2601 32.95 75.7701 34.28 76.4501 35.15C77.1301 36.02 77.9701 36.45 78.9901 36.45L79.0001 36.46Z" fill="white"/>
<path d="M103.87 29.07C103.87 30.48 104.14 31.59 104.69 32.41C105.23 33.23 106.13 33.63 107.38 33.63C108.15 33.63 108.88 33.41 109.59 32.98C110.29 32.55 110.82 32.03 111.17 31.42L114.15 30.7L114.01 32.76H110.55L111.32 31.94C110.84 33.38 109.94 34.66 108.63 35.78C107.32 36.9 105.65 37.46 103.64 37.46C101.63 37.46 99.94 36.72 98.7 35.25C97.45 33.78 96.83 31.81 96.83 29.35V15C96.83 14.49 96.73 14.08 96.52 13.78C96.31 13.48 95.95 13.36 95.44 13.42L94.1 13.61V13.03L103.65 11.88L103.89 12.12V29.06L103.87 29.07ZM118.27 34.35C118.27 34.89 118.37 35.3 118.58 35.57C118.79 35.84 119.16 35.98 119.71 35.98H120.72V36.6H111.07L110.83 36.31L111.26 32.57L111.55 31.9L111.17 31.8V15C111.17 14.46 111.05 14.05 110.81 13.78C110.57 13.51 110.21 13.4 109.73 13.47L108.29 13.66V13.08L118.03 11.88L118.27 12.12V34.34V34.35Z" fill="white"/>
<path d="M131.66 37.37C129.64 37.37 128.08 36.77 126.98 35.57C125.88 34.37 125.32 32.79 125.32 30.84V13.52H123.21V12.9H125.32L131.85 5.22V3.01H132.47V12.9L139 12.42V13.81L132.47 13.52V29.7C132.47 31.3 132.73 32.45 133.24 33.16C133.75 33.86 134.52 34.22 135.54 34.22C136.21 34.22 136.83 34.04 137.39 33.69C137.95 33.34 138.44 32.76 138.85 31.96L139.28 32.2C138.64 33.86 137.67 35.14 136.38 36.04C135.08 36.94 133.51 37.38 131.65 37.38L131.66 37.37Z" fill="white"/>
<path d="M160.27 29.07C160.27 30.48 160.54 31.59 161.09 32.41C161.63 33.23 162.53 33.63 163.78 33.63C164.55 33.63 165.28 33.41 165.99 32.98C166.69 32.55 167.22 32.03 167.57 31.42L170.55 30.7L170.41 32.76H166.95L167.72 31.94C167.24 33.38 166.34 34.66 165.03 35.78C163.72 36.9 162.05 37.46 160.04 37.46C158.03 37.46 156.34 36.72 155.1 35.25C153.85 33.78 153.23 31.81 153.23 29.35V15C153.23 14.49 153.13 14.08 152.92 13.78C152.71 13.48 152.35 13.36 151.84 13.42L150.5 13.61V13.03L160.05 11.88L160.29 12.12V29.06L160.27 29.07ZM174.67 34.35C174.67 34.89 174.77 35.3 174.98 35.57C175.19 35.84 175.56 35.98 176.11 35.98H177.12V36.6H167.47L167.23 36.31L167.66 32.57L167.95 31.9L167.57 31.8V15C167.57 14.46 167.45 14.05 167.21 13.78C166.97 13.51 166.61 13.4 166.13 13.47L164.69 13.66V13.08L174.43 11.88L174.67 12.12V34.34V34.35Z" fill="white"/>
<path d="M181.15 36.84L180.19 26.66H180.81L181.53 34.29L180.86 27.81C182.08 30.98 183.44 33.23 184.94 34.55C186.44 35.88 188.06 36.54 189.79 36.54C190.97 36.54 191.92 36.22 192.62 35.58C193.32 34.94 193.68 34.06 193.68 32.94C193.68 32.3 193.51 31.72 193.18 31.19C192.85 30.66 192.36 30.19 191.72 29.77C191.08 29.35 190.3 28.97 189.37 28.62L186.87 27.56C185.14 26.89 183.7 25.9 182.55 24.61C181.4 23.31 180.82 21.79 180.82 20.03C180.82 18.49 181.24 17.13 182.07 15.95C182.9 14.77 184.06 13.85 185.55 13.19C187.04 12.53 188.77 12.21 190.76 12.21C191.78 12.21 192.82 12.33 193.88 12.57C194.94 12.81 195.9 13.12 196.76 13.51C197.08 13.61 197.29 13.59 197.38 13.46C197.48 13.33 197.52 13.16 197.52 12.93V12.31H198.1L199.06 21.43H198.44L197.53 13.75L198.54 20.71C197.42 17.99 196.15 16.01 194.72 14.78C193.3 13.55 191.83 12.93 190.33 12.93C189.18 12.93 188.27 13.22 187.59 13.79C186.92 14.37 186.58 15.15 186.58 16.14C186.58 17.07 186.88 17.85 187.47 18.49C188.06 19.13 188.9 19.64 189.99 20.03L193.25 21.18C195.11 21.82 196.62 22.8 197.79 24.13C198.96 25.46 199.54 27.15 199.54 29.19C199.54 30.82 199.13 32.25 198.32 33.46C197.5 34.68 196.32 35.61 194.77 36.27C193.22 36.93 191.37 37.25 189.23 37.25C188.27 37.25 187.2 37.1 186.01 36.79C184.83 36.49 183.72 36.11 182.7 35.66C182.25 35.47 181.97 35.42 181.86 35.52C181.75 35.62 181.69 35.82 181.69 36.14V36.81H181.16L181.15 36.84Z" fill="white"/>
</svg>
