<svg width="29" height="38" viewBox="0 0 29 38" fill="none" xmlns="http://www.w3.org/2000/svg">
<path d="M23.0348 5.83295C23.0348 5.83295 21.0756 8.22699 21.2672 11.2874C21.4587 14.3478 23.5774 16.65 23.5774 16.65L25.9635 18.8166C27.2961 20.0296 27.352 22.1603 26.0832 23.5568L19.2043 31.122C17.9354 32.5145 15.8087 32.6662 14.4761 31.4532L12.6885 29.8292L8.06003 34.9205C6.65952 36.4607 5.25102 35.5071 5.25102 35.5071L6.20066 34.2502C6.20066 34.2502 8.15978 31.8562 7.96826 28.7958C7.77673 25.7354 5.65801 23.4331 5.65801 23.4331L3.03653 21.0471C1.70385 19.8341 1.64799 17.7034 2.91683 16.3069L9.79571 8.74171C11.0646 7.34519 13.1913 7.19755 14.5239 8.41053L16.5509 10.2539L21.4826 4.83144L23.1944 3C23.1944 3 23.9126 4.42046 23.0427 5.82896L23.0348 5.83295Z" stroke="url(#paint0_linear_1337_2535)" stroke-width="2.5" stroke-miterlimit="10"/>
<defs>
<linearGradient id="paint0_linear_1337_2535" x1="0.997608" y1="19.0401" x2="27.9984" y2="19.0401" gradientUnits="userSpaceOnUse">
<stop stop-color="#EFD06A"/>
<stop offset="0.22" stop-color="#765A21"/>
<stop offset="0.61" stop-color="#AA7F37"/>
<stop offset="1" stop-color="#ECDAA2"/>
</linearGradient>
</defs>
</svg>
