<svg width="539" height="106" viewBox="0 0 539 106" fill="none" xmlns="http://www.w3.org/2000/svg">
<path d="M0 33.9135V33.2878H1.26194C1.84748 33.2878 2.27149 33.1464 2.54407 32.8739C2.81665 32.6014 2.95799 32.1573 2.95799 31.5416V2.37193C2.95799 1.75624 2.81665 1.31213 2.54407 1.03961C2.27149 0.767092 1.83739 0.625786 1.26194 0.625786H0V0H18.1215C21.9376 0 24.8855 0.787279 26.9651 2.35174C29.0448 3.91621 30.1048 6.23767 30.1351 9.30604C30.1351 11.7284 29.6405 13.6865 28.6612 15.1904C27.6718 16.6943 26.1373 17.7945 24.0576 18.4809C21.978 19.1773 19.2824 19.5205 15.9913 19.5205H14.053V18.7433H15.1635C17.1624 18.7433 18.6767 17.9661 19.6964 16.4218C20.716 14.8675 21.2208 12.6066 21.2208 9.63912C21.2208 6.43953 20.6554 4.15845 19.5247 2.78575C18.394 1.41306 16.7485 0.726719 14.5779 0.726719H11.7714V31.0571C11.7714 31.8343 11.9531 32.3995 12.3266 32.7528C12.7002 33.1061 13.3059 33.2878 14.1438 33.2878H15.8399V33.9135H0Z" fill="#0E2A3F"/>
<path d="M32.7601 33.9136V33.2878H33.6283C34.1432 33.2878 34.5268 33.1768 34.7691 32.9446C35.0114 32.7226 35.1325 32.3491 35.1325 31.8343V12.2129C35.1325 11.6275 34.9912 11.2137 34.7186 10.9513C34.446 10.6888 34.0523 10.5778 33.5274 10.6081L32.75 10.709V10.1236L42.4417 9.15466L42.684 9.3969L42.0076 15.8364L41.4725 16.3209H42.3407V31.3398C42.3407 32.016 42.4922 32.5106 42.8051 32.8134C43.108 33.1162 43.5926 33.2777 44.2387 33.2777H46.2275V33.9035H32.7601V33.9136ZM39.2515 17.6835V15.6447H42.2095C43.2393 13.4443 44.2993 11.789 45.3795 10.6586C46.4597 9.52812 47.7015 8.96289 49.0846 8.96289C50.2455 8.96289 51.1844 9.32625 51.8911 10.053C52.5978 10.7797 52.9612 11.7688 52.9612 13.0305C52.9612 14.2922 52.6079 15.2308 51.8911 15.9374C51.1844 16.6439 50.296 17.0073 49.2259 17.0073C48.5495 17.0073 47.9034 16.8761 47.2876 16.6237C47.2573 15.6548 47.1361 14.9079 46.9241 14.3729C46.7121 13.838 46.379 13.5755 45.9348 13.5755C45.4502 13.5755 44.8848 13.838 44.2387 14.3729C43.5926 14.9079 42.9667 15.7254 42.3508 16.8155L39.2515 17.6835Z" fill="#0E2A3F"/>
<path d="M67.0141 34.4485C64.4902 34.4485 62.2894 33.9438 60.4015 32.9446C58.5136 31.9453 57.0498 30.502 56.02 28.6045C54.9903 26.717 54.4653 24.4965 54.4653 21.9429C54.4653 19.3893 55.0004 17.1788 56.0604 15.3015C57.1305 13.4241 58.6449 11.9808 60.6135 10.9613C62.5821 9.94192 64.8738 9.43726 67.4987 9.43726C70.1235 9.43726 72.2335 9.94192 74.1415 10.9613C76.0496 11.9808 77.5134 13.4241 78.5532 15.3015C79.583 17.1788 80.108 19.3893 80.108 21.9429C80.108 24.4965 79.5729 26.717 78.5129 28.6045C77.4427 30.4919 75.9284 31.9353 73.9598 32.9446C71.9912 33.9438 69.6793 34.4485 67.0343 34.4485H67.0141ZM67.1554 33.7722C68.2255 33.7722 69.1139 33.3786 69.8408 32.5812C70.5677 31.7939 71.1128 30.5727 71.4864 28.9274C71.8599 27.2822 72.0416 25.1525 72.0416 22.5283C72.0416 18.2285 71.6479 15.0895 70.8504 13.1011C70.0629 11.1127 68.8918 10.1236 67.3371 10.1236C66.267 10.1236 65.3786 10.5071 64.6719 11.2843C63.9652 12.0615 63.4201 13.2828 63.0465 14.9381C62.673 16.6035 62.4913 18.7433 62.4913 21.3575C62.4913 24.2341 62.673 26.5858 63.0263 28.4026C63.3797 30.2295 63.8946 31.5719 64.581 32.45C65.2574 33.318 66.1156 33.7621 67.1453 33.7621L67.1554 33.7722Z" fill="#0E2A3F"/>
<path d="M93.767 46.0759C89.8601 46.0759 86.8415 45.6318 84.7013 44.7436C82.5711 43.8554 81.501 42.624 81.501 41.0394C81.501 39.7777 82.0058 38.7583 83.0052 37.9609C84.0047 37.1736 85.3777 36.7093 87.1242 36.5781V35.3165L89.7894 35.5587L90.7081 37.3049C88.9313 37.3351 87.5785 37.648 86.6598 38.2233C85.7411 38.8088 85.2767 39.697 85.2767 40.888C85.2767 42.2809 86.0137 43.3709 87.4775 44.1582C88.9515 44.9455 91.1321 45.3492 94.0396 45.3492C95.7559 45.3492 97.2298 45.1675 98.4715 44.8143C99.7133 44.461 100.672 43.9563 101.329 43.3104C101.995 42.6644 102.318 41.9175 102.318 41.0798C102.318 40.1411 101.894 39.3639 101.056 38.728C100.218 38.1022 98.9561 37.749 97.2803 37.6884L90.6879 37.3049C88.6486 37.2039 87.0737 36.6488 85.943 35.6294C84.8123 34.6099 84.247 33.3886 84.247 31.9756C84.247 30.4616 84.7113 29.2201 85.63 28.2713C86.5487 27.3226 87.8006 26.6665 89.3856 26.3132V25.536L91.4249 25.6774L91.2331 26.5454C90.3648 26.6059 89.7086 26.7977 89.2745 27.1005C88.8404 27.4033 88.6183 27.807 88.6183 28.2915C88.6183 28.776 88.8303 29.1394 89.2442 29.3816C89.6683 29.6238 90.274 29.7752 91.0816 29.8459L98.5927 30.2294C101.399 30.3909 103.58 31.0571 105.135 32.2178C106.689 33.3786 107.457 34.9632 107.457 36.9617C107.457 38.7987 106.911 40.4035 105.811 41.756C104.711 43.1085 103.136 44.1683 101.086 44.9253C99.0369 45.6823 96.5837 46.0659 93.7468 46.0659L93.767 46.0759ZM94.2516 26.8885C91.9599 26.8885 89.9913 26.505 88.3659 25.7278C86.7305 24.9506 85.4988 23.911 84.6609 22.5989C83.8229 21.2868 83.3989 19.8636 83.3989 18.3092C83.3989 15.5336 84.3782 13.3332 86.3266 11.7183C88.2852 10.1034 90.9706 9.2959 94.393 9.2959C95.7155 9.2959 96.9572 9.41702 98.098 9.65926C99.2489 9.9015 100.127 10.1639 100.743 10.4566V10.8402C102.035 11.4559 103.105 12.4248 103.964 13.7471C104.822 15.0693 105.246 16.5429 105.246 18.1578C105.246 19.7728 104.812 21.3372 103.933 22.6595C103.065 23.9817 101.783 25.0213 100.107 25.7581C98.4312 26.505 96.4726 26.8684 94.2415 26.8684L94.2516 26.8885ZM94.2516 26.1618C95.4833 26.1618 96.4625 25.526 97.2096 24.2441C97.9567 22.9723 98.3201 21.0546 98.3201 18.501C98.3201 15.7253 97.9668 13.6259 97.25 12.2028C96.5433 10.7796 95.5842 10.0731 94.393 10.0731C93.131 10.0731 92.1517 10.6888 91.435 11.9101C90.7283 13.1415 90.3648 15.0592 90.3648 17.6734C90.3648 20.2875 90.7081 22.4778 91.4047 23.9514C92.1013 25.425 93.0402 26.1517 94.2415 26.1517L94.2516 26.1618ZM107.77 11.6275L99.7739 10.5576L98.9965 10.0731L107.77 9.10413V11.6275Z" fill="#0E2A3F"/>
<path d="M109.9 33.9136V33.2878H110.768C111.283 33.2878 111.666 33.1768 111.909 32.9446C112.151 32.7226 112.272 32.3491 112.272 31.8343V12.2129C112.272 11.6275 112.131 11.2137 111.858 10.9513C111.586 10.6888 111.192 10.5778 110.667 10.6081L109.89 10.709V10.1236L119.581 9.15466L119.824 9.3969L119.147 15.8364L118.612 16.3209H119.48V31.3398C119.48 32.016 119.632 32.5106 119.945 32.8134C120.248 33.1162 120.732 33.2777 121.378 33.2777H123.367V33.9035H109.9V33.9136ZM116.391 17.6835V15.6447H119.349C120.379 13.4443 121.439 11.789 122.519 10.6586C123.599 9.52812 124.841 8.96289 126.224 8.96289C127.385 8.96289 128.324 9.32625 129.031 10.053C129.737 10.7797 130.101 11.7688 130.101 13.0305C130.101 14.2922 129.748 15.2308 129.031 15.9374C128.324 16.6439 127.436 17.0073 126.366 17.0073C125.689 17.0073 125.043 16.8761 124.427 16.6237C124.397 15.6548 124.276 14.9079 124.064 14.3729C123.852 13.838 123.519 13.5755 123.074 13.5755C122.59 13.5755 122.024 13.838 121.378 14.3729C120.732 14.9079 120.106 15.7254 119.49 16.8155L116.391 17.6835Z" fill="#0E2A3F"/>
<path d="M137.865 34.398C135.926 34.398 134.412 33.8631 133.312 32.8033C132.211 31.7334 131.666 30.3506 131.666 28.6347C131.666 26.4344 132.655 24.6479 134.624 23.255C136.593 21.8621 139.692 20.6509 143.932 19.6214L146.305 18.9956V19.5306L144.366 20.0655C142.367 20.6509 140.853 21.4988 139.833 22.6292C138.814 23.7597 138.309 25.1626 138.309 26.8482C138.309 28.1704 138.632 29.1798 139.278 29.8762C139.924 30.5726 140.752 30.9158 141.751 30.9158C142.499 30.9158 143.195 30.7543 143.861 30.4313C144.528 30.1084 145.063 29.6441 145.487 29.0284L145.588 29.6138C145.002 31.0975 144.023 32.2683 142.63 33.1263C141.237 33.9842 139.662 34.4081 137.885 34.4081L137.865 34.398ZM151.09 34.398C149.252 34.398 147.839 34.0145 146.87 33.2575C145.901 32.5005 145.416 31.481 145.416 30.2194V15.4024C145.416 13.6865 144.992 12.4047 144.154 11.5568C143.316 10.709 142.155 10.275 140.661 10.275C139.793 10.275 138.985 10.3961 138.238 10.6383C137.491 10.8806 136.754 11.2439 136.007 11.7284L137.027 10.8099L138.864 10.3759V18.1781C138.511 18.3698 138.117 18.5414 137.673 18.6827C137.239 18.824 136.805 18.9048 136.391 18.9048C135.422 18.9048 134.624 18.6121 133.988 18.0065C133.362 17.411 133.039 16.6237 133.039 15.6547C133.039 14.494 133.453 13.4241 134.271 12.4551C135.088 11.4862 136.27 10.7191 137.784 10.1539C139.298 9.58864 141.095 9.30603 143.165 9.30603C146.204 9.30603 148.556 9.98228 150.211 11.3449C151.877 12.6974 152.705 14.7362 152.705 17.4513V29.1293C152.705 29.967 152.846 30.6029 153.139 31.0168C153.432 31.4407 153.927 31.6425 154.643 31.6425C155.259 31.6425 155.724 31.4306 156.047 31.0168C156.37 30.5928 156.531 29.9973 156.531 29.2201V27.3832H157.117V29.2706C157.117 31.0168 156.632 32.3087 155.663 33.1464C154.694 33.9842 153.159 34.4081 151.06 34.4081L151.09 34.398ZM145.032 29.6945H145.759V30.3708H144.932L145.032 29.6945Z" fill="#0E2A3F"/>
<path d="M168.585 9.39687L168.202 13.9994L167.768 14.7261L168.303 14.8271V31.8343C168.303 32.3188 168.414 32.6822 168.646 32.9244C168.868 33.1666 169.231 33.2878 169.716 33.2878H170.826V33.9135H158.52V33.2878H159.631C160.085 33.2878 160.428 33.1868 160.67 32.9749C160.913 32.7629 161.034 32.3894 161.034 31.8343V12.2129C161.034 11.7284 160.933 11.3348 160.721 11.0219C160.509 10.7191 160.166 10.5778 159.681 10.6081L158.52 10.709V10.1236L168.353 9.15463L168.595 9.39687H168.585ZM183.072 31.8242C183.072 32.3087 183.193 32.6721 183.436 32.9143C183.678 33.1565 184.021 33.2777 184.476 33.2777H185.586V33.9034H173.28V33.2777H174.39C174.875 33.2777 175.228 33.1565 175.46 32.9143C175.682 32.6721 175.804 32.3087 175.804 31.8242V17.5826C175.804 16.1594 175.521 15.0289 174.956 14.1912C174.39 13.3535 173.482 12.9295 172.22 12.9295C171.412 12.9295 170.635 13.1516 169.898 13.5856C169.151 14.0196 168.626 14.5445 168.303 15.1602L165.203 15.9373L165.345 13.8581H168.929L168.06 14.6858C168.575 13.2021 169.524 11.9 170.897 10.7897C172.27 9.67948 173.956 9.11426 175.965 9.11426C178.095 9.11426 179.822 9.86116 181.124 11.3449C182.436 12.8286 183.082 14.817 183.082 17.2999V31.8343L183.072 31.8242ZM197.852 31.8242C197.852 32.339 197.963 32.7124 198.195 32.9345C198.418 33.1565 198.781 33.2777 199.266 33.2777H200.336V33.9034H188.08V33.2777H189.19C189.645 33.2777 189.988 33.1565 190.23 32.9143C190.472 32.6721 190.593 32.3087 190.593 31.8242V17.5826C190.593 16.1897 190.321 15.0693 189.766 14.2114C189.221 13.3535 188.251 12.9295 186.858 12.9295C186.081 12.9295 185.263 13.1516 184.415 13.6058C183.557 14.06 182.941 14.5747 182.547 15.1602L179.589 15.9373L179.731 13.8581H183.173L182.345 14.6858C182.699 13.7471 183.264 12.8589 184.041 12.0211C184.819 11.1834 185.758 10.4869 186.878 9.94191C187.989 9.39687 189.231 9.11426 190.583 9.11426C192.784 9.11426 194.541 9.86116 195.863 11.3449C197.186 12.8286 197.852 14.817 197.852 17.2999V31.8343V31.8242Z" fill="#0E2A3F"/>
<path d="M208.321 18.067C206.999 18.067 205.919 17.6532 205.071 16.8356C204.233 16.008 203.809 14.9179 203.809 13.5654C203.809 12.2129 204.233 11.1632 205.071 10.3456C205.908 9.51799 206.989 9.11426 208.321 9.11426C209.654 9.11426 210.764 9.52808 211.592 10.3456C212.42 11.1733 212.824 12.2432 212.824 13.5654C212.824 14.9583 212.41 16.0484 211.592 16.8558C210.764 17.6633 209.674 18.067 208.321 18.067ZM208.321 34.7816C206.999 34.7816 205.919 34.3677 205.071 33.5502C204.233 32.7225 203.809 31.6324 203.809 30.2799C203.809 28.9274 204.233 27.8777 205.071 27.0299C205.908 26.1921 206.989 25.7682 208.321 25.7682C209.654 25.7682 210.764 26.1921 211.592 27.0299C212.42 27.8676 212.824 28.9476 212.824 30.2799C212.824 31.6728 212.41 32.7629 211.592 33.5704C210.764 34.3778 209.674 34.7816 208.321 34.7816Z" fill="#0E2A3F"/>
<path d="M0 94.4735V93.8477H1.16098C1.74653 93.8477 2.19073 93.7064 2.49359 93.4339C2.79646 93.1613 2.95799 92.7172 2.95799 92.1015V62.9319C2.95799 62.3868 2.81665 61.9528 2.54407 61.65C2.27149 61.3472 1.8071 61.1857 1.16098 61.1857H0V60.5599H17.6369C21.8972 60.5599 25.1782 61.2059 27.4699 62.4979C29.7616 63.7898 30.9125 65.97 30.9125 69.0383C30.9125 71.4002 30.3875 73.227 29.3376 74.5392C28.2877 75.8513 26.7329 76.7597 24.6634 77.2745C22.5938 77.7892 19.8478 78.0517 16.4254 78.0517H14.2448C14.9515 78.9197 15.6783 79.4849 16.4254 79.7271C17.1725 79.9694 18.3133 80.0905 19.868 80.0905H24.2293L32.4167 92.253C32.7701 92.7677 33.1335 93.1614 33.507 93.444C33.8806 93.7165 34.2541 93.8578 34.6478 93.8578H35.2334V94.4836H23.7043L13.427 78.0617H11.7815V91.7281C11.7815 92.4043 11.9531 92.9292 12.2863 93.3027C12.6295 93.6761 13.1948 93.8578 14.0025 93.8578H15.0726V94.4836H0V94.4735ZM15.5572 77.3249C17.6571 77.3249 19.2522 76.7092 20.3526 75.488C21.453 74.2566 21.9981 72.1975 21.9981 69.2907C21.9981 67.1912 21.7659 65.5662 21.2915 64.4257C20.8271 63.2851 20.1002 62.4676 19.1108 62.0033C18.1215 61.539 16.7586 61.2967 15.012 61.2967H11.7613V77.335H15.537L15.5572 77.3249Z" fill="#0E2A3F"/>
<path d="M46.177 95.2002C43.9459 95.2002 41.9369 94.6652 40.1399 93.6054C38.3429 92.5355 36.9396 91.0619 35.9199 89.1745C34.9003 87.287 34.3955 85.1472 34.3955 82.7551C34.3955 80.1712 34.9003 77.9204 35.9199 75.9926C36.9396 74.0749 38.363 72.5811 40.1802 71.5313C42.0075 70.4816 44.0771 69.9568 46.4092 69.9568C48.4485 69.9568 50.2556 70.3807 51.8406 71.2386C53.4256 72.0966 54.6572 73.3078 55.5456 74.8722C56.434 76.4367 56.8782 78.2434 56.8782 80.2722V80.4135H40.9374L40.8869 79.6867H46.4597C48.0447 79.6867 49.1653 79.4344 49.8316 78.9398C50.4979 78.4352 50.8209 77.5268 50.8209 76.2046C50.8209 75.175 50.6291 74.2263 50.2354 73.3683C49.8417 72.5104 49.3066 71.8442 48.61 71.3598C47.9134 70.8753 47.0957 70.633 46.1669 70.633C45.1371 70.633 44.2487 70.9459 43.5017 71.5818C42.7546 72.2076 42.1893 73.1564 41.8056 74.418C41.422 75.6797 41.2201 77.224 41.2201 79.0711C41.2201 81.4329 41.5633 83.4415 42.2397 85.1069C42.9161 86.7723 43.8954 88.044 45.1674 88.9322C46.4395 89.8204 48.0043 90.2645 49.8417 90.2645C51.679 90.2645 53.1429 89.8103 54.425 88.912C55.6971 88.0036 56.5855 86.7319 57.07 85.0867L57.5546 85.228C57.1003 88.3973 55.8788 90.85 53.9001 92.5961C51.9112 94.3422 49.3369 95.2103 46.1669 95.2103L46.177 95.2002Z" fill="#0E2A3F"/>
<path d="M61.6835 94.7157L60.7144 84.4407H61.3403L62.0672 92.1419L61.3908 85.6014C62.6224 88.801 63.9954 91.072 65.5097 92.4043C67.0241 93.7467 68.6595 94.4129 70.4061 94.4129C71.5973 94.4129 72.5564 94.0899 73.2631 93.4439C73.9698 92.7979 74.3332 91.9097 74.3332 90.7793C74.3332 90.1333 74.1616 89.5479 73.8284 89.0129C73.4852 88.478 73.0006 88.0036 72.3545 87.5797C71.7084 87.1558 70.9209 86.7722 69.982 86.419L67.4582 85.3491C65.7116 84.6728 64.2579 83.6736 63.0969 82.3715C61.9359 81.0594 61.3504 79.5252 61.3504 77.7488C61.3504 76.1944 61.7744 74.8217 62.6123 73.6307C63.4502 72.4397 64.6213 71.5111 66.1256 70.845C67.6298 70.1788 69.3763 69.8558 71.3853 69.8558C72.4151 69.8558 73.465 69.977 74.5351 70.2192C75.6053 70.4614 76.5744 70.7743 77.4426 71.168C77.7657 71.2689 77.9777 71.2487 78.0686 71.1175C78.1695 70.9863 78.2099 70.8147 78.2099 70.5826V69.9568H78.7954L79.7646 79.1619H79.1387L78.22 71.4102L79.2396 78.4352C78.1089 75.6898 76.8268 73.6913 75.3831 72.4498C73.9496 71.2083 72.4655 70.5826 70.9512 70.5826C69.7902 70.5826 68.8715 70.8753 68.185 71.4506C67.5086 72.036 67.1654 72.8233 67.1654 73.8225C67.1654 74.7612 67.4683 75.5485 68.0639 76.1944C68.6595 76.8404 69.5076 77.3552 70.608 77.7488L73.8991 78.9095C75.7769 79.5555 77.3013 80.5447 78.4825 81.8871C79.6636 83.2295 80.2492 84.9353 80.2492 86.9943C80.2492 88.6395 79.8353 90.0828 79.0175 91.3041C78.1897 92.5355 76.9984 93.4742 75.4336 94.1403C73.8688 94.8065 72.0012 95.1295 69.8407 95.1295C68.8715 95.1295 67.7913 94.9781 66.5899 94.6652C65.3987 94.3624 64.2781 93.9789 63.2483 93.5247C62.794 93.3329 62.5114 93.2824 62.4003 93.3833C62.2893 93.4843 62.2287 93.6862 62.2287 94.0091V94.6854H61.6936L61.6835 94.7157Z" fill="#0E2A3F"/>
<path d="M83.6919 94.4734V93.8476H84.5601C85.075 93.8476 85.4586 93.7265 85.7009 93.4842C85.9432 93.242 86.0643 92.8484 86.0643 92.2932V72.5709C86.0643 72.0561 85.923 71.6726 85.6504 71.4303C85.3778 71.1881 84.9437 71.0973 84.3683 71.1679L83.6919 71.2688V70.6834L93 69.5227L93.2927 69.8154V92.2932C93.2927 92.8383 93.4139 93.242 93.6562 93.4842C93.8985 93.7265 94.2821 93.8476 94.797 93.8476H95.5743V94.4734H83.702H83.6919ZM89.6483 67.2012C88.3863 67.2012 87.3768 66.8177 86.6196 66.0607C85.8624 65.3037 85.4788 64.3045 85.4788 63.0832C85.4788 61.8619 85.8624 60.8626 86.6398 60.1056C87.4171 59.3486 88.4166 58.9651 89.6483 58.9651C90.8799 58.9651 91.9197 59.3486 92.6769 60.1056C93.4341 60.8626 93.8177 61.8619 93.8177 63.0832C93.8177 64.3045 93.4341 65.3441 92.6769 66.091C91.9197 66.8379 90.9102 67.2012 89.6483 67.2012Z" fill="#0E2A3F"/>
<path d="M108.113 95.1496C106.306 95.1496 104.66 94.645 103.196 93.6256C101.722 92.6061 100.572 91.183 99.7336 89.3662C98.8957 87.5393 98.4717 85.45 98.4717 83.0881C98.4717 80.4033 98.9866 78.0617 100.026 76.0632C101.056 74.0647 102.5 72.5305 104.337 71.4606C106.175 70.3907 108.274 69.8659 110.637 69.8659C111.828 69.8659 112.888 69.987 113.807 70.2293C114.725 70.4715 115.563 70.8147 116.3 71.2689L116.351 72.2883C115.967 71.9653 115.483 71.713 114.897 71.5414C114.312 71.3698 113.716 71.279 113.1 71.279C111.131 71.279 109.526 72.1167 108.305 73.8023C107.073 75.4879 106.467 77.9002 106.467 81.0695C106.467 83.1992 106.73 85.0361 107.245 86.5703C107.76 88.1045 108.517 89.2652 109.496 90.0626C110.485 90.8499 111.656 91.2536 113.009 91.2536C113.686 91.2536 114.322 91.1325 114.897 90.8903C115.483 90.648 115.927 90.3049 116.25 89.8507L116.3 90.2342C116.078 90.8196 115.674 91.4858 115.089 92.2428C114.503 92.9998 113.635 93.6861 112.474 94.3018C111.313 94.9175 109.859 95.2102 108.113 95.1698V95.1496ZM115.967 94.4734L115.725 94.1807L116.26 90.8903H115.917V62.5987C115.917 61.9225 115.816 61.4683 115.624 61.2462C115.432 61.0241 115.089 60.9737 114.604 61.1049L113.393 61.4481V60.8223L124.488 57.5319V58.1173L123.175 58.6018V92.374C123.175 92.8585 123.286 93.2319 123.519 93.4843C123.741 93.7467 124.104 93.8678 124.589 93.8678H125.457V94.4936H115.957L115.967 94.4734Z" fill="#0E2A3F"/>
<path d="M139.994 95.2002C137.763 95.2002 135.754 94.6652 133.957 93.6054C132.16 92.5355 130.757 91.0619 129.737 89.1745C128.718 87.287 128.213 85.1472 128.213 82.7551C128.213 80.1712 128.718 77.9204 129.737 75.9926C130.757 74.0749 132.18 72.5811 133.998 71.5313C135.825 70.4816 137.894 69.9568 140.227 69.9568C142.266 69.9568 144.073 70.3807 145.658 71.2386C147.243 72.0966 148.475 73.3078 149.363 74.8722C150.251 76.4367 150.696 78.2434 150.696 80.2722V80.4135H134.755L134.704 79.6867H140.277C141.862 79.6867 142.983 79.4344 143.649 78.9398C144.315 78.4453 144.638 77.5268 144.638 76.2046C144.638 75.175 144.446 74.2263 144.053 73.3683C143.659 72.5104 143.124 71.8442 142.427 71.3598C141.731 70.8753 140.913 70.633 139.984 70.633C138.955 70.633 138.066 70.9459 137.319 71.5818C136.572 72.2076 136.007 73.1564 135.623 74.418C135.239 75.6797 135.037 77.224 135.037 79.0711C135.037 81.4329 135.381 83.4415 136.057 85.1069C136.734 86.7723 137.713 88.044 138.985 88.9322C140.257 89.8204 141.822 90.2645 143.659 90.2645C145.496 90.2645 146.96 89.8103 148.242 88.912C149.514 88.0036 150.403 86.7319 150.887 85.0867L151.372 85.228C150.918 88.3973 149.696 90.85 147.717 92.5961C145.729 94.3422 143.154 95.2103 139.984 95.2103L139.994 95.2002Z" fill="#0E2A3F"/>
<path d="M153.947 94.4734V93.8476H155.158C155.582 93.8476 155.905 93.7366 156.127 93.5044C156.35 93.2824 156.471 92.9089 156.471 92.3942V72.7728C156.471 72.2883 156.37 71.8946 156.158 71.5817C155.946 71.2789 155.582 71.1376 155.067 71.1679L153.957 71.2689V70.6834L163.79 69.7145L164.083 69.9567L163.649 74.5593L163.305 75.286L163.739 75.3869V92.3942C163.739 92.8484 163.85 93.2016 164.083 93.4641C164.305 93.7265 164.678 93.8476 165.193 93.8476H166.304V94.4734H153.947ZM168.777 94.4734V93.8476H169.938C170.423 93.8476 170.776 93.7265 171.008 93.4842C171.23 93.242 171.351 92.8786 171.351 92.3942V78.1525C171.351 76.6991 171.059 75.5585 170.483 74.741C169.898 73.9133 168.979 73.5096 167.717 73.5096C166.879 73.5096 166.092 73.7316 165.365 74.1656C164.638 74.5997 164.093 75.1245 163.739 75.7402L160.731 76.4669L160.832 74.4281H164.365L163.497 75.2557C164.012 73.772 164.971 72.47 166.354 71.3597C167.747 70.2494 169.443 69.6842 171.442 69.6842C173.603 69.6842 175.339 70.4311 176.652 71.9148C177.964 73.3985 178.61 75.3869 178.61 77.8699V92.4043C178.61 92.919 178.721 93.2925 178.953 93.5145C179.175 93.7366 179.519 93.8577 179.973 93.8577H181.134V94.4835H168.777V94.4734Z" fill="#0E2A3F"/>
<path d="M195.621 95.2002C193.259 95.2002 191.169 94.6753 189.342 93.6256C187.514 92.5759 186.101 91.0821 185.101 89.1442C184.102 87.2063 183.597 84.9656 183.597 82.4119C183.597 80.0602 184.142 77.9305 185.223 76.0431C186.303 74.1556 187.837 72.6719 189.826 71.5818C191.815 70.4917 194.117 69.9568 196.731 69.9568C198.478 69.9568 200.083 70.2596 201.557 70.8551C203.031 71.4506 204.182 72.2783 205.02 73.328C205.858 74.3777 206.282 75.5485 206.282 76.8404C206.282 77.8397 205.949 78.738 205.292 79.5253C204.626 80.3125 203.697 80.7163 202.506 80.7163C201.729 80.7163 200.871 80.474 199.942 79.9895V71.2689C199.588 71.1074 199.195 70.9661 198.781 70.8349C198.357 70.7037 197.913 70.6431 197.428 70.6431C196.136 70.6431 194.985 71.0166 193.985 71.7534C192.986 72.5003 192.188 73.5601 191.613 74.953C191.038 76.3459 190.745 77.9709 190.745 79.8482C190.745 81.8467 191.128 83.6433 191.886 85.228C192.643 86.8126 193.683 88.044 195.015 88.9322C196.338 89.8204 197.791 90.2645 199.376 90.2645C201.285 90.2645 202.839 89.8305 204.051 88.9524C205.262 88.0844 206.11 86.7521 206.595 84.9756L207.13 85.117C206.645 88.3165 205.403 90.7894 203.394 92.5557C201.396 94.312 198.811 95.2002 195.641 95.2002H195.621Z" fill="#0E2A3F"/>
<path d="M209.674 72.6214C209.412 72.036 209.169 71.6423 208.927 71.4304C208.685 71.2184 208.321 71.1175 207.837 71.1175H207.544V70.5321H221.062V71.1175H219.124C218.477 71.1175 218.043 71.3092 217.811 71.7029C217.589 72.0864 217.619 72.5911 217.912 73.2068L224.646 87.7412L220.577 95.9773L209.674 72.6214ZM210.159 106V105.657L220.577 95.725L228.623 77.7993C229.108 76.6991 229.391 75.6292 229.471 74.5795C229.552 73.5298 229.401 72.692 229.007 72.0562C228.613 71.4203 228.018 71.1074 227.21 71.1074H226.342V70.522H234.438V71.1074H234.196C233.611 71.1074 233.065 71.3698 232.551 71.9048C232.036 72.4397 231.45 73.4188 230.804 74.8318L216.751 105.98H210.159V106ZM223.343 87.7311L223.242 87.0548H225.13L224.838 87.7311H223.333H223.343Z" fill="#0E2A3F"/>
<path d="M253.095 93.02C253.479 93.3128 253.923 93.5348 254.408 93.6963C254.892 93.8578 255.346 93.9385 255.76 93.9385C258.284 93.9385 260.243 93.0301 261.646 91.2234C263.049 89.4167 263.756 86.8127 263.756 83.4213C263.756 81.2916 263.514 79.5051 263.029 78.0718C262.545 76.6386 261.878 75.5485 261.04 74.8016C260.202 74.0547 259.203 73.6913 258.032 73.6913C257.224 73.6913 256.518 73.8326 255.902 74.1052C255.286 74.3777 254.751 74.741 254.307 75.1952V75.2457L254.064 75.0035C254.68 73.4491 255.72 72.2076 257.194 71.2689C258.668 70.3303 260.283 69.866 262.06 69.866C263.837 69.866 265.513 70.3706 266.977 71.3699C268.44 72.3691 269.611 73.7721 270.47 75.5586C271.328 77.3552 271.752 79.3941 271.752 81.6852C271.752 84.5618 271.207 86.9943 270.106 88.9726C269.006 90.961 267.441 92.475 265.402 93.5247C263.362 94.5744 260.939 95.0993 258.133 95.0993C256.871 95.0993 255.488 94.968 253.994 94.7157C252.489 94.4533 251.096 94.1202 249.804 93.6963L247.432 95.0993H247.088V62.5887C247.088 61.9124 246.987 61.4582 246.796 61.2362C246.604 61.0141 246.281 60.9637 245.826 61.0949L244.564 61.4381V60.8123L255.659 57.5219V58.1073L254.347 58.5917V94.0597L253.085 93.0402L253.095 93.02ZM254.014 73.9841H254.791L254.741 74.519H254.014V73.9841Z" fill="#0E2A3F"/>
<path d="M274.366 72.6214C274.104 72.036 273.862 71.6423 273.619 71.4304C273.377 71.2184 273.014 71.1175 272.529 71.1175H272.236V70.5321H285.754V71.1175H283.816C283.17 71.1175 282.736 71.3092 282.503 71.7029C282.281 72.0864 282.312 72.5911 282.604 73.2068L289.338 87.7412L285.27 95.9773L274.366 72.6214ZM274.851 106V105.657L285.27 95.725L293.316 77.7993C293.8 76.6991 294.083 75.6292 294.164 74.5795C294.245 73.5298 294.093 72.692 293.699 72.0562C293.306 71.4203 292.71 71.1074 291.902 71.1074H291.034V70.522H299.131V71.1074H298.889C298.303 71.1074 297.758 71.3698 297.243 71.9048C296.728 72.4397 296.143 73.4188 295.496 74.8318L281.443 105.98H274.851V106ZM288.036 87.7311L287.935 87.0548H289.823L289.53 87.7311H288.026H288.036Z" fill="#0E2A3F"/>
<path d="M308.095 94.4734L308.196 93.9385H309.548C310.134 93.9385 310.619 93.777 311.002 93.454C311.386 93.131 311.648 92.6768 311.78 92.1015L318.947 62.9318C319.079 62.3161 319.038 61.8619 318.826 61.549C318.614 61.2462 318.221 61.0847 317.635 61.0847H316.282L316.424 60.5498H327.862L327.761 61.0847H326.408C325.863 61.0847 325.398 61.2361 325.025 61.549C324.651 61.8518 324.399 62.3161 324.278 62.9318L317.11 92.1015C316.948 92.7172 316.969 93.1714 317.161 93.4843C317.352 93.7871 317.746 93.9486 318.321 93.9486H319.634L319.533 94.4835H308.095V94.4734Z" fill="#0E2A3F"/>
<path d="M342.743 95.1497C341.39 95.1497 340.451 94.7258 339.936 93.8881C339.422 93.0503 339.391 91.8088 339.835 90.1535L343.127 78.2838C343.581 76.5377 343.591 75.2053 343.147 74.2667C342.713 73.328 341.915 72.8637 340.744 72.8637C339.775 72.8637 338.755 73.2573 337.695 74.0547C336.635 74.8521 335.636 75.9724 334.717 77.4461C333.798 78.9197 333.092 80.6355 332.607 82.6037L329.7 94.4735H325.146L330.376 73.3482C330.507 72.8637 330.467 72.4801 330.255 72.1874C330.043 71.8947 329.679 71.7837 329.164 71.8443L328.094 71.9856L328.236 71.4506L335.696 70.4312L335.838 70.6734L333.657 77.6479H333.798C334.828 75.5182 336.191 73.7721 337.867 72.4196C339.543 71.0671 341.309 70.3807 343.147 70.3807C345.277 70.3807 346.731 71.0469 347.508 72.3893C348.285 73.7317 348.316 75.71 347.609 78.3242L344.318 90.3857C344.096 91.2234 344.096 91.8694 344.318 92.3236C344.54 92.7778 344.944 92.9999 345.529 92.9999C345.984 92.9999 346.468 92.8182 346.983 92.4649C347.498 92.1116 347.983 91.5767 348.437 90.8702L348.871 91.1629C348.033 92.4851 347.094 93.4843 346.064 94.1404C345.035 94.7965 343.914 95.1295 342.723 95.1295L342.743 95.1497Z" fill="#0E2A3F"/>
<path d="M364.65 71.2689C362.773 73.2371 361.279 75.1549 360.168 77.012C359.058 78.8692 358.29 80.797 357.866 82.8056C357.412 84.683 357.341 86.308 357.644 87.7009C357.947 89.0937 358.553 90.1535 359.441 90.9004C360.33 91.6473 361.44 92.0107 362.763 92.0107C364.085 92.0107 365.468 91.5464 366.71 90.6077C367.952 89.6691 369.032 88.4478 369.961 86.9237C370.889 85.3996 371.566 83.7947 372.02 82.0789C372.313 80.9181 372.485 79.5757 372.555 78.0617C372.616 76.5477 372.586 75.2861 372.454 74.2868L373.474 74.63L373.232 77.6378L368.386 72.6921C368.608 71.9452 368.981 71.38 369.496 70.9964C370.011 70.6129 370.566 70.411 371.142 70.411C372.141 70.411 372.858 70.9157 373.302 71.9351C373.736 72.9545 373.928 74.2767 373.878 75.9119C373.827 77.547 373.585 79.2931 373.131 81.1705C372.485 83.7241 371.505 86.0657 370.203 88.1954C368.891 90.3251 367.316 92.0208 365.478 93.2623C363.641 94.5038 361.662 95.1295 359.562 95.1295C357.886 95.1295 356.443 94.7359 355.252 93.9385C354.06 93.1412 353.222 92.0309 352.758 90.5976C352.294 89.1644 352.294 87.5091 352.778 85.6317C353.323 83.28 354.303 81.2714 355.706 79.6262C357.109 77.981 358.734 76.5881 360.572 75.4577L360.915 74.8319H353.889L354.131 73.9639C354.393 73.0252 354.848 72.3186 355.514 71.8342C356.18 71.3497 357.038 71.1074 358.109 71.1074H364.509L364.65 71.2992V71.2689Z" fill="#0E2A3F"/>
<path d="M383.842 95.0993C382.096 95.0993 380.612 94.5744 379.38 93.5247C378.148 92.475 377.31 91.0216 376.856 89.1644C376.402 87.3072 376.472 85.1977 377.048 82.846C377.633 80.3933 378.613 78.2333 380.006 76.3762C381.399 74.519 383.004 73.0858 384.832 72.0663C386.659 71.0469 388.506 70.5422 390.384 70.5422C391.969 70.5422 393.271 70.9258 394.281 71.6828C395.301 72.4398 395.805 73.439 395.805 74.6603C395.805 76.4973 395.109 78.0113 393.726 79.1922C392.343 80.3731 390.525 81.221 388.294 81.7357C386.063 82.2505 383.66 82.5129 381.076 82.5129L381.026 81.8871C383.065 81.8871 384.963 81.544 386.74 80.8677C388.516 80.1915 389.95 79.2427 391.03 78.0315C392.11 76.8203 392.656 75.4678 392.656 73.9841C392.656 73.116 392.433 72.4196 391.979 71.9048C391.525 71.3901 390.848 71.1277 389.94 71.1277C388.809 71.1277 387.709 71.5314 386.649 72.3388C385.589 73.1463 384.609 74.2768 383.741 75.7302C382.873 77.1836 382.187 78.8288 381.702 80.6759C381.157 82.9368 380.975 84.9151 381.167 86.6108C381.359 88.3065 381.904 89.6287 382.792 90.5876C383.681 91.5363 384.872 92.0208 386.356 92.0208C387.84 92.0208 389.233 91.5666 390.616 90.6683C392.009 89.7599 393.201 88.3872 394.2 86.5502L394.634 86.7925C393.372 89.5681 391.828 91.6575 390.011 93.0402C388.193 94.423 386.124 95.1195 383.832 95.1195L383.842 95.0993Z" fill="#0E2A3F"/>
<path d="M404.043 95.0589C402.75 95.0589 401.539 94.8368 400.408 94.4028C399.277 93.9688 398.379 93.3935 397.723 92.6869C397.056 91.9804 396.733 91.2133 396.733 90.4058C396.733 89.6589 396.955 89.0836 397.39 88.6597C397.824 88.2358 398.429 88.0339 399.207 88.0339C399.56 90.1636 400.237 91.7281 401.216 92.7071C402.205 93.6963 403.437 94.1807 404.921 94.1807C405.991 94.1807 406.91 93.8981 407.687 93.3329C408.464 92.7677 408.959 92.0006 409.191 91.0316C409.484 89.9012 409.373 88.8515 408.848 87.8825C408.323 86.9136 407.505 86.0455 406.375 85.2684L404.093 83.5727C402.77 82.5734 401.811 81.4632 401.236 80.252C400.661 79.0408 400.56 77.6883 400.943 76.2046C401.398 74.4281 402.377 73.0353 403.901 72.036C405.416 71.0368 407.112 70.5321 408.989 70.5321C410.342 70.5321 411.594 70.7441 412.725 71.1579C413.855 71.5818 414.744 72.1168 415.39 72.7829C416.036 73.4491 416.359 74.1354 416.359 74.842C416.359 75.5485 416.127 76.0229 415.652 76.3459C415.188 76.6688 414.542 76.8303 413.734 76.8303C413.542 75.7302 413.189 74.7713 412.664 73.9437C412.149 73.116 411.513 72.4801 410.746 72.0259C409.989 71.5717 409.171 71.3497 408.303 71.3497C407.364 71.3497 406.546 71.5919 405.829 72.0764C405.123 72.5609 404.679 73.227 404.517 74.0648C404.295 75.1952 404.416 76.1844 404.901 77.0221C405.385 77.8599 406.163 78.6673 407.223 79.4445L409.504 81.1402C410.928 82.1798 411.988 83.3405 412.704 84.6325C413.411 85.9244 413.563 87.398 413.139 89.0432C412.846 90.2343 412.27 91.2941 411.392 92.2126C410.514 93.131 409.444 93.8376 408.172 94.3221C406.9 94.8065 405.516 95.0488 404.032 95.0488L404.043 95.0589Z" fill="#0E2A3F"/>
<path d="M422.458 95.0992C420.903 95.0992 419.772 94.5945 419.066 93.5953C418.359 92.5961 418.228 91.2234 418.682 89.4772L423.043 71.6524H420.428L420.57 71.067H423.185L428.565 65.3542L429.242 62.6896H429.868L427.738 71.067L435.057 70.7743L434.815 71.8442L427.596 71.6524L423.336 88.9019C423.013 90.2948 423.003 91.3243 423.316 92.0006C423.619 92.6768 424.275 93.02 425.274 93.02C426.021 93.02 426.758 92.7677 427.505 92.2731C428.252 91.7785 429.01 91.0215 429.787 90.0223L430.13 90.315C429.161 91.829 428.01 93.0099 426.688 93.8476C425.365 94.6854 423.952 95.1093 422.468 95.1093L422.458 95.0992Z" fill="#0E2A3F"/>
<path d="M464.323 95.1496C463 95.1496 462.072 94.7257 461.537 93.888C461.002 93.0502 460.961 91.8088 461.415 90.1535L464.707 78.2837C465.191 76.5376 465.221 75.2053 464.808 74.2666C464.384 73.3279 463.616 72.8636 462.486 72.8636C461.577 72.8636 460.608 73.2573 459.558 74.0546C458.508 74.852 457.529 75.9824 456.63 77.4662C455.722 78.9499 455.035 80.6657 454.551 82.6037L451.542 94.4734H447.039L451.209 78.2938C451.633 76.5477 451.633 75.2154 451.209 74.2767C450.785 73.338 450.018 72.8737 448.887 72.8737C447.978 72.8737 447.009 73.2673 445.959 74.0647C444.909 74.852 443.92 75.9925 443.001 77.4763C442.083 78.96 441.376 80.6758 440.891 82.6138L437.984 94.4835H433.431L438.66 73.3582C438.791 72.8434 438.751 72.4498 438.539 72.1975C438.327 71.935 437.984 71.824 437.499 71.8543L436.389 72.0461L436.53 71.4606L443.991 70.4412L444.132 70.6835L441.951 77.6579H442.093C443.122 75.5282 444.475 73.7821 446.141 72.4296C447.807 71.0771 449.523 70.3907 451.3 70.3907C453.268 70.3907 454.601 71.0064 455.298 72.2277C455.994 73.4591 456.065 75.2658 455.52 77.6579H455.711C456.711 75.5282 458.054 73.7821 459.73 72.4296C461.405 71.0771 463.142 70.3907 464.919 70.3907C466.958 70.3907 468.351 71.067 469.108 72.4296C469.865 73.7922 469.896 75.7604 469.179 78.3443L465.928 90.4058C465.706 91.2435 465.706 91.8895 465.928 92.3437C466.15 92.7979 466.574 93.02 467.19 93.02C467.644 93.02 468.119 92.8383 468.624 92.485C469.128 92.1317 469.613 91.5968 470.098 90.8903L470.481 91.183C469.674 92.5052 468.745 93.5044 467.695 94.1605C466.645 94.8267 465.524 95.1496 464.323 95.1496Z" fill="#0E2A3F"/>
<path d="M481.092 95.0993C479.346 95.0993 477.862 94.5744 476.63 93.5247C475.398 92.475 474.56 91.0216 474.106 89.1644C473.652 87.3072 473.722 85.1977 474.298 82.846C474.883 80.3933 475.863 78.2333 477.256 76.3762C478.649 74.519 480.254 73.0858 482.082 72.0663C483.909 71.0469 485.756 70.5422 487.634 70.5422C489.219 70.5422 490.521 70.9258 491.531 71.6828C492.551 72.4398 493.055 73.439 493.055 74.6603C493.055 76.4973 492.359 78.0113 490.976 79.1922C489.593 80.3731 487.775 81.221 485.544 81.7357C483.313 82.2505 480.91 82.5129 478.326 82.5129L478.276 81.8871C480.315 81.8871 482.213 81.544 483.99 80.8677C485.766 80.1915 487.2 79.2427 488.28 78.0315C489.36 76.8203 489.906 75.4678 489.906 73.9841C489.906 73.116 489.683 72.4196 489.229 71.9048C488.775 71.3901 488.098 71.1277 487.19 71.1277C486.059 71.1277 484.959 71.5314 483.899 72.3388C482.839 73.1463 481.859 74.2768 480.991 75.7302C480.123 77.1836 479.437 78.8288 478.952 80.6759C478.407 82.9368 478.225 84.9151 478.417 86.6108C478.609 88.3065 479.154 89.6287 480.042 90.5876C480.931 91.5363 482.122 92.0208 483.606 92.0208C485.09 92.0208 486.483 91.5666 487.866 90.6683C489.259 89.7599 490.451 88.3872 491.45 86.5502L491.884 86.7925C490.622 89.5681 489.078 91.6575 487.261 93.0402C485.443 94.423 483.374 95.1195 481.082 95.1195L481.092 95.0993Z" fill="#0E2A3F"/>
<path d="M512.489 95.1497C511.136 95.1497 510.197 94.7258 509.683 93.8881C509.168 93.0503 509.137 91.8088 509.582 90.1535L512.873 78.2838C513.327 76.5377 513.337 75.2053 512.893 74.2667C512.459 73.328 511.661 72.8637 510.49 72.8637C509.521 72.8637 508.501 73.2573 507.441 74.0547C506.371 74.842 505.382 75.9724 504.463 77.4461C503.544 78.9197 502.838 80.6355 502.353 82.6037L499.446 94.4735H494.893L500.122 73.3482C500.253 72.8637 500.213 72.4801 500.001 72.1874C499.789 71.8947 499.425 71.7837 498.911 71.8443L497.84 71.9856L497.982 71.4506L505.442 70.4312L505.584 70.6734L503.403 77.6479H503.544C504.574 75.5182 505.937 73.7721 507.613 72.4196C509.289 71.0671 511.056 70.3807 512.893 70.3807C515.023 70.3807 516.477 71.0469 517.254 72.3893C518.032 73.7317 518.062 75.71 517.355 78.3242L514.064 90.3857C513.842 91.2234 513.842 91.8694 514.064 92.3236C514.286 92.7778 514.69 92.9999 515.275 92.9999C515.73 92.9999 516.214 92.8182 516.729 92.4649C517.244 92.1116 517.729 91.5767 518.183 90.8702L518.617 91.1629C517.779 92.4851 516.84 93.4843 515.811 94.1404C514.781 94.8066 513.66 95.1295 512.469 95.1295L512.489 95.1497Z" fill="#0E2A3F"/>
<path d="M526.401 95.0992C524.846 95.0992 523.716 94.5945 523.009 93.5953C522.302 92.5961 522.171 91.2234 522.625 89.4772L526.987 71.6524H524.372L524.513 71.067H527.128L532.509 65.3542L533.185 62.6896H533.811L531.681 71.067L539 70.7743L538.758 71.8442L531.54 71.6524L527.279 88.9019C526.956 90.2948 526.946 91.3243 527.259 92.0006C527.562 92.6768 528.218 93.02 529.218 93.02C529.965 93.02 530.702 92.7677 531.449 92.2731C532.196 91.7785 532.953 91.0215 533.73 90.0223L534.074 90.315C533.104 91.829 531.954 93.0099 530.631 93.8476C529.309 94.6854 527.895 95.1093 526.411 95.1093L526.401 95.0992Z" fill="#0E2A3F"/>
</svg>
