<svg width="381" height="47" viewBox="0 0 381 47" fill="none" xmlns="http://www.w3.org/2000/svg">
<path d="M0 35.18V34.56H1.15C1.73 34.56 2.17 34.42 2.47 34.15C2.77 33.88 2.93 33.44 2.93 32.83V3.94C2.93 3.4 2.79 2.97 2.52 2.67C2.25 2.37 1.79 2.21 1.15 2.21H0V1.59H17.47C21.69 1.59 24.94 2.23 27.21 3.51C29.48 4.79 30.62 6.95 30.62 9.99C30.62 12.33 30.1 14.14 29.06 15.44C28.02 16.74 26.48 17.64 24.43 18.15C22.38 18.66 19.66 18.92 16.27 18.92H14.11C14.81 19.78 15.53 20.34 16.27 20.58C17.01 20.82 18.14 20.94 19.68 20.94H24L32.11 32.99C32.46 33.5 32.82 33.89 33.19 34.17C33.56 34.44 33.93 34.58 34.32 34.58H34.9V35.2H23.48L13.3 18.93H11.67V32.47C11.67 33.14 11.84 33.66 12.17 34.03C12.5 34.4 13.07 34.58 13.87 34.58H14.93V35.2H0V35.18ZM15.41 18.19C17.49 18.19 19.07 17.58 20.16 16.37C21.25 15.15 21.79 13.11 21.79 10.23C21.79 8.15 21.56 6.54 21.09 5.41C20.63 4.27 19.91 3.47 18.93 3.01C17.95 2.55 16.6 2.31 14.87 2.31H11.65V18.2H15.39L15.41 18.19Z" fill="white"/>
<path d="M45.7403 35.9C43.5303 35.9 41.5403 35.37 39.7603 34.32C37.9803 33.26 36.5903 31.8 35.5803 29.93C34.5703 28.06 34.0703 25.94 34.0703 23.57C34.0703 21.01 34.5703 18.78 35.5803 16.87C36.5903 14.97 38.0003 13.49 39.8003 12.45C41.6103 11.41 43.6603 10.89 45.9703 10.89C47.9903 10.89 49.7803 11.31 51.3503 12.16C52.9203 13.01 54.1403 14.21 55.0203 15.76C55.9003 17.31 56.3403 19.1 56.3403 21.11V21.25H40.5503L40.5003 20.53H46.0203C47.5903 20.53 48.7003 20.28 49.3603 19.79C50.0203 19.29 50.3403 18.39 50.3403 17.08C50.3403 16.06 50.1503 15.12 49.7603 14.27C49.3803 13.42 48.8403 12.76 48.1503 12.28C47.4603 11.8 46.6503 11.56 45.7303 11.56C44.7103 11.56 43.8303 11.87 43.0903 12.5C42.3503 13.12 41.7903 14.06 41.4103 15.31C41.0303 16.56 40.8303 18.09 40.8303 19.92C40.8303 22.26 41.1703 24.25 41.8403 25.9C42.5103 27.55 43.4803 28.81 44.7403 29.69C46.0003 30.57 47.5503 31.01 49.3703 31.01C51.1903 31.01 52.6403 30.56 53.9103 29.67C55.1703 28.77 56.0503 27.51 56.5303 25.88L57.0103 26.02C56.5603 29.16 55.3503 31.59 53.3903 33.32C51.4203 35.05 48.8703 35.91 45.7303 35.91L45.7403 35.9Z" fill="white"/>
<path d="M59.0402 13.63C58.7202 12.96 58.4602 12.53 58.2502 12.33C58.0402 12.14 57.7102 12.04 57.2702 12.04H56.7402V11.46H70.0402V12.04H68.6002C67.9602 12.04 67.5302 12.25 67.3002 12.66C67.0802 13.08 67.1402 13.67 67.4902 14.44L73.3902 26.49H73.5302L77.1802 18.14C77.9502 16.38 78.1502 14.92 77.7802 13.77C77.4102 12.62 76.5102 12.04 75.0702 12.04H74.2502V11.46H82.7902V12.04H82.2602C81.9102 12.04 81.5702 12.16 81.2502 12.4C80.9302 12.64 80.5802 13.09 80.1902 13.74C79.8102 14.4 79.3102 15.4 78.7002 16.74L70.4402 35.17H69.5802L59.0202 13.62L59.0402 13.63Z" fill="white"/>
<path d="M84.3799 35.18V34.56H85.2399C85.7499 34.56 86.1299 34.44 86.3699 34.2C86.6099 33.96 86.7299 33.57 86.7299 33.02V13.49C86.7299 12.98 86.5899 12.6 86.3199 12.36C86.0499 12.12 85.6199 12.03 85.0499 12.1L84.3799 12.2V11.62L93.5999 10.47L93.8899 10.76V33.03C93.8899 33.57 94.0099 33.97 94.2499 34.21C94.4899 34.45 94.8699 34.57 95.3799 34.57H96.1499V35.19H84.3899L84.3799 35.18ZM90.2799 8.16C89.0299 8.16 88.0299 7.78 87.2799 7.03C86.5299 6.28 86.1499 5.29 86.1499 4.08C86.1499 2.87 86.5299 1.88 87.2999 1.13C88.0699 0.38 89.0599 0 90.2799 0C91.4999 0 92.5299 0.38 93.2799 1.13C94.0299 1.88 94.4099 2.87 94.4099 4.08C94.4099 5.29 94.0299 6.32 93.2799 7.06C92.5299 7.8 91.5299 8.16 90.2799 8.16Z" fill="white"/>
<path d="M110.64 35.9C108.43 35.9 106.44 35.37 104.66 34.32C102.88 33.26 101.49 31.8 100.48 29.93C99.4697 28.06 98.9697 25.94 98.9697 23.57C98.9697 21.01 99.4697 18.78 100.48 16.87C101.49 14.97 102.9 13.49 104.7 12.45C106.51 11.41 108.56 10.89 110.87 10.89C112.89 10.89 114.68 11.31 116.25 12.16C117.82 13.01 119.04 14.21 119.92 15.76C120.8 17.31 121.24 19.1 121.24 21.11V21.25H105.45L105.4 20.53H110.92C112.49 20.53 113.6 20.28 114.26 19.79C114.92 19.29 115.24 18.39 115.24 17.08C115.24 16.06 115.05 15.12 114.66 14.27C114.28 13.42 113.74 12.76 113.05 12.28C112.36 11.8 111.55 11.56 110.63 11.56C109.61 11.56 108.73 11.87 107.99 12.5C107.25 13.12 106.69 14.06 106.31 15.31C105.93 16.56 105.73 18.09 105.73 19.92C105.73 22.26 106.07 24.25 106.74 25.9C107.41 27.55 108.38 28.81 109.64 29.69C110.9 30.57 112.45 31.01 114.27 31.01C116.09 31.01 117.54 30.56 118.81 29.67C120.07 28.77 120.95 27.51 121.43 25.88L121.91 26.02C121.46 29.16 120.25 31.59 118.29 33.32C116.32 35.05 113.77 35.91 110.63 35.91L110.64 35.9Z" fill="white"/>
<path d="M124.22 13.54C123.96 12.93 123.75 12.53 123.57 12.34C123.39 12.15 123.13 12.05 122.78 12.05H122.16V11.47H134.98V12.05H133.3C132.72 12.05 132.32 12.24 132.1 12.63C131.88 13.01 131.89 13.53 132.15 14.17L136.66 25.88H136.76L142.62 11.48H143.44L150.54 25.88H150.64L153.28 18.39C153.7 17.17 153.88 16.09 153.83 15.13C153.78 14.17 153.52 13.42 153.04 12.87C152.56 12.33 151.89 12.05 151.02 12.05H149.82V11.47H158.36V12.05H157.78C157.36 12.05 157 12.18 156.7 12.43C156.4 12.69 156.09 13.14 155.79 13.8C155.49 14.46 155.09 15.44 154.61 16.75L147.99 35.18H147.17L140.07 19.68H139.93L133.5 35.18H132.68L124.23 13.53L124.22 13.54Z" fill="white"/>
<path d="M168.86 13.54C168.6 12.96 168.36 12.57 168.12 12.36C167.88 12.15 167.52 12.05 167.04 12.05H166.75V11.47H180.14V12.05H178.22C177.58 12.05 177.15 12.24 176.92 12.63C176.7 13.01 176.73 13.51 177.02 14.12L183.69 28.52L179.66 36.68L168.86 13.54ZM169.34 46.61V46.27L179.66 36.43L187.63 18.67C188.11 17.58 188.39 16.52 188.47 15.48C188.55 14.44 188.4 13.61 188.01 12.98C187.62 12.35 187.03 12.04 186.23 12.04H185.37V11.46H193.39V12.04H193.15C192.57 12.04 192.03 12.3 191.52 12.83C191.01 13.36 190.43 14.33 189.79 15.73L175.87 46.59H169.34V46.61ZM182.4 28.51L182.3 27.84H184.17L183.88 28.51H182.39H182.4Z" fill="white"/>
<path d="M205.63 35.71C203.13 35.71 200.95 35.21 199.08 34.22C197.21 33.23 195.76 31.8 194.74 29.92C193.72 28.05 193.2 25.85 193.2 23.32C193.2 20.79 193.73 18.6 194.78 16.74C195.84 14.88 197.34 13.45 199.29 12.44C201.24 11.43 203.51 10.93 206.11 10.93C208.71 10.93 210.8 11.43 212.69 12.44C214.58 13.45 216.03 14.88 217.06 16.74C218.08 18.6 218.6 20.79 218.6 23.32C218.6 25.85 218.07 28.05 217.02 29.92C215.96 31.79 214.46 33.22 212.51 34.22C210.56 35.21 208.27 35.71 205.65 35.71H205.63ZM205.77 35.04C206.83 35.04 207.71 34.65 208.43 33.86C209.15 33.08 209.69 31.87 210.06 30.24C210.43 28.61 210.61 26.5 210.61 23.9C210.61 19.64 210.22 16.53 209.43 14.56C208.64 12.59 207.49 11.61 205.95 11.61C204.89 11.61 204.01 11.99 203.31 12.76C202.61 13.53 202.07 14.74 201.7 16.38C201.33 18.03 201.15 20.15 201.15 22.74C201.15 25.59 201.33 27.92 201.68 29.72C202.03 31.53 202.54 32.86 203.22 33.73C203.9 34.6 204.74 35.03 205.76 35.03L205.77 35.04Z" fill="white"/>
<path d="M230.64 27.65C230.64 29.06 230.91 30.17 231.46 30.99C232 31.81 232.9 32.21 234.15 32.21C234.92 32.21 235.65 31.99 236.36 31.56C237.06 31.13 237.59 30.61 237.94 30L240.92 29.28L240.78 31.34H237.32L238.09 30.52C237.61 31.96 236.71 33.24 235.4 34.36C234.09 35.48 232.42 36.04 230.41 36.04C228.4 36.04 226.71 35.3 225.47 33.83C224.22 32.36 223.6 30.39 223.6 27.93V13.58C223.6 13.07 223.5 12.66 223.29 12.36C223.08 12.06 222.72 11.94 222.21 12L220.87 12.19V11.61L230.42 10.46L230.66 10.7V27.64L230.64 27.65ZM245.04 32.93C245.04 33.47 245.14 33.88 245.35 34.15C245.56 34.42 245.93 34.56 246.48 34.56H247.49V35.18H237.84L237.6 34.89L238.03 31.15L238.32 30.48L237.94 30.38V13.58C237.94 13.04 237.82 12.63 237.58 12.36C237.34 12.09 236.98 11.98 236.5 12.05L235.06 12.24V11.66L244.8 10.46L245.04 10.7V32.92V32.93Z" fill="white"/>
<path d="M250.17 35.18V34.56H251.03C251.54 34.56 251.92 34.45 252.16 34.22C252.4 34 252.52 33.63 252.52 33.12V13.68C252.52 13.1 252.38 12.69 252.11 12.43C251.84 12.17 251.44 12.06 250.93 12.09L250.16 12.19V11.61L259.76 10.65L260 10.89L259.33 17.27L258.8 17.75H259.66V32.63C259.66 33.3 259.81 33.79 260.12 34.09C260.42 34.39 260.9 34.55 261.54 34.55H263.51V35.17H250.17V35.18ZM256.6 19.1V17.08H259.53C260.55 14.9 261.6 13.26 262.67 12.14C263.74 11.02 264.97 10.46 266.34 10.46C267.49 10.46 268.42 10.82 269.12 11.54C269.82 12.26 270.18 13.24 270.18 14.49C270.18 15.74 269.83 16.67 269.12 17.37C268.42 18.08 267.54 18.43 266.48 18.43C265.81 18.43 265.17 18.3 264.56 18.05C264.53 17.09 264.41 16.35 264.2 15.82C263.99 15.29 263.66 15.03 263.22 15.03C262.74 15.03 262.18 15.29 261.54 15.82C260.9 16.35 260.28 17.16 259.67 18.24L256.6 19.1Z" fill="white"/>
<path d="M293.9 35.9C291.56 35.9 289.49 35.38 287.68 34.34C285.87 33.3 284.47 31.82 283.48 29.9C282.49 27.98 281.99 25.76 281.99 23.23C281.99 20.89 282.53 18.79 283.6 16.92C284.67 15.05 286.19 13.58 288.16 12.5C290.13 11.43 292.41 10.89 295 10.89C296.73 10.89 298.32 11.19 299.78 11.78C301.24 12.37 302.38 13.19 303.21 14.23C304.04 15.27 304.46 16.43 304.46 17.71C304.46 18.7 304.13 19.59 303.48 20.37C302.82 21.16 301.9 21.55 300.72 21.55C299.95 21.55 299.1 21.31 298.18 20.83V12.19C297.83 12.03 297.44 11.89 297.03 11.76C296.61 11.63 296.17 11.57 295.69 11.57C294.41 11.57 293.27 11.94 292.28 12.67C291.29 13.41 290.5 14.46 289.93 15.84C289.35 17.22 289.07 18.83 289.07 20.69C289.07 22.67 289.45 24.45 290.2 26.02C290.95 27.59 291.98 28.81 293.3 29.69C294.61 30.57 296.05 31.01 297.62 31.01C299.51 31.01 301.05 30.58 302.25 29.71C303.45 28.85 304.29 27.53 304.77 25.77L305.3 25.91C304.82 29.08 303.59 31.53 301.6 33.28C299.62 35.03 297.06 35.9 293.92 35.9H293.9Z" fill="white"/>
<path d="M313.97 35.66C312.05 35.66 310.55 35.13 309.46 34.08C308.37 33.02 307.83 31.65 307.83 29.95C307.83 27.77 308.81 26 310.76 24.62C312.71 23.24 315.78 22.04 319.98 21.02L322.33 20.4V20.93L320.41 21.46C318.43 22.04 316.93 22.88 315.92 24C314.91 25.12 314.41 26.51 314.41 28.18C314.41 29.49 314.73 30.49 315.37 31.18C316.01 31.87 316.83 32.21 317.82 32.21C318.56 32.21 319.25 32.05 319.91 31.73C320.57 31.41 321.1 30.95 321.52 30.34L321.62 30.92C321.04 32.39 320.07 33.55 318.69 34.4C317.31 35.25 315.75 35.67 313.99 35.67L313.97 35.66ZM327.07 35.66C325.25 35.66 323.85 35.28 322.89 34.53C321.93 33.78 321.45 32.77 321.45 31.52V16.84C321.45 15.15 321.03 13.87 320.2 13.03C319.37 12.19 318.22 11.76 316.74 11.76C315.88 11.76 315.08 11.88 314.34 12.12C313.6 12.36 312.87 12.72 312.13 13.2L313.14 12.29L314.96 11.86V19.59C314.61 19.78 314.22 19.95 313.78 20.09C313.35 20.23 312.92 20.31 312.51 20.31C311.55 20.31 310.76 20.01 310.13 19.42C309.51 18.83 309.19 18.05 309.19 17.09C309.19 15.94 309.6 14.88 310.41 13.92C311.23 12.96 312.39 12.2 313.89 11.64C315.39 11.08 317.17 10.8 319.22 10.8C322.23 10.8 324.56 11.47 326.2 12.82C327.85 14.16 328.67 16.18 328.67 18.87V30.44C328.67 31.27 328.81 31.9 329.1 32.31C329.39 32.73 329.88 32.93 330.59 32.93C331.2 32.93 331.66 32.72 331.98 32.31C332.3 31.89 332.46 31.3 332.46 30.53V28.71H333.04V30.58C333.04 32.31 332.56 33.59 331.6 34.42C330.64 35.25 329.12 35.67 327.04 35.67L327.07 35.66ZM321.07 31H321.79V31.67H320.97L321.07 31Z" fill="white"/>
<path d="M335.95 35.42L334.99 25.24H335.61L336.33 32.87L335.66 26.39C336.88 29.56 338.24 31.81 339.74 33.13C341.24 34.46 342.86 35.12 344.59 35.12C345.77 35.12 346.72 34.8 347.42 34.16C348.12 33.52 348.48 32.64 348.48 31.52C348.48 30.88 348.31 30.3 347.98 29.77C347.65 29.24 347.16 28.77 346.52 28.35C345.88 27.93 345.1 27.55 344.17 27.2L341.67 26.14C339.94 25.47 338.5 24.48 337.35 23.19C336.2 21.9 335.62 20.37 335.62 18.61C335.62 17.07 336.04 15.71 336.87 14.53C337.7 13.35 338.86 12.43 340.35 11.77C341.84 11.11 343.57 10.79 345.56 10.79C346.58 10.79 347.62 10.91 348.68 11.15C349.74 11.39 350.7 11.7 351.56 12.09C351.88 12.19 352.09 12.17 352.18 12.04C352.28 11.91 352.32 11.74 352.32 11.51V10.89H352.9L353.86 20.01H353.24L352.33 12.33L353.34 19.29C352.22 16.57 350.95 14.59 349.52 13.36C348.1 12.13 346.63 11.51 345.13 11.51C343.98 11.51 343.07 11.8 342.39 12.37C341.72 12.95 341.38 13.73 341.38 14.72C341.38 15.65 341.67 16.43 342.27 17.07C342.86 17.71 343.7 18.22 344.79 18.61L348.05 19.76C349.91 20.4 351.42 21.38 352.59 22.71C353.76 24.04 354.34 25.73 354.34 27.77C354.34 29.4 353.93 30.83 353.12 32.04C352.3 33.26 351.12 34.19 349.57 34.85C348.02 35.51 346.17 35.83 344.03 35.83C343.07 35.83 342 35.68 340.81 35.37C339.63 35.07 338.52 34.69 337.5 34.24C337.05 34.05 336.77 34 336.66 34.1C336.55 34.2 336.49 34.4 336.49 34.72V35.39H335.96L335.95 35.42Z" fill="white"/>
<path d="M369.45 35.9C367.24 35.9 365.25 35.37 363.47 34.32C361.69 33.26 360.3 31.8 359.3 29.93C358.3 28.06 357.79 25.94 357.79 23.57C357.79 21.01 358.29 18.78 359.3 16.87C360.31 14.97 361.72 13.49 363.52 12.45C365.33 11.41 367.38 10.89 369.69 10.89C371.71 10.89 373.5 11.31 375.07 12.16C376.64 13.01 377.86 14.21 378.74 15.76C379.62 17.31 380.06 19.1 380.06 21.11V21.25H364.27L364.22 20.53H369.74C371.31 20.53 372.42 20.28 373.08 19.79C373.73 19.29 374.06 18.39 374.06 17.08C374.06 16.06 373.87 15.12 373.49 14.27C373.11 13.42 372.57 12.76 371.88 12.28C371.19 11.8 370.38 11.56 369.46 11.56C368.44 11.56 367.56 11.87 366.82 12.5C366.08 13.13 365.53 14.06 365.14 15.31C364.76 16.56 364.56 18.09 364.56 19.92C364.56 22.26 364.9 24.25 365.57 25.9C366.24 27.55 367.21 28.81 368.47 29.69C369.73 30.57 371.28 31.01 373.1 31.01C374.92 31.01 376.37 30.56 377.64 29.67C378.9 28.77 379.78 27.51 380.26 25.88L380.74 26.02C380.29 29.16 379.09 31.59 377.12 33.32C375.15 35.05 372.6 35.91 369.46 35.91L369.45 35.9Z" fill="white"/>
</svg>
