<svg width="449" height="83" viewBox="0 0 449 83" fill="none" xmlns="http://www.w3.org/2000/svg">
<g clip-path="url(#clip0_839_2550)">
<path d="M0.0390625 26.5549V26.0649H1.02314C1.47975 26.0649 1.81041 25.9543 2.02297 25.7409C2.23553 25.5275 2.34574 25.1798 2.34574 24.6977V1.85727C2.34574 1.37517 2.23553 1.02742 2.02297 0.814035C1.81041 0.600647 1.47188 0.490002 1.02314 0.490002H0.0390625V0H14.1704C17.1463 0 19.4451 0.616454 21.0669 1.84146C22.6886 3.06646 23.5153 4.88421 23.5389 7.2868C23.5389 9.18358 23.1531 10.7168 22.3895 11.8944C21.618 13.072 20.4213 13.9334 18.7996 14.4709C17.1778 15.0162 15.0758 15.2849 12.5093 15.2849H10.9978V14.6763H11.8638C13.4225 14.6763 14.6034 14.0678 15.3986 12.8586C16.1937 11.6415 16.5873 9.87117 16.5873 7.54761C16.5873 5.04228 16.1465 3.25614 15.2647 2.1813C14.383 1.10646 13.0998 0.569034 11.4071 0.569034H9.21855V24.3183C9.21855 24.9269 9.36026 25.3695 9.65155 25.6461C9.94284 25.9227 10.4152 26.0649 11.0686 26.0649H12.3912V26.5549H0.0390625Z" fill="#1E3040"/>
<path d="M25.586 26.5549V26.0649H26.263C26.6645 26.0649 26.9637 25.978 27.1527 25.7962C27.3416 25.6223 27.4361 25.3299 27.4361 24.9268V9.56292C27.4361 9.10453 27.3258 8.78049 27.1133 8.57501C26.9007 8.36952 26.5937 8.28259 26.1843 8.3063L25.5781 8.38533V7.92694L33.1359 7.16823L33.3248 7.35791L32.7973 12.4002L32.3801 12.7795H33.0571V24.5396C33.0571 25.0691 33.1752 25.4564 33.4193 25.6935C33.6554 25.9306 34.0333 26.057 34.5372 26.057H36.0881V26.547H25.586V26.5549ZM30.6481 13.8465V12.25H32.9548C33.7578 10.5271 34.5844 9.23098 35.4268 8.34581C36.2692 7.46065 37.2375 7.01807 38.316 7.01807C39.2214 7.01807 39.9536 7.30258 40.5046 7.87162C41.0557 8.44065 41.3391 9.21517 41.3391 10.2031C41.3391 11.191 41.0636 11.926 40.5046 12.4792C39.9536 13.0403 39.2608 13.317 38.4263 13.317C37.8988 13.317 37.3949 13.2142 36.9147 13.0166C36.8911 12.2579 36.7966 11.6731 36.6313 11.2542C36.466 10.8353 36.2062 10.6299 35.8598 10.6299C35.4819 10.6299 35.041 10.8353 34.5372 11.2542C34.0333 11.6731 33.5452 12.3132 33.065 13.1668L30.6481 13.8465Z" fill="#1E3040"/>
<path d="M52.2979 26.9738C50.3297 26.9738 48.6135 26.5786 47.1413 25.7962C45.6691 25.0138 44.5276 23.8836 43.7246 22.3978C42.9216 20.9199 42.5122 19.1812 42.5122 17.1817C42.5122 15.1821 42.9295 13.4513 43.7561 11.9813C44.5906 10.5113 45.7715 9.38115 47.3066 8.58292C48.8418 7.78469 50.6289 7.38953 52.6758 7.38953C54.7227 7.38953 56.368 7.78469 57.856 8.58292C59.3439 9.38115 60.4854 10.5113 61.2963 11.9813C62.0993 13.4513 62.5087 15.1821 62.5087 17.1817C62.5087 19.1812 62.0914 20.9199 61.2648 22.3978C60.4303 23.8757 59.2494 25.0059 57.7143 25.7962C56.1791 26.5786 54.3763 26.9738 52.3136 26.9738H52.2979ZM52.4081 26.4443C53.2426 26.4443 53.9354 26.136 54.5022 25.5117C55.0691 24.8952 55.4942 23.9389 55.7855 22.6507C56.0768 21.3625 56.2185 19.6949 56.2185 17.64C56.2185 14.2733 55.9114 11.8153 55.2895 10.2584C54.6754 8.70147 53.7622 7.92695 52.5498 7.92695C51.7153 7.92695 51.0225 8.22727 50.4714 8.83582C49.9204 9.44437 49.4952 10.4007 49.2039 11.6968C48.9127 13.0008 48.771 14.6763 48.771 16.7233C48.771 18.9757 48.9127 20.8172 49.1882 22.2397C49.4637 23.6702 49.8652 24.7214 50.4006 25.409C50.9359 26.0965 51.5972 26.4364 52.4002 26.4364L52.4081 26.4443Z" fill="#1E3040"/>
<path d="M73.1605 36.0784C70.1138 36.0784 67.7598 35.7306 66.0908 35.0351C64.4218 34.3396 63.5952 33.3754 63.5952 32.1346C63.5952 31.1467 63.9888 30.3485 64.7682 29.7241C65.5476 29.1077 66.6183 28.7441 67.9803 28.6414V27.6535L70.0586 27.8432L70.7751 29.2104C69.3895 29.2341 68.3345 29.4791 67.6181 29.9296C66.9017 30.388 66.5396 31.0835 66.5396 32.0161C66.5396 33.1067 67.1143 33.9603 68.2558 34.5767C69.4052 35.1932 71.1057 35.5093 73.373 35.5093C74.7114 35.5093 75.8608 35.3671 76.8291 35.0904C77.7974 34.8138 78.5453 34.4187 79.0571 33.9129C79.5767 33.4071 79.8286 32.8222 79.8286 32.1662C79.8286 31.4312 79.4979 30.8227 78.8445 30.3248C78.1911 29.8348 77.207 29.5582 75.9001 29.5107L70.7593 29.2104C69.169 29.1314 67.9409 28.6967 67.0592 27.8985C66.1774 27.1003 65.7366 26.144 65.7366 25.0375C65.7366 23.852 66.0987 22.8799 66.8151 22.137C67.5315 21.3941 68.5077 20.8804 69.7437 20.6038V19.9952L71.334 20.1059L71.1844 20.7856C70.5074 20.833 69.9957 20.9831 69.6571 21.2202C69.3186 21.4573 69.1454 21.7735 69.1454 22.1528C69.1454 22.5322 69.3107 22.8167 69.6335 23.0064C69.9642 23.196 70.4365 23.3146 71.0663 23.3699L76.9236 23.6702C79.1122 23.7967 80.8127 24.3183 82.0251 25.2272C83.2374 26.1361 83.8358 27.3769 83.8358 28.9417C83.8358 30.3801 83.4106 31.6367 82.5525 32.6958C81.6944 33.7548 80.4663 34.5846 78.8681 35.1774C77.27 35.7701 75.3569 36.0704 73.1447 36.0704L73.1605 36.0784ZM73.5384 21.0543C71.7513 21.0543 70.2161 20.7539 68.9486 20.1454C67.6732 19.5368 66.7128 18.7228 66.0594 17.6954C65.4059 16.668 65.0753 15.5536 65.0753 14.3365C65.0753 12.1631 65.8389 10.4402 67.3583 9.17567C68.8856 7.91114 70.9797 7.27888 73.6486 7.27888C74.6799 7.27888 75.6482 7.37372 76.5378 7.5634C77.4353 7.75308 78.1202 7.95856 78.6005 8.18776V8.48808C79.6082 8.97018 80.4427 9.72889 81.1118 10.7642C81.781 11.7995 82.1117 12.9534 82.1117 14.2179C82.1117 15.4825 81.7731 16.7075 81.0882 17.7428C80.4112 18.7781 79.4113 19.5922 78.1045 20.1691C76.7976 20.7539 75.2703 21.0385 73.5305 21.0385L73.5384 21.0543ZM73.5384 20.4852C74.4988 20.4852 75.2625 19.9873 75.845 18.9836C76.4276 17.9878 76.711 16.4862 76.711 14.4867C76.711 12.3133 76.4355 10.6694 75.8765 9.55502C75.3254 8.44066 74.5775 7.88744 73.6486 7.88744C72.6645 7.88744 71.9008 8.36953 71.3419 9.32583C70.7908 10.29 70.5074 11.7916 70.5074 13.8386C70.5074 15.8855 70.7751 17.6005 71.3183 18.7544C71.8615 19.9083 72.5936 20.4773 73.5305 20.4773L73.5384 20.4852ZM84.0798 9.10454L77.8447 8.26679L77.2385 7.88744L84.0798 7.12872V9.10454Z" fill="#1E3040"/>
<path d="M85.7408 26.5549V26.0649H86.4178C86.8193 26.0649 87.1185 25.978 87.3074 25.7962C87.4964 25.6223 87.5909 25.3299 87.5909 24.9268V9.56292C87.5909 9.10453 87.4806 8.78049 87.2681 8.57501C87.0555 8.36952 86.7485 8.28259 86.3391 8.3063L85.7329 8.38533V7.92694L93.2906 7.16823L93.4796 7.35791L92.9521 12.4002L92.5349 12.7795H93.2119V24.5396C93.2119 25.0691 93.33 25.4564 93.5741 25.6935C93.8102 25.9306 94.1881 26.057 94.692 26.057H96.2429V26.547H85.7408V26.5549ZM90.8029 13.8465V12.25H93.1096C93.9126 10.5271 94.7392 9.23098 95.5816 8.34581C96.4239 7.46065 97.3923 7.01807 98.4708 7.01807C99.3762 7.01807 100.108 7.30258 100.659 7.87162C101.211 8.44065 101.494 9.21517 101.494 10.2031C101.494 11.191 101.218 11.926 100.659 12.4792C100.108 13.0403 99.4155 13.317 98.581 13.317C98.0536 13.317 97.5497 13.2142 97.0695 13.0166C97.0459 12.2579 96.9514 11.6731 96.7861 11.2542C96.6208 10.8353 96.361 10.6299 96.0146 10.6299C95.6367 10.6299 95.1958 10.8353 94.692 11.2542C94.1881 11.6731 93.7 12.3132 93.2198 13.1668L90.8029 13.8465Z" fill="#1E3040"/>
<path d="M107.548 26.9343C106.037 26.9343 104.856 26.5154 103.998 25.6856C103.139 24.8478 102.714 23.7651 102.714 22.4215C102.714 20.6986 103.486 19.2998 105.021 18.2091C106.556 17.1185 108.973 16.1701 112.28 15.3639L114.13 14.8739V15.2928L112.618 15.7117C111.059 16.1701 109.878 16.8339 109.083 17.7191C108.288 18.6043 107.895 19.7028 107.895 21.0227C107.895 22.058 108.146 22.8483 108.65 23.3936C109.154 23.939 109.8 24.2077 110.579 24.2077C111.162 24.2077 111.705 24.0812 112.224 23.8283C112.744 23.5754 113.161 23.2119 113.492 22.7298L113.571 23.1882C113.114 24.3499 112.35 25.2667 111.264 25.9385C110.178 26.6103 108.949 26.9422 107.564 26.9422L107.548 26.9343ZM117.861 26.9343C116.428 26.9343 115.326 26.634 114.571 26.0412C113.815 25.4485 113.437 24.6503 113.437 23.6624V12.0604C113.437 10.7247 113.106 9.7131 112.453 9.04923C111.799 8.38536 110.894 8.04552 109.729 8.04552C109.052 8.04552 108.422 8.14036 107.839 8.33003C107.257 8.51971 106.682 8.80423 106.1 9.18359L106.895 8.46439L108.328 8.12455V14.2338C108.052 14.3839 107.745 14.5183 107.399 14.6289C107.06 14.7396 106.722 14.8028 106.399 14.8028C105.643 14.8028 105.021 14.5657 104.525 14.0994C104.037 13.6331 103.785 13.0167 103.785 12.258C103.785 11.3491 104.108 10.5113 104.745 9.75262C105.383 8.99391 106.304 8.39326 107.485 7.95068C108.666 7.5081 110.067 7.2868 111.681 7.2868C114.051 7.2868 115.885 7.81632 117.176 8.88326C118.475 9.9423 119.121 11.5388 119.121 13.6647V22.8088C119.121 23.4648 119.231 23.9627 119.459 24.2867C119.688 24.6186 120.074 24.7767 120.632 24.7767C121.113 24.7767 121.475 24.6107 121.727 24.2867C121.979 23.9548 122.105 23.4885 122.105 22.8799V21.4415H122.561V22.9194C122.561 24.2867 122.183 25.2983 121.428 25.9543C120.672 26.6103 119.475 26.9422 117.838 26.9422L117.861 26.9343ZM113.138 23.2514H113.705V23.7809H113.059L113.138 23.2514Z" fill="#1E3040"/>
<path d="M131.504 7.35795L131.205 10.9618L130.867 11.5309L131.284 11.6099V24.9269C131.284 25.3062 131.37 25.5908 131.552 25.7804C131.725 25.9701 132.008 26.065 132.386 26.065H133.252V26.555H123.655V26.065H124.521C124.876 26.065 125.143 25.9859 125.332 25.82C125.521 25.654 125.616 25.3616 125.616 24.9269V9.56296C125.616 9.1836 125.537 8.87537 125.372 8.63037C125.206 8.39328 124.939 8.28263 124.561 8.30634L123.655 8.38537V7.92698L131.323 7.16827L131.512 7.35795H131.504ZM142.802 24.919C142.802 25.2983 142.896 25.5829 143.085 25.7725C143.274 25.9622 143.542 26.0571 143.896 26.0571H144.762V26.5471H135.165V26.0571H136.031C136.409 26.0571 136.684 25.9622 136.866 25.7725C137.039 25.5829 137.133 25.2983 137.133 24.919V13.7675C137.133 12.6531 136.913 11.768 136.472 11.112C136.031 10.456 135.323 10.1241 134.338 10.1241C133.709 10.1241 133.102 10.298 132.528 10.6378C131.945 10.9776 131.536 11.3886 131.284 11.8707L128.867 12.4793L128.977 10.8512H131.772L131.095 11.4993C131.496 10.3375 132.236 9.31796 133.307 8.4486C134.378 7.57924 135.693 7.13666 137.259 7.13666C138.92 7.13666 140.267 7.7215 141.282 8.88328C142.306 10.0451 142.809 11.602 142.809 13.5462V24.9269L142.802 24.919ZM154.327 24.919C154.327 25.3221 154.414 25.6145 154.595 25.7883C154.776 25.9622 155.051 26.0571 155.429 26.0571H156.264V26.5471H146.706V26.0571H147.572C147.927 26.0571 148.194 25.9622 148.383 25.7725C148.572 25.5829 148.667 25.2983 148.667 24.919V13.7675C148.667 12.6768 148.454 11.7996 148.021 11.1278C147.596 10.456 146.84 10.1241 145.754 10.1241C145.148 10.1241 144.51 10.298 143.849 10.6536C143.179 11.0093 142.699 11.4123 142.392 11.8707L140.085 12.4793L140.196 10.8512H142.88L142.235 11.4993C142.51 10.7643 142.951 10.0688 143.557 9.4128C144.163 8.75683 144.896 8.2115 145.77 7.78473C146.635 7.35795 147.604 7.13666 148.659 7.13666C150.375 7.13666 151.745 7.7215 152.776 8.88328C153.807 10.0451 154.327 11.602 154.327 13.5462V24.9269V24.919Z" fill="#1E3040"/>
<path d="M162.491 14.1468C161.46 14.1468 160.618 13.8228 159.956 13.1826C159.303 12.5346 158.972 11.681 158.972 10.622C158.972 9.56296 159.303 8.74102 159.956 8.10086C160.61 7.45279 161.452 7.13666 162.491 7.13666C163.53 7.13666 164.396 7.46069 165.042 8.10086C165.688 8.74102 166.002 9.58667 166.002 10.622C166.002 11.7126 165.68 12.5662 165.042 13.1985C164.396 13.8307 163.546 14.1468 162.491 14.1468ZM162.491 27.2346C161.46 27.2346 160.618 26.9106 159.956 26.2704C159.303 25.6224 158.972 24.7688 158.972 23.7098C158.972 22.6508 159.303 21.8288 159.956 21.1649C160.61 20.509 161.452 20.177 162.491 20.177C163.53 20.177 164.396 20.509 165.042 21.1649C165.688 21.8209 166.002 22.6666 166.002 23.7098C166.002 24.8004 165.68 25.654 165.042 26.2862C164.396 26.9185 163.546 27.2346 162.491 27.2346Z" fill="#1E3040"/>
<path d="M14.7769 74.4645C11.7538 74.4645 9.1322 73.9508 6.91999 72.9312C4.6999 71.9038 2.99941 70.4101 1.80277 68.4343C0.606133 66.4585 0.0078125 64.0954 0.0078125 61.3372C0.0078125 58.0731 0.684859 55.3702 2.03108 53.2205C3.3773 51.0708 5.18013 49.4902 7.43171 48.4786C9.68328 47.467 12.171 46.9611 14.895 46.9611C16.005 46.9611 17.115 47.0718 18.2408 47.2852C19.3587 47.4986 20.335 47.7436 21.1695 48.0281C21.4214 48.1071 21.6182 48.1071 21.752 48.0281C21.8937 47.949 21.9567 47.791 21.9567 47.5381V46.89H22.374L24.224 57.7807H23.7359L23.4683 56.2633C22.6338 53.505 21.5001 51.3554 20.0673 49.8142C18.6345 48.2731 16.9812 47.4986 15.1154 47.4986C13.5802 47.4986 12.234 47.9807 11.0689 48.937C9.91159 49.9012 9.00623 51.2763 8.36855 53.0704C7.72299 54.8644 7.40809 56.9746 7.40809 59.4088C7.40809 62.4673 7.76236 65.0833 8.46302 67.2646C9.17156 69.438 10.1556 71.0977 11.431 72.2358C12.7064 73.3738 14.1943 73.9429 15.9105 73.9429C17.8787 73.9429 19.5162 73.1683 20.8388 71.6272C22.1614 70.0861 23.2478 67.7862 24.1059 64.7198L24.3736 63.2418H24.8617L22.9723 74.5435H22.5157L22.5944 73.8638C22.618 73.6346 22.555 73.4845 22.4055 73.4054C22.2559 73.3264 22.0512 73.3185 21.7993 73.3659C20.9411 73.6663 19.9256 73.9271 18.7368 74.1404C17.5559 74.3538 16.2333 74.4645 14.769 74.4645H14.7769Z" fill="#1E3040"/>
<path d="M27.4756 73.9745V73.4845H28.1526C28.5541 73.4845 28.8533 73.3897 29.0422 73.2C29.2312 73.0103 29.3257 72.7021 29.3257 72.2674V56.8244C29.3257 56.4214 29.2154 56.121 29.0029 55.9314C28.7903 55.7417 28.4518 55.6706 28.0031 55.7259L27.4756 55.8049V55.3465L34.7342 54.4376L34.9625 54.6668V72.2674C34.9625 72.6942 35.0569 73.0103 35.2459 73.2C35.4348 73.3897 35.734 73.4845 36.1355 73.4845H36.7417V73.9745H27.4835H27.4756ZM32.1204 52.6199C31.1364 52.6199 30.3491 52.3196 29.7586 51.7268C29.1682 51.1341 28.869 50.3517 28.869 49.3954C28.869 48.4391 29.1682 47.6567 29.7744 47.0639C30.3806 46.4712 31.16 46.1708 32.1204 46.1708C33.0809 46.1708 33.8918 46.4712 34.4822 47.0639C35.0727 47.6567 35.3718 48.4391 35.3718 49.3954C35.3718 50.3517 35.0727 51.1657 34.4822 51.7505C33.8918 52.3354 33.1045 52.6199 32.1204 52.6199Z" fill="#1E3040"/>
<path d="M45.4248 74.5831C43.8346 74.5831 42.6064 74.1089 41.7404 73.1605C40.8745 72.2121 40.4336 70.9634 40.4336 69.4222V55.7259H38.7725V55.2359H40.4336L45.5744 49.1662V47.4196H46.0625V55.2359L51.2034 54.8565V55.9551L46.0625 55.7259V68.5134C46.0625 69.7779 46.2672 70.6867 46.6687 71.2479C47.0702 71.8011 47.6764 72.0856 48.4794 72.0856C49.0069 72.0856 49.495 71.9434 49.9359 71.6667C50.3767 71.3901 50.7625 70.9317 51.0853 70.2995L51.4238 70.4892C50.9199 71.8011 50.1563 72.8127 49.1407 73.524C48.1173 74.2353 46.8813 74.5831 45.417 74.5831H45.4248Z" fill="#1E3040"/>
<path d="M53.6206 56.8639C53.4159 56.4055 53.227 56.0973 53.038 55.9313C52.8491 55.7654 52.5657 55.6863 52.1878 55.6863H51.9595V55.2279H62.5009V55.6863H60.9894C60.4855 55.6863 60.147 55.8365 59.9659 56.1447C59.7927 56.445 59.8164 56.8402 60.0447 57.3223L65.2957 68.703L62.123 75.152L53.6206 56.8639ZM53.9985 83V82.7313L62.123 74.9545L68.3975 60.9183C68.7754 60.0568 68.9959 59.2191 69.0588 58.3971C69.1218 57.5752 69.0037 56.9192 68.6967 56.4213C68.3975 55.9313 67.9252 55.6784 67.2954 55.6784H66.6183V55.22H72.9322V55.6784H72.7432C72.2866 55.6784 71.8615 55.8839 71.46 56.3028C71.0585 56.7216 70.6019 57.4883 70.098 58.5947L59.1393 82.9842H53.9985V83ZM64.2801 68.6951L64.2014 68.1656H65.6736L65.4453 68.6951H64.2723H64.2801Z" fill="#1E3040"/>
<path d="M73.688 73.9745V73.4845L83.3241 55.8444V55.7337H81.663C80.5293 55.7337 79.4586 56.0024 78.4509 56.532C77.4432 57.0615 76.6087 57.7728 75.9396 58.6579C75.2704 59.5431 74.8374 60.5152 74.6327 61.5821L74.4044 62.8309H73.9478L74.9712 54.5245H75.1995L75.8057 55.2437H90.0867V55.7021L80.4899 73.3422V73.4924H82.4187C84.4105 73.4924 86.0638 72.868 87.3864 71.6114C88.709 70.3627 89.5356 68.6477 89.8584 66.4743L90.0867 65.107H90.5039L89.8269 73.9824H73.688V73.9745Z" fill="#1E3040"/>
<path d="M102.108 74.5435C100.368 74.5435 98.8013 74.1246 97.3999 73.2948C95.9986 72.4571 94.9043 71.3032 94.1092 69.8253C93.314 68.3474 92.9204 66.6719 92.9204 64.7988C92.9204 62.7756 93.314 61.0131 94.1092 59.5036C94.9043 58.002 96.0144 56.8323 97.4314 56.0104C98.8564 55.1884 100.47 54.7775 102.289 54.7775C103.879 54.7775 105.288 55.1094 106.524 55.7812C107.76 56.453 108.721 57.4013 109.414 58.6264C110.106 59.8514 110.453 61.266 110.453 62.8546V62.9652H98.0219L97.9825 62.3962H102.328C103.564 62.3962 104.438 62.1986 104.958 61.8114C105.477 61.4162 105.729 60.7049 105.729 59.6696C105.729 58.8635 105.58 58.1205 105.273 57.4488C104.973 56.777 104.548 56.2554 104.005 55.876C103.462 55.4967 102.824 55.307 102.1 55.307C101.297 55.307 100.604 55.552 100.022 56.0499C99.439 56.5399 98.9981 57.2828 98.6989 58.2707C98.3998 59.2586 98.2423 60.4678 98.2423 61.9141C98.2423 63.7635 98.51 65.3362 99.0375 66.6403C99.5649 67.9443 100.329 68.9401 101.321 69.6356C102.312 70.3311 103.533 70.6788 104.966 70.6788C106.398 70.6788 107.54 70.3232 108.54 69.6198C109.532 68.9085 110.224 67.9127 110.602 66.6245L110.98 66.7351C110.626 69.2167 109.673 71.1372 108.13 72.5045C106.579 73.8717 104.572 74.5514 102.1 74.5514L102.108 74.5435Z" fill="#1E3040"/>
<path d="M112.988 73.9745V73.4845H113.933C114.263 73.4845 114.515 73.3975 114.688 73.2158C114.861 73.0419 114.956 72.7495 114.956 72.3464V56.9825C114.956 56.6031 114.877 56.2949 114.712 56.0499C114.547 55.8128 114.263 55.7022 113.862 55.7259L112.996 55.8049V55.3465L120.664 54.5878L120.892 54.7775L120.553 58.3814L120.286 58.9504L120.624 59.0294V72.3464C120.624 72.7021 120.711 72.9787 120.892 73.1842C121.065 73.3896 121.356 73.4845 121.758 73.4845H122.624V73.9745H112.988ZM124.553 73.9745V73.4845H125.458C125.836 73.4845 126.111 73.3896 126.293 73.2C126.474 73.0103 126.56 72.7258 126.56 72.3464V61.1949C126.56 60.0568 126.332 59.1638 125.883 58.5236C125.427 57.8756 124.71 57.5594 123.726 57.5594C123.073 57.5594 122.459 57.7333 121.892 58.0731C121.325 58.413 120.9 58.8239 120.624 59.306L118.278 59.8751L118.357 58.2786H121.112L120.435 58.9267C120.837 57.7649 121.585 56.7454 122.663 55.876C123.75 55.0067 125.072 54.5641 126.631 54.5641C128.316 54.5641 129.67 55.1489 130.693 56.3107C131.717 57.4725 132.221 59.0294 132.221 60.9736V72.3543C132.221 72.7574 132.307 73.0498 132.488 73.2237C132.669 73.3975 132.929 73.4924 133.283 73.4924H134.189V73.9824H124.553V73.9745Z" fill="#1E3040"/>
<path d="M137.133 74.1641L136.377 66.1186H136.866L137.432 72.1488L136.905 67.0275C137.865 69.5328 138.936 71.3111 140.117 72.3543C141.298 73.3975 142.573 73.927 143.935 73.927C144.864 73.927 145.612 73.6741 146.163 73.1683C146.714 72.6625 146.998 71.967 146.998 71.0819C146.998 70.5761 146.864 70.1177 146.604 69.6988C146.344 69.2799 145.958 68.9085 145.455 68.5765C144.951 68.2446 144.337 67.9443 143.605 67.6677L141.636 66.8299C140.274 66.3004 139.141 65.518 138.235 64.4985C137.33 63.471 136.873 62.2697 136.873 60.8788C136.873 59.6617 137.204 58.5868 137.858 57.6542C138.511 56.7217 139.424 55.9946 140.597 55.4729C141.77 54.9513 143.132 54.6984 144.699 54.6984C145.502 54.6984 146.321 54.7933 147.155 54.9829C147.99 55.1726 148.745 55.4176 149.422 55.7259C149.674 55.8049 149.84 55.7891 149.911 55.6863C149.989 55.5836 150.021 55.4492 150.021 55.2675V54.7775H150.477L151.233 61.9852H150.745L150.029 55.9155L150.824 61.4162C149.942 59.2665 148.942 57.7017 147.816 56.7296C146.698 55.7575 145.541 55.2675 144.36 55.2675C143.455 55.2675 142.739 55.4967 142.203 55.9471C141.676 56.4055 141.408 57.022 141.408 57.8044C141.408 58.5394 141.644 59.1559 142.109 59.6617C142.573 60.1675 143.235 60.5705 144.093 60.8788L146.659 61.7876C148.123 62.2935 149.312 63.068 150.233 64.1191C151.154 65.1702 151.611 66.5059 151.611 68.1182C151.611 69.4064 151.288 70.5366 150.651 71.4928C150.005 72.457 149.076 73.192 147.856 73.7137C146.635 74.2353 145.179 74.4882 143.494 74.4882C142.739 74.4882 141.896 74.3696 140.959 74.1246C140.03 73.8875 139.156 73.5872 138.353 73.2316C137.999 73.0814 137.779 73.0419 137.692 73.1209C137.606 73.1999 137.558 73.358 137.558 73.6109V74.1404H137.141L137.133 74.1641Z" fill="#1E3040"/>
<path d="M154.099 73.9745V73.4845H154.776C155.154 73.4845 155.43 73.3976 155.611 73.2158C155.792 73.034 155.878 72.7495 155.878 72.3464V49.016C155.878 48.4865 155.8 48.1309 155.65 47.957C155.5 47.7831 155.233 47.7436 154.855 47.8463L153.91 48.115V47.625L162.523 45.0486V45.507L161.499 45.8863V72.3622C161.499 72.7653 161.602 73.0577 161.799 73.2316C162.003 73.4055 162.287 73.5003 162.665 73.5003H163.342V73.9903H154.083L154.099 73.9745ZM173.104 72.3464C173.104 72.7495 173.198 73.0419 173.387 73.2158C173.576 73.3897 173.844 73.4845 174.198 73.4845H175.064V73.9745H165.467V73.4845H166.373C166.727 73.4845 166.994 73.3897 167.183 73.2C167.372 73.0103 167.467 72.7258 167.467 72.3464V61.1949C167.467 60.0569 167.239 59.1638 166.79 58.5236C166.333 57.8756 165.617 57.5594 164.633 57.5594C163.956 57.5594 163.326 57.7333 162.759 58.0732C162.192 58.413 161.767 58.824 161.492 59.3061L159.145 59.9146L159.256 58.168H161.98L161.334 58.9267C161.736 57.7649 162.468 56.7454 163.523 55.876C164.578 55.0067 165.916 54.5641 167.53 54.5641C169.144 54.5641 170.537 55.1489 171.553 56.3107C172.576 57.4725 173.08 59.0294 173.08 60.9736V72.3543L173.104 72.3464Z" fill="#1E3040"/>
<path d="M176.961 73.9745V73.4845H177.638C178.039 73.4845 178.339 73.3897 178.528 73.2C178.717 73.0103 178.811 72.7021 178.811 72.2674V56.8244C178.811 56.4214 178.701 56.121 178.488 55.9314C178.276 55.7417 177.937 55.6706 177.488 55.7259L176.961 55.8049V55.3465L184.22 54.4376L184.448 54.6668V72.2674C184.448 72.6942 184.542 73.0103 184.731 73.2C184.92 73.3897 185.219 73.4845 185.621 73.4845H186.227V73.9745H176.969H176.961ZM181.606 52.6199C180.622 52.6199 179.834 52.3196 179.244 51.7268C178.654 51.1341 178.354 50.3517 178.354 49.3954C178.354 48.4391 178.654 47.6567 179.26 47.0639C179.866 46.4712 180.645 46.1708 181.606 46.1708C182.566 46.1708 183.377 46.4712 183.968 47.0639C184.558 47.6567 184.857 48.4391 184.857 49.3954C184.857 50.3517 184.558 51.1657 183.968 51.7505C183.377 52.3354 182.59 52.6199 181.606 52.6199Z" fill="#1E3040"/>
<path d="M187.888 83V82.51H188.943C189.321 82.51 189.604 82.4231 189.793 82.2413C189.982 82.0674 190.077 81.775 190.077 81.3719V57.0931C190.077 56.611 189.974 56.2554 189.778 56.0341C189.581 55.8128 189.258 55.7021 188.833 55.7338L188.077 55.8128V55.3544L195.714 54.5167L195.942 54.7459L195.485 57.9704H195.714V81.3798C195.714 81.7592 195.8 82.0437 195.981 82.2334C196.154 82.4231 196.446 82.5179 196.847 82.5179H198.398V83.0079H187.896L187.888 83ZM199.792 74.504C198.886 74.504 198.068 74.4092 197.335 74.2195C196.603 74.0298 195.958 73.7611 195.407 73.4054L195.328 72.6072C195.658 72.8601 196.036 73.0577 196.477 73.1921C196.918 73.3343 197.367 73.3975 197.816 73.3975C199.406 73.3975 200.673 72.7416 201.634 71.4217C202.594 70.1098 203.067 68.2367 203.067 65.8104C203.067 64.1191 202.862 62.6649 202.445 61.4478C202.027 60.2307 201.437 59.3139 200.665 58.6975C199.894 58.081 198.996 57.7649 197.965 57.7649C197.438 57.7649 196.942 57.8676 196.469 58.0652C196.005 58.2707 195.635 58.5315 195.351 58.8635L195.391 58.5631C195.564 58.081 195.879 57.5515 196.32 56.9667C196.761 56.3818 197.438 55.8602 198.343 55.3939C199.248 54.9276 200.398 54.6905 201.783 54.6905C203.169 54.6905 204.436 55.0936 205.578 55.9076C206.727 56.7138 207.633 57.8439 208.302 59.2823C208.971 60.7207 209.302 62.3567 209.302 64.1744C209.302 66.2767 208.9 68.1024 208.089 69.6593C207.286 71.2162 206.153 72.4096 204.704 73.2474C203.256 74.0851 201.61 74.4961 199.776 74.4961L199.792 74.504Z" fill="#1E3040"/>
<path d="M226.047 72.8364C226.346 73.0656 226.692 73.2395 227.07 73.3659C227.448 73.4924 227.803 73.5556 228.125 73.5556C230.093 73.5556 231.621 72.8443 232.715 71.4296C233.809 70.0149 234.36 67.9759 234.36 65.3204C234.36 63.6528 234.171 62.2539 233.794 61.1317C233.416 60.0094 232.896 59.1559 232.243 58.571C231.589 57.9862 230.81 57.7017 229.897 57.7017C229.267 57.7017 228.716 57.8123 228.236 58.0257C227.755 58.2391 227.338 58.5236 226.992 58.8793V58.9188L226.803 58.7291C227.283 57.512 228.094 56.5399 229.243 55.8049C230.393 55.0699 231.652 54.7063 233.038 54.7063C234.423 54.7063 235.73 55.1015 236.872 55.8839C238.021 56.6663 238.927 57.7649 239.596 59.1638C240.265 60.5626 240.596 62.167 240.596 63.961C240.596 66.2135 240.17 68.1182 239.312 69.6672C238.454 71.2241 237.234 72.4096 235.644 73.2316C234.053 74.0535 232.164 74.4645 229.975 74.4645C228.991 74.4645 227.913 74.3617 226.748 74.1641C225.575 73.9587 224.488 73.6979 223.48 73.3659L221.63 74.4645H221.363V49.0081C221.363 48.4786 221.284 48.1229 221.134 47.949C220.985 47.7752 220.733 47.7357 220.379 47.8384L219.395 48.1071V47.6171L228.047 45.0406V45.499L227.023 45.8784V73.6504L226.039 72.8522L226.047 72.8364ZM226.763 57.9309H227.37L227.33 58.3497H226.763V57.9309Z" fill="#1E3040"/>
<path d="M242.643 56.8639C242.438 56.4055 242.249 56.0973 242.06 55.9313C241.871 55.7654 241.588 55.6863 241.21 55.6863H240.981V55.2279H251.523V55.6863H250.011C249.508 55.6863 249.169 55.8365 248.988 56.1447C248.815 56.445 248.838 56.8402 249.067 57.3223L254.318 68.703L251.145 75.152L242.643 56.8639ZM243.02 83V82.7313L251.145 74.9545L257.42 60.9183C257.797 60.0568 258.018 59.2191 258.081 58.3971C258.144 57.5752 258.026 56.9192 257.719 56.4213C257.419 55.9313 256.947 55.6784 256.317 55.6784H255.64V55.22H261.954V55.6784H261.765C261.309 55.6784 260.883 55.8839 260.482 56.3028C260.08 56.7216 259.624 57.4883 259.12 58.5947L248.161 82.9842H243.02V83ZM253.302 68.6951L253.223 68.1656H254.696L254.467 68.6951H253.294H253.302Z" fill="#1E3040"/>
<path d="M268.937 73.9745L269.016 73.5556H270.071C270.527 73.5556 270.905 73.4291 271.204 73.1762C271.503 72.9233 271.708 72.5677 271.811 72.1172L277.4 49.2768C277.502 48.7947 277.471 48.439 277.306 48.194C277.14 47.9569 276.833 47.8305 276.377 47.8305H275.322L275.432 47.4116H284.352L284.273 47.8305H283.218C282.793 47.8305 282.431 47.949 282.139 48.194C281.848 48.4311 281.651 48.7947 281.557 49.2768L275.967 72.1172C275.841 72.5993 275.857 72.9549 276.007 73.1999C276.156 73.437 276.463 73.5635 276.912 73.5635H277.935L277.857 73.9824H268.937V73.9745Z" fill="#1E3040"/>
<path d="M295.956 74.504C294.901 74.504 294.169 74.1721 293.759 73.5161C293.35 72.8601 293.334 71.888 293.681 70.5919L296.247 61.2977C296.601 59.9304 296.609 58.8793 296.271 58.1522C295.932 57.4172 295.31 57.0536 294.397 57.0536C293.641 57.0536 292.846 57.3619 292.02 57.9862C291.185 58.6106 290.414 59.4878 289.697 60.6417C288.981 61.7956 288.43 63.1391 288.052 64.6803L285.784 73.9745H282.234L286.312 57.433C286.414 57.0536 286.383 56.7533 286.217 56.5241C286.052 56.2949 285.769 56.208 285.367 56.2554L284.533 56.3661L284.643 55.9472L290.461 55.1489L290.571 55.3386L288.871 60.7998H288.981C289.784 59.1322 290.847 57.7649 292.153 56.7059C293.46 55.6469 294.838 55.1094 296.271 55.1094C297.932 55.1094 299.066 55.639 299.672 56.6822C300.278 57.7333 300.302 59.2824 299.75 61.3293L297.184 70.7737C297.011 71.4297 297.011 71.9355 297.184 72.2911C297.357 72.6468 297.672 72.8206 298.129 72.8206C298.483 72.8206 298.861 72.6784 299.262 72.4018C299.664 72.1251 300.042 71.7063 300.396 71.153L300.735 71.3822C300.081 72.4176 299.349 73.2 298.546 73.7137C297.735 74.2353 296.869 74.4882 295.94 74.4882L295.956 74.504Z" fill="#1E3040"/>
<path d="M313.04 55.8049C311.575 57.346 310.41 58.8476 309.544 60.3018C308.678 61.756 308.08 63.2656 307.749 64.8383C307.395 66.3083 307.34 67.5807 307.576 68.6714C307.812 69.762 308.285 70.5919 308.977 71.1767C309.67 71.7616 310.536 72.0461 311.567 72.0461C312.599 72.0461 313.677 71.6825 314.646 70.9475C315.614 70.2125 316.456 69.2562 317.181 68.0628C317.897 66.8774 318.432 65.6128 318.787 64.2693C319.015 63.3604 319.149 62.3093 319.204 61.1238C319.251 59.9383 319.228 58.9504 319.125 58.168L319.92 58.4367L319.731 60.7918L315.953 56.9192C316.126 56.3344 316.417 55.8918 316.819 55.5915C317.22 55.2912 317.653 55.1331 318.102 55.1331C318.881 55.1331 319.44 55.5283 319.787 56.3265C320.125 57.1247 320.275 58.1601 320.243 59.4404C320.204 60.7207 320.007 62.088 319.661 63.558C319.157 65.5575 318.393 67.3911 317.378 69.0587C316.362 70.7262 315.126 72.0461 313.693 73.0261C312.26 73.9982 310.717 74.4882 309.08 74.4882C307.773 74.4882 306.647 74.18 305.718 73.5556C304.789 72.9392 304.136 72.0619 303.774 70.9396C303.411 69.8174 303.411 68.5212 303.789 67.0512C304.214 65.2019 304.978 63.637 306.072 62.3488C307.167 61.0606 308.434 59.9699 309.867 59.0847L310.135 58.5947H304.655L304.844 57.9151C305.049 57.1801 305.403 56.6268 305.923 56.2475C306.442 55.8681 307.112 55.6784 307.946 55.6784H312.937L313.048 55.8286L313.04 55.8049Z" fill="#1E3040"/>
<path d="M328.005 74.4645C326.643 74.4645 325.486 74.0535 324.526 73.2316C323.565 72.4096 322.912 71.2715 322.557 69.8173C322.203 68.3631 322.258 66.7114 322.707 64.8699C323.164 62.9494 323.927 61.2581 325.014 59.8039C326.1 58.3497 327.352 57.2275 328.777 56.4292C330.202 55.631 331.642 55.2358 333.107 55.2358C334.343 55.2358 335.358 55.5362 336.146 56.1289C336.941 56.7216 337.334 57.5041 337.334 58.4604C337.334 59.8988 336.791 61.0842 335.713 62.0089C334.626 62.9336 333.217 63.5975 331.477 64.0006C329.737 64.4036 327.864 64.6091 325.848 64.6091L325.809 64.1191C327.399 64.1191 328.879 63.8504 330.265 63.3209C331.65 62.7914 332.768 62.0484 333.611 61.1001C334.453 60.1517 334.878 59.0926 334.878 57.9309C334.878 57.2512 334.705 56.7058 334.351 56.3028C333.996 55.8997 333.469 55.6942 332.76 55.6942C331.879 55.6942 331.02 56.0104 330.194 56.6426C329.359 57.2749 328.604 58.16 327.927 59.2981C327.249 60.4362 326.714 61.7244 326.336 63.1707C325.911 64.941 325.769 66.4901 325.919 67.8178C326.069 69.1456 326.494 70.1809 327.187 70.9317C327.879 71.6746 328.808 72.054 329.966 72.054C331.123 72.054 332.209 71.6983 333.288 70.9949C334.374 70.2836 335.303 69.2088 336.083 67.7704L336.421 67.9601C335.437 70.1335 334.233 71.7695 332.815 72.8522C331.39 73.9428 329.784 74.4803 327.997 74.4803L328.005 74.4645Z" fill="#1E3040"/>
<path d="M343.758 74.4329C342.751 74.4329 341.806 74.259 340.924 73.9192C340.042 73.5793 339.342 73.1288 338.83 72.5756C338.311 72.0224 338.059 71.4217 338.059 70.7895C338.059 70.2046 338.232 69.7542 338.57 69.4222C338.909 69.0903 339.381 68.9322 339.987 68.9322C340.263 70.5998 340.79 71.8248 341.554 72.5914C342.326 73.3659 343.286 73.7453 344.443 73.7453C345.278 73.7453 345.994 73.524 346.6 73.0814C347.207 72.6388 347.592 72.0382 347.773 71.2795C348.002 70.3943 347.915 69.5724 347.506 68.8137C347.096 68.055 346.459 67.3753 345.577 66.7667L343.798 65.439C342.766 64.6566 342.019 63.7872 341.57 62.8388C341.113 61.8904 341.042 60.8314 341.341 59.6696C341.696 58.2786 342.459 57.188 343.648 56.4056C344.829 55.6231 346.152 55.228 347.616 55.228C348.671 55.228 349.647 55.3939 350.529 55.718C351.411 56.042 352.103 56.4688 352.607 56.9904C353.111 57.512 353.363 58.0494 353.363 58.6027C353.363 59.1559 353.182 59.5273 352.812 59.7802C352.45 60.0331 351.946 60.1596 351.316 60.1596C351.167 59.2981 350.891 58.5473 350.482 57.8993C350.08 57.2512 349.584 56.7533 348.986 56.3977C348.395 56.042 347.758 55.8681 347.081 55.8681C346.348 55.8681 345.711 56.0578 345.152 56.4372C344.601 56.8165 344.254 57.3381 344.128 57.9941C343.955 58.8793 344.05 59.6538 344.428 60.3098C344.805 60.9657 345.412 61.598 346.238 62.2065L348.017 63.5343C349.128 64.3404 349.954 65.2572 350.513 66.2688C351.064 67.2804 351.182 68.4343 350.852 69.7225C350.623 70.6551 350.175 71.485 349.49 72.2042C348.805 72.9234 347.97 73.4766 346.978 73.8559C345.986 74.2353 344.908 74.425 343.751 74.425L343.758 74.4329Z" fill="#1E3040"/>
<path d="M358.118 74.4645C356.906 74.4645 356.024 74.0694 355.473 73.2869C354.922 72.5045 354.82 71.4297 355.174 70.0624L358.575 56.1052H356.536L356.646 55.6469H358.685L362.881 51.1736L363.409 49.0872H363.897L362.236 55.6469L367.943 55.4177L367.754 56.2554L362.125 56.1052L358.803 69.6119C358.551 70.7026 358.543 71.5087 358.787 72.0382C359.024 72.5677 359.535 72.8364 360.315 72.8364C360.897 72.8364 361.472 72.6389 362.055 72.2516C362.637 71.8564 363.228 71.2716 363.834 70.4892L364.101 70.7184C363.346 71.9039 362.448 72.8285 361.417 73.4845C360.386 74.1405 359.283 74.4724 358.126 74.4724L358.118 74.4645Z" fill="#1E3040"/>
<path d="M390.774 74.504C389.743 74.504 389.018 74.1721 388.601 73.5161C388.184 72.8601 388.152 71.888 388.507 70.5919L391.073 61.2977C391.451 59.9304 391.475 58.8793 391.152 58.1522C390.821 57.4172 390.223 57.0536 389.341 57.0536C388.632 57.0536 387.877 57.3618 387.058 57.9862C386.239 58.6106 385.476 59.4957 384.775 60.6575C384.066 61.8193 383.531 63.1628 383.153 64.6802L380.807 73.9745H377.296L380.547 61.3056C380.878 59.9383 380.878 58.8872 380.547 58.1601C380.217 57.4251 379.618 57.0615 378.737 57.0615C378.028 57.0615 377.272 57.3697 376.454 57.9941C375.635 58.6185 374.863 59.5036 374.147 60.6654C373.43 61.8272 372.879 63.1707 372.501 64.6882L370.234 73.9824H366.684L370.762 57.4409C370.864 57.0378 370.832 56.7296 370.667 56.532C370.502 56.3265 370.234 56.2396 369.856 56.2633L368.99 56.4134L369.1 55.9551L374.918 55.1568L375.029 55.3465L373.328 60.8077H373.438C374.241 59.1401 375.296 57.7728 376.595 56.7138C377.894 55.6547 379.233 55.1173 380.618 55.1173C382.153 55.1173 383.193 55.5994 383.736 56.5557C384.279 57.5199 384.334 58.9346 383.909 60.8077H384.059C384.838 59.1401 385.885 57.7728 387.192 56.7138C388.499 55.6547 389.853 55.1173 391.238 55.1173C392.829 55.1173 393.915 55.6468 394.505 56.7138C395.096 57.7728 395.12 59.3218 394.561 61.3451L392.026 70.7895C391.852 71.4454 391.852 71.9512 392.026 72.3069C392.199 72.6625 392.529 72.8364 393.01 72.8364C393.364 72.8364 393.734 72.6942 394.128 72.4175C394.521 72.1409 394.899 71.7221 395.277 71.1688L395.576 71.398C394.946 72.4333 394.222 73.2158 393.403 73.7295C392.585 74.2511 391.711 74.504 390.774 74.504Z" fill="#1E3040"/>
<path d="M403.843 74.4645C402.481 74.4645 401.323 74.0535 400.363 73.2316C399.402 72.4096 398.749 71.2715 398.395 69.8173C398.041 68.3631 398.096 66.7114 398.544 64.8699C399.001 62.9494 399.765 61.2581 400.851 59.8039C401.938 58.3497 403.189 57.2275 404.614 56.4292C406.039 55.631 407.48 55.2358 408.944 55.2358C410.18 55.2358 411.196 55.5362 411.983 56.1289C412.778 56.7216 413.172 57.5041 413.172 58.4604C413.172 59.8988 412.629 61.0842 411.55 62.0089C410.464 62.9336 409.054 63.5975 407.315 64.0006C405.575 64.4036 403.701 64.6091 401.686 64.6091L401.646 64.1191C403.236 64.1191 404.717 63.8504 406.102 63.3209C407.488 62.7914 408.606 62.0484 409.448 61.1001C410.29 60.1517 410.715 59.0926 410.715 57.9309C410.715 57.2512 410.542 56.7058 410.188 56.3028C409.834 55.8997 409.306 55.6942 408.598 55.6942C407.716 55.6942 406.858 56.0104 406.031 56.6426C405.197 57.2749 404.441 58.16 403.764 59.2981C403.087 60.4362 402.552 61.7244 402.174 63.1707C401.749 64.941 401.607 66.4901 401.756 67.8178C401.906 69.1456 402.331 70.1809 403.024 70.9317C403.717 71.6746 404.646 72.054 405.803 72.054C406.96 72.054 408.047 71.6983 409.125 70.9949C410.212 70.2836 411.141 69.2088 411.92 67.7704L412.258 67.9601C411.274 70.1335 410.07 71.7695 408.653 72.8522C407.228 73.9428 405.622 74.4803 403.835 74.4803L403.843 74.4645Z" fill="#1E3040"/>
<path d="M428.334 74.504C427.279 74.504 426.547 74.1721 426.146 73.5161C425.744 72.8601 425.721 71.888 426.067 70.5919L428.633 61.2977C428.988 59.9304 428.996 58.8793 428.649 58.1522C428.311 57.4172 427.689 57.0536 426.775 57.0536C426.02 57.0536 425.225 57.3619 424.398 57.9862C423.563 58.6106 422.792 59.4878 422.076 60.6417C421.359 61.7956 420.808 63.1391 420.43 64.6803L418.163 73.9745H414.612L418.69 57.433C418.793 57.0536 418.761 56.7533 418.596 56.5241C418.431 56.2949 418.147 56.208 417.746 56.2554L416.911 56.3661L417.021 55.9472L422.839 55.1489L422.949 55.3386L421.249 60.7998H421.359C422.162 59.1322 423.225 57.7649 424.532 56.7059C425.839 55.6469 427.216 55.1094 428.649 55.1094C430.31 55.1094 431.444 55.639 432.05 56.6822C432.656 57.7333 432.68 59.2824 432.129 61.3293L429.562 70.7737C429.389 71.4297 429.389 71.9355 429.562 72.2911C429.736 72.6468 430.051 72.8206 430.507 72.8206C430.861 72.8206 431.239 72.6784 431.641 72.4018C432.042 72.1251 432.42 71.7063 432.774 71.153L433.113 71.3822C432.46 72.4176 431.727 73.2 430.924 73.7137C430.121 74.2353 429.248 74.4882 428.319 74.4882L428.334 74.504Z" fill="#1E3040"/>
<path d="M439.175 74.4645C437.963 74.4645 437.081 74.0694 436.53 73.2869C435.979 72.5045 435.876 71.4297 436.231 70.0624L439.632 56.1052H437.593L437.703 55.6469H439.742L443.938 51.1736L444.465 49.0872H444.953L443.292 55.6469L449 55.4177L448.811 56.2554L443.182 56.1052L439.86 69.6119C439.608 70.7026 439.6 71.5087 439.844 72.0382C440.08 72.5677 440.592 72.8364 441.371 72.8364C441.954 72.8364 442.529 72.6389 443.111 72.2516C443.694 71.8564 444.284 71.2716 444.89 70.4892L445.158 70.7184C444.402 71.9039 443.505 72.8285 442.474 73.4845C441.442 74.1405 440.34 74.4724 439.183 74.4724L439.175 74.4645Z" fill="#1E3040"/>
</g>
<defs>
<clipPath id="clip0_839_2550">
<rect width="449" height="83" fill="white"/>
</clipPath>
</defs>
</svg>
