<svg width="179" height="36" viewBox="0 0 179 36" fill="none" xmlns="http://www.w3.org/2000/svg">
<path d="M18.7698 34.9C14.9298 34.9 11.5998 34.25 8.78977 32.96C5.96977 31.66 3.80977 29.77 2.28977 27.27C0.769766 24.77 0.00976562 21.78 0.00976562 18.29C0.00976562 14.16 0.869766 10.74 2.57977 8.02C4.28977 5.3 6.57977 3.3 9.43976 2.02C12.2998 0.739998 15.4598 0.0999983 18.9098 0.0999983C20.3198 0.0999983 21.7298 0.239998 23.1598 0.509998C24.5798 0.779998 25.8198 1.09 26.8798 1.45C27.1998 1.55 27.4498 1.55 27.6198 1.45C27.7998 1.35 27.8798 1.15 27.8798 0.829998V0.00999832H28.4098L30.7598 13.79H30.1398L29.7998 11.87C28.7398 8.38 27.2998 5.66 25.4798 3.71C23.6598 1.76 21.5598 0.779998 19.1898 0.779998C17.2398 0.779998 15.5298 1.39 14.0498 2.6C12.5798 3.82 11.4298 5.56 10.6198 7.83C9.79977 10.1 9.39977 12.77 9.39977 15.85C9.39977 19.72 9.84976 23.03 10.7398 25.79C11.6398 28.54 12.8898 30.64 14.5098 32.08C16.1298 33.52 18.0198 34.24 20.1998 34.24C22.6998 34.24 24.7798 33.26 26.4598 31.31C28.1398 29.36 29.5198 26.45 30.6098 22.57L30.9498 20.7H31.5698L29.1698 35H28.5898L28.6898 34.14C28.7198 33.85 28.6398 33.66 28.4498 33.56C28.2598 33.46 27.9998 33.45 27.6798 33.51C26.5898 33.89 25.2998 34.22 23.7898 34.49C22.2898 34.76 20.6098 34.9 18.7498 34.9H18.7698Z" fill="white"/>
<path d="M47.18 34.8C44.68 34.8 42.5 34.3 40.63 33.31C38.76 32.32 37.31 30.89 36.29 29.01C35.27 27.14 34.75 24.94 34.75 22.41C34.75 19.88 35.28 17.69 36.33 15.83C37.39 13.97 38.89 12.54 40.84 11.53C42.79 10.52 45.06 10.02 47.66 10.02C50.26 10.02 52.35 10.52 54.24 11.53C56.13 12.54 57.58 13.97 58.61 15.83C59.63 17.69 60.15 19.88 60.15 22.41C60.15 24.94 59.62 27.14 58.57 29.01C57.51 30.88 56.01 32.31 54.06 33.31C52.11 34.3 49.82 34.8 47.2 34.8H47.18ZM47.32 34.13C48.38 34.13 49.26 33.74 49.98 32.95C50.7 32.17 51.24 30.96 51.61 29.33C51.98 27.7 52.16 25.59 52.16 22.99C52.16 18.73 51.77 15.62 50.98 13.65C50.2 11.68 49.04 10.7 47.5 10.7C46.44 10.7 45.56 11.08 44.86 11.85C44.16 12.62 43.62 13.83 43.25 15.47C42.88 17.12 42.7 19.24 42.7 21.83C42.7 24.68 42.88 27.01 43.23 28.81C43.58 30.62 44.09 31.95 44.77 32.82C45.44 33.68 46.29 34.12 47.31 34.12L47.32 34.13Z" fill="white"/>
<path d="M62.9795 34.27V33.65H64.1795C64.5995 33.65 64.9195 33.54 65.1395 33.31C65.3595 33.09 65.4795 32.72 65.4795 32.21V12.77C65.4795 12.29 65.3795 11.9 65.1695 11.59C64.9595 11.29 64.5995 11.15 64.0895 11.18L62.9895 11.28V10.7L72.7295 9.74L73.0195 9.98L72.5895 14.54L72.2495 15.26L72.6795 15.36V32.21C72.6795 32.66 72.7895 33.01 73.0195 33.27C73.2395 33.53 73.6095 33.65 74.1195 33.65H75.2195V34.27H62.9795ZM77.6695 34.27V33.65H78.8195C79.2995 33.65 79.6495 33.53 79.8795 33.29C80.0995 33.05 80.2195 32.69 80.2195 32.21V18.1C80.2195 16.66 79.9295 15.53 79.3595 14.72C78.7795 13.9 77.8695 13.5 76.6195 13.5C75.7895 13.5 75.0095 13.72 74.2895 14.15C73.5695 14.58 73.0295 15.1 72.6795 15.71L69.6995 16.43L69.7995 14.41H73.2995L72.4395 15.23C72.9495 13.76 73.8995 12.47 75.2695 11.37C76.6495 10.27 78.3295 9.71 80.3095 9.71C82.4495 9.71 84.1695 10.45 85.4695 11.92C86.7695 13.39 87.4095 15.36 87.4095 17.82V32.22C87.4095 32.73 87.5195 33.1 87.7495 33.32C87.9695 33.54 88.3095 33.66 88.7595 33.66H89.9095V34.28H77.6695V34.27Z" fill="white"/>
<path d="M100.559 35.04C98.5394 35.04 96.9794 34.44 95.8794 33.24C94.7794 32.04 94.2194 30.46 94.2194 28.51V11.18H92.1094V10.56H94.2194L100.749 2.88V0.669998H101.369V10.56L107.899 10.08V11.47L101.369 11.18V27.36C101.369 28.96 101.629 30.11 102.139 30.82C102.649 31.52 103.419 31.88 104.439 31.88C105.109 31.88 105.729 31.7 106.289 31.35C106.849 31 107.339 30.42 107.749 29.62L108.179 29.86C107.539 31.52 106.569 32.8 105.279 33.7C103.979 34.6 102.409 35.04 100.549 35.04H100.559Z" fill="white"/>
<path d="M115.97 34.75C114.05 34.75 112.55 34.22 111.46 33.17C110.37 32.11 109.83 30.74 109.83 29.04C109.83 26.86 110.81 25.09 112.76 23.71C114.71 22.33 117.78 21.13 121.98 20.11L124.33 19.49V20.02L122.41 20.55C120.43 21.13 118.93 21.97 117.92 23.09C116.91 24.21 116.41 25.6 116.41 27.27C116.41 28.58 116.73 29.58 117.37 30.27C118.01 30.96 118.83 31.3 119.82 31.3C120.56 31.3 121.25 31.14 121.91 30.82C122.57 30.5 123.1 30.04 123.52 29.43L123.62 30.01C123.04 31.48 122.07 32.64 120.69 33.49C119.31 34.34 117.75 34.76 115.99 34.76L115.97 34.75ZM129.07 34.75C127.25 34.75 125.85 34.37 124.89 33.62C123.93 32.87 123.45 31.86 123.45 30.61V15.93C123.45 14.23 123.03 12.96 122.2 12.12C121.37 11.27 120.22 10.85 118.74 10.85C117.88 10.85 117.08 10.97 116.34 11.21C115.6 11.45 114.87 11.81 114.13 12.29L115.14 11.38L116.96 10.95V18.68C116.61 18.87 116.22 19.04 115.78 19.18C115.35 19.32 114.92 19.4 114.51 19.4C113.55 19.4 112.76 19.11 112.13 18.51C111.51 17.92 111.19 17.14 111.19 16.18C111.19 15.03 111.6 13.97 112.41 13.01C113.22 12.05 114.39 11.29 115.89 10.73C117.39 10.17 119.17 9.89 121.22 9.89C124.23 9.89 126.56 10.56 128.2 11.91C129.85 13.25 130.67 15.27 130.67 17.96V29.53C130.67 30.36 130.81 30.99 131.1 31.4C131.39 31.82 131.88 32.02 132.59 32.02C133.2 32.02 133.66 31.81 133.98 31.4C134.3 30.98 134.46 30.39 134.46 29.62V27.8H135.04V29.67C135.04 31.4 134.56 32.68 133.6 33.51C132.64 34.34 131.12 34.76 129.04 34.76L129.07 34.75ZM123.07 30.09H123.79V30.76H122.97L123.07 30.09Z" fill="white"/>
<path d="M148.559 34.99C146.219 34.99 144.149 34.47 142.339 33.43C140.529 32.39 139.129 30.91 138.139 28.99C137.149 27.07 136.649 24.85 136.649 22.32C136.649 19.99 137.189 17.88 138.259 16.01C139.329 14.14 140.849 12.67 142.819 11.59C144.789 10.52 147.069 9.98 149.659 9.98C151.389 9.98 152.979 10.28 154.439 10.87C155.899 11.46 157.039 12.28 157.869 13.32C158.699 14.36 159.119 15.52 159.119 16.8C159.119 17.79 158.789 18.68 158.139 19.46C157.479 20.24 156.559 20.64 155.379 20.64C154.609 20.64 153.759 20.4 152.839 19.92V11.28C152.489 11.12 152.099 10.98 151.689 10.85C151.269 10.72 150.829 10.66 150.349 10.66C149.069 10.66 147.929 11.03 146.939 11.76C145.949 12.5 145.159 13.55 144.589 14.93C144.009 16.31 143.729 17.92 143.729 19.78C143.729 21.76 144.109 23.54 144.859 25.11C145.609 26.68 146.639 27.9 147.959 28.78C149.269 29.66 150.709 30.1 152.279 30.1C154.169 30.1 155.709 29.67 156.909 28.8C158.109 27.94 158.949 26.62 159.429 24.86L159.959 25C159.479 28.17 158.249 30.62 156.259 32.37C154.279 34.11 151.719 34.99 148.579 34.99H148.559Z" fill="white"/>
<path d="M170.69 35.04C168.67 35.04 167.11 34.44 166.01 33.24C164.91 32.04 164.35 30.46 164.35 28.51V11.18H162.24V10.56H164.35L170.88 2.88V0.669998H171.5V10.56L178.03 10.08V11.47L171.5 11.18V27.36C171.5 28.96 171.76 30.11 172.27 30.82C172.78 31.52 173.55 31.88 174.57 31.88C175.24 31.88 175.86 31.7 176.42 31.35C176.98 31 177.47 30.42 177.88 29.62L178.31 29.86C177.67 31.52 176.7 32.8 175.41 33.7C174.11 34.6 172.54 35.04 170.68 35.04H170.69Z" fill="white"/>
</svg>
