<svg width="156" height="37" viewBox="0 0 156 37" fill="none" xmlns="http://www.w3.org/2000/svg">
<g clip-path="url(#clip0_3113_488)">
<path d="M27.5784 24.1127V23.7634H28.2292C28.5726 23.7634 28.8255 23.6869 28.9892 23.5353C29.1515 23.3838 29.2327 23.1373 29.2327 22.7972V6.63088C29.2327 6.29081 29.1515 6.04433 28.9892 5.89275C28.8268 5.74117 28.5726 5.66472 28.2292 5.66472H27.5784V5.31543H36.2281V5.66472H35.1713C34.828 5.66472 34.5751 5.74117 34.4114 5.89275C34.249 6.04565 34.1678 6.29081 34.1678 6.63088V14.285H41.4627V6.63088C41.4627 6.29081 41.3762 6.04433 41.2045 5.89275C41.0328 5.74117 40.7746 5.66472 40.4312 5.66472H39.3731V5.31543H48.0228V5.66472H47.372C47.0286 5.66472 46.7797 5.74117 46.6254 5.89275C46.4723 6.04565 46.3951 6.29081 46.3951 6.63088V22.7972C46.3951 23.1373 46.4723 23.3838 46.6254 23.5353C46.7784 23.6882 47.0273 23.7634 47.372 23.7634H48.0228V24.1127H39.3731V23.7634H40.4312C40.7746 23.7634 41.0314 23.6869 41.2045 23.5353C41.3762 23.3838 41.4627 23.1373 41.4627 22.7972V14.7147H34.1678V22.7972C34.1678 23.1373 34.249 23.3838 34.4114 23.5353C34.5738 23.6882 34.8266 23.7634 35.1713 23.7634H36.2281V24.1127H27.5784Z" fill="white"/>
<path d="M59.0336 24.4359C57.1357 24.4359 55.4454 24.0642 53.9628 23.3221C52.4801 22.58 51.3235 21.4821 50.4917 20.0322C49.6599 18.5823 49.2446 16.8358 49.2446 14.7954C49.2446 12.755 49.6652 11.027 50.505 9.55867C51.3448 8.09032 52.5294 6.96336 54.0573 6.17515C55.5852 5.38825 57.3513 4.99414 59.3584 4.99414C61.2377 4.99414 62.92 5.3698 64.4013 6.12242C65.884 6.87373 67.0445 7.97565 67.8857 9.42555C68.7268 10.8754 69.1461 12.6127 69.1461 14.6359C69.1461 16.6592 68.7215 18.4044 67.871 19.8727C67.0206 21.341 65.8334 22.4693 64.3055 23.2562C62.7776 24.0444 61.0194 24.4372 59.031 24.4372L59.0336 24.4359ZM59.1148 24.0603C60.1277 24.0603 60.9768 23.7611 61.6636 23.1613C62.3503 22.5616 62.8787 21.5994 63.25 20.2747C63.62 18.95 63.8064 17.2313 63.8064 15.1184C63.8064 12.7906 63.6347 10.911 63.2913 9.47959C62.9479 8.04683 62.4408 7.00422 61.7727 6.35045C61.1032 5.69668 60.2634 5.3698 59.2506 5.3698C58.2377 5.3698 57.3886 5.67032 56.7018 6.27005C56.0151 6.86978 55.4854 7.83198 55.1154 9.15666C54.744 10.4813 54.559 12.2001 54.559 14.313C54.559 16.6407 54.7347 18.5203 55.0874 19.9531C55.4401 21.3859 55.9499 22.4285 56.6193 23.0822C57.2875 23.736 58.1193 24.0629 59.1135 24.0629L59.1148 24.0603Z" fill="white"/>
<path d="M70.2866 24.113V23.7637H70.9374C71.2622 23.7637 71.5111 23.6873 71.6827 23.5357C71.8544 23.3841 71.9409 23.1376 71.9409 22.7976V6.63122C71.9409 6.32674 71.8637 6.08949 71.7107 5.91945C71.5563 5.74942 71.2994 5.66375 70.9374 5.66375H70.2866V5.31445H80.1568C82.5432 5.31445 84.3772 5.67297 85.6615 6.38869C86.9446 7.10441 87.5861 8.3131 87.5861 10.0134C87.5861 11.321 87.2919 12.3359 86.705 13.0608C86.1167 13.7858 85.245 14.2919 84.0884 14.578C82.9318 14.864 81.3946 15.0077 79.478 15.0077H78.2576C78.6555 15.4914 79.0614 15.7998 79.478 15.9343C79.8933 16.0687 80.5361 16.1359 81.4025 16.1359H83.8435L88.4259 22.8766C88.6242 23.1627 88.8278 23.3828 89.0354 23.5344C89.2431 23.6873 89.456 23.7624 89.673 23.7624H89.9977V24.1117H83.544L77.7957 15.0077H76.8734V22.5801C76.8734 22.9557 76.9679 23.247 77.1582 23.4526C77.3485 23.6583 77.6693 23.7611 78.1205 23.7611H78.7167V24.1104H70.2839L70.2866 24.113ZM78.9909 14.607C80.1661 14.607 81.0605 14.2669 81.6754 13.5868C82.2903 12.9066 82.5977 11.7612 82.5977 10.1492C82.5977 8.98532 82.466 8.08639 82.2051 7.44975C81.9429 6.81444 81.5356 6.36629 80.9846 6.10662C80.4323 5.84696 79.6697 5.71779 78.6928 5.71779H76.876V14.607H78.9909Z" fill="white"/>
<path d="M90.8669 24.1127V23.7634H91.5178C91.8612 23.7634 92.114 23.6869 92.2777 23.5353C92.4401 23.3838 92.5213 23.1373 92.5213 22.7972V6.63088C92.5213 6.29081 92.4401 6.04433 92.2777 5.89275C92.1154 5.74117 91.8612 5.66472 91.5178 5.66472H90.8669V5.31543H99.0828V5.66472H98.4599C98.1165 5.66472 97.8637 5.74117 97.7 5.89275C97.5376 6.04565 97.4564 6.29081 97.4564 6.63088V22.7972C97.4564 23.1373 97.5376 23.3838 97.7 23.5353C97.8623 23.6882 98.1152 23.7634 98.4599 23.7634H99.0828V24.1127H90.8669Z" fill="white"/>
<path d="M99.7069 24.113V23.9522L109.441 5.90627V5.71778H106.919C105.689 5.71778 104.61 5.97349 103.678 6.48359C102.747 6.99369 102.02 7.66064 101.496 8.48444C100.971 9.30825 100.645 10.1676 100.52 11.0626L100.384 12.0024H100.06L100.954 4.80566H101.116L101.55 5.31576H115.027V5.47657L105.293 23.5225V23.711H108.709C109.92 23.711 110.988 23.4421 111.909 22.9056C112.831 22.3692 113.554 21.6534 114.078 20.7571C114.603 19.8622 114.927 18.8868 115.054 17.8297L115.162 16.9703H115.514L114.782 24.113H99.7056H99.7069Z" fill="white"/>
<path d="M126.28 24.4359C124.382 24.4359 122.692 24.0642 121.209 23.3221C119.727 22.58 118.57 21.4821 117.738 20.0322C116.906 18.5823 116.491 16.8358 116.491 14.7954C116.491 12.755 116.912 11.027 117.752 9.55867C118.591 8.09032 119.776 6.96336 121.304 6.17515C122.832 5.38825 124.598 4.99414 126.605 4.99414C128.484 4.99414 130.167 5.3698 131.648 6.12242C133.131 6.87373 134.291 7.97565 135.132 9.42555C135.973 10.8754 136.393 12.6127 136.393 14.6359C136.393 16.6592 135.968 18.4044 135.118 19.8727C134.267 21.341 133.08 22.4693 131.552 23.2562C130.024 24.0444 128.266 24.4372 126.278 24.4372L126.28 24.4359ZM126.361 24.0603C127.374 24.0603 128.223 23.7611 128.91 23.1613C129.597 22.5616 130.125 21.5994 130.497 20.2747C130.867 18.95 131.053 17.2313 131.053 15.1184C131.053 12.7906 130.881 10.911 130.538 9.47959C130.194 8.04683 129.687 7.00422 129.019 6.35045C128.35 5.69668 127.51 5.3698 126.497 5.3698C125.484 5.3698 124.635 5.67032 123.948 6.27005C123.262 6.86978 122.732 7.83198 122.362 9.15666C121.991 10.4813 121.806 12.2001 121.806 14.313C121.806 16.6407 121.981 18.5203 122.334 19.9531C122.687 21.3859 123.196 22.4285 123.866 23.0822C124.534 23.736 125.366 24.0629 126.36 24.0629L126.361 24.0603Z" fill="white"/>
<path d="M137.533 24.1127V23.7634H137.967C138.69 23.7634 139.237 23.4405 139.607 22.7959C139.977 22.1514 140.163 21.1945 140.163 19.9225V8.08082L138.888 6.52285C138.617 6.19991 138.364 5.97188 138.13 5.83744C137.894 5.703 137.65 5.63577 137.398 5.63577H137.154V5.31284H143.96L153.776 17.0214H153.831V8.72273C153.831 7.71967 153.663 6.95913 153.329 6.43981C152.993 5.92048 152.438 5.66082 151.661 5.66082H150.929V5.31152H156V5.66082H155.729C155.259 5.66082 154.897 5.92575 154.644 6.45299C154.391 6.98154 154.265 7.72889 154.265 8.69505V24.1101H153.316L140.652 8.64233H140.597V19.6523C140.597 21.0126 140.859 22.038 141.384 22.7274C141.908 23.4168 142.695 23.7608 143.742 23.7608H144.257V24.1101H137.532L137.533 24.1127Z" fill="white"/>
<path d="M48.5219 33.2997V35.3296H47.903V33.2997L45.5312 29.4575H46.2007L48.2344 32.7554L50.2667 29.4575H50.8936L48.5219 33.2997Z" fill="white"/>
<path d="M51.3779 33.1236C51.3779 31.8147 52.3442 30.8828 53.6485 30.8828C54.9528 30.8828 55.9098 31.8147 55.9098 33.1236C55.9098 34.4324 54.9528 35.3722 53.6485 35.3722C52.3442 35.3722 51.3779 34.4324 51.3779 33.1236ZM55.3002 33.1236C55.3002 32.0915 54.5975 31.4035 53.6485 31.4035C52.6995 31.4035 51.9888 32.0915 51.9888 33.1236C51.9888 34.1556 52.7009 34.8437 53.6485 34.8437C54.5961 34.8437 55.3002 34.1556 55.3002 33.1236Z" fill="white"/>
<path d="M61.2401 30.917V35.3299H60.6638V34.5246C60.3497 35.0611 59.7735 35.3721 59.0627 35.3721C57.9274 35.3721 57.1821 34.7434 57.1821 33.4767V30.9183H57.7837V33.4187C57.7837 34.3585 58.2748 34.837 59.1226 34.837C60.0543 34.837 60.6386 34.2412 60.6386 33.2342V30.9183H61.2401V30.917Z" fill="white"/>
<path d="M65.257 30.8838V31.4624C65.2064 31.4624 65.1559 31.4545 65.1133 31.4545C64.1816 31.4545 63.6133 32.0424 63.6133 33.0824V35.331H63.0117V30.9181H63.588V31.7827C63.8675 31.1949 64.4358 30.8851 65.257 30.8851V30.8838Z" fill="white"/>
<path d="M70.4517 33.1156L69.4016 34.0725V35.3313H68.8V29.106H69.4016V33.3265L72.0622 30.9183H72.8075L70.9016 32.7228L72.9858 35.3326H72.2485L70.4531 33.1182L70.4517 33.1156Z" fill="white"/>
<path d="M77.8569 33.3081H74.1289C74.1968 34.2308 74.9089 34.8437 75.8818 34.8437C76.4235 34.8437 76.9066 34.6512 77.246 34.265L77.5854 34.6512C77.1874 35.1205 76.5685 35.3722 75.8658 35.3722C74.4763 35.3722 73.5273 34.4324 73.5273 33.1236C73.5273 31.8147 74.451 30.8828 75.7047 30.8828C76.9585 30.8828 77.8649 31.7976 77.8649 33.1236C77.8649 33.1736 77.8569 33.2409 77.8569 33.3081ZM74.1289 32.8639H77.2886C77.2127 31.9992 76.5765 31.3955 75.7047 31.3955C74.833 31.3955 74.2048 31.9992 74.1289 32.8639Z" fill="white"/>
<path d="M82.9238 30.917L80.6958 35.8585C80.3231 36.7232 79.848 37 79.2131 37C78.7979 37 78.3999 36.8655 78.1284 36.5966L78.4079 36.1524C78.6288 36.3699 78.899 36.4885 79.2211 36.4885C79.6191 36.4885 79.8906 36.304 80.1448 35.7504L80.3404 35.322L78.3493 30.917H78.9762L80.6532 34.6669L82.3302 30.917H82.9238Z" fill="white"/>
<path d="M88.5085 35.0624C88.2716 35.2719 87.9149 35.3721 87.5675 35.3721C86.729 35.3721 86.2632 34.9029 86.2632 34.0883V31.4205H85.4673V30.917H86.2632V29.9521H86.8648V30.917H88.2197V31.4205H86.8648V34.0553C86.8648 34.576 87.1363 34.8607 87.6354 34.8607C87.8816 34.8607 88.1265 34.7856 88.2955 34.634L88.5071 35.0624H88.5085Z" fill="white"/>
<path d="M89.2378 33.1236C89.2378 31.8147 90.2027 30.8828 91.5084 30.8828C92.814 30.8828 93.771 31.8147 93.771 33.1236C93.771 34.4324 92.814 35.3722 91.5084 35.3722C90.2027 35.3722 89.2378 34.4324 89.2378 33.1236ZM93.1601 33.1236C93.1601 32.0915 92.4573 31.4035 91.5084 31.4035C90.5594 31.4035 89.8487 32.0915 89.8487 33.1236C89.8487 34.1556 90.5607 34.8437 91.5084 34.8437C92.456 34.8437 93.1601 34.1556 93.1601 33.1236Z" fill="white"/>
<path d="M99.7362 35.0624C99.4993 35.2719 99.144 35.3721 98.7953 35.3721C97.9568 35.3721 97.491 34.9029 97.491 34.0883V31.4205H96.6951V30.917H97.491V29.9521H98.0925V30.917H99.4474V31.4205H98.0925V34.0553C98.0925 34.576 98.3641 34.8607 98.8632 34.8607C99.1094 34.8607 99.3543 34.7856 99.5233 34.634L99.7349 35.0624H99.7362Z" fill="white"/>
<path d="M105.015 32.7714V35.3298H104.413V32.8294C104.413 31.8975 103.922 31.4204 103.074 31.4204C102.117 31.4204 101.516 32.0082 101.516 33.0139V35.3298H100.914V29.1045H101.516V31.6879C101.846 31.1765 102.43 30.8826 103.185 30.8826C104.269 30.8826 105.015 31.5034 105.015 32.7701V32.7714Z" fill="white"/>
<path d="M110.615 33.3081H106.887C106.955 34.2308 107.667 34.8437 108.641 34.8437C109.183 34.8437 109.666 34.6512 110.006 34.265L110.344 34.6512C109.946 35.1205 109.327 35.3722 108.624 35.3722C107.235 35.3722 106.286 34.4324 106.286 33.1236C106.286 31.8147 107.209 30.8828 108.463 30.8828C109.717 30.8828 110.623 31.7976 110.623 33.1236C110.623 33.1736 110.615 33.2409 110.615 33.3081ZM106.887 32.8639H110.047C109.971 31.9992 109.335 31.3955 108.463 31.3955C107.591 31.3955 106.963 31.9992 106.887 32.8639Z" fill="white"/>
<path d="M120.784 30.917L119.097 35.3299H118.529L117.122 31.7144L115.715 35.3299H115.148L113.471 30.917H114.048L115.445 34.6669L116.877 30.917H117.394L118.816 34.6669L120.231 30.917H120.782H120.784Z" fill="white"/>
<path d="M121.328 33.1236C121.328 31.8147 122.294 30.8828 123.598 30.8828C124.903 30.8828 125.86 31.8147 125.86 33.1236C125.86 34.4324 124.903 35.3722 123.598 35.3722C122.294 35.3722 121.328 34.4324 121.328 33.1236ZM125.25 33.1236C125.25 32.0915 124.546 31.4035 123.598 31.4035C122.651 31.4035 121.937 32.0915 121.937 33.1236C121.937 34.1556 122.649 34.8437 123.598 34.8437C124.547 34.8437 125.25 34.1556 125.25 33.1236Z" fill="white"/>
<path d="M129.419 30.8838V31.4624C129.368 31.4624 129.317 31.4545 129.275 31.4545C128.343 31.4545 127.775 32.0424 127.775 33.0824V35.331H127.173V30.9181H127.75V31.7827C128.029 31.1949 128.597 30.8851 129.419 30.8851V30.8838Z" fill="white"/>
<path d="M130.656 29.1045H131.258V35.3298H130.656V29.1045Z" fill="white"/>
<path d="M137.087 29.1045V35.3298H136.511V34.4572C136.146 35.053 135.529 35.372 134.792 35.372C133.52 35.372 132.572 34.4572 132.572 33.1233C132.572 31.7894 133.52 30.8826 134.792 30.8826C135.504 30.8826 136.113 31.1844 136.486 31.7552V29.1045H137.087ZM136.494 33.1233C136.494 32.0913 135.782 31.4032 134.842 31.4032C133.902 31.4032 133.181 32.0913 133.181 33.1233C133.181 34.1554 133.893 34.8434 134.842 34.8434C135.791 34.8434 136.494 34.1554 136.494 33.1233Z" fill="white"/>
<path d="M18.3243 8.58314L19.6553 9.78128C20.3993 10.4509 20.4285 11.6292 19.7218 12.4003L15.8847 16.58C15.178 17.3511 13.9895 17.4328 13.2468 16.7632L12.2486 15.8643L9.66528 18.6784C13.1244 20.0334 17.213 19.232 19.8629 16.344C23.1343 12.7799 23.0159 7.356 19.7085 3.92502L21.9698 1.46152L20.382 0.0327148L18.0209 2.6043C18.0209 2.6043 16.9282 3.92766 17.036 5.61876C17.1438 7.30987 18.3243 8.58314 18.3243 8.58314Z" fill="white"/>
<path d="M13.0579 19.3532C11.8987 19.3532 10.7461 19.137 9.65206 18.7087C9.64142 18.7047 9.63476 18.6955 9.6321 18.6849C9.62944 18.6744 9.6321 18.6638 9.64009 18.6559L12.2234 15.8418C12.2354 15.8286 12.2567 15.8273 12.27 15.8392L13.2682 16.7368C13.6209 17.0545 14.0854 17.2113 14.5765 17.177C15.0676 17.1428 15.5228 16.9226 15.8595 16.5562L19.6966 12.3766C20.0333 12.0101 20.2117 11.5396 20.1984 11.0519C20.1864 10.5655 19.9854 10.1213 19.6314 9.80366L18.3005 8.60552C18.3005 8.60552 18.2991 8.6042 18.2978 8.60288C18.2858 8.5897 17.108 7.30193 17.0001 5.61874C16.8923 3.93422 17.981 2.59505 17.993 2.58187L20.3581 0.0102796C20.3701 -0.00290124 20.3914 -0.00421933 20.4047 0.00764345L21.9911 1.43645C22.0045 1.44831 22.0058 1.4694 21.9938 1.48258L19.7538 3.92236C21.351 5.59106 22.2507 7.77776 22.2853 10.0818C22.3212 12.4095 21.4694 14.6397 19.8869 16.3638C18.5999 17.7662 16.9363 18.7231 15.0743 19.1318C14.4062 19.2781 13.7314 19.3519 13.0579 19.3519V19.3532ZM9.72127 18.6652C13.2416 20.0228 17.3009 19.0843 19.8364 16.3229C23.0572 12.8155 22.9893 7.3797 19.6833 3.94872C19.6713 3.93686 19.6713 3.91709 19.6833 3.90391L21.9219 1.46545L20.3834 0.0814563L18.0449 2.62932C18.0356 2.64118 16.9629 3.96058 17.068 5.61874C17.1732 7.25844 18.3071 8.51853 18.3471 8.5607L19.6767 9.75753C20.0427 10.087 20.2516 10.5471 20.2649 11.0519C20.2782 11.5567 20.0932 12.0431 19.7459 12.4214L15.9088 16.601C15.5614 16.9806 15.0889 17.2087 14.5805 17.2429C14.0708 17.2772 13.589 17.1164 13.223 16.7856L12.25 15.909L9.72261 18.6625L9.72127 18.6652Z" fill="white"/>
<path d="M6.5601 20.5596L8.62571 18.3096C8.62571 18.3096 9.7184 16.9863 9.6106 15.2952C9.50279 13.6041 8.32226 12.3308 8.32226 12.3308L6.85956 11.0127C6.11557 10.3431 6.08629 9.16474 6.79301 8.39366L10.6301 4.214C11.3368 3.44292 12.5253 3.3612 13.268 4.03079L14.3993 5.04835L17.1503 2.05234C13.5542 0.27688 9.07024 0.983374 6.23535 4.07297C2.81485 7.7992 3.09169 13.5671 6.85424 16.9559L4.91107 19.0728L0.0332031 24.4124L1.68356 25.8978L6.56143 20.5596H6.5601Z" fill="white"/>
<path d="M1.68361 25.9307C1.67563 25.9307 1.66764 25.9281 1.66099 25.9215L0.0106287 24.436C-0.00268062 24.4242 -0.00401155 24.4031 0.00796685 24.3899L4.88584 19.0516L6.80637 16.9585C4.99497 15.3162 3.93289 13.0741 3.8171 10.6436C3.69998 8.20115 4.54911 5.86023 6.21012 4.05182C8.97579 1.03867 13.481 0.204324 17.165 2.0246C17.1743 2.02856 17.181 2.03778 17.1823 2.04833C17.1837 2.05887 17.1823 2.06942 17.1743 2.07601L14.4233 5.07202C14.4233 5.07202 14.4087 5.08256 14.4007 5.08256C14.3914 5.08256 14.3834 5.07993 14.3767 5.07465L13.2454 4.05709C12.8927 3.73943 12.4282 3.58258 11.9371 3.61685C11.446 3.65112 10.9908 3.87124 10.6541 4.23767L6.81702 8.41732C6.48029 8.78375 6.30195 9.25431 6.31526 9.742C6.32724 10.2284 6.52821 10.6726 6.88224 10.9902L8.34493 12.3083C8.35957 12.3228 9.53745 13.6106 9.64392 15.2938C9.75173 16.9783 8.66302 18.3175 8.65105 18.3306L6.58411 20.5819L1.70624 25.9202C1.70624 25.9202 1.6916 25.9307 1.68361 25.9307ZM0.0811682 24.4097L1.68228 25.8503L6.53752 20.5371L8.60313 18.2872C8.61245 18.2753 9.68518 16.9559 9.58004 15.2964C9.47356 13.6369 8.31166 12.365 8.29968 12.3531L6.83832 11.0377C6.47231 10.7082 6.26335 10.2481 6.25004 9.742C6.23673 9.23717 6.42173 8.7508 6.76911 8.37251L10.6062 4.19285C10.9536 3.81324 11.426 3.58522 11.9345 3.55095C12.4442 3.51404 12.926 3.67748 13.292 4.00832L14.398 5.00479L17.0971 2.06546C13.4477 0.284727 8.99709 1.11776 6.26069 4.09795C4.61166 5.8945 3.76785 8.21829 3.88498 10.6423C4.0021 13.0662 5.06418 15.3004 6.87824 16.9335C6.8849 16.9387 6.88889 16.948 6.88889 16.9559C6.88889 16.9651 6.88623 16.973 6.88091 16.9796L4.93774 19.0965L0.0798372 24.4097H0.0811682Z" fill="white"/>
<path d="M6.55178 25.3759L8.05127 23.7422L6.40161 22.2572L4.90212 23.8909L6.55178 25.3759Z" fill="white"/>
<path d="M6.5535 25.4072C6.54552 25.4072 6.53753 25.4046 6.53088 25.398L4.88052 23.9125C4.88052 23.9125 4.86987 23.898 4.86987 23.8901C4.86987 23.8809 4.87254 23.873 4.87786 23.8664L6.37782 22.232C6.3898 22.2188 6.41109 22.2175 6.4244 22.2293L8.07476 23.7148C8.07476 23.7148 8.08541 23.7293 8.08541 23.7372C8.08541 23.7464 8.08275 23.7543 8.07742 23.7609L6.57746 25.3954C6.57081 25.402 6.56149 25.4059 6.55217 25.4059L6.5535 25.4072ZM4.95106 23.8862L6.55217 25.3268L8.00688 23.7412L6.40577 22.3005L4.95106 23.8862Z" fill="white"/>
<path d="M5.85329 29.6528L7.35278 28.019L3.93529 24.9426L2.4358 26.5763L5.85329 29.6528Z" fill="white"/>
<path d="M5.85343 29.6859C5.84545 29.6859 5.83746 29.6833 5.83081 29.6767L2.41297 26.6003C2.39966 26.5884 2.39833 26.5673 2.41031 26.5542L3.91027 24.9197C3.91027 24.9197 3.92491 24.9092 3.9329 24.9092C3.94088 24.9092 3.9502 24.9118 3.95685 24.9184L7.37469 27.9948C7.388 28.0067 7.38933 28.0278 7.37735 28.041L5.87739 29.6754C5.87739 29.6754 5.86275 29.6859 5.85477 29.6859H5.85343ZM2.48351 26.5739L5.8521 29.6068L7.30681 28.0212L3.93822 24.9883L2.48351 26.5739Z" fill="white"/>
</g>
<defs>
<clipPath id="clip0_3113_488">
<rect width="156" height="37" fill="white"/>
</clipPath>
</defs>
</svg>
