<svg width="540" height="85" viewBox="0 0 540 85" fill="none" xmlns="http://www.w3.org/2000/svg">
<path d="M26.429 21.9462L26.6408 20.5976H27.1526L25.8819 31.7808H2.32959V31.2379H3.3444C3.88268 31.2379 4.27978 31.1153 4.52686 30.8788C4.78277 30.6424 4.90631 30.257 4.90631 29.7228V4.41375C4.90631 3.87954 4.78277 3.49421 4.52686 3.25776C4.27096 3.02131 3.87386 2.89871 3.3444 2.89871H2.32959V2.35574H24.8671L25.8378 12.9085H25.2907L25.123 11.5248C24.9818 10.1236 24.5053 8.76621 23.7023 7.44383C22.8993 6.13021 21.8227 5.05304 20.4814 4.22984C19.1401 3.40664 17.6664 2.98628 16.0515 2.98628H12.6188V16.4378H15.372C16.8369 16.4378 17.9929 16.0174 18.8224 15.1767C19.6519 14.336 20.0754 13.1975 20.0754 11.77V10.8855H20.6226V22.6118H20.0754V21.6835C20.0754 20.7289 19.899 19.9057 19.546 19.2051C19.193 18.5045 18.6635 17.9703 17.9576 17.6113C17.2516 17.2522 16.3868 17.0683 15.372 17.0683H12.6188V31.1503H16.5545C18.3017 31.1503 19.9078 30.6774 21.3638 29.7403C22.8198 28.8033 23.9847 27.621 24.8583 26.2111C25.7319 24.7924 26.2525 23.3737 26.429 21.9462Z" fill="#1C3661"/>
<path d="M35.3241 26.0622C34.6446 26.9905 34.1857 27.8488 33.9475 28.6457C33.7092 29.4426 33.7092 30.0732 33.9475 30.5373C34.1857 31.0014 34.6358 31.2291 35.2799 31.2291H35.9594V31.7721H28.3793V31.2291H28.5469C29.2264 31.2291 29.9059 30.9927 30.603 30.511C31.2913 30.0381 32.0326 29.2762 32.8268 28.2428L38.9244 20.1334L38.9685 21.0617L35.3241 26.0622ZM49.6814 29.9681C49.7078 30.0206 49.7431 30.0819 49.7873 30.1345C49.8314 30.187 49.8667 30.2308 49.8931 30.2571C50.1491 30.6249 50.405 30.8701 50.652 31.0102C50.908 31.1503 51.1992 31.2204 51.5433 31.2204H52.1345V31.7634H40.0186V31.2204H41.0776C41.6688 31.2204 42.0394 31.0628 42.1806 30.7387C42.3218 30.4147 42.2071 29.9593 41.8453 29.3726L31.5561 12.8122C31.2472 12.3043 30.9736 11.9627 30.7266 11.7788C30.4883 11.5949 30.153 11.5073 29.7294 11.5073H29.1382V10.9994H41.2099V11.5073H40.1951C39.6039 11.5073 39.2245 11.665 39.0744 11.989C38.9156 12.313 39.0391 12.7772 39.4362 13.3989L49.6902 29.9593L49.6814 29.9681ZM37.3978 22.8658V22.1914H38.2008V22.8658H37.3978ZM45.1103 16.0174C45.6751 15.203 46.0369 14.4498 46.1869 13.7492C46.3457 13.0486 46.2928 12.5057 46.0369 12.1116C45.781 11.7175 45.3486 11.5248 44.7221 11.5248H44.1749V11.0169H51.1639V11.5248H50.9521C50.4138 11.5248 49.8049 11.7876 49.1342 12.3043C48.4548 12.8209 47.7488 13.5828 47.0164 14.5987L41.2099 22.5417V21.4908L45.1103 16.0262V16.0174ZM42.4012 19.6343V18.9599H43.2043V19.6343H42.4012Z" fill="#1C3661"/>
<path d="M52.4786 41.7819V41.2389H53.6611C54.0847 41.2389 54.4024 41.1426 54.6141 40.9412C54.8259 40.7485 54.9318 40.4245 54.9318 39.9779V13.0749C54.9318 12.5407 54.8171 12.1466 54.5965 11.9014C54.3671 11.6474 54.0141 11.5336 53.5376 11.5686L52.6904 11.6562V11.1483L61.2501 10.22L61.506 10.4739L60.9942 14.047H61.2501V39.9866C61.2501 40.407 61.3472 40.7222 61.5501 40.9324C61.7443 41.1426 62.0708 41.2477 62.5208 41.2477H64.2592V41.7907H52.4875L52.4786 41.7819ZM65.8211 32.3676C64.8063 32.3676 63.8886 32.2625 63.0679 32.0523C62.2472 31.8422 61.5325 31.5444 60.9059 31.1503L60.8177 30.2658C61.1883 30.5461 61.6119 30.765 62.106 30.9139C62.6002 31.0715 63.1032 31.1416 63.6062 31.1416C65.3887 31.1416 66.8095 30.4147 67.886 28.9522C68.9626 27.4985 69.4921 25.4229 69.4921 22.7344C69.4921 20.8603 69.2626 19.2489 68.7949 17.9003C68.3272 16.5516 67.6654 15.5358 66.8006 14.8527C65.9358 14.1696 64.9299 13.8193 63.7739 13.8193C63.1826 13.8193 62.6267 13.9331 62.0972 14.1521C61.5766 14.3798 61.1618 14.6688 60.8442 15.0366L60.8883 14.7038C61.0824 14.1696 61.4354 13.5828 61.9296 12.9348C62.4237 12.2867 63.1826 11.7087 64.1974 11.192C65.2122 10.6754 66.5006 10.4126 68.0537 10.4126C69.6068 10.4126 71.0275 10.8593 72.3071 11.7613C73.5954 12.6545 74.6102 13.9069 75.3603 15.5007C76.1104 17.0946 76.481 18.9074 76.481 20.9216C76.481 23.2511 76.0309 25.2741 75.122 26.9993C74.2219 28.7245 72.9512 30.0469 71.3275 30.9752C69.7039 31.9035 67.8596 32.3589 65.8035 32.3589L65.8211 32.3676Z" fill="#1C3661"/>
<path d="M89.5411 32.4114C87.5909 32.4114 85.8349 31.9473 84.2641 31.0277C82.6934 30.0994 81.4668 28.8208 80.5755 27.1832C79.6843 25.5455 79.243 23.689 79.243 21.6134C79.243 19.3715 79.6843 17.4186 80.5755 15.7459C81.4668 14.082 82.711 12.7859 84.2994 11.8751C85.8966 10.9644 87.7056 10.509 89.7441 10.509C91.5266 10.509 93.1062 10.8768 94.4916 11.6212C95.877 12.3656 96.9536 13.4165 97.7301 14.7739C98.5067 16.1313 98.895 17.6989 98.895 19.4591V19.5817H84.9612L84.9171 18.9512H89.7882C91.1736 18.9512 92.1531 18.7322 92.7355 18.3031C93.3179 17.8652 93.6003 17.0771 93.6003 15.9298C93.6003 15.0366 93.4327 14.2134 93.0885 13.469C92.7532 12.7246 92.2767 12.1466 91.6678 11.7263C91.0589 11.3059 90.3441 11.0957 89.5323 11.0957C88.6322 11.0957 87.8556 11.3672 87.2026 11.9189C86.5496 12.4619 86.0555 13.2851 85.7201 14.3798C85.3848 15.4745 85.2083 16.8144 85.2083 18.417C85.2083 20.4662 85.5084 22.209 86.0996 23.6539C86.6908 25.0989 87.5468 26.2024 88.6587 26.973C89.7705 27.7437 91.1383 28.129 92.7444 28.129C94.3504 28.129 95.6299 27.7349 96.7506 26.9555C97.8625 26.1673 98.6391 25.0639 99.0626 23.6364L99.4862 23.759C99.0891 26.5089 98.0214 28.6369 96.2918 30.152C94.5534 31.667 92.3031 32.4202 89.5323 32.4202L89.5411 32.4114Z" fill="#1C3661"/>
<path d="M101.913 31.7809V31.2379H102.672C103.122 31.2379 103.457 31.1416 103.669 30.9401C103.881 30.7475 103.987 30.4234 103.987 29.9768V12.9435C103.987 12.4356 103.863 12.0765 103.625 11.8488C103.387 11.6212 103.042 11.5248 102.584 11.5511L101.904 11.6387V11.1307L110.375 10.29L110.587 10.5002L109.996 16.0875L109.528 16.5078H110.287V29.5389C110.287 30.1257 110.42 30.5548 110.693 30.8175C110.958 31.0803 111.381 31.2204 111.946 31.2204H113.685V31.7633H101.913V31.7809ZM107.587 17.6988V15.9298H110.173C111.073 14.0207 111.999 12.5845 112.943 11.6036C113.888 10.6228 114.973 10.1324 116.182 10.1324C117.197 10.1324 118.017 10.4477 118.635 11.0782C119.253 11.7087 119.57 12.567 119.57 13.6616C119.57 14.7563 119.262 15.5708 118.635 16.1838C118.017 16.8056 117.241 17.1121 116.305 17.1121C115.714 17.1121 115.149 16.9982 114.611 16.7793C114.585 15.9386 114.479 15.2905 114.294 14.8264C114.108 14.3622 113.817 14.1345 113.429 14.1345C113.005 14.1345 112.511 14.3622 111.946 14.8264C111.381 15.2905 110.834 15.9999 110.296 16.9457L107.587 17.6988Z" fill="#1C3661"/>
<path d="M121.477 31.7809V31.2379H122.235C122.686 31.2379 123.021 31.1328 123.233 30.9226C123.444 30.7124 123.55 30.3709 123.55 29.8892V12.7771C123.55 12.3305 123.427 11.9977 123.188 11.7876C122.95 11.5774 122.571 11.4986 122.068 11.5599L121.477 11.6474V11.1395L129.613 10.1324L129.869 10.3864V29.8892C129.869 30.3621 129.974 30.7124 130.186 30.9226C130.398 31.1328 130.733 31.2379 131.183 31.2379H131.863V31.7809H121.485H121.477ZM126.683 8.11817C125.58 8.11817 124.697 7.78539 124.036 7.12858C123.374 6.47177 123.038 5.60478 123.038 4.54512C123.038 3.48547 123.374 2.61848 124.053 1.96167C124.733 1.30486 125.606 0.972076 126.683 0.972076C127.76 0.972076 128.668 1.30486 129.33 1.96167C129.992 2.61848 130.327 3.48547 130.327 4.54512C130.327 5.60478 129.992 6.5068 129.33 7.15485C128.668 7.8029 127.786 8.11817 126.683 8.11817Z" fill="#1C3661"/>
<path d="M144.65 32.4114C142.699 32.4114 140.943 31.9473 139.373 31.0277C137.802 30.1082 136.575 28.8208 135.684 27.1832C134.793 25.5455 134.351 23.689 134.351 21.6134C134.351 19.3715 134.793 17.4186 135.684 15.7459C136.575 14.082 137.819 12.7859 139.408 11.8751C141.005 10.9644 142.814 10.509 144.852 10.509C146.635 10.509 148.215 10.8768 149.6 11.6212C150.985 12.3656 152.062 13.4165 152.839 14.7739C153.615 16.1313 154.003 17.6989 154.003 19.4591V19.5817H140.07L140.026 18.9512H144.897C146.282 18.9512 147.262 18.7322 147.844 18.3031C148.426 17.874 148.709 17.0771 148.709 15.9298C148.709 15.0366 148.541 14.2134 148.197 13.469C147.862 12.7246 147.385 12.1466 146.776 11.7263C146.167 11.3059 145.453 11.0957 144.641 11.0957C143.741 11.0957 142.964 11.3672 142.311 11.9189C141.658 12.4706 141.164 13.2851 140.829 14.3798C140.493 15.4745 140.317 16.8144 140.317 18.417C140.317 20.4662 140.617 22.209 141.208 23.6539C141.799 25.0989 142.655 26.2024 143.767 26.973C144.879 27.7437 146.247 28.129 147.853 28.129C149.459 28.129 150.738 27.7349 151.859 26.9555C152.971 26.1673 153.747 25.0639 154.171 23.6364L154.595 23.759C154.198 26.5089 153.13 28.6369 151.4 30.152C149.662 31.667 147.412 32.4202 144.641 32.4202L144.65 32.4114Z" fill="#1C3661"/>
<path d="M156.845 31.7809V31.2379H157.904C158.274 31.2379 158.557 31.1416 158.751 30.9402C158.945 30.7475 159.051 30.4235 159.051 29.9768V12.9436C159.051 12.5232 158.963 12.1817 158.777 11.9102C158.592 11.6474 158.274 11.5248 157.824 11.5511L156.854 11.6387V11.1308L165.449 10.29L165.705 10.5002L165.325 14.4936L165.025 15.1242L165.405 15.2117V29.9681C165.405 30.3622 165.502 30.6687 165.705 30.8964C165.899 31.1241 166.225 31.2291 166.675 31.2291H167.646V31.7721H156.845V31.7809ZM169.808 31.7809V31.2379H170.823C171.246 31.2379 171.555 31.1328 171.758 30.9226C171.952 30.7125 172.058 30.3972 172.058 29.9768V17.62C172.058 16.359 171.802 15.3694 171.299 14.66C170.787 13.9419 169.984 13.5916 168.881 13.5916C168.149 13.5916 167.461 13.7843 166.825 14.1608C166.19 14.5374 165.713 14.9928 165.405 15.527L162.775 16.1575L162.863 14.3885H165.952L165.193 15.1066C165.643 13.8193 166.481 12.6896 167.69 11.7263C168.908 10.7629 170.39 10.2725 172.138 10.2725C174.026 10.2725 175.544 10.9206 176.691 12.2079C177.838 13.4953 178.403 15.2205 178.403 17.3748V29.9856C178.403 30.4322 178.5 30.7562 178.703 30.9489C178.897 31.1416 179.197 31.2467 179.594 31.2467H180.609V31.7896H169.808V31.7809Z" fill="#1C3661"/>
<path d="M193.272 32.4114C191.207 32.4114 189.38 31.956 187.783 31.0452C186.186 30.1345 184.95 28.8384 184.077 27.1569C183.203 25.4755 182.762 23.5313 182.762 21.3157C182.762 19.2664 183.238 17.4274 184.183 15.7897C185.127 14.1521 186.468 12.8647 188.207 11.9189C189.945 10.9819 191.957 10.509 194.242 10.509C195.769 10.509 197.172 10.7717 198.461 11.2884C199.749 11.8051 200.755 12.5232 201.487 13.434C202.22 14.3447 202.59 15.3606 202.59 16.4816C202.59 17.3486 202.299 18.128 201.726 18.8111C201.143 19.5029 200.331 19.8444 199.29 19.8444C198.611 19.8444 197.861 19.6343 197.049 19.2139V11.6474C196.74 11.5073 196.396 11.3847 196.034 11.2709C195.663 11.157 195.275 11.1045 194.851 11.1045C193.722 11.1045 192.716 11.4285 191.842 12.0678C190.969 12.7159 190.272 13.6354 189.769 14.8439C189.257 16.0525 189.01 17.4624 189.01 19.0913C189.01 20.8253 189.345 22.3841 190.007 23.759C190.669 25.1339 191.578 26.2024 192.742 26.973C193.898 27.7437 195.169 28.129 196.554 28.129C198.222 28.129 199.581 27.7524 200.64 26.9905C201.699 26.2374 202.44 25.0814 202.864 23.5401L203.332 23.6627C202.908 26.4388 201.823 28.5844 200.067 30.1169C198.319 31.6495 196.06 32.4114 193.289 32.4114H193.272Z" fill="#1C3661"/>
<path d="M215.845 32.4114C213.895 32.4114 212.138 31.9473 210.568 31.0277C208.997 30.1082 207.77 28.8208 206.879 27.1832C205.988 25.5455 205.547 23.689 205.547 21.6134C205.547 19.3715 205.988 17.4186 206.879 15.7459C207.77 14.082 209.015 12.7859 210.603 11.8751C212.2 10.9644 214.009 10.509 216.048 10.509C217.83 10.509 219.41 10.8768 220.795 11.6212C222.181 12.3656 223.257 13.4165 224.034 14.7739C224.81 16.1313 225.199 17.6989 225.199 19.4591V19.5817H211.265L211.221 18.9512H216.092C217.477 18.9512 218.457 18.7322 219.039 18.3031C219.622 17.874 219.904 17.0771 219.904 15.9298C219.904 15.0366 219.736 14.2134 219.392 13.469C219.057 12.7246 218.58 12.1466 217.971 11.7263C217.362 11.3059 216.648 11.0957 215.836 11.0957C214.936 11.0957 214.159 11.3672 213.506 11.9189C212.853 12.4706 212.359 13.2851 212.024 14.3798C211.688 15.4745 211.512 16.8144 211.512 18.417C211.512 20.4662 211.812 22.209 212.403 23.6539C212.994 25.0989 213.85 26.2024 214.962 26.973C216.074 27.7437 217.442 28.129 219.048 28.129C220.654 28.129 221.934 27.7349 223.054 26.9555C224.166 26.1673 224.943 25.0639 225.366 23.6364L225.79 23.759C225.393 26.5089 224.325 28.6369 222.595 30.152C220.857 31.667 218.607 32.4202 215.836 32.4202L215.845 32.4114Z" fill="#1C3661"/>
<path d="M243.041 32.2012C241.347 32.2012 240.024 31.7371 239.062 30.8175C238.1 29.8892 237.623 28.6895 237.623 27.2007C237.623 25.2916 238.488 23.7415 240.209 22.533C241.93 21.3244 244.639 20.2735 248.345 19.3803L250.419 18.8373V19.3015L248.724 19.7656C246.977 20.2735 245.653 21.0092 244.762 21.99C243.871 22.9708 243.43 24.1881 243.43 25.6506C243.43 26.7979 243.712 27.6736 244.277 28.2779C244.842 28.8821 245.565 29.1799 246.439 29.1799C247.092 29.1799 247.701 29.0398 248.283 28.7595C248.866 28.4793 249.333 28.0764 249.704 27.5422L249.792 28.0502C249.28 29.3375 248.424 30.3534 247.207 31.0978C245.989 31.8422 244.612 32.21 243.059 32.21L243.041 32.2012ZM254.601 32.2012C252.995 32.2012 251.76 31.8684 250.913 31.2116C250.066 30.5548 249.642 29.6703 249.642 28.5756V15.7197C249.642 14.2396 249.271 13.1187 248.539 12.3831C247.807 11.6474 246.792 11.2709 245.486 11.2709C244.727 11.2709 244.021 11.376 243.368 11.5861C242.715 11.7963 242.071 12.1116 241.418 12.5319L242.309 11.735L243.915 11.3584V18.128C243.606 18.2944 243.262 18.4432 242.874 18.5658C242.494 18.6884 242.115 18.7585 241.753 18.7585C240.906 18.7585 240.209 18.4958 239.653 17.9791C239.106 17.4624 238.823 16.7793 238.823 15.9386C238.823 14.9315 239.185 14.0032 239.9 13.1625C240.624 12.3218 241.647 11.6562 242.971 11.1658C244.295 10.6754 245.865 10.4301 247.674 10.4301C250.33 10.4301 252.386 11.0169 253.834 12.1992C255.29 13.3727 256.013 15.1417 256.013 17.4974V27.6298C256.013 28.3567 256.137 28.9084 256.393 29.2675C256.649 29.6353 257.081 29.8104 257.708 29.8104C258.246 29.8104 258.652 29.6265 258.934 29.2675C259.217 28.8996 259.358 28.383 259.358 27.7086V26.1148H259.87V27.7524C259.87 29.2675 259.446 30.3884 258.599 31.1153C257.752 31.8422 256.41 32.21 254.575 32.21L254.601 32.2012ZM249.307 28.1202H249.942V28.707H249.219L249.307 28.1202Z" fill="#1C3661"/>
<path d="M270.062 31.7809V31.2379H271.288C271.712 31.2379 272.03 31.1328 272.241 30.9226C272.453 30.7124 272.559 30.3972 272.559 29.9768V11.5599H268.959V11.0169H272.559V8.82753C272.559 7.11982 272.894 5.61353 273.556 4.30867C274.218 3.00381 275.136 1.9967 276.309 1.27859C277.483 0.560473 278.798 0.210175 280.272 0.210175C281.401 0.210175 282.425 0.402839 283.342 0.77941C284.26 1.15598 284.966 1.67267 285.46 2.33824C285.955 3.00381 286.202 3.72192 286.202 4.50133C286.202 5.2282 285.999 5.8062 285.584 6.22656C285.178 6.64691 284.604 6.85709 283.872 6.85709C283.254 6.85709 282.619 6.74325 281.966 6.52431L279.936 0.726865H281.719L283.413 2.24191C282.848 1.79528 282.248 1.43622 281.613 1.1735C280.978 0.910772 280.377 0.770653 279.813 0.770653C279.133 0.770653 278.56 0.95456 278.074 1.31362C277.589 1.67267 277.227 2.18061 276.971 2.82866C276.715 3.47671 276.592 4.21234 276.592 5.05306C276.592 5.52596 276.636 5.99886 276.715 6.46301C276.804 6.92715 276.91 7.38254 277.051 7.82917C277.386 8.92386 277.915 9.98351 278.621 11.0257L284.172 10.6053V11.8226L278.877 11.5686V29.9768C278.877 30.3972 278.983 30.7124 279.195 30.9226C279.407 31.1328 279.742 31.2379 280.192 31.2379H281.719V31.7809H270.071H270.062Z" fill="#1C3661"/>
<path d="M293.702 25.1777C293.702 26.4125 293.94 27.3846 294.426 28.1027C294.902 28.8208 295.697 29.1711 296.8 29.1711C297.479 29.1711 298.123 28.9785 298.75 28.6019C299.367 28.2253 299.835 27.7699 300.144 27.2357L302.774 26.6052L302.65 28.4092H299.597L300.276 27.6911C299.853 28.9522 299.059 30.0731 297.903 31.054C296.747 32.0348 295.273 32.5252 293.499 32.5252C291.726 32.5252 290.234 31.8772 289.14 30.5898C288.037 29.3025 287.49 27.5773 287.49 25.4229V12.856C287.49 12.4093 287.402 12.0503 287.216 11.7875C287.031 11.5248 286.713 11.4197 286.263 11.4723L285.081 11.6387V11.1307L293.508 10.1236L293.72 10.3338V25.169L293.702 25.1777ZM306.409 29.8017C306.409 30.2746 306.498 30.6336 306.683 30.8701C306.868 31.1065 307.195 31.2291 307.68 31.2291H308.571V31.7721H300.056L299.844 31.5181L300.223 28.2428L300.479 27.6561L300.144 27.5685V12.8647C300.144 12.3918 300.038 12.0328 299.826 11.7963C299.615 11.5599 299.297 11.4635 298.873 11.5248L297.603 11.6912V11.1833L306.198 10.1324L306.409 10.3426V29.8017Z" fill="#1C3661"/>
<path d="M318.225 32.4552C316.443 32.4552 315.066 31.9297 314.095 30.8788C313.125 29.8279 312.631 28.4442 312.631 26.7365V11.5598H310.769V11.0169H312.631L318.393 4.29114V2.35574H318.94V11.0169L324.702 10.5965V11.8138L318.94 11.5598V25.7294C318.94 27.1306 319.169 28.1377 319.62 28.7595C320.07 29.3813 320.749 29.6878 321.649 29.6878C322.24 29.6878 322.787 29.5302 323.282 29.2237C323.776 28.9171 324.208 28.4092 324.57 27.7086L324.949 27.9188C324.385 29.3725 323.529 30.4935 322.39 31.2817C321.252 32.0698 319.858 32.4552 318.216 32.4552H318.225Z" fill="#1C3661"/>
<path d="M334.321 25.1777C334.321 26.4125 334.559 27.3846 335.045 28.1027C335.521 28.8208 336.315 29.1711 337.418 29.1711C338.098 29.1711 338.742 28.9785 339.369 28.6019C339.986 28.2253 340.454 27.7699 340.763 27.2357L343.393 26.6052L343.269 28.4092H340.216L340.895 27.6911C340.472 28.9522 339.677 30.0731 338.521 31.054C337.365 32.0348 335.892 32.5252 334.118 32.5252C332.344 32.5252 330.853 31.8772 329.759 30.5898C328.656 29.3025 328.109 27.5773 328.109 25.4229V12.856C328.109 12.4093 328.02 12.0503 327.835 11.7875C327.65 11.5248 327.332 11.4197 326.882 11.4723L325.7 11.6387V11.1307L334.127 10.1236L334.339 10.3338V25.169L334.321 25.1777ZM347.028 29.8017C347.028 30.2746 347.116 30.6336 347.302 30.8701C347.487 31.1065 347.814 31.2291 348.299 31.2291H349.19V31.7721H340.675L340.463 31.5181L340.842 28.2428L341.098 27.6561L340.763 27.5685V12.8647C340.763 12.3918 340.657 12.0328 340.445 11.7963C340.233 11.5599 339.916 11.4635 339.492 11.5248L338.221 11.6912V11.1833L346.816 10.1324L347.028 10.3426V29.8017Z" fill="#1C3661"/>
<path d="M351.555 31.7809V31.2379H352.314C352.764 31.2379 353.099 31.1416 353.311 30.9401C353.523 30.7475 353.629 30.4234 353.629 29.9768V12.9435C353.629 12.4356 353.505 12.0765 353.267 11.8488C353.029 11.6212 352.685 11.5248 352.226 11.5511L351.546 11.6387V11.1307L360.018 10.29L360.229 10.5002L359.638 16.0875L359.171 16.5078H359.929V29.5389C359.929 30.1257 360.062 30.5548 360.335 30.8175C360.6 31.0803 361.024 31.2204 361.588 31.2204H363.327V31.7633H351.555V31.7809ZM357.229 17.6988V15.9298H359.815C360.715 14.0207 361.641 12.5845 362.586 11.6036C363.53 10.6228 364.615 10.1324 365.824 10.1324C366.839 10.1324 367.66 10.4477 368.277 11.0782C368.895 11.7087 369.213 12.567 369.213 13.6616C369.213 14.7563 368.904 15.5708 368.277 16.1838C367.66 16.8056 366.883 17.1121 365.948 17.1121C365.356 17.1121 364.792 16.9982 364.253 16.7793C364.227 15.9386 364.121 15.2905 363.936 14.8264C363.75 14.3622 363.459 14.1345 363.071 14.1345C362.647 14.1345 362.153 14.3622 361.588 14.8264C361.024 15.2905 360.477 15.9999 359.938 16.9457L357.229 17.6988Z" fill="#1C3661"/>
<path d="M380.826 32.4114C378.875 32.4114 377.119 31.9473 375.549 31.0277C373.978 30.0994 372.751 28.8208 371.86 27.1832C370.969 25.5455 370.527 23.689 370.527 21.6134C370.527 19.3715 370.969 17.4186 371.86 15.7459C372.751 14.082 373.995 12.7859 375.584 11.8751C377.181 10.9644 378.99 10.509 381.028 10.509C382.811 10.509 384.391 10.8768 385.776 11.6212C387.161 12.3656 388.238 13.4165 389.015 14.7739C389.791 16.1313 390.179 17.6989 390.179 19.4591V19.5817H376.246L376.202 18.9512H381.073C382.458 18.9512 383.438 18.7322 384.02 18.3031C384.602 17.8652 384.885 17.0771 384.885 15.9298C384.885 15.0366 384.717 14.2134 384.373 13.469C384.038 12.7246 383.561 12.1466 382.952 11.7263C382.343 11.3059 381.629 11.0957 380.817 11.0957C379.917 11.0957 379.14 11.3672 378.487 11.9189C377.834 12.4706 377.34 13.2851 377.005 14.3798C376.669 15.4745 376.493 16.8144 376.493 18.417C376.493 20.4662 376.793 22.209 377.384 23.6539C377.975 25.0989 378.831 26.2024 379.943 26.973C381.055 27.7437 382.423 28.129 384.029 28.129C385.635 28.129 386.914 27.7349 388.035 26.9555C389.147 26.1673 389.923 25.0639 390.347 23.6364L390.771 23.759C390.374 26.5089 389.306 28.6369 387.576 30.152C385.838 31.667 383.588 32.4202 380.817 32.4202L380.826 32.4114Z" fill="#1C3661"/>
<path d="M400.778 31.7808L400.866 31.3167H402.092C402.604 31.3167 403.019 31.1941 403.345 30.9401C403.672 30.6862 403.893 30.2833 403.998 29.7228L410.264 4.41375C410.405 3.90582 410.387 3.52049 410.202 3.24025C410.017 2.96001 409.672 2.81989 409.161 2.81989H407.934L408.058 2.35574H420.888C423.853 2.35574 426.015 3.02131 427.365 4.35245C428.724 5.68358 429.104 7.54016 428.513 9.9222C428.063 11.8839 427.154 13.3726 425.777 14.3797C424.409 15.3869 422.662 16.0437 420.544 16.3589V16.4465C422.75 16.8406 424.383 17.7601 425.459 19.1964C426.536 20.6413 426.818 22.4541 426.306 24.6435C425.883 26.3775 425.195 27.7699 424.233 28.8033C423.271 29.8367 422.018 30.5986 420.465 31.0715C418.912 31.5444 416.953 31.7896 414.579 31.7896H400.769L400.778 31.7808ZM413.696 31.2379C415.752 31.2379 417.447 30.6862 418.779 29.574C420.103 28.4705 421.065 26.7978 421.656 24.5472C422.053 22.892 422.097 21.4821 421.806 20.2998C421.506 19.1263 420.871 18.2243 419.882 17.6113C418.894 16.9982 417.597 16.683 415.982 16.683H411.834L409.081 27.9889C408.799 29.0835 408.781 29.898 409.019 30.4234C409.258 30.9576 409.831 31.2204 410.731 31.2204H413.696V31.2379ZM416.114 16.1488C418.285 16.1488 420.032 15.6146 421.347 14.5549C422.662 13.4952 423.589 11.8839 424.118 9.72078C424.683 7.50514 424.577 5.81494 423.8 4.65896C423.024 3.49421 421.559 2.91622 419.415 2.91622H415.267L412.002 16.1575H416.114V16.1488Z" fill="#1C3661"/>
<path d="M436.658 32.3238C435.131 32.3238 433.834 31.8684 432.757 30.9577C431.681 30.0469 430.948 28.7858 430.551 27.1744C430.154 25.5631 430.216 23.7328 430.719 21.6923C431.231 19.5642 432.086 17.6901 433.304 16.0787C434.522 14.4674 435.925 13.2238 437.522 12.3393C439.12 11.4548 440.734 11.0169 442.376 11.0169C443.761 11.0169 444.9 11.3497 445.782 12.0065C446.673 12.6633 447.114 13.5303 447.114 14.59C447.114 16.1838 446.506 17.4974 445.297 18.5221C444.079 19.5467 442.499 20.2823 440.549 20.7289C438.599 21.1756 436.499 21.4033 434.24 21.4033L434.196 20.8603C435.978 20.8603 437.637 20.5625 439.19 19.9758C440.743 19.389 441.996 18.5658 442.941 17.5149C443.885 16.4641 444.361 15.2906 444.361 14.0032C444.361 13.2501 444.167 12.6458 443.77 12.1992C443.373 11.7525 442.782 11.5248 441.987 11.5248C440.999 11.5248 440.037 11.8751 439.111 12.5757C438.175 13.2763 437.328 14.2572 436.569 15.5182C435.81 16.7793 435.21 18.2068 434.787 19.8094C434.31 21.7711 434.151 23.4875 434.319 24.9588C434.487 26.4301 434.963 27.5773 435.74 28.4092C436.516 29.2324 437.558 29.6528 438.855 29.6528C440.152 29.6528 441.37 29.2587 442.579 28.4793C443.796 27.6911 444.838 26.5001 445.711 24.9063L446.091 25.1164C444.988 27.5247 443.638 29.3375 442.049 30.5373C440.452 31.7458 438.652 32.3413 436.649 32.3413L436.658 32.3238Z" fill="#1C3661"/>
<path d="M447.035 42.2022C446.073 42.2022 445.358 42.0008 444.9 41.5892C444.432 41.1864 444.202 40.6259 444.202 39.9253C444.202 39.4787 444.308 39.0495 444.52 38.6467C444.732 38.2439 445.05 37.8936 445.473 37.6133L449.541 40.5558C451.994 39.8815 454.571 38.1213 457.254 35.2838C459.936 32.4377 462.178 29.2324 463.969 25.6594C465.76 22.0863 466.66 18.9862 466.66 16.3502C466.66 15.2555 466.466 14.406 466.087 13.8105C465.707 13.2063 465.09 12.9085 464.243 12.9085C463.678 12.9085 463.087 13.0837 462.46 13.4339C461.842 13.7842 461.216 14.2659 460.598 14.8877L460.386 14.5549C461.207 13.3814 462.063 12.4706 462.972 11.8226C463.872 11.1745 464.79 10.8593 465.725 10.8593C466.66 10.8593 467.331 11.1658 467.737 11.7875C468.143 12.4093 468.355 13.3726 468.355 14.6863C468.355 17.8214 467.137 21.5959 464.693 25.9922C462.248 30.3884 459.336 34.1979 455.948 37.4031C452.559 40.6084 449.594 42.2197 447.053 42.2197L447.035 42.2022ZM451.483 13.3201C451.368 12.8735 451.2 12.5582 450.971 12.3743C450.741 12.1904 450.432 12.1291 450.035 12.1816L449.065 12.3042L449.188 11.7963L455.498 10.9556L460.157 32.1837C459.707 32.7704 459.407 33.147 459.266 33.3222C458.93 33.7162 458.56 34.1103 458.163 34.5219C457.765 34.9248 457.262 35.3977 456.636 35.9319L451.465 13.3201H451.483ZM459.107 32.4026L459.195 31.7283H460.378L460.289 32.4026H459.107Z" fill="#1C3661"/>
<path d="M477.912 32.2012C476.164 32.2012 474.699 31.7633 473.526 30.8964C472.352 30.0294 471.576 28.7771 471.196 27.1306C470.817 25.493 470.896 23.5664 471.426 21.3507C472.246 17.9616 473.667 15.3869 475.705 13.6354C477.744 11.8839 480.109 11.0081 482.818 11.0081C484.565 11.0081 486.039 11.446 487.221 12.313C488.404 13.18 489.198 14.4411 489.595 16.0962C489.992 17.7514 489.904 19.6868 489.339 21.8937C488.518 25.2566 487.089 27.8137 485.042 29.5652C482.994 31.3167 480.612 32.1925 477.903 32.1925L477.912 32.2012ZM477.912 31.7371C479.35 31.7371 480.682 30.9752 481.918 29.4426C483.144 27.9188 484.168 25.5105 484.989 22.2352C485.642 19.6868 485.951 17.62 485.924 16.0349C485.898 14.4498 485.606 13.3026 485.059 12.5845C484.512 11.8664 483.753 11.5161 482.791 11.5161C481.38 11.5161 480.065 12.278 478.856 13.8105C477.638 15.3431 476.597 17.7864 475.723 21.1493C475.132 23.5051 474.841 25.4667 474.858 27.0343C474.876 28.6019 475.15 29.7842 475.688 30.5636C476.226 31.3518 476.976 31.7371 477.929 31.7371H477.912Z" fill="#1C3661"/>
<path d="M507.429 32.3676C506.247 32.3676 505.426 31.9998 504.976 31.2729C504.526 30.546 504.499 29.4689 504.888 28.0327L507.764 17.7339C508.162 16.2188 508.17 15.0541 507.782 14.2484C507.403 13.434 506.706 13.0311 505.682 13.0311C504.835 13.0311 503.944 13.3726 503.017 14.0645C502.082 14.7563 501.217 15.7284 500.414 17.007C499.611 18.2856 498.993 19.7744 498.569 21.4821L496.028 31.7809H492.048L496.619 13.4515C496.734 13.0311 496.699 12.6983 496.513 12.4444C496.328 12.1904 496.01 12.0941 495.56 12.1466L494.625 12.2692L494.748 11.8051L501.27 10.9206L501.393 11.1307L499.487 17.1821H499.611C500.511 15.3343 501.702 13.8193 503.167 12.6458C504.632 11.4723 506.176 10.8768 507.782 10.8768C509.644 10.8768 510.915 11.4635 511.594 12.6195C512.274 13.7843 512.3 15.5007 511.682 17.7689L508.806 28.2341C508.612 28.9609 508.612 29.5214 508.806 29.9155C509 30.3096 509.353 30.5023 509.865 30.5023C510.262 30.5023 510.685 30.3446 511.135 30.0381C511.585 29.7316 512.009 29.2675 512.406 28.6544L512.786 28.9084C512.053 30.0556 511.232 30.9226 510.332 31.4919C509.432 32.0698 508.453 32.3501 507.412 32.3501L507.429 32.3676Z" fill="#1C3661"/>
<path d="M520.392 32.3676C519.122 32.3676 518.08 31.9648 517.26 31.1678C516.439 30.3709 515.909 29.2237 515.671 27.7174C515.433 26.2199 515.548 24.4771 516.033 22.4804C516.651 19.9845 517.507 17.8828 518.592 16.175C519.677 14.4673 520.948 13.1712 522.404 12.2867C523.86 11.4022 525.422 10.9644 527.081 10.9644C528.211 10.9644 529.225 11.2183 530.134 11.7175C531.034 12.2254 531.74 12.8647 532.252 13.6529L531.573 13.9069C531.149 13.3727 530.646 12.9611 530.073 12.6633C529.499 12.3655 528.881 12.2254 528.228 12.2254C527.187 12.2254 526.19 12.5582 525.246 13.2325C524.301 13.9069 523.428 14.9402 522.616 16.3414C521.813 17.7426 521.125 19.5116 520.56 21.6397C520.048 23.5488 519.819 25.1427 519.863 26.43C519.907 27.7174 520.172 28.672 520.666 29.285C521.16 29.898 521.848 30.2133 522.722 30.2133C523.481 30.2133 524.293 29.8805 525.14 29.2237C525.987 28.5669 526.825 27.4809 527.664 25.9659C528.493 24.4509 529.225 22.4804 529.843 20.0371L534.202 2.92499C534.317 2.47836 534.3 2.17185 534.158 2.02297C534.017 1.86534 533.752 1.83031 533.355 1.91788L532.296 2.29446L532.42 1.83031L540 -0.0175171L539.877 0.490416L538.562 0.866987L531.661 28.1465C531.467 28.8996 531.458 29.4864 531.643 29.8892C531.829 30.2921 532.155 30.5023 532.641 30.5023C533.011 30.5023 533.391 30.3446 533.788 30.0381C534.185 29.7316 534.564 29.2675 534.935 28.6544L535.27 28.8646C534.644 30.0118 533.894 30.8788 533.002 31.4743C532.111 32.0699 531.22 32.3589 530.311 32.3589C529.128 32.3589 528.343 31.991 527.964 31.2642C527.584 30.5373 527.593 29.4426 527.981 27.9889L528.705 25.3003L530.276 26.141H528.325C527.39 28.1903 526.243 29.7316 524.875 30.7825C523.507 31.8334 522.016 32.3589 520.41 32.3589L520.392 32.3676Z" fill="#1C3661"/>
<path d="M0 84.3257L0.0882439 83.8615H1.31483C1.82665 83.8615 2.2414 83.7389 2.5679 83.485C2.8944 83.231 3.11501 82.8281 3.2209 82.2677L9.48622 56.9586C9.62741 56.4506 9.60977 56.0653 9.42445 55.7851C9.23914 55.5048 8.89499 55.3647 8.38317 55.3647H7.15658L7.28013 54.9006H20.1108C23.0758 54.9006 25.2378 55.5661 26.5879 56.8973C27.9469 58.2284 28.3263 60.085 27.7351 62.467C27.285 64.4287 26.3761 65.9175 24.9995 66.9246C23.6317 67.9317 21.8845 68.5885 19.7666 68.9038V68.9913C21.9727 69.3854 23.6053 70.305 24.6818 71.7412C25.7584 73.1862 26.0408 74.999 25.529 77.1883C25.1054 78.9223 24.4171 80.3148 23.4552 81.3481C22.4934 82.3815 21.2403 83.1434 19.6872 83.6163C18.1341 84.0892 16.1751 84.3344 13.8014 84.3344H0V84.3257ZM12.9189 83.7827C14.9838 83.7827 16.6781 83.231 18.0018 82.1188C19.3254 81.0153 20.2873 79.3427 20.8785 77.092C21.2756 75.4368 21.3197 74.0269 21.0285 72.8446C20.7285 71.6711 20.0931 70.7691 19.1048 70.1561C18.1165 69.5431 16.8193 69.2278 15.2044 69.2278H11.057L8.30375 80.5337C8.02137 81.6284 8.00373 82.4428 8.24198 82.9683C8.48024 83.5025 9.05383 83.7652 9.95392 83.7652H12.9189V83.7827ZM15.3368 68.6936C17.5076 68.6936 19.2548 68.1594 20.5697 67.0997C21.8845 66.0401 22.8111 64.4287 23.3405 62.2656C23.9053 60.05 23.7994 58.3598 23.0228 57.2038C22.2463 56.039 20.7815 55.4611 18.6371 55.4611H14.4897L11.2246 68.7023H15.3368V68.6936Z" fill="#1C3661"/>
<path d="M36.5507 84.746C34.8035 84.746 33.3386 84.3082 32.165 83.4412C30.9913 82.5742 30.2148 81.3219 29.8353 79.6755C29.4559 78.0378 29.5353 76.1112 30.0648 73.8955C30.8854 70.5064 32.3062 67.9317 34.3446 66.1802C36.3742 64.4287 38.748 63.5529 41.4571 63.5529C43.2043 63.5529 44.678 63.9908 45.8604 64.8578C47.0429 65.7248 47.8371 66.9859 48.2342 68.641C48.6313 70.2962 48.543 72.2316 47.9783 74.4385C47.1576 77.8014 45.7281 80.3585 43.6808 82.11C41.6335 83.8615 39.251 84.7373 36.5419 84.7373L36.5507 84.746ZM36.5507 84.2819C37.9891 84.2819 39.3215 83.52 40.557 81.9874C41.7924 80.4549 42.8072 78.0553 43.6279 74.78C44.2809 72.2316 44.5897 70.1648 44.5632 68.5797C44.5368 66.9946 44.2456 65.8474 43.6984 65.1293C43.1513 64.4112 42.3924 64.0609 41.4306 64.0609C40.0187 64.0609 38.7038 64.8228 37.4949 66.3553C36.2771 67.8879 35.2359 70.3312 34.3622 73.6941C33.771 76.0499 33.4798 78.0115 33.4974 79.5791C33.5151 81.1467 33.7887 82.329 34.3269 83.1084C34.8652 83.8966 35.6153 84.2819 36.5683 84.2819H36.5507Z" fill="#1C3661"/>
<path d="M55.9114 84.9124C54.0494 84.9124 52.7875 84.3257 52.1169 83.1697C51.455 82.0049 51.4197 80.306 52.011 78.0641L55.276 65.9175C55.4172 65.4708 55.3995 65.1293 55.2319 64.9104C55.0642 64.6827 54.7201 64.6126 54.2171 64.7002L53.2817 64.8666L53.4052 64.3586L59.6353 63.3953L59.8029 63.6055L55.9467 78.0641C55.5231 79.5791 55.5054 80.7439 55.8849 81.5758C56.2643 82.399 56.9791 82.8194 58.0204 82.8194C58.8675 82.8194 59.75 82.4779 60.6677 81.786C61.5854 81.1029 62.4502 80.1133 63.2533 78.826C64.0563 77.5386 64.674 76.0411 65.0975 74.3246L67.6831 64.0259L71.4952 63.5179L71.6629 63.7719L67.4713 80.7964C67.3036 81.5233 67.3036 82.0838 67.4713 82.4779C67.639 82.8719 68.0096 83.0646 68.5744 83.0646C68.945 83.0646 69.3333 82.907 69.7568 82.5829C70.1804 82.2589 70.604 81.8035 71.0275 81.2168L71.407 81.427C70.7275 82.5742 69.9421 83.4412 69.0332 84.0367C68.1331 84.6234 67.1448 84.9212 66.0682 84.9212C64.8858 84.9212 64.0739 84.5446 63.6327 83.7827C63.1915 83.0296 63.1915 81.9436 63.615 80.5425L64.2063 78.6071H64.0386C63.165 80.4549 61.9825 81.9699 60.5 83.1434C59.0175 84.3169 57.4821 84.9124 55.9025 84.9124H55.9114Z" fill="#1C3661"/>
<path d="M89.2852 84.9124C88.1027 84.9124 87.2821 84.5446 86.832 83.8177C86.382 83.0909 86.3555 82.0137 86.7438 80.5775L89.6205 70.2787C90.0176 68.7637 90.0265 67.5989 89.6382 66.7932C89.2587 65.9788 88.5616 65.5759 87.538 65.5759C86.6908 65.5759 85.7996 65.9175 84.873 66.6093C83.9376 67.3012 83.0728 68.2732 82.2698 69.5518C81.4668 70.8304 80.8491 72.3192 80.4255 74.0269L77.8841 84.3257H73.9043L78.4753 65.9963C78.5901 65.5759 78.5548 65.2432 78.3694 64.9892C78.1841 64.7352 77.8665 64.6389 77.4164 64.6914L76.481 64.814L76.6046 64.3499L83.1258 63.4654L83.2493 63.6756L81.3433 69.727H81.4668C82.3669 67.8792 83.5582 66.3641 85.023 65.1906C86.4879 64.0171 88.0322 63.4216 89.6382 63.4216C91.5001 63.4216 92.7709 64.0084 93.4503 65.1643C94.1298 66.3291 94.1563 68.0455 93.5386 70.3137L90.6618 80.7789C90.4677 81.5058 90.4677 82.0663 90.6618 82.4603C90.856 82.8544 91.2089 83.0471 91.7208 83.0471C92.1178 83.0471 92.5414 82.8895 92.9915 82.5829C93.4415 82.2764 93.8651 81.8123 94.2622 81.1993L94.6416 81.4532C93.9092 82.6005 93.0885 83.4675 92.1884 84.0367C91.2884 84.6147 90.3088 84.8949 89.2676 84.8949L89.2852 84.9124Z" fill="#1C3661"/>
<path d="M102.248 84.9124C100.978 84.9124 99.9362 84.5096 99.1156 83.7127C98.2949 82.9157 97.7654 81.7685 97.5272 80.2622C97.2889 78.7647 97.4036 77.022 97.889 75.0253C98.5067 72.5294 99.3627 70.4276 100.448 68.7199C101.533 67.0122 102.804 65.7161 104.26 64.8316C105.716 63.9471 107.278 63.5092 108.937 63.5092C110.067 63.5092 111.081 63.7631 111.99 64.2623C112.89 64.7703 113.596 65.4095 114.108 66.1977L113.429 66.4517C113.005 65.9175 112.502 65.5059 111.929 65.2081C111.346 64.9104 110.737 64.7703 110.084 64.7703C109.043 64.7703 108.046 65.103 107.102 65.7774C106.157 66.4517 105.284 67.4851 104.472 68.8863C103.669 70.2875 102.981 72.0565 102.416 74.1845C101.904 76.0937 101.675 77.6875 101.719 78.9749C101.763 80.2622 102.028 81.2168 102.522 81.8298C103.016 82.4428 103.704 82.7581 104.578 82.7581C105.337 82.7581 106.149 82.4253 106.996 81.7685C107.843 81.1117 108.681 80.0258 109.52 78.5107C110.349 76.9957 111.081 75.0253 111.699 72.5819L116.058 55.4698C116.173 55.0232 116.155 54.7167 116.014 54.5678C115.873 54.4102 115.608 54.3751 115.211 54.4627L114.152 54.8393L114.276 54.3751L121.856 52.5273L121.732 53.0352L120.418 53.4118L113.517 80.6913C113.323 81.4445 113.314 82.0312 113.499 82.4341C113.685 82.8369 114.011 83.0471 114.496 83.0471C114.867 83.0471 115.247 82.8895 115.644 82.583C116.041 82.2764 116.42 81.8123 116.791 81.1993L117.126 81.4095C116.508 82.5567 115.75 83.4237 114.858 84.0192C113.967 84.6059 113.076 84.9037 112.167 84.9037C110.984 84.9037 110.199 84.5359 109.82 83.809C109.44 83.0821 109.449 81.9874 109.837 80.5337L110.561 77.8452L112.132 78.6859H110.181C109.246 80.7351 108.099 82.2764 106.731 83.3273C105.363 84.3782 103.872 84.9037 102.266 84.9037L102.248 84.9124Z" fill="#1C3661"/>
<path d="M124.609 84.9124C123.391 84.9124 122.385 84.5184 121.582 83.7389C120.779 82.9595 120.268 81.8211 120.056 80.3323C119.844 78.8435 119.994 77.127 120.497 75.1654C121.115 72.6695 121.971 70.5589 123.056 68.8162C124.142 67.0822 125.395 65.7598 126.824 64.8666C128.254 63.9733 129.754 63.5179 131.333 63.5179C132.295 63.5179 133.151 63.7018 133.919 64.0609C134.678 64.4287 135.331 64.9629 135.869 65.6548L139.77 63.4654L139.893 63.588L135.613 80.7789C135.419 81.5058 135.41 82.0663 135.596 82.4603C135.781 82.8544 136.125 83.0471 136.637 83.0471C137.034 83.0471 137.449 82.8895 137.89 82.5654C138.331 82.2414 138.755 81.786 139.178 81.1993L139.514 81.4094C138.861 82.5567 138.084 83.4237 137.166 84.0192C136.249 84.6059 135.269 84.9037 134.219 84.9037C133.037 84.9037 132.26 84.5183 131.907 83.7477C131.554 82.977 131.563 81.8911 131.925 80.4899L132.392 78.6859H132.225C131.289 80.6738 130.169 82.2064 128.854 83.2923C127.539 84.3695 126.118 84.9124 124.6 84.9124H124.609ZM126.939 82.7669C127.698 82.7669 128.483 82.4428 129.286 81.8035C130.089 81.1642 130.892 80.0783 131.704 78.5633C132.507 77.0482 133.204 75.0603 133.804 72.5907L135.331 66.3291C135.022 65.8562 134.581 65.4709 134.016 65.1906C133.451 64.9104 132.904 64.7703 132.366 64.7703C131.351 64.7703 130.38 65.1118 129.463 65.8036C128.545 66.4955 127.698 67.5464 126.921 68.9738C126.145 70.4013 125.5 72.1878 124.998 74.3159C124.486 76.2513 124.247 77.8452 124.274 79.1062C124.3 80.3673 124.539 81.2956 124.998 81.8823C125.456 82.4691 126.101 82.7669 126.948 82.7669H126.939Z" fill="#1C3661"/>
<path d="M146.467 65.9963C146.556 65.5759 146.511 65.2432 146.361 65.0067C146.203 64.7703 145.885 64.6652 145.408 64.6914L144.438 64.8578L144.561 64.3499L151.082 63.4654L151.171 63.6756L149.265 69.981H149.432C150.306 67.8529 151.338 66.224 152.521 65.103C153.703 63.9821 155.018 63.4216 156.457 63.4216C157.215 63.4216 157.798 63.5792 158.195 63.9033C158.592 64.2273 158.786 64.6827 158.786 65.2694C158.786 65.6898 158.627 66.1277 158.318 66.5918C158.01 67.056 157.665 67.3975 157.304 67.6252C157.021 67.2048 156.659 66.8808 156.227 66.6619C155.786 66.4342 155.318 66.3291 154.806 66.3291C153.421 66.3291 152.141 67.0472 150.977 68.4747C149.803 69.9021 148.823 72.2141 148.029 75.4106L145.823 84.3257H141.887L146.458 65.9963H146.467Z" fill="#1C3661"/>
<path d="M161.884 84.9124C160.728 84.9124 159.925 84.5446 159.466 83.8177C159.007 83.0909 158.971 82.0137 159.342 80.5775L163.11 65.9087C163.225 65.4884 163.172 65.1643 162.96 64.9454C162.748 64.7265 162.413 64.6389 161.963 64.6914L161.072 64.814L161.195 64.3499L167.425 63.3866L167.549 63.5967L163.225 80.7876C163.057 81.5145 163.066 82.075 163.269 82.4691C163.463 82.8632 163.834 83.0558 164.372 83.0558C164.769 83.0558 165.184 82.8982 165.625 82.5917C166.066 82.2852 166.481 81.821 166.878 81.208L167.258 81.462C166.552 82.6092 165.74 83.4762 164.822 84.0454C163.904 84.6234 162.925 84.9037 161.875 84.9037L161.884 84.9124ZM166.71 60.1988C165.916 60.1988 165.307 59.9361 164.866 59.4019C164.425 58.8677 164.284 58.1846 164.425 57.3439C164.566 56.617 164.901 56.0215 165.422 55.5574C165.943 55.0932 166.587 54.8655 167.346 54.8655C168.105 54.8655 168.749 55.137 169.19 55.6887C169.631 56.2317 169.773 56.9148 169.631 57.7292C169.49 58.5174 169.164 59.1217 168.661 59.5595C168.158 59.9974 167.505 60.2076 166.71 60.2076V60.1988Z" fill="#1C3661"/>
<path d="M176.541 84.8686C175.014 84.8686 173.717 84.4132 172.64 83.5025C171.564 82.5917 170.831 81.3306 170.434 79.7192C170.037 78.1079 170.099 76.2775 170.602 74.2371C171.114 72.109 171.97 70.2349 173.188 68.6235C174.405 67.0121 175.808 65.7686 177.406 64.8841C179.003 63.9996 180.618 63.5617 182.259 63.5617C183.644 63.5617 184.783 63.8945 185.665 64.5513C186.548 65.2081 186.998 66.0751 186.998 67.1348C186.998 68.7286 186.389 70.0422 185.18 71.0669C183.962 72.0915 182.383 72.8271 180.432 73.2737C178.482 73.7204 176.382 73.9481 174.123 73.9481L174.079 73.4051C175.861 73.4051 177.52 73.1073 179.073 72.5206C180.627 71.9338 181.88 71.1106 182.824 70.0597C183.768 69.0089 184.245 67.8353 184.245 66.548C184.245 65.7949 184.05 65.1906 183.653 64.744C183.256 64.2973 182.665 64.0696 181.871 64.0696C180.882 64.0696 179.921 64.4199 178.994 65.1205C178.059 65.8211 177.211 66.802 176.453 68.063C175.694 69.3241 175.094 70.7516 174.67 72.3542C174.194 74.3159 174.035 76.0323 174.202 77.5036C174.37 78.9749 174.847 80.1221 175.623 80.954C176.4 81.7772 177.441 82.1976 178.738 82.1976C180.035 82.1976 181.253 81.8035 182.462 81.0241C183.68 80.2359 184.721 79.0449 185.595 77.4511L185.974 77.6612C184.871 80.0695 183.521 81.8823 181.933 83.0821C180.335 84.2906 178.535 84.8861 176.532 84.8861L176.541 84.8686Z" fill="#1C3661"/>
<path d="M194.207 84.8248C193.078 84.8248 192.019 84.6322 191.03 84.2556C190.042 83.879 189.257 83.3799 188.683 82.7668C188.101 82.1538 187.818 81.4882 187.818 80.7877C187.818 80.1396 188.013 79.6404 188.392 79.2726C188.771 78.9048 189.301 78.7296 189.98 78.7296C190.289 80.5775 190.88 81.9349 191.736 82.7844C192.601 83.6426 193.678 84.0629 194.975 84.0629C195.91 84.0629 196.713 83.8177 197.393 83.3273C198.072 82.8369 198.505 82.1713 198.708 81.3306C198.964 80.3498 198.867 79.439 198.408 78.5983C197.949 77.7576 197.234 77.0044 196.246 76.3301L194.251 74.8588C193.095 73.9919 192.257 73.0285 191.754 71.9776C191.242 70.9267 191.163 69.7532 191.498 68.4659C191.895 66.9246 192.751 65.716 194.084 64.8491C195.407 63.9821 196.89 63.5442 198.531 63.5442C199.714 63.5442 200.808 63.7281 201.796 64.0872C202.785 64.4462 203.561 64.9191 204.126 65.4971C204.691 66.0751 204.973 66.6706 204.973 67.2836C204.973 67.8967 204.77 68.3083 204.355 68.5885C203.949 68.8687 203.385 69.0089 202.679 69.0089C202.511 68.0543 202.202 67.2223 201.743 66.5042C201.293 65.7861 200.737 65.2344 200.067 64.8403C199.405 64.4462 198.69 64.2535 197.931 64.2535C197.11 64.2535 196.387 64.4637 195.769 64.8841C195.151 65.3044 194.763 65.8824 194.622 66.6093C194.428 67.5901 194.534 68.4484 194.957 69.1752C195.381 69.9021 196.06 70.6027 196.987 71.277L198.981 72.7483C200.225 73.6416 201.152 74.6574 201.779 75.7784C202.396 76.8993 202.529 78.1779 202.158 79.6054C201.902 80.6388 201.399 81.5583 200.631 82.3552C199.872 83.1522 198.928 83.7652 197.816 84.1855C196.705 84.6059 195.496 84.8161 194.198 84.8161L194.207 84.8248Z" fill="#1C3661"/>
<path d="M215.509 65.3657C215.28 64.8315 215.095 64.4812 214.936 64.3149C214.777 64.1485 214.547 64.0609 214.239 64.0609H213.692V63.5529H225.004V64.0609H223.522C223.01 64.0609 222.657 64.2273 222.463 64.5688C222.269 64.9016 222.278 65.357 222.507 65.9175L226.487 76.1725H226.575L231.746 63.5617H232.47L238.735 76.1725H238.823L241.153 69.6131C241.524 68.5447 241.682 67.5989 241.638 66.7582C241.594 65.9175 241.365 65.2607 240.941 64.779C240.518 64.3061 239.926 64.0609 239.159 64.0609H238.1V63.5529H245.636V64.0609H245.124C244.753 64.0609 244.436 64.1747 244.171 64.3937C243.906 64.6214 243.633 65.0154 243.368 65.5934C243.103 66.1714 242.75 67.0297 242.327 68.1769L236.485 84.3169H235.761L229.496 70.7428H229.372L223.698 84.3169H222.975L215.518 65.357L215.509 65.3657Z" fill="#1C3661"/>
<path d="M246.977 84.3257V83.7827H247.736C248.186 83.7827 248.521 83.6776 248.733 83.4675C248.945 83.2573 249.051 82.9157 249.051 82.4341V65.322C249.051 64.8753 248.927 64.5426 248.689 64.3324C248.451 64.1222 248.071 64.0434 247.568 64.1047L246.977 64.1923V63.6843L255.113 62.6772L255.369 62.9312V82.4341C255.369 82.907 255.475 83.2573 255.687 83.4675C255.899 83.6776 256.234 83.7827 256.684 83.7827H257.363V84.3257H246.986H246.977ZM252.184 60.663C251.081 60.663 250.198 60.3302 249.536 59.6734C248.874 59.0166 248.539 58.1496 248.539 57.09C248.539 56.0303 248.874 55.1633 249.554 54.5065C250.233 53.8497 251.107 53.5169 252.184 53.5169C253.26 53.5169 254.169 53.8497 254.831 54.5065C255.493 55.1633 255.828 56.0303 255.828 57.09C255.828 58.1496 255.493 59.0516 254.831 59.6997C254.169 60.3477 253.287 60.663 252.184 60.663Z" fill="#1C3661"/>
<path d="M267.106 85C265.323 85 263.946 84.4746 262.976 83.4237C262.005 82.3728 261.511 80.9891 261.511 79.2814V64.1047H259.649V63.5617H261.511L267.273 56.836V54.9006H267.82V63.5617L273.583 63.1414V64.3586L267.82 64.1047V78.2743C267.82 79.6755 268.05 80.6826 268.5 81.3043C268.95 81.9174 269.629 82.2326 270.529 82.2326C271.121 82.2326 271.668 82.075 272.162 81.7685C272.656 81.462 273.088 80.954 273.45 80.2535L273.83 80.4636C273.265 81.9174 272.409 83.0383 271.271 83.8265C270.132 84.6147 268.738 85 267.097 85H267.106Z" fill="#1C3661"/>
<path d="M275.021 84.3257V83.7827H275.78C276.204 83.7827 276.512 83.6864 276.715 83.485C276.91 83.2923 277.015 82.9683 277.015 82.5216V56.6696C277.015 56.0828 276.927 55.6888 276.76 55.4961C276.592 55.3034 276.292 55.2596 275.868 55.3735L274.809 55.6712V55.1283L284.463 52.2733V52.7813L283.316 53.2016V82.5392C283.316 82.9858 283.431 83.3098 283.651 83.5025C283.881 83.6951 284.198 83.8002 284.622 83.8002H285.381V84.3432H275.003L275.021 84.3257ZM296.323 82.5216C296.323 82.9683 296.429 83.2923 296.641 83.485C296.853 83.6776 297.153 83.7827 297.55 83.7827H298.52V84.3257H287.764V83.7827H288.778C289.175 83.7827 289.475 83.6776 289.687 83.4674C289.899 83.2573 290.005 82.942 290.005 82.5216V70.1649C290.005 68.9038 289.749 67.9142 289.246 67.2048C288.734 66.4867 287.931 66.1364 286.828 66.1364C286.069 66.1364 285.363 66.3291 284.728 66.7057C284.093 67.0822 283.616 67.5376 283.307 68.0718L280.678 68.7461L280.801 66.8107H283.854L283.131 67.6515C283.581 66.3641 284.401 65.2344 285.584 64.2711C286.766 63.3078 288.267 62.8173 290.076 62.8173C291.885 62.8173 293.446 63.4654 294.585 64.7527C295.732 66.0401 296.297 67.7653 296.297 69.9196V82.5304L296.323 82.5216Z" fill="#1C3661"/>
<path d="M310.557 84.3257V83.7827H311.572C312.11 83.7827 312.507 83.6601 312.754 83.4237C313.01 83.1872 313.134 82.8019 313.134 82.2677V56.9586C313.134 56.4244 313.01 56.039 312.754 55.8026C312.498 55.5661 312.101 55.4435 311.572 55.4435H310.557V54.9006H324.067V55.4435H322.417C321.879 55.4435 321.49 55.5661 321.234 55.8026C320.978 56.039 320.855 56.4244 320.855 56.9586V68.9388H332.247V56.9586C332.247 56.4244 332.115 56.039 331.841 55.8026C331.577 55.5661 331.171 55.4435 330.632 55.4435H328.982V54.9006H342.492V55.4435H341.478C340.939 55.4435 340.551 55.5661 340.313 55.8026C340.074 56.039 339.951 56.4244 339.951 56.9586V82.2677C339.951 82.8019 340.066 83.1872 340.313 83.4237C340.551 83.6601 340.939 83.7827 341.478 83.7827H342.492V84.3257H328.982V83.7827H330.632C331.171 83.7827 331.568 83.6601 331.841 83.4237C332.106 83.1872 332.247 82.8019 332.247 82.2677V69.6131H320.855V82.2677C320.855 82.8019 320.978 83.1872 321.234 83.4237C321.49 83.6601 321.887 83.7827 322.417 83.7827H324.067V84.3257H310.557Z" fill="#1C3661"/>
<path d="M355.588 84.7898C353.382 84.7898 351.458 84.3519 349.808 83.485C348.158 82.618 346.878 81.3656 345.978 79.7192C345.078 78.0816 344.619 76.155 344.619 73.9393C344.619 71.7237 345.087 69.8058 346.013 68.1769C346.949 66.548 348.272 65.2957 349.993 64.4112C351.714 63.5267 353.717 63.0888 356.011 63.0888C358.306 63.0888 360.15 63.5267 361.818 64.4112C363.486 65.2957 364.765 66.548 365.674 68.1769C366.574 69.8058 367.033 71.7237 367.033 73.9393C367.033 76.155 366.565 78.0816 365.639 79.7192C364.703 81.3569 363.38 82.6092 361.659 83.485C359.938 84.3519 357.918 84.7898 355.606 84.7898H355.588ZM355.711 84.2031C356.647 84.2031 357.423 83.8615 358.059 83.1697C358.694 82.4866 359.171 81.4269 359.497 79.9995C359.824 78.572 359.982 76.7242 359.982 74.4472C359.982 70.7166 359.638 67.993 358.941 66.2678C358.244 64.5425 357.229 63.6843 355.87 63.6843C354.935 63.6843 354.158 64.0171 353.541 64.6914C352.923 65.3658 352.446 66.4254 352.12 67.8616C351.793 69.2978 351.635 71.1632 351.635 73.4314C351.635 75.9273 351.793 77.9677 352.102 79.5441C352.411 81.1292 352.861 82.2939 353.461 83.0558C354.052 83.809 354.802 84.1943 355.703 84.1943L355.711 84.2031Z" fill="#1C3661"/>
<path d="M369.689 84.3257V83.7827H370.448C370.898 83.7827 371.234 83.6864 371.445 83.485C371.657 83.2923 371.763 82.9683 371.763 82.5216V65.4971C371.763 64.9892 371.639 64.6301 371.401 64.4024C371.163 64.1747 370.819 64.0784 370.36 64.1047L369.68 64.1923V63.6843L378.152 62.8436L378.364 63.0538L377.772 68.6411L377.305 69.0614H378.064V82.0925C378.064 82.6793 378.196 83.1084 378.47 83.3711C378.734 83.6338 379.158 83.774 379.723 83.774H381.461V84.3169H369.689V84.3257ZM375.363 70.2437V68.4747H377.949C378.849 66.5655 379.776 65.1293 380.72 64.1485C381.664 63.1676 382.749 62.6772 383.958 62.6772C384.973 62.6772 385.794 62.9925 386.411 63.623C387.029 64.2536 387.347 65.1118 387.347 66.2065C387.347 67.3012 387.038 68.1156 386.411 68.7286C385.794 69.3504 385.017 69.6569 384.082 69.6569C383.491 69.6569 382.926 69.5431 382.388 69.3241C382.361 68.4834 382.255 67.8354 382.07 67.3712C381.885 66.9071 381.593 66.6794 381.205 66.6794C380.782 66.6794 380.287 66.9071 379.723 67.3712C379.158 67.8354 378.611 68.5447 378.072 69.4905L375.363 70.2437Z" fill="#1C3661"/>
<path d="M389.262 84.3257V83.7827H390.021C390.471 83.7827 390.806 83.6776 391.018 83.4675C391.23 83.2573 391.335 82.9157 391.335 82.4341V65.322C391.335 64.8753 391.212 64.5426 390.974 64.3324C390.735 64.1222 390.356 64.0434 389.853 64.1047L389.262 64.1923V63.6843L397.398 62.6772L397.654 62.9312V82.4341C397.654 82.907 397.76 83.2573 397.971 83.4675C398.183 83.6776 398.519 83.7827 398.969 83.7827H399.648V84.3257H389.271H389.262ZM394.468 60.663C393.365 60.663 392.483 60.3302 391.821 59.6734C391.159 59.0166 390.824 58.1496 390.824 57.09C390.824 56.0303 391.159 55.1633 391.838 54.5065C392.518 53.8497 393.392 53.5169 394.468 53.5169C395.545 53.5169 396.454 53.8497 397.115 54.5065C397.777 55.1633 398.113 56.0303 398.113 57.09C398.113 58.1496 397.777 59.0516 397.115 59.6997C396.454 60.3477 395.571 60.663 394.468 60.663Z" fill="#1C3661"/>
<path d="M401.925 84.3257V83.7827L412.726 64.236V64.1134H410.864C409.593 64.1134 408.393 64.4112 407.263 64.9979C406.134 65.5847 405.199 66.3729 404.448 67.3537C403.698 68.3345 403.213 69.4117 402.984 70.594L402.728 71.9776H402.216L403.363 62.7735H403.619L404.298 63.5705H420.306V64.0784L409.549 83.6251V83.7915H411.711C413.944 83.7915 415.797 83.0996 417.279 81.7072C418.762 80.3235 419.688 78.4231 420.05 76.0148L420.306 74.4998H420.774L420.015 84.3344H401.925V84.3257Z" fill="#1C3661"/>
<path d="M434.451 84.7898C432.245 84.7898 430.322 84.3519 428.671 83.485C427.021 82.618 425.742 81.3656 424.842 79.7192C423.942 78.0816 423.483 76.155 423.483 73.9393C423.483 71.7237 423.95 69.8058 424.877 68.1769C425.812 66.548 427.136 65.2957 428.857 64.4112C430.577 63.5267 432.581 63.0888 434.875 63.0888C437.169 63.0888 439.014 63.5267 440.681 64.4112C442.349 65.2957 443.629 66.548 444.538 68.1769C445.438 69.8058 445.897 71.7237 445.897 73.9393C445.897 76.155 445.429 78.0816 444.502 79.7192C443.567 81.3569 442.243 82.6092 440.523 83.485C438.802 84.3519 436.781 84.7898 434.469 84.7898H434.451ZM434.575 84.2031C435.51 84.2031 436.287 83.8615 436.922 83.1697C437.558 82.4866 438.034 81.4269 438.361 79.9995C438.687 78.572 438.846 76.7242 438.846 74.4472C438.846 70.7166 438.502 67.993 437.805 66.2678C437.108 64.5425 436.093 63.6843 434.734 63.6843C433.798 63.6843 433.022 64.0171 432.404 64.6914C431.786 65.3658 431.31 66.4254 430.983 67.8616C430.657 69.2978 430.498 71.1632 430.498 73.4314C430.498 75.9273 430.657 77.9677 430.966 79.5441C431.275 81.1292 431.725 82.2939 432.325 83.0558C432.916 83.809 433.666 84.1943 434.566 84.1943L434.575 84.2031Z" fill="#1C3661"/>
<path d="M448.385 84.3257V83.7827H449.444C449.815 83.7827 450.097 83.6864 450.291 83.4849C450.485 83.2923 450.591 82.9683 450.591 82.5216V65.4971C450.591 65.0767 450.503 64.7352 450.318 64.4637C450.132 64.201 449.815 64.0784 449.365 64.1047L448.394 64.1922V63.6843L456.989 62.8436L457.245 63.0538L456.865 67.0472L456.565 67.6777L456.945 67.7653V82.5216C456.945 82.9157 457.042 83.2222 457.245 83.4499C457.439 83.6776 457.765 83.7827 458.216 83.7827H459.186V84.3257H448.385ZM461.348 84.3257V83.7827H462.363C462.787 83.7827 463.095 83.6776 463.298 83.4674C463.493 83.2573 463.598 82.942 463.598 82.5216V70.1648C463.598 68.9038 463.342 67.9142 462.839 67.2048C462.328 66.4867 461.525 66.1364 460.422 66.1364C459.689 66.1364 459.001 66.3291 458.366 66.7056C457.73 67.0822 457.254 67.5376 456.945 68.0718L454.315 68.7023L454.403 66.9333H457.492L456.733 67.6514C457.183 66.3641 458.021 65.2344 459.23 64.2711C460.448 63.3077 461.931 62.8173 463.678 62.8173C465.566 62.8173 467.084 63.4654 468.231 64.7527C469.378 66.0401 469.943 67.7653 469.943 69.9196V82.5304C469.943 82.977 470.04 83.301 470.243 83.4937C470.446 83.6864 470.737 83.7915 471.134 83.7915H472.149V84.3344H461.348V84.3257Z" fill="#1C3661"/>
</svg>
