<svg width="26" height="25" viewBox="0 0 26 25" fill="none" xmlns="http://www.w3.org/2000/svg">
<path d="M12.5502 19.1304H19.5705C19.4638 19.2228 19.357 19.3036 19.2503 19.396L14.1867 23.0907C12.5147 24.3031 9.7872 24.3031 8.10329 23.0907L3.02783 19.396C1.91312 18.5877 1 16.7981 1 15.4472V6.89143C1 5.4828 2.10286 3.92407 3.45473 3.42758L9.36028 1.26845C10.3327 0.910517 11.9454 0.910517 12.9178 1.26845L18.8116 3.42758C19.9381 3.84324 20.8987 4.99786 21.1951 6.17557H12.5384C12.2775 6.17557 12.0403 6.18712 11.815 6.18712C9.62117 6.31413 9.05195 7.08771 9.05195 9.52395V15.7935C9.06381 18.4491 9.76348 19.1304 12.5502 19.1304Z" stroke="#0E2A3F" stroke-linecap="round" stroke-linejoin="round"/>
<path d="M8.85364 11.6586H24.561" stroke="#0E2A3F" stroke-miterlimit="10" stroke-linecap="round" stroke-linejoin="round"/>
<path d="M24.561 9.39221V15.7688C24.5372 18.3195 23.8113 18.9513 21.0625 18.9513H12.3522C9.55571 18.9513 8.85364 18.2735 8.85364 15.6195V9.38071C8.85364 6.96795 9.42482 6.19814 11.6263 6.06027C11.8524 6.06027 12.0904 6.04881 12.3522 6.04881H21.0625C23.8589 6.0603 24.561 6.72668 24.561 9.39221Z" stroke="#0E2A3F" stroke-linecap="round" stroke-linejoin="round"/>
<path d="M12.2195 16.1464H13.3414" stroke="#0E2A3F" stroke-miterlimit="10" stroke-linecap="round" stroke-linejoin="round"/>
<path d="M16.1464 16.1464H20.0732" stroke="#0E2A3F" stroke-miterlimit="10" stroke-linecap="round" stroke-linejoin="round"/>
</svg>
