<svg width="493" height="105" viewBox="0 0 493 105" fill="none" xmlns="http://www.w3.org/2000/svg">
<g clip-path="url(#clip0_548_7387)">
<path d="M2.87988 33.6V32.98H4.07988C4.61988 32.98 5.04988 32.84 5.34988 32.57C5.64988 32.3 5.80988 31.86 5.80988 31.25V2.35C5.80988 1.81 5.66988 1.38 5.39988 1.08C5.12988 0.78 4.68988 0.62 4.07988 0.62H2.87988V0H17.1799V0.62H16.1699C15.6599 0.62 15.2599 0.75 14.9699 1C14.6799 1.25 14.5399 1.7 14.5399 2.34V31.25C14.5399 31.79 14.6699 32.22 14.9199 32.52C15.1699 32.82 15.5899 32.98 16.1699 32.98H17.1299V33.6H2.87988ZM10.8999 17.09V16.32H19.5899V17.09H10.8999ZM25.7299 33.6L16.6099 16.65L26.2599 6.18C27.1199 5.25 27.6499 4.36 27.8399 3.5C28.0299 2.64 27.8899 1.94 27.4099 1.42C26.9299 0.89 26.1799 0.63 25.1499 0.63H24.1399V0.01H36.4799V0.63H36.0999C35.2999 0.63 34.5699 0.73 33.9199 0.92C33.2599 1.11 32.4799 1.54 31.5699 2.21C30.6599 2.88 29.5299 3.94 28.1899 5.38L20.3199 13.87L22.7199 10.65L34.0999 31.11C34.4499 31.75 34.8299 32.22 35.2299 32.53C35.6299 32.83 36.0899 32.99 36.5999 32.99H36.9799V33.61H25.7499L25.7299 33.6Z" fill="#0E2A3F"/>
<path d="M38.1599 33.6V32.98H39.3599C39.7799 32.98 40.0999 32.87 40.3199 32.64C40.5399 32.41 40.6599 32.05 40.6599 31.54V12.1C40.6599 11.62 40.5599 11.23 40.3499 10.92C40.1399 10.62 39.7799 10.48 39.2699 10.51L38.1699 10.61V10.03L47.9099 9.07004L48.1999 9.31004L47.7699 13.87L47.4299 14.59L47.8599 14.69V31.54C47.8599 31.99 47.9699 32.34 48.1999 32.6C48.4199 32.86 48.7899 32.98 49.2999 32.98H50.3999V33.6H38.1599ZM52.8499 33.6V32.98H53.9999C54.4799 32.98 54.8299 32.86 55.0599 32.62C55.2799 32.38 55.3999 32.02 55.3999 31.54V17.43C55.3999 15.99 55.1099 14.86 54.5399 14.05C53.9599 13.23 53.0499 12.83 51.7999 12.83C50.9699 12.83 50.1899 13.05 49.4699 13.48C48.7499 13.91 48.2099 14.43 47.8599 15.04L44.8799 15.76L44.9799 13.74H48.4799L47.6199 14.56C48.1299 13.09 49.0799 11.8 50.4499 10.7C51.8299 9.60004 53.5099 9.04004 55.4899 9.04004C57.6299 9.04004 59.3499 9.78004 60.6499 11.25C61.9499 12.72 62.5899 14.69 62.5899 17.15V31.55C62.5899 32.06 62.6999 32.43 62.9299 32.65C63.1499 32.87 63.4899 32.99 63.9399 32.99H65.0899V33.61H52.8499V33.6Z" fill="#0E2A3F"/>
<path d="M79.97 34.1301C77.47 34.1301 75.29 33.6301 73.42 32.6401C71.55 31.6501 70.1 30.2201 69.08 28.3401C68.06 26.4701 67.54 24.2701 67.54 21.7401C67.54 19.2101 68.07 17.0201 69.12 15.1601C70.18 13.3001 71.68 11.8701 73.63 10.8601C75.58 9.8501 77.85 9.3501 80.45 9.3501C83.05 9.3501 85.14 9.8501 87.03 10.8601C88.92 11.8701 90.37 13.3001 91.4 15.1601C92.42 17.0201 92.94 19.2101 92.94 21.7401C92.94 24.2701 92.41 26.4701 91.36 28.3401C90.3 30.2101 88.8 31.6401 86.85 32.6401C84.9 33.6301 82.61 34.1301 79.99 34.1301H79.97ZM80.11 33.4601C81.17 33.4601 82.05 33.0701 82.77 32.2801C83.49 31.4901 84.03 30.2901 84.4 28.6601C84.77 27.0301 84.95 24.9201 84.95 22.3201C84.95 18.0601 84.56 14.9501 83.77 12.9801C82.99 11.0101 81.83 10.0301 80.29 10.0301C79.23 10.0301 78.35 10.4101 77.65 11.1801C76.95 11.9501 76.41 13.1601 76.04 14.8001C75.67 16.4501 75.49 18.5701 75.49 21.1601C75.49 24.0101 75.67 26.3401 76.02 28.1401C76.37 29.9501 76.88 31.2801 77.56 32.1501C78.23 33.0101 79.08 33.4501 80.1 33.4501L80.11 33.4601Z" fill="#0E2A3F"/>
<path d="M95.3801 11.9499C95.1201 11.3399 94.9101 10.9399 94.7301 10.7499C94.5501 10.5599 94.2901 10.4599 93.9401 10.4599H93.3201V9.87988H106.14V10.4599H104.46C103.88 10.4599 103.48 10.6499 103.26 11.0399C103.04 11.4199 103.05 11.9399 103.31 12.5799L107.82 24.2899H107.92L113.78 9.88988H114.6L121.7 24.2899H121.8L124.44 16.7999C124.86 15.5799 125.04 14.4999 124.99 13.5399C124.94 12.5799 124.68 11.8299 124.2 11.2799C123.72 10.7399 123.05 10.4599 122.18 10.4599H120.98V9.87988H129.52V10.4599H128.94C128.52 10.4599 128.16 10.5899 127.86 10.8399C127.56 11.0999 127.25 11.5499 126.95 12.2099C126.65 12.8699 126.25 13.8499 125.77 15.1599L119.15 33.5899H118.33L111.23 18.0899H111.09L104.66 33.5899H103.84L95.3901 11.9399L95.3801 11.9499Z" fill="#0E2A3F"/>
<path d="M140.02 11.9501C139.76 11.3701 139.52 10.9801 139.28 10.7701C139.04 10.5601 138.68 10.4601 138.2 10.4601H137.91V9.88012H151.3V10.4601H149.38C148.74 10.4601 148.31 10.6501 148.08 11.0401C147.86 11.4201 147.89 11.9201 148.18 12.5301L154.85 26.9301L150.82 35.0901L140.02 11.9501ZM140.5 45.0201V44.6801L150.82 34.8401L158.79 17.0801C159.27 15.9901 159.55 14.9301 159.63 13.8901C159.71 12.8501 159.56 12.0201 159.17 11.3901C158.78 10.7601 158.19 10.4501 157.39 10.4501H156.53V9.87012H164.55V10.4501H164.31C163.73 10.4501 163.19 10.7101 162.68 11.2401C162.17 11.7701 161.59 12.7401 160.95 14.1401L147.03 45.0001H140.5V45.0201ZM153.56 26.9201L153.46 26.2501H155.33L155.04 26.9201H153.55H153.56Z" fill="#0E2A3F"/>
<path d="M176.78 34.1301C174.28 34.1301 172.1 33.6301 170.23 32.6401C168.36 31.6501 166.91 30.2201 165.89 28.3401C164.87 26.4601 164.35 24.2701 164.35 21.7401C164.35 19.2101 164.88 17.0201 165.93 15.1601C166.99 13.3001 168.49 11.8701 170.44 10.8601C172.39 9.8501 174.66 9.3501 177.26 9.3501C179.86 9.3501 181.95 9.8501 183.84 10.8601C185.73 11.8701 187.18 13.3001 188.21 15.1601C189.23 17.0201 189.75 19.2101 189.75 21.7401C189.75 24.2701 189.22 26.4701 188.17 28.3401C187.12 30.2101 185.61 31.6401 183.66 32.6401C181.71 33.6301 179.42 34.1301 176.8 34.1301H176.78ZM176.92 33.4601C177.98 33.4601 178.86 33.0701 179.58 32.2801C180.3 31.5001 180.84 30.2901 181.21 28.6601C181.58 27.0301 181.76 24.9201 181.76 22.3201C181.76 18.0601 181.37 14.9501 180.58 12.9801C179.79 11.0101 178.64 10.0301 177.1 10.0301C176.04 10.0301 175.16 10.4101 174.46 11.1801C173.75 11.9501 173.22 13.1601 172.85 14.8001C172.48 16.4501 172.3 18.5701 172.3 21.1601C172.3 24.0101 172.47 26.3401 172.83 28.1401C173.18 29.9501 173.69 31.2801 174.37 32.1501C175.04 33.0101 175.89 33.4501 176.91 33.4501L176.92 33.4601Z" fill="#0E2A3F"/>
<path d="M201.79 26.0601C201.79 27.4701 202.06 28.5801 202.61 29.4001C203.15 30.2201 204.05 30.6201 205.3 30.6201C206.07 30.6201 206.8 30.4001 207.51 29.9701C208.21 29.5401 208.74 29.0201 209.09 28.4101L212.07 27.6901L211.93 29.7501H208.47L209.24 28.9301C208.76 30.3701 207.86 31.6501 206.55 32.7701C205.24 33.8901 203.57 34.4501 201.56 34.4501C199.55 34.4501 197.86 33.7101 196.62 32.2401C195.38 30.7701 194.75 28.8001 194.75 26.3401V11.9901C194.75 11.4801 194.65 11.0701 194.44 10.7701C194.23 10.4701 193.87 10.3501 193.36 10.4101L192.02 10.6001V10.0201L201.57 8.87012L201.81 9.11012V26.0501L201.79 26.0601ZM216.19 31.3401C216.19 31.8801 216.29 32.2901 216.5 32.5601C216.71 32.8301 217.08 32.9701 217.63 32.9701H218.64V33.5901H208.99L208.75 33.3001L209.18 29.5601L209.47 28.8901L209.09 28.7901V12.0001C209.09 11.4601 208.97 11.0501 208.73 10.7801C208.49 10.5101 208.13 10.4001 207.65 10.4701L206.21 10.6601V10.0801L215.95 8.88012L216.19 9.12012V31.3401Z" fill="#0E2A3F"/>
<path d="M221.33 33.5999V32.9799H222.19C222.7 32.9799 223.08 32.8699 223.32 32.6399C223.56 32.4199 223.68 32.0499 223.68 31.5399V12.0999C223.68 11.5199 223.54 11.1099 223.27 10.8499C223 10.5899 222.6 10.4799 222.09 10.5099L221.32 10.6099V10.0299L230.92 9.06988L231.16 9.30988L230.49 15.6899L229.96 16.1699H230.82V31.0499C230.82 31.7199 230.97 32.2099 231.28 32.5099C231.58 32.8099 232.06 32.9699 232.7 32.9699H234.67V33.5899H221.33V33.5999ZM227.76 17.5199V15.4999H230.69C231.71 13.3199 232.76 11.6799 233.83 10.5599C234.9 9.43988 236.13 8.87988 237.5 8.87988C238.65 8.87988 239.58 9.23988 240.28 9.95988C240.98 10.6799 241.34 11.6599 241.34 12.9099C241.34 14.1599 240.99 15.0899 240.28 15.7899C239.58 16.4899 238.7 16.8499 237.64 16.8499C236.97 16.8499 236.33 16.7199 235.72 16.4699C235.69 15.5099 235.57 14.7699 235.36 14.2399C235.15 13.7099 234.82 13.4499 234.38 13.4499C233.9 13.4499 233.34 13.7099 232.7 14.2399C232.06 14.7699 231.44 15.5799 230.83 16.6599L227.76 17.5199Z" fill="#0E2A3F"/>
<path d="M24.38 60C27.04 60 29.21 60.41 30.91 61.22C32.61 62.04 33.76 63.23 34.37 64.8C34.98 66.37 35.03 68.26 34.51 70.46C33.93 72.8 33.06 74.6 31.89 75.86C30.72 77.12 29.11 78.02 27.07 78.55C25.03 79.08 22.27 79.34 18.81 79.34H16.7L16.84 78.62H18.04C20.06 78.62 21.73 77.89 23.06 76.44C24.39 74.98 25.42 72.77 26.16 69.79C26.9 66.72 26.94 64.44 26.3 62.95C25.66 61.46 24.25 60.72 22.08 60.72H19.3L11.96 90.77C11.77 91.47 11.78 92.02 12.01 92.4C12.23 92.78 12.75 92.98 13.55 92.98H15.18L15.04 93.6H0L0.1 92.98H1.25C1.76 92.98 2.19 92.85 2.55 92.6C2.9 92.34 3.14 91.9 3.27 91.26L10.37 62.36C10.53 61.78 10.52 61.35 10.35 61.06C10.17 60.77 9.8 60.63 9.22 60.63H8.12L8.26 60.01H24.39L24.38 60Z" fill="#0E2A3F"/>
<path d="M37.9701 94.4201C36.5301 94.4201 35.3501 93.9301 34.4401 92.9601C33.5301 91.9901 32.9801 90.6101 32.7801 88.8301C32.5901 87.0501 32.7801 85.0101 33.3601 82.7101C34.0301 79.8901 34.9801 77.4801 36.2201 75.4601C37.4501 73.4401 38.9001 71.9001 40.5601 70.8301C42.2201 69.7601 44.0301 69.2201 45.9801 69.2201C47.0401 69.2201 47.9601 69.4301 48.7601 69.8401C49.5601 70.2601 50.2501 70.8601 50.8201 71.6601L57.6801 69.1201L57.8201 69.3601L53.1201 88.5101C52.9001 89.3401 52.9001 90.0001 53.1401 90.4801C53.3801 90.9601 53.7901 91.2001 54.3601 91.2001C54.8101 91.2001 55.2201 91.0601 55.6101 90.7701C56.0001 90.4801 56.3801 90.0501 56.7601 89.4701L57.1901 89.7101C56.4501 91.2501 55.4301 92.4201 54.1201 93.2401C52.8101 94.0601 51.3801 94.4601 49.8501 94.4601C47.9901 94.4601 46.8301 93.9201 46.3701 92.8501C45.9101 91.7801 45.9501 90.2501 46.4901 88.2701L46.8301 87.0201H46.5901C45.5701 89.3201 44.3101 91.1301 42.8201 92.4401C41.3301 93.7501 39.7101 94.4101 37.9501 94.4101L37.9701 94.4201ZM42.2401 90.6301C42.9401 90.6301 43.6501 90.2401 44.3501 89.4501C45.0501 88.6701 45.7601 87.4501 46.4601 85.8001C47.1601 84.1501 47.8201 82.0501 48.4301 79.4901L50.1601 72.3401C49.9001 72.0201 49.5601 71.7601 49.1301 71.5701C48.7001 71.3801 48.3101 71.2801 47.9501 71.2801C47.1501 71.2801 46.3701 71.6201 45.6001 72.2901C44.8301 72.9601 44.0901 74.0301 43.3701 75.5101C42.6501 76.9801 42.0001 78.8901 41.4301 81.2201C40.8501 83.4601 40.5001 85.2701 40.3701 86.6401C40.2401 88.0201 40.3401 89.0201 40.6601 89.6601C40.9801 90.3001 41.5101 90.6201 42.2401 90.6201V90.6301Z" fill="#0E2A3F"/>
<path d="M66.0499 94.2698C64.6399 94.2698 63.3499 94.0698 62.1899 93.6698C61.0199 93.2698 60.0999 92.6998 59.4299 91.9698C58.7599 91.2298 58.4199 90.3998 58.4199 89.4698C58.4199 88.4098 58.7399 87.5898 59.3799 86.9998C60.0199 86.4098 60.9199 86.1098 62.0699 86.1098C62.2899 88.5698 62.8599 90.3898 63.7699 91.5598C64.6799 92.7298 65.8399 93.3098 67.2499 93.3098C68.0799 93.3098 68.7899 93.0698 69.3899 92.5898C69.9799 92.1098 70.3599 91.4698 70.5199 90.6698C70.7099 89.7398 70.5799 88.8798 70.1399 88.0798C69.6999 87.2798 69.0199 86.5298 68.1199 85.8198L65.6199 83.7598C64.3399 82.6998 63.4399 81.5098 62.9099 80.1798C62.3799 78.8498 62.3299 77.3698 62.7399 75.7398C63.2499 73.7198 64.3999 72.1398 66.1999 70.9898C67.9899 69.8398 69.9599 69.2598 72.0999 69.2598C73.5699 69.2598 74.8999 69.4498 76.0799 69.8398C77.2599 70.2198 78.1999 70.7398 78.8899 71.3798C79.5799 72.0198 79.9199 72.7398 79.9199 73.5398C79.9199 74.4698 79.5699 75.1598 78.8599 75.6298C78.1599 76.0898 77.2299 76.3298 76.0799 76.3298C75.9799 75.1798 75.6999 74.1298 75.2199 73.1898C74.7399 72.2498 74.1299 71.5198 73.3999 71.0098C72.6599 70.4998 71.8999 70.2398 71.0999 70.2398C70.3599 70.2398 69.7499 70.4298 69.2499 70.8198C68.7499 71.1998 68.4599 71.7298 68.3599 72.3998C68.1999 73.3598 68.3399 74.2498 68.7699 75.0598C69.1999 75.8798 69.8499 76.6198 70.7099 77.2898L73.2499 79.3498C74.6599 80.4398 75.7099 81.6398 76.4199 82.9498C77.1299 84.2598 77.2199 85.8598 76.7099 87.7498C76.3899 89.0298 75.7099 90.1698 74.6699 91.1598C73.6299 92.1498 72.3599 92.9198 70.8499 93.4598C69.3399 93.9998 67.7499 94.2798 66.0499 94.2798V94.2698Z" fill="#0E2A3F"/>
<path d="M87.0699 94.2698C85.6599 94.2698 84.3699 94.0698 83.2099 93.6698C82.0499 93.2698 81.1199 92.6998 80.4499 91.9698C79.7799 91.2298 79.4399 90.3998 79.4399 89.4698C79.4399 88.4098 79.7599 87.5898 80.3999 86.9998C81.0399 86.4098 81.9399 86.1098 83.0899 86.1098C83.3099 88.5698 83.8799 90.3898 84.7899 91.5598C85.6999 92.7298 86.8599 93.3098 88.2699 93.3098C89.0999 93.3098 89.8099 93.0698 90.4099 92.5898C90.9999 92.1098 91.3799 91.4698 91.5399 90.6698C91.7299 89.7398 91.5999 88.8798 91.1599 88.0798C90.7099 87.2798 90.0399 86.5298 89.1399 85.8198L86.6399 83.7598C85.3599 82.6998 84.4599 81.5098 83.9299 80.1798C83.3999 78.8498 83.3499 77.3698 83.7599 75.7398C84.2699 73.7198 85.4199 72.1398 87.2199 70.9898C89.0099 69.8398 90.9799 69.2598 93.1199 69.2598C94.5899 69.2598 95.9199 69.4498 97.0999 69.8398C98.2799 70.2198 99.2199 70.7398 99.9099 71.3798C100.6 72.0198 100.94 72.7398 100.94 73.5398C100.94 74.4698 100.59 75.1598 99.8799 75.6298C99.1699 76.0998 98.2499 76.3298 97.0999 76.3298C96.9999 75.1798 96.7199 74.1298 96.2399 73.1898C95.7599 72.2498 95.1499 71.5198 94.4199 71.0098C93.6799 70.4998 92.9199 70.2398 92.1199 70.2398C91.3799 70.2398 90.7699 70.4298 90.2699 70.8198C89.7699 71.2098 89.4799 71.7298 89.3799 72.3998C89.2199 73.3598 89.3599 74.2498 89.7899 75.0598C90.2199 75.8698 90.8699 76.6198 91.7299 77.2898L94.2699 79.3498C95.6799 80.4398 96.7299 81.6398 97.4399 82.9498C98.1399 84.2598 98.2399 85.8598 97.7299 87.7498C97.4099 89.0298 96.7299 90.1698 95.6899 91.1598C94.6499 92.1498 93.3799 92.9198 91.8699 93.4598C90.3699 93.9998 88.7699 94.2798 87.0699 94.2798V94.2698Z" fill="#0E2A3F"/>
<path d="M95.9499 105.02L96.0899 104.4H97.1499C97.5999 104.4 97.9699 104.29 98.2799 104.06C98.5799 103.84 98.7999 103.45 98.9299 102.91L106.56 72.1898C106.69 71.6098 106.68 71.1998 106.54 70.9398C106.4 70.6798 106.07 70.5598 105.56 70.5598L104.98 70.6598L105.12 70.0798L114.34 69.0698L114.53 69.3598L112.08 77.1398H112.32C113.25 74.8398 114.55 72.9398 116.23 71.4498C117.91 69.9598 119.73 69.2198 121.68 69.2198C123.18 69.2198 124.39 69.7198 125.3 70.7298C126.21 71.7398 126.78 73.1498 127 74.9498C127.22 76.7598 127.05 78.8898 126.47 81.3598C125.8 84.1098 124.87 86.4598 123.69 88.4198C122.51 90.3798 121.09 91.8598 119.44 92.8798C117.79 93.8998 115.96 94.4198 113.94 94.4198C112.76 94.4198 111.67 94.1198 110.68 93.5298C109.69 92.9398 108.94 92.2298 108.42 91.3898L108.9 90.5298C109.19 91.1098 109.56 91.5498 110 91.8698C110.45 92.1898 111.01 92.3498 111.68 92.3498C112.51 92.3498 113.32 92.0298 114.1 91.3898C114.88 90.7498 115.64 89.7198 116.38 88.2898C117.12 86.8698 117.79 84.9998 118.4 82.6998C119.01 80.4898 119.37 78.6698 119.48 77.2298C119.59 75.7898 119.48 74.7298 119.14 74.0398C118.8 73.3498 118.25 73.0098 117.48 73.0098C116.81 73.0098 116.07 73.3798 115.27 74.1098C114.47 74.8498 113.69 75.9298 112.92 77.3698C112.15 78.8098 111.51 80.5098 111 82.4598L105.86 102.91C105.73 103.42 105.76 103.8 105.93 104.04C106.1 104.28 106.43 104.4 106.91 104.4H108.59L108.45 105.02H95.9199H95.9499Z" fill="#0E2A3F"/>
<path d="M137.95 94.1801C135.77 94.1801 133.95 93.6801 132.48 92.6701C131.01 91.6601 130.02 90.2101 129.5 88.3001C128.99 86.4001 129.04 84.1801 129.64 81.6501C130.63 77.5901 132.36 74.5201 134.82 72.4301C137.28 70.3501 140.23 69.3101 143.65 69.3101C145.83 69.3101 147.66 69.8101 149.15 70.8201C150.64 71.8301 151.65 73.2801 152.17 75.1901C152.7 77.0901 152.64 79.3401 152 81.9301C151.04 85.9301 149.3 88.9701 146.79 91.0501C144.28 93.1301 141.33 94.1701 137.93 94.1701L137.95 94.1801ZM137.85 93.5601C139 93.5601 140.08 92.7201 141.09 91.0401C142.1 89.3601 143.11 86.5201 144.14 82.5201C144.91 79.3801 145.38 76.9001 145.56 75.0601C145.74 73.2201 145.66 71.9201 145.34 71.1501C145.02 70.3801 144.48 70.0001 143.71 70.0001C142.59 70.0001 141.53 70.8201 140.54 72.4701C139.55 74.1201 138.52 77.0101 137.47 81.1301C136.73 84.0701 136.27 86.4601 136.08 88.2801C135.89 90.1001 135.94 91.4401 136.25 92.2901C136.55 93.1401 137.09 93.5601 137.86 93.5601H137.85Z" fill="#0E2A3F"/>
<path d="M159.36 72.19C159.49 71.65 159.47 71.24 159.31 70.97C159.15 70.7 158.8 70.56 158.25 70.56L157.58 70.66L157.72 70.08L167.18 69.07L167.37 69.36L165.02 76.99H165.21C166.27 74.3 167.44 72.3 168.74 70.99C170.04 69.68 171.47 69.02 173.04 69.02C174.06 69.02 174.86 69.28 175.42 69.81C175.98 70.34 176.26 71.07 176.26 71.99C176.26 72.79 175.97 73.61 175.4 74.44C174.83 75.27 174.23 75.83 173.62 76.12C173.33 75.48 172.92 74.98 172.37 74.63C171.83 74.28 171.23 74.1 170.59 74.1C169.02 74.1 167.65 74.86 166.49 76.38C165.32 77.9 164.32 80.32 163.49 83.65L161.09 93.59H154.08L159.36 72.18V72.19Z" fill="#0E2A3F"/>
<path d="M180.86 94.37C178.88 94.37 177.48 93.77 176.68 92.57C175.88 91.37 175.72 89.79 176.2 87.84L180.47 70.51H178.36L178.5 69.89H180.61L189.01 62.21L189.63 60H190.25L187.71 69.89L194.38 69.41L194.04 70.8L187.56 70.51L183.58 86.78C183.2 88.32 183.17 89.44 183.51 90.14C183.85 90.84 184.53 91.2 185.55 91.2C186.22 91.2 186.87 91.01 187.49 90.62C188.11 90.23 188.75 89.63 189.39 88.8L189.73 89.04C188.74 90.74 187.47 92.05 185.94 92.98C184.41 93.91 182.71 94.37 180.85 94.37H180.86Z" fill="#0E2A3F"/>
<path d="M218.88 94.1798C215.36 94.1798 212.42 93.4198 210.07 91.8998C207.72 90.3798 206.13 88.2098 205.29 85.3998C204.46 82.5798 204.51 79.2998 205.43 75.5598C206.36 71.8198 207.89 68.7398 210.01 66.3398C212.14 63.9398 214.64 62.1898 217.52 61.0798C220.4 59.9798 223.49 59.4198 226.78 59.4198C228.64 59.4198 230.26 59.5598 231.65 59.8298C233.04 60.0998 234.17 60.4298 235.03 60.8098C235.32 60.9398 235.55 60.9598 235.73 60.8798C235.91 60.7998 236.03 60.5998 236.09 60.2798L236.33 59.3198H236.81L235.08 72.8998H234.55L235.85 61.6698L234.75 71.4098C234.59 67.4398 233.85 64.5598 232.52 62.7698C231.19 60.9798 229.5 60.0798 227.46 60.0798C225.42 60.0798 223.72 60.6198 222.11 61.7098C220.49 62.7998 219.05 64.4998 217.79 66.8198C216.53 69.1398 215.45 72.1098 214.55 75.7198C213.56 79.8198 213.11 83.1798 213.21 85.8198C213.31 88.4598 213.87 90.3998 214.89 91.6298C215.91 92.8598 217.35 93.4798 219.21 93.4798C220.46 93.4798 221.9 93.0498 223.53 92.1798C225.16 91.3098 226.82 89.9798 228.52 88.1698C230.22 86.3598 231.75 84.1098 233.13 81.4298L229.29 91.8898L233.71 79.8898H234.29L229.01 94.2398H228.48L228.72 93.2798C228.78 92.9898 228.74 92.7998 228.6 92.6998C228.46 92.5998 228.22 92.6198 227.9 92.7498C226.81 93.1698 225.54 93.4998 224.08 93.7598C222.62 94.0198 220.89 94.1398 218.87 94.1398L218.88 94.1798Z" fill="#0E2A3F"/>
<path d="M240.52 94.4602C238.82 94.4602 237.67 93.9402 237.06 92.9002C236.45 91.8602 236.39 90.3302 236.87 88.3202L243.78 60.5802C243.91 60.0402 243.89 59.6602 243.73 59.4502C243.57 59.2402 243.25 59.1902 242.77 59.2802L241.95 59.4702L242.09 58.8902L253.23 57.1602L253.09 57.7402L251.41 58.0802L243.87 88.5102C243.65 89.3702 243.65 90.0402 243.89 90.5002C244.13 90.9602 244.57 91.2002 245.21 91.2002C245.66 91.2002 246.07 91.0602 246.43 90.7702C246.8 90.4802 247.17 90.0702 247.56 89.5202L247.99 89.7602C247.19 91.3002 246.14 92.4602 244.85 93.2602C243.56 94.0602 242.11 94.4602 240.51 94.4602H240.52Z" fill="#0E2A3F"/>
<path d="M255.79 94.4201C254.35 94.4201 253.17 93.9301 252.26 92.9601C251.35 91.9901 250.8 90.6101 250.6 88.8301C250.41 87.0501 250.6 85.0101 251.18 82.7101C251.85 79.8901 252.8 77.4801 254.04 75.4601C255.27 73.4401 256.72 71.9001 258.38 70.8301C260.04 69.7601 261.85 69.2201 263.8 69.2201C264.86 69.2201 265.78 69.4301 266.58 69.8401C267.38 70.2601 268.07 70.8601 268.64 71.6601L275.5 69.1201L275.64 69.3601L270.94 88.5101C270.72 89.3401 270.72 90.0001 270.96 90.4801C271.2 90.9601 271.61 91.2001 272.18 91.2001C272.63 91.2001 273.04 91.0601 273.43 90.7701C273.82 90.4801 274.2 90.0501 274.58 89.4701L275.01 89.7101C274.27 91.2501 273.25 92.4201 271.94 93.2401C270.63 94.0601 269.2 94.4601 267.67 94.4601C265.81 94.4601 264.65 93.9201 264.19 92.8501C263.73 91.7801 263.77 90.2501 264.31 88.2701L264.65 87.0201H264.41C263.39 89.3201 262.13 91.1301 260.64 92.4401C259.15 93.7501 257.53 94.4101 255.77 94.4101L255.79 94.4201ZM260.06 90.6301C260.76 90.6301 261.47 90.2401 262.17 89.4501C262.87 88.6701 263.58 87.4501 264.28 85.8001C264.98 84.1501 265.64 82.0501 266.25 79.4901L267.98 72.3401C267.72 72.0201 267.38 71.7601 266.95 71.5701C266.52 71.3801 266.13 71.2801 265.77 71.2801C264.97 71.2801 264.19 71.6201 263.42 72.2901C262.65 72.9601 261.91 74.0301 261.19 75.5101C260.47 76.9801 259.82 78.8901 259.25 81.2201C258.67 83.4601 258.32 85.2701 258.19 86.6401C258.06 88.0201 258.16 89.0201 258.48 89.6601C258.8 90.3001 259.33 90.6201 260.06 90.6201V90.6301Z" fill="#0E2A3F"/>
<path d="M283.87 94.2698C282.46 94.2698 281.17 94.0698 280.01 93.6698C278.84 93.2698 277.92 92.6998 277.25 91.9698C276.58 91.2298 276.24 90.3998 276.24 89.4698C276.24 88.4098 276.56 87.5898 277.2 86.9998C277.84 86.4098 278.74 86.1098 279.89 86.1098C280.11 88.5698 280.68 90.3898 281.59 91.5598C282.5 92.7298 283.66 93.3098 285.07 93.3098C285.9 93.3098 286.61 93.0698 287.21 92.5898C287.8 92.1098 288.18 91.4698 288.34 90.6698C288.53 89.7398 288.4 88.8798 287.96 88.0798C287.52 87.2798 286.84 86.5298 285.94 85.8198L283.44 83.7598C282.16 82.6998 281.26 81.5098 280.73 80.1798C280.2 78.8498 280.15 77.3698 280.56 75.7398C281.07 73.7198 282.22 72.1398 284.02 70.9898C285.81 69.8398 287.78 69.2598 289.92 69.2598C291.39 69.2598 292.72 69.4498 293.9 69.8398C295.08 70.2198 296.02 70.7398 296.71 71.3798C297.4 72.0198 297.74 72.7398 297.74 73.5398C297.74 74.4698 297.39 75.1598 296.68 75.6298C295.98 76.0898 295.05 76.3298 293.9 76.3298C293.8 75.1798 293.52 74.1298 293.04 73.1898C292.56 72.2498 291.95 71.5198 291.22 71.0098C290.48 70.4998 289.72 70.2398 288.92 70.2398C288.18 70.2398 287.57 70.4298 287.07 70.8198C286.57 71.1998 286.28 71.7298 286.18 72.3998C286.02 73.3598 286.16 74.2498 286.59 75.0598C287.02 75.8798 287.67 76.6198 288.53 77.2898L291.07 79.3498C292.48 80.4398 293.53 81.6398 294.24 82.9498C294.95 84.2598 295.04 85.8598 294.53 87.7498C294.21 89.0298 293.53 90.1698 292.49 91.1598C291.45 92.1498 290.18 92.9198 288.67 93.4598C287.16 93.9998 285.57 94.2798 283.87 94.2798V94.2698Z" fill="#0E2A3F"/>
<path d="M304.89 94.2698C303.48 94.2698 302.19 94.0698 301.03 93.6698C299.86 93.2698 298.94 92.6998 298.27 91.9698C297.6 91.2298 297.26 90.3998 297.26 89.4698C297.26 88.4098 297.58 87.5898 298.22 86.9998C298.86 86.4098 299.76 86.1098 300.91 86.1098C301.13 88.5698 301.7 90.3898 302.61 91.5598C303.52 92.7298 304.68 93.3098 306.09 93.3098C306.92 93.3098 307.63 93.0698 308.23 92.5898C308.82 92.1098 309.2 91.4698 309.36 90.6698C309.55 89.7398 309.42 88.8798 308.98 88.0798C308.54 87.2798 307.86 86.5298 306.96 85.8198L304.46 83.7598C303.18 82.6998 302.28 81.5098 301.75 80.1798C301.22 78.8498 301.17 77.3698 301.58 75.7398C302.09 73.7198 303.24 72.1398 305.04 70.9898C306.83 69.8398 308.8 69.2598 310.94 69.2598C312.41 69.2598 313.74 69.4498 314.92 69.8398C316.1 70.2198 317.04 70.7398 317.73 71.3798C318.42 72.0198 318.76 72.7398 318.76 73.5398C318.76 74.4698 318.41 75.1598 317.7 75.6298C317 76.0898 316.07 76.3298 314.92 76.3298C314.82 75.1798 314.54 74.1298 314.06 73.1898C313.58 72.2498 312.97 71.5198 312.24 71.0098C311.5 70.4998 310.74 70.2398 309.94 70.2398C309.2 70.2398 308.59 70.4298 308.09 70.8198C307.59 71.1998 307.3 71.7298 307.2 72.3998C307.04 73.3598 307.18 74.2498 307.61 75.0598C308.04 75.8798 308.69 76.6198 309.55 77.2898L312.09 79.3498C313.5 80.4398 314.55 81.6398 315.26 82.9498C315.97 84.2598 316.06 85.8598 315.55 87.7498C315.23 89.0298 314.55 90.1698 313.51 91.1598C312.47 92.1498 311.2 92.9198 309.69 93.4598C308.18 93.9998 306.59 94.2798 304.89 94.2798V94.2698Z" fill="#0E2A3F"/>
<path d="M323.95 94.46C322.25 94.46 321.1 93.94 320.49 92.9C319.88 91.86 319.83 90.33 320.35 88.32L324.48 71.95C324.61 71.47 324.58 71.12 324.38 70.89C324.19 70.67 323.82 70.55 323.28 70.55L322.61 70.6L322.71 70.07L331.93 68.92L332.12 69.21L327.37 88.51C327.15 89.37 327.15 90.04 327.39 90.5C327.63 90.96 328.07 91.2 328.71 91.2C329.16 91.2 329.57 91.06 329.93 90.79C330.3 90.52 330.66 90.11 331.01 89.57L331.49 89.81C330.66 91.35 329.59 92.51 328.3 93.29C327 94.07 325.56 94.47 323.96 94.47L323.95 94.46ZM329.81 66.52C328.63 66.52 327.69 66.11 327 65.3C326.31 64.48 326.08 63.42 326.3 62.11C326.46 61.02 326.93 60.14 327.72 59.47C328.51 58.8 329.47 58.46 330.62 58.46C331.84 58.46 332.78 58.88 333.45 59.71C334.12 60.54 334.35 61.6 334.12 62.88C333.9 64.03 333.42 64.93 332.68 65.57C331.94 66.21 330.98 66.53 329.8 66.53L329.81 66.52Z" fill="#0E2A3F"/>
<path d="M329.85 105.46C328.92 105.46 328.19 105.25 327.64 104.84C327.1 104.42 326.82 103.86 326.82 103.16C326.82 102.87 326.9 102.53 327.06 102.13C327.22 101.73 327.41 101.43 327.64 101.24L332.2 103.98L329.85 105.32L327.64 103.78C328.06 104 328.51 104.16 329.01 104.24C329.51 104.32 330.14 104.36 330.91 104.36C331.45 104.36 331.93 103.98 332.35 103.23C332.77 102.48 333.15 101.29 333.5 99.6498L339.55 70.5098H335.52L335.66 69.8898H339.69L340.12 68.1098C340.92 64.8098 342.27 62.2298 344.18 60.3598C346.08 58.4898 348.64 57.5498 351.84 57.5498C353.79 57.5498 355.38 57.8098 356.59 58.3198C357.8 58.8298 358.66 59.4998 359.16 60.3098C359.66 61.1298 359.86 62.0098 359.76 62.9698C359.63 63.7698 359.26 64.4298 358.66 64.9398C358.05 65.4498 357.32 65.7098 356.45 65.7098C355.87 65.7098 355.36 65.6498 354.91 65.5198L352.99 58.1798L354.53 58.1298L355.25 59.8098C354.74 59.2998 354.17 58.8998 353.55 58.6098C352.93 58.3198 352.29 58.1798 351.65 58.1798C350.24 58.1798 349.03 58.6798 348 59.6698C346.97 60.6598 346.26 61.9898 345.84 63.6498C345.55 64.8298 345.47 65.9298 345.6 66.9398C345.73 67.9498 346 68.9298 346.42 69.8898H358.42L358.23 70.5098H346.52L344.89 78.4798C343.77 84.2398 342.47 89.1198 341 93.1198C339.53 97.1198 337.86 100.18 336.01 102.29C334.15 104.4 332.11 105.46 329.87 105.46H329.85ZM352.22 94.4698C350.49 94.4698 349.33 93.9498 348.74 92.9098C348.15 91.8698 348.09 90.3398 348.57 88.3298L352.7 71.9598C352.83 71.4798 352.8 71.1198 352.6 70.8798C352.41 70.6398 352.04 70.5198 351.5 70.5198H350.88L350.98 70.0898L360.15 68.9398L360.34 69.2298L355.59 88.5298C355.37 89.3898 355.37 90.0598 355.61 90.5198C355.85 90.9798 356.31 91.2198 356.98 91.2198C357.4 91.2198 357.79 91.0798 358.16 90.8098C358.53 90.5398 358.9 90.1298 359.29 89.5898L359.72 89.8298C358.92 91.3698 357.86 92.5298 356.55 93.3098C355.24 94.0898 353.8 94.4898 352.23 94.4898L352.22 94.4698Z" fill="#0E2A3F"/>
<path d="M370.79 94.3698C368.87 94.3698 367.21 93.7798 365.82 92.5898C364.43 91.4098 363.48 89.7798 362.99 87.7198C362.49 85.6598 362.57 83.3598 363.21 80.8298C363.79 78.5298 364.75 76.4998 366.09 74.7598C367.43 73.0198 369.03 71.6598 370.89 70.6998C372.75 69.7398 374.7 69.2598 376.75 69.2598C377.9 69.2598 378.97 69.4998 379.94 69.9798C380.91 70.4598 381.7 71.1198 382.29 71.9498C382.88 72.7798 383.18 73.7398 383.18 74.8298C383.18 76.0798 382.8 77.0998 382.03 77.8998C381.26 78.6998 380.27 79.0998 379.05 79.0998C378.76 79.0998 378.31 79.0498 377.71 78.9598L376.65 69.7398L378.95 70.2698L379.67 70.9398C379.19 70.6198 378.7 70.3698 378.21 70.1998C377.72 70.0298 377.26 69.9398 376.84 69.9398C375.85 69.9398 374.91 70.2998 374.03 71.0198C373.15 71.7398 372.39 72.7098 371.75 73.9198C371.11 75.1398 370.63 76.4498 370.31 77.8598C369.8 80.2598 369.64 82.3198 369.83 84.0498C370.02 85.7798 370.55 87.0998 371.41 88.0098C372.27 88.9198 373.44 89.3798 374.91 89.3798C376.38 89.3798 377.69 88.9998 378.92 88.2298C380.15 87.4598 381.23 86.1698 382.16 84.3398L382.54 84.5298C381.29 87.8298 379.68 90.2898 377.72 91.9198C375.75 93.5498 373.44 94.3698 370.78 94.3698H370.79Z" fill="#0E2A3F"/>
<path d="M390.04 94.4201C388.6 94.4201 387.42 93.9301 386.51 92.9601C385.6 91.9801 385.05 90.6101 384.85 88.8301C384.66 87.0501 384.85 85.0101 385.43 82.7101C386.1 79.8901 387.05 77.4801 388.29 75.4601C389.52 73.4401 390.97 71.9001 392.63 70.8301C394.29 69.7601 396.1 69.2201 398.05 69.2201C399.11 69.2201 400.03 69.4301 400.83 69.8401C401.63 70.2601 402.32 70.8601 402.89 71.6601L409.75 69.1201L409.89 69.3601L405.19 88.5101C404.97 89.3401 404.97 90.0001 405.21 90.4801C405.45 90.9601 405.86 91.2001 406.43 91.2001C406.88 91.2001 407.29 91.0601 407.68 90.7701C408.07 90.4801 408.45 90.0501 408.83 89.4701L409.26 89.7101C408.52 91.2501 407.5 92.4201 406.19 93.2401C404.88 94.0601 403.45 94.4601 401.92 94.4601C400.06 94.4601 398.9 93.9201 398.44 92.8501C397.98 91.7801 398.02 90.2501 398.56 88.2701L398.9 87.0201H398.66C397.64 89.3201 396.38 91.1301 394.89 92.4401C393.4 93.7501 391.78 94.4101 390.02 94.4101L390.04 94.4201ZM394.31 90.6301C395.01 90.6301 395.72 90.2401 396.42 89.4501C397.12 88.6601 397.83 87.4501 398.53 85.8001C399.23 84.1501 399.89 82.0501 400.5 79.4901L402.23 72.3401C401.97 72.0201 401.63 71.7601 401.2 71.5701C400.77 71.3801 400.38 71.2801 400.02 71.2801C399.22 71.2801 398.44 71.6201 397.67 72.2901C396.9 72.9601 396.16 74.0301 395.44 75.5101C394.72 76.9801 394.07 78.8901 393.5 81.2201C392.92 83.4601 392.57 85.2701 392.44 86.6401C392.31 88.0201 392.41 89.0201 392.73 89.6601C393.05 90.3001 393.58 90.6201 394.31 90.6201V90.6301Z" fill="#0E2A3F"/>
<path d="M417.21 94.3702C415.23 94.3702 413.83 93.7702 413.03 92.5702C412.23 91.3702 412.07 89.7902 412.55 87.8402L416.82 70.5102H414.71L414.85 69.9302H416.96L425.36 62.2002L425.98 59.9902H426.6L424.06 69.8802H435.34L435.2 70.5002H423.92L419.94 86.7702C419.56 88.3102 419.53 89.4302 419.87 90.1302C420.21 90.8302 420.89 91.1902 421.91 91.1902C422.58 91.1902 423.23 91.0002 423.85 90.6102C424.47 90.2202 425.1 89.6202 425.75 88.7902L426.09 89.0302C425.1 90.7302 423.83 92.0402 422.3 92.9702C420.77 93.9002 419.07 94.3602 417.21 94.3602V94.3702ZM431.71 94.4702C429.98 94.4702 428.82 93.9502 428.23 92.9102C427.64 91.8702 427.58 90.3402 428.06 88.3302L432.19 71.9602C432.32 71.4802 432.29 71.1202 432.09 70.8802C431.9 70.6402 431.53 70.5202 430.99 70.5202H430.32L430.46 70.0902L439.63 68.9402L439.82 69.2302L435.07 88.5302C434.85 89.3902 434.85 90.0602 435.09 90.5202C435.33 90.9802 435.79 91.2202 436.46 91.2202C436.88 91.2202 437.27 91.0802 437.64 90.8102C438.01 90.5402 438.38 90.1302 438.77 89.5902L439.2 89.8302C438.4 91.3702 437.34 92.5302 436.03 93.3102C434.72 94.0902 433.28 94.4902 431.71 94.4902V94.4702ZM437.52 66.5302C436.34 66.5302 435.41 66.1202 434.74 65.3102C434.07 64.4902 433.83 63.4302 434.02 62.1202C434.18 61.0302 434.65 60.1502 435.44 59.4802C436.23 58.8102 437.21 58.4702 438.39 58.4702C439.57 58.4702 440.5 58.8902 441.17 59.7202C441.84 60.5502 442.07 61.6102 441.84 62.8902C441.62 64.0402 441.14 64.9402 440.4 65.5802C439.66 66.2202 438.7 66.5402 437.52 66.5402V66.5302Z" fill="#0E2A3F"/>
<path d="M450.76 94.1801C448.58 94.1801 446.76 93.6801 445.29 92.6701C443.82 91.6601 442.83 90.2101 442.31 88.3001C441.8 86.4001 441.85 84.1801 442.45 81.6501C443.44 77.5901 445.17 74.5201 447.63 72.4301C450.09 70.3501 453.04 69.3101 456.46 69.3101C458.64 69.3101 460.47 69.8101 461.96 70.8201C463.45 71.8301 464.46 73.2801 464.98 75.1901C465.51 77.0901 465.45 79.3401 464.81 81.9301C463.85 85.9301 462.11 88.9701 459.6 91.0501C457.09 93.1301 454.14 94.1701 450.74 94.1701L450.76 94.1801ZM450.66 93.5601C451.81 93.5601 452.89 92.7201 453.9 91.0401C454.91 89.3601 455.92 86.5201 456.95 82.5201C457.72 79.3801 458.19 76.9001 458.37 75.0601C458.55 73.2201 458.47 71.9201 458.15 71.1501C457.83 70.3801 457.29 70.0001 456.52 70.0001C455.4 70.0001 454.34 70.8201 453.35 72.4701C452.36 74.1201 451.33 77.0101 450.28 81.1301C449.54 84.0701 449.08 86.4601 448.89 88.2801C448.7 90.1001 448.75 91.4401 449.06 92.2901C449.37 93.1401 449.9 93.5601 450.67 93.5601H450.66Z" fill="#0E2A3F"/>
<path d="M485.32 94.46C483.59 94.46 482.42 93.93 481.79 92.88C481.16 91.83 481.13 90.3 481.67 88.32L484.89 76.75C485.24 75.47 485.29 74.49 485.03 73.82C484.77 73.15 484.26 72.81 483.49 72.81C482.72 72.81 481.91 73.2 481.04 73.99C480.17 74.78 479.36 75.88 478.59 77.3C477.82 78.72 477.21 80.35 476.77 82.17L473.99 93.59H466.93L472.16 72.18C472.29 71.64 472.26 71.23 472.09 70.96C471.91 70.69 471.59 70.55 471.11 70.55L470.39 70.6L470.49 70.07L480.04 69.06L480.18 69.35L477.78 77.03H478.02C478.98 74.76 480.33 72.85 482.08 71.32C483.83 69.79 485.7 69.02 487.72 69.02C489.74 69.02 491.13 69.66 491.9 70.94C492.67 72.22 492.72 74.04 492.04 76.41L488.73 88.51C488.47 89.34 488.47 90 488.71 90.48C488.95 90.96 489.39 91.2 490.03 91.2C490.48 91.2 490.89 91.06 491.28 90.79C491.66 90.52 492.03 90.09 492.38 89.52L492.86 89.76C492 91.3 490.92 92.46 489.62 93.26C488.32 94.06 486.89 94.46 485.32 94.46Z" fill="#0E2A3F"/>
</g>
<defs>
<clipPath id="clip0_548_7387">
<rect width="492.86" height="105.46" fill="white"/>
</clipPath>
</defs>
</svg>
