<svg width="177" height="35" viewBox="0 0 177 35" fill="none" xmlns="http://www.w3.org/2000/svg">
<path d="M0 33.6V32.98H1.25C1.83 32.98 2.25 32.85 2.52 32.57C2.79 32.3 2.93 31.86 2.93 31.25V2.35C2.93 1.74 2.79 1.3 2.52 1.03C2.25 0.76 1.82 0.62 1.25 0.62H0V0H17.95C21.73 0 24.65 0.78 26.71 2.33C28.77 3.88 29.82 6.18 29.85 9.22C29.85 11.62 29.36 13.56 28.39 15.05C27.41 16.54 25.89 17.63 23.83 18.31C21.77 19 19.1 19.34 15.84 19.34H13.92V18.57H15.02C17 18.57 18.5 17.8 19.51 16.27C20.52 14.73 21.02 12.49 21.02 9.55C21.02 6.38 20.46 4.12 19.34 2.76C18.22 1.4 16.59 0.72 14.44 0.72H11.66V30.77C11.66 31.54 11.84 32.1 12.21 32.45C12.58 32.8 13.18 32.98 14.01 32.98H15.69V33.6H0Z" fill="white"/>
<path d="M32.4499 33.6V32.98H33.3099C33.8199 32.98 34.1999 32.87 34.4399 32.64C34.6799 32.42 34.7999 32.05 34.7999 31.54V12.1C34.7999 11.52 34.6599 11.11 34.3899 10.85C34.1199 10.59 33.7299 10.48 33.2099 10.51L32.4399 10.61V10.03L42.0399 9.07L42.2799 9.31L41.6099 15.69L41.0799 16.17H41.9399V31.05C41.9399 31.72 42.0899 32.21 42.3999 32.51C42.6999 32.81 43.1799 32.97 43.8199 32.97H45.7899V33.59H32.4499V33.6ZM38.8799 17.52V15.5H41.8099C42.8299 13.32 43.8799 11.68 44.9499 10.56C46.0199 9.44 47.2499 8.88 48.6199 8.88C49.7699 8.88 50.6999 9.24 51.3999 9.96C52.0999 10.68 52.4599 11.66 52.4599 12.91C52.4599 14.16 52.1099 15.09 51.3999 15.79C50.6999 16.5 49.8199 16.85 48.7599 16.85C48.0899 16.85 47.4499 16.72 46.8399 16.47C46.8099 15.51 46.6899 14.77 46.4799 14.24C46.2699 13.71 45.9399 13.45 45.4999 13.45C45.0199 13.45 44.4599 13.71 43.8199 14.24C43.1799 14.77 42.5599 15.58 41.9499 16.66L38.8799 17.52Z" fill="white"/>
<path d="M66.3799 34.13C63.8799 34.13 61.7 33.63 59.83 32.64C57.96 31.65 56.51 30.22 55.49 28.35C54.47 26.48 53.95 24.28 53.95 21.75C53.95 19.22 54.4799 17.03 55.5299 15.17C56.5899 13.31 58.09 11.88 60.04 10.87C61.99 9.86 64.26 9.36 66.86 9.36C69.46 9.36 71.55 9.86 73.44 10.87C75.33 11.88 76.7799 13.31 77.8099 15.17C78.8299 17.03 79.3499 19.22 79.3499 21.75C79.3499 24.28 78.8199 26.48 77.7699 28.35C76.7099 30.22 75.21 31.65 73.26 32.64C71.31 33.63 69.02 34.13 66.4 34.13H66.3799ZM66.5199 33.46C67.5799 33.46 68.46 33.07 69.18 32.28C69.9 31.5 70.4399 30.29 70.8099 28.66C71.1799 27.03 71.36 24.92 71.36 22.32C71.36 18.06 70.97 14.95 70.18 12.98C69.4 11.01 68.2399 10.03 66.6999 10.03C65.6399 10.03 64.7599 10.41 64.0599 11.18C63.3599 11.95 62.82 13.16 62.45 14.8C62.08 16.45 61.9 18.57 61.9 21.16C61.9 24.01 62.08 26.34 62.43 28.14C62.78 29.95 63.29 31.28 63.97 32.15C64.65 33.02 65.49 33.45 66.51 33.45L66.5199 33.46Z" fill="white"/>
<path d="M94.3199 34.32C91.9799 34.32 89.9099 33.8 88.0999 32.76C86.2899 31.72 84.8899 30.24 83.8999 28.32C82.9099 26.4 82.4099 24.18 82.4099 21.65C82.4099 19.32 82.9499 17.21 84.0199 15.34C85.0899 13.47 86.6099 12 88.5799 10.92C90.5499 9.85 92.8299 9.31 95.4199 9.31C97.1499 9.31 98.7399 9.61 100.2 10.2C101.66 10.79 102.8 11.61 103.63 12.65C104.46 13.69 104.88 14.85 104.88 16.13C104.88 17.12 104.55 18.01 103.9 18.79C103.24 19.58 102.32 19.97 101.14 19.97C100.37 19.97 99.5199 19.73 98.5999 19.25V10.61C98.2499 10.45 97.8599 10.31 97.4499 10.18C97.0299 10.05 96.5899 9.99 96.1099 9.99C94.8299 9.99 93.6899 10.36 92.6999 11.09C91.7099 11.83 90.9199 12.88 90.3499 14.26C89.7699 15.64 89.4899 17.25 89.4899 19.11C89.4899 21.09 89.8699 22.87 90.6199 24.44C91.3699 26.01 92.3999 27.23 93.7199 28.11C95.0299 28.99 96.4699 29.43 98.0399 29.43C99.9299 29.43 101.47 29 102.67 28.13C103.87 27.27 104.71 25.95 105.19 24.19L105.72 24.33C105.24 27.5 104.01 29.95 102.02 31.7C100.04 33.44 97.4799 34.32 94.3399 34.32H94.3199Z" fill="white"/>
<path d="M119.9 34.32C117.69 34.32 115.7 33.79 113.92 32.74C112.14 31.68 110.75 30.22 109.74 28.35C108.73 26.48 108.23 24.36 108.23 21.99C108.23 19.43 108.73 17.2 109.74 15.29C110.75 13.39 112.16 11.91 113.96 10.87C115.77 9.83 117.82 9.31 120.13 9.31C122.15 9.31 123.94 9.74 125.51 10.58C127.08 11.43 128.3 12.63 129.18 14.18C130.06 15.73 130.5 17.52 130.5 19.53V19.67H114.71L114.66 18.95H120.18C121.75 18.95 122.86 18.7 123.52 18.21C124.18 17.71 124.5 16.81 124.5 15.5C124.5 14.48 124.31 13.54 123.92 12.69C123.53 11.84 123 11.18 122.31 10.7C121.62 10.22 120.81 9.98 119.89 9.98C118.87 9.98 117.99 10.29 117.25 10.92C116.51 11.54 115.95 12.48 115.57 13.73C115.19 14.98 114.99 16.52 114.99 18.34C114.99 20.68 115.33 22.67 116 24.32C116.67 25.97 117.64 27.23 118.9 28.11C120.16 28.99 121.71 29.43 123.53 29.43C125.35 29.43 126.8 28.98 128.07 28.09C129.33 27.19 130.21 25.93 130.69 24.3L131.17 24.44C130.72 27.58 129.51 30.01 127.55 31.73C125.58 33.46 123.03 34.32 119.89 34.32H119.9Z" fill="white"/>
<path d="M135.26 33.84L134.3 23.66H134.92L135.64 31.29L134.97 24.81C136.19 27.98 137.55 30.23 139.05 31.55C140.55 32.88 142.17 33.54 143.9 33.54C145.08 33.54 146.03 33.22 146.73 32.58C147.43 31.94 147.79 31.06 147.79 29.94C147.79 29.3 147.62 28.72 147.29 28.19C146.95 27.66 146.47 27.19 145.83 26.77C145.19 26.35 144.41 25.97 143.48 25.62L140.98 24.56C139.25 23.89 137.81 22.9 136.66 21.61C135.51 20.31 134.93 18.79 134.93 17.03C134.93 15.49 135.35 14.13 136.18 12.95C137.01 11.77 138.17 10.85 139.66 10.19C141.15 9.53 142.88 9.21 144.87 9.21C145.89 9.21 146.93 9.33 147.99 9.57C149.05 9.81 150.01 10.12 150.87 10.51C151.19 10.61 151.4 10.59 151.49 10.46C151.59 10.33 151.63 10.16 151.63 9.93V9.31H152.21L153.17 18.43H152.55L151.64 10.75L152.65 17.71C151.53 14.99 150.26 13.01 148.83 11.78C147.41 10.55 145.94 9.93 144.44 9.93C143.29 9.93 142.38 10.22 141.7 10.79C141.03 11.37 140.69 12.15 140.69 13.14C140.69 14.07 140.99 14.85 141.58 15.49C142.17 16.13 143.01 16.64 144.1 17.03L147.36 18.18C149.22 18.82 150.73 19.8 151.9 21.13C153.07 22.46 153.65 24.15 153.65 26.19C153.65 27.82 153.24 29.25 152.43 30.46C151.61 31.68 150.43 32.61 148.88 33.27C147.33 33.93 145.48 34.25 143.34 34.25C142.38 34.25 141.31 34.1 140.12 33.79C138.94 33.49 137.83 33.11 136.81 32.66C136.36 32.47 136.08 32.42 135.97 32.52C135.86 32.62 135.8 32.82 135.8 33.14V33.81H135.27L135.26 33.84Z" fill="white"/>
<path d="M158.4 33.84L157.44 23.66H158.06L158.78 31.29L158.11 24.81C159.33 27.98 160.69 30.23 162.19 31.55C163.69 32.88 165.31 33.54 167.04 33.54C168.22 33.54 169.17 33.22 169.87 32.58C170.57 31.94 170.93 31.06 170.93 29.94C170.93 29.3 170.76 28.72 170.43 28.19C170.09 27.66 169.61 27.19 168.97 26.77C168.33 26.35 167.55 25.97 166.62 25.62L164.12 24.56C162.39 23.89 160.95 22.9 159.8 21.61C158.65 20.31 158.07 18.79 158.07 17.03C158.07 15.49 158.49 14.13 159.32 12.95C160.15 11.77 161.31 10.85 162.8 10.19C164.29 9.53 166.02 9.21 168.01 9.21C169.03 9.21 170.07 9.33 171.13 9.57C172.19 9.81 173.15 10.12 174.01 10.51C174.33 10.61 174.54 10.59 174.63 10.46C174.73 10.33 174.77 10.16 174.77 9.93V9.31H175.35L176.31 18.43H175.69L174.78 10.75L175.79 17.71C174.67 14.99 173.4 13.01 171.97 11.78C170.55 10.55 169.08 9.93 167.58 9.93C166.43 9.93 165.52 10.22 164.84 10.79C164.17 11.37 163.83 12.15 163.83 13.14C163.83 14.07 164.13 14.85 164.72 15.49C165.31 16.13 166.15 16.64 167.24 17.03L170.5 18.18C172.36 18.82 173.87 19.8 175.04 21.13C176.21 22.46 176.79 24.15 176.79 26.19C176.79 27.82 176.38 29.25 175.57 30.46C174.75 31.68 173.57 32.61 172.02 33.27C170.47 33.93 168.62 34.25 166.48 34.25C165.52 34.25 164.45 34.1 163.26 33.79C162.08 33.49 160.97 33.11 159.95 32.66C159.5 32.47 159.22 32.42 159.11 32.52C159 32.62 158.94 32.82 158.94 33.14V33.81H158.41L158.4 33.84Z" fill="white"/>
</svg>
