<svg width="570" height="75" viewBox="0 0 570 75" fill="none" xmlns="http://www.w3.org/2000/svg">
<g clip-path="url(#clip0_548_8843)">
<path d="M11.4432 25.7086C8.38665 25.7086 6.06506 24.9287 4.47154 23.3758C2.87802 21.816 2.08125 19.504 2.08125 16.4328V3.71306C2.08125 3.38179 2.0057 3.09882 1.84772 2.87107C1.69661 2.63641 1.40813 2.52598 0.989142 2.52598H0.29541V2.09808H10.6121V2.52598H9.16281C8.83312 2.52598 8.57211 2.62261 8.37292 2.82275C8.17373 3.0229 8.07757 3.31967 8.07757 3.71997V16.5087C8.07757 18.9174 8.57211 20.7532 9.56119 22.0231C10.5503 23.293 11.9652 23.9279 13.8129 23.9279C15.6605 23.9279 16.9587 23.2861 17.9203 22.0093C18.8751 20.7256 19.3559 18.8621 19.3559 16.4121V8.75816C19.3559 6.97063 19.0536 5.48678 18.4492 4.2997C17.8448 3.11952 16.9724 2.52598 15.8254 2.52598H15.427V2.09808H22.3162V2.52598H22.0209C21.3615 2.52598 20.8257 3.09192 20.4205 4.23069C20.0152 5.36946 19.8092 6.77739 19.8092 8.45448V16.3361C19.8092 18.3445 19.4932 20.0492 18.8544 21.4572C18.2157 22.8582 17.2747 23.921 16.0177 24.6388C14.7676 25.3566 13.2359 25.7155 11.4363 25.7155L11.4432 25.7086Z" fill="#0E2A3F"/>
<path d="M23.0786 25.2738V24.8459H23.9028C24.1913 24.8459 24.4111 24.7699 24.5622 24.6112C24.7133 24.4594 24.7958 24.204 24.7958 23.852V10.4353C24.7958 10.104 24.7271 9.83482 24.5828 9.62087C24.4386 9.41382 24.1913 9.3172 23.841 9.3379L23.0855 9.40692V9.00663L29.7755 8.34407L29.9747 8.50971L29.6794 11.6569L29.4458 12.1538L29.7412 12.2228V23.852C29.7412 24.1626 29.8167 24.4042 29.9747 24.5836C30.1258 24.763 30.38 24.8459 30.7303 24.8459H31.4858V25.2738H23.0786ZM33.1686 25.2738V24.8459H33.9585C34.2882 24.8459 34.5286 24.763 34.6866 24.5974C34.8377 24.4318 34.9201 24.1833 34.9201 23.852V14.1138C34.9201 13.12 34.7209 12.3401 34.3294 11.7811C33.931 11.2151 33.306 10.9391 32.4474 10.9391C31.8773 10.9391 31.3416 11.0909 30.847 11.3877C30.3525 11.6845 29.9816 12.0433 29.7412 12.4643L27.6943 12.9613L27.763 11.5671H30.167L29.5763 12.1331C29.9266 11.1185 30.5792 10.2282 31.5202 9.46903C32.468 8.70986 33.622 8.32336 34.9819 8.32336C36.4518 8.32336 37.6332 8.83408 38.5262 9.84862C39.4191 10.8632 39.8587 12.2228 39.8587 13.9206V23.8589C39.8587 24.2109 39.9342 24.4663 40.0922 24.6181C40.2433 24.7699 40.4769 24.8528 40.7859 24.8528H41.5758V25.2807H33.1686V25.2738Z" fill="#0E2A3F"/>
<path d="M43.0596 25.2738V24.8459H43.6503C44.0006 24.8459 44.2616 24.7699 44.4264 24.6112C44.5913 24.4525 44.6737 24.204 44.6737 23.852V3.47841C44.6737 3.016 44.605 2.70543 44.4745 2.55359C44.344 2.40176 44.1105 2.36725 43.7808 2.45697L42.9565 2.69163V2.26373L50.5052 0.0137939V0.414088L49.5848 0.745367V23.8658C49.5848 24.2178 49.6741 24.4732 49.8458 24.625C50.0175 24.7768 50.2854 24.8597 50.6357 24.8597H51.1989V25.2876H43.0527L43.0596 25.2738Z" fill="#0E2A3F"/>
<path d="M61.6871 25.6395C59.97 25.6395 58.4726 25.2944 57.1882 24.6112C55.9037 23.9279 54.9078 22.941 54.2072 21.6435C53.5066 20.346 53.1494 18.8345 53.1494 17.0884C53.1494 15.3423 53.5135 13.8308 54.2347 12.5471C54.9627 11.2634 55.993 10.2765 57.3324 9.57944C58.6718 8.88237 60.231 8.53729 62.0168 8.53729C63.8027 8.53729 65.2382 8.88237 66.5364 9.57944C67.8345 10.2765 68.8305 11.2634 69.538 12.5471C70.2386 13.8308 70.5957 15.3423 70.5957 17.0884C70.5957 18.8345 70.2317 20.3529 69.5105 21.6435C68.7893 22.9341 67.7521 23.921 66.4127 24.6112C65.0734 25.2944 63.5004 25.6395 61.7009 25.6395H61.6871ZM61.7833 25.1771C62.5114 25.1771 63.1158 24.908 63.6103 24.3627C64.1049 23.8244 64.4758 22.9893 64.7299 21.8643C64.9841 20.7394 65.1077 19.2831 65.1077 17.4887C65.1077 14.5486 64.8398 12.4022 64.2972 11.0426C63.7546 9.68296 62.9647 9.0066 61.9069 9.0066C61.1788 9.0066 60.5744 9.26887 60.0936 9.80029C59.6059 10.3317 59.2419 11.1668 58.9877 12.2987C58.7336 13.4374 58.61 14.9006 58.61 16.6881C58.61 18.6551 58.7267 20.2632 58.974 21.5055C59.2144 22.7546 59.5647 23.6726 60.0318 24.273C60.4988 24.8734 61.0758 25.1702 61.7764 25.1702L61.7833 25.1771Z" fill="#0E2A3F"/>
<path d="M80.8715 25.7707C79.2642 25.7707 77.8424 25.4118 76.5992 24.694C75.3559 23.9763 74.3943 22.9548 73.7143 21.6297C73.0343 20.3046 72.6909 18.7724 72.6909 17.0263C72.6909 15.4113 73.0618 13.962 73.7968 12.6714C74.5317 11.3808 75.5757 10.3662 76.9289 9.62087C78.282 8.88239 79.848 8.5097 81.627 8.5097C82.8153 8.5097 83.9074 8.71675 84.9102 9.12395C85.913 9.53115 86.6961 10.0971 87.2661 10.8148C87.8362 11.5326 88.1247 12.3332 88.1247 13.2166C88.1247 13.8999 87.8981 14.5141 87.4516 15.0524C86.9983 15.5977 86.3664 15.8668 85.5559 15.8668C85.027 15.8668 84.4431 15.7012 83.8112 15.3699V9.40692C83.5708 9.29649 83.3029 9.19987 83.0213 9.11015C82.7397 9.02043 82.4306 8.97902 82.1009 8.97902C81.2218 8.97902 80.4387 9.23438 79.7587 9.73819C79.0787 10.2489 78.5361 10.9736 78.1446 11.926C77.7462 12.8784 77.5539 13.9896 77.5539 15.2733C77.5539 16.6398 77.8149 17.8683 78.3301 18.9519C78.8452 20.0354 79.5527 20.8774 80.4593 21.4848C81.366 22.0921 82.3482 22.3958 83.4266 22.3958C84.7248 22.3958 85.7825 22.099 86.6068 21.4986C87.431 20.905 88.008 19.994 88.3377 18.7793L88.7017 18.876C88.372 21.0638 87.5272 22.7547 86.1603 23.9625C84.7934 25.1702 83.0419 25.7707 80.8852 25.7707H80.8715Z" fill="#0E2A3F"/>
<path d="M90.2402 25.2738V24.8459H90.8309C91.1812 24.8459 91.4422 24.7699 91.6071 24.6112C91.7719 24.4525 91.8544 24.204 91.8544 23.852V3.47841C91.8544 3.016 91.7857 2.70543 91.6552 2.55359C91.5247 2.40176 91.2911 2.36725 90.9614 2.45697L90.1372 2.69163V2.26373L97.6858 0.0137939V0.414088L96.7654 0.745367V16.909H97.885L102.535 12.4712C103.105 11.8984 103.428 11.3739 103.49 10.8977C103.559 10.4214 103.421 10.0419 103.078 9.75199C102.734 9.46212 102.281 9.32409 101.711 9.32409H101.285V8.9238H108.573V9.32409H108.312C107.693 9.32409 107.068 9.50353 106.43 9.86932C105.791 10.2351 104.946 10.9115 103.888 11.9053L101.415 14.2242L107.975 24.1626C108.154 24.4042 108.332 24.5836 108.518 24.694C108.703 24.8044 108.916 24.8597 109.163 24.8597H109.527V25.2876H103.002L97.8919 17.3369H96.7723V23.8658C96.7723 24.2178 96.8616 24.4732 97.0333 24.625C97.205 24.7768 97.4729 24.8597 97.8232 24.8597H98.2491V25.2876H90.2402V25.2738Z" fill="#0E2A3F"/>
<path d="M110.18 25.2738V24.8459H110.77C111.121 24.8459 111.382 24.763 111.547 24.5974C111.711 24.4318 111.794 24.1626 111.794 23.783V10.3041C111.794 9.95215 111.698 9.68989 111.512 9.52425C111.327 9.35861 111.031 9.29649 110.64 9.34481L110.18 9.41382V9.01353L116.513 8.21984L116.712 8.41999V23.7899C116.712 24.1626 116.794 24.4387 116.959 24.6043C117.124 24.7699 117.385 24.8528 117.735 24.8528H118.264V25.2807H110.187L110.18 25.2738ZM114.232 6.62556C113.374 6.62556 112.687 6.3633 112.172 5.84568C111.656 5.32806 111.395 4.6448 111.395 3.8097C111.395 2.9746 111.656 2.29134 112.185 1.77372C112.714 1.2561 113.394 0.993835 114.232 0.993835C115.07 0.993835 115.778 1.2561 116.293 1.77372C116.808 2.29134 117.069 2.9746 117.069 3.8097C117.069 4.6448 116.808 5.35566 116.293 5.86638C115.778 6.37711 115.091 6.62556 114.232 6.62556Z" fill="#0E2A3F"/>
<path d="M120.043 25.2738V24.8459H120.867C121.156 24.8459 121.375 24.7699 121.527 24.6112C121.678 24.4594 121.76 24.204 121.76 23.852V10.4353C121.76 10.104 121.691 9.83482 121.547 9.62087C121.403 9.41382 121.156 9.3172 120.805 9.3379L120.05 9.40692V9.00663L126.74 8.34407L126.939 8.50971L126.644 11.6569L126.41 12.1538L126.706 12.2228V23.852C126.706 24.1626 126.781 24.4042 126.939 24.5836C127.09 24.763 127.344 24.8459 127.695 24.8459H128.45V25.2738H120.043ZM130.133 25.2738V24.8459H130.923C131.253 24.8459 131.493 24.763 131.651 24.5974C131.809 24.4318 131.884 24.1833 131.884 23.852V14.1138C131.884 13.12 131.685 12.3401 131.294 11.7811C130.895 11.2151 130.27 10.9391 129.412 10.9391C128.842 10.9391 128.306 11.0909 127.811 11.3877C127.317 11.6845 126.946 12.0433 126.706 12.4643L124.659 12.9613L124.727 11.5671H127.131L126.541 12.1331C126.891 11.1185 127.544 10.2282 128.485 9.46903C129.432 8.70986 130.586 8.32336 131.946 8.32336C133.416 8.32336 134.598 8.83408 135.491 9.84862C136.383 10.8632 136.823 12.2228 136.823 13.9206V23.8589C136.823 24.2109 136.899 24.4663 137.057 24.6181C137.215 24.7699 137.441 24.8528 137.75 24.8528H138.54V25.2807H130.133V25.2738Z" fill="#0E2A3F"/>
<path d="M147.408 33.5902C144.75 33.5902 142.696 33.2865 141.24 32.6792C139.791 32.0718 139.062 31.2298 139.062 30.1463C139.062 29.2836 139.406 28.5865 140.086 28.0413C140.766 27.503 141.7 27.1855 142.888 27.0958V26.2331L144.702 26.3987L145.327 27.5927C144.118 27.6134 143.197 27.8273 142.572 28.2207C141.947 28.6141 141.631 29.2284 141.631 30.0428C141.631 30.9952 142.133 31.7406 143.129 32.2789C144.132 32.8172 145.615 33.0933 147.593 33.0933C148.761 33.0933 149.764 32.9691 150.609 32.7275C151.454 32.4859 152.106 32.1409 152.552 31.6992C153.006 31.2575 153.226 30.7467 153.226 30.1739C153.226 29.532 152.937 29.0006 152.367 28.5658C151.797 28.1379 150.938 27.8964 149.798 27.855L145.313 27.5927C143.925 27.5237 142.854 27.1441 142.085 26.447C141.315 25.75 140.931 24.9149 140.931 23.9486C140.931 22.9134 141.247 22.0645 141.872 21.4157C142.497 20.767 143.349 20.3184 144.427 20.0768V19.5454L145.814 19.642L145.684 20.2356C145.093 20.277 144.647 20.4081 144.351 20.6151C144.056 20.8222 143.905 21.0983 143.905 21.4295C143.905 21.7608 144.049 22.0093 144.331 22.1749C144.619 22.3406 145.031 22.4441 145.581 22.4924L150.691 22.7546C152.601 22.8651 154.084 23.3206 155.142 24.1143C156.2 24.908 156.722 25.9915 156.722 27.358C156.722 28.6141 156.351 29.7115 155.602 30.6363C154.853 31.5611 153.782 32.2858 152.388 32.8034C150.993 33.321 149.324 33.5833 147.394 33.5833L147.408 33.5902ZM147.738 20.4702C146.178 20.4702 144.839 20.2079 143.733 19.6765C142.627 19.1451 141.782 18.4342 141.212 17.537C140.642 16.6398 140.354 15.6667 140.354 14.6038C140.354 12.7059 141.02 11.2013 142.346 10.0971C143.678 8.9928 145.505 8.44067 147.834 8.44067C148.734 8.44067 149.578 8.52349 150.355 8.68913C151.138 8.85477 151.735 9.03421 152.154 9.23436V9.49662C153.033 9.91762 153.761 10.5802 154.345 11.4843C154.929 12.3884 155.218 13.396 155.218 14.5003C155.218 15.6046 154.922 16.6743 154.325 17.5784C153.734 18.4825 152.862 19.1934 151.721 19.6972C150.574 20.2079 149.249 20.4564 147.731 20.4564L147.738 20.4702ZM147.738 19.9733C148.576 19.9733 149.242 19.5385 149.75 18.662C150.258 17.7924 150.506 16.4811 150.506 14.735C150.506 12.837 150.265 11.4015 149.778 10.4283C149.29 9.45521 148.644 8.9721 147.834 8.9721C146.975 8.9721 146.309 9.3931 145.821 10.2282C145.334 11.0633 145.093 12.3815 145.093 14.169C145.093 15.9565 145.327 17.4542 145.801 18.4618C146.275 19.4695 146.913 19.9664 147.731 19.9664L147.738 19.9733ZM156.935 10.0349L151.495 9.30337L150.966 8.9721L156.935 8.30954V10.0349Z" fill="#0E2A3F"/>
<path d="M180.604 14.4106V13.9827H189.904V14.4106H189.506C189.135 14.4106 188.839 14.5072 188.633 14.6936C188.427 14.8799 188.317 15.1974 188.317 15.6391V25.2807H187.988L186.6 23.293C185.481 24.0453 184.224 24.6319 182.843 25.0667C181.456 25.4946 179.972 25.7155 178.392 25.7155C175.885 25.7155 173.708 25.2669 171.867 24.3765C170.019 23.4793 168.591 22.1749 167.581 20.4495C166.571 18.7241 166.063 16.6605 166.063 14.2519C166.063 11.4015 166.654 9.04113 167.842 7.16389C169.03 5.28664 170.631 3.90632 172.636 3.02291C174.642 2.1395 176.881 1.6978 179.347 1.6978C180.487 1.6978 181.545 1.79442 182.513 1.98076C183.482 2.16711 184.313 2.38106 185.02 2.62952C185.22 2.69853 185.398 2.69853 185.563 2.62952C185.728 2.5605 185.797 2.42247 185.776 2.20161L185.707 1.63568H186.071L187.555 11.1116H187.129L186.868 9.82101C186.03 7.2122 184.986 5.28664 183.722 4.03745C182.458 2.78825 181.071 2.16711 179.553 2.16711C178.145 2.16711 176.915 2.58811 175.858 3.4232C174.8 4.2652 173.983 5.47299 173.399 7.05346C172.815 8.63393 172.526 10.4698 172.526 12.5679C172.526 15.3285 172.801 17.6613 173.351 19.5592C173.9 21.4572 174.642 22.8858 175.576 23.8313C176.51 24.7837 177.568 25.2531 178.756 25.2531C179.175 25.2531 179.58 25.2047 179.979 25.1012C180.377 25.0046 180.748 24.8528 181.098 24.6526C181.689 24.342 182.129 23.8934 182.417 23.293C182.706 22.6995 182.843 21.9334 182.843 21.0086V15.6736C182.843 15.3009 182.747 14.9972 182.548 14.7626C182.348 14.5279 182.019 14.4175 181.559 14.4175H180.604V14.4106Z" fill="#0E2A3F"/>
<path d="M191.449 25.2738V24.8459H192.04C192.39 24.8459 192.651 24.7699 192.816 24.6112C192.981 24.4594 193.063 24.204 193.063 23.852V3.47841C193.063 3.016 192.995 2.70543 192.864 2.55359C192.734 2.40176 192.5 2.36725 192.17 2.45697L191.346 2.69163V2.26373L198.895 0.0137939V0.414088L197.974 0.745367V23.8658C197.974 24.2178 198.064 24.4732 198.235 24.625C198.414 24.7768 198.675 24.8597 199.025 24.8597H199.589V25.2876H191.442L191.449 25.2738Z" fill="#0E2A3F"/>
<path d="M210.077 25.6395C208.36 25.6395 206.862 25.2944 205.578 24.6112C204.293 23.9279 203.297 22.941 202.597 21.6435C201.896 20.3529 201.539 18.8345 201.539 17.0884C201.539 15.3423 201.903 13.8308 202.624 12.5471C203.352 11.2634 204.383 10.2765 205.722 9.57944C207.061 8.88237 208.621 8.53729 210.406 8.53729C212.192 8.53729 213.628 8.88237 214.926 9.57944C216.224 10.2765 217.22 11.2634 217.928 12.5471C218.628 13.8308 218.985 15.3423 218.985 17.0884C218.985 18.8345 218.621 20.3529 217.9 21.6435C217.172 22.9341 216.142 23.921 214.802 24.6112C213.463 25.2944 211.89 25.6395 210.09 25.6395H210.077ZM210.173 25.1771C210.901 25.1771 211.505 24.908 212 24.3627C212.495 23.8244 212.865 22.9893 213.12 21.8643C213.374 20.7394 213.497 19.2831 213.497 17.4887C213.497 14.5486 213.229 12.4022 212.687 11.0426C212.144 9.68296 211.354 9.0066 210.297 9.0066C209.568 9.0066 208.964 9.26887 208.483 9.80029C208.002 10.3317 207.632 11.1668 207.377 12.2987C207.123 13.4374 207 14.9006 207 16.6881C207 18.6551 207.123 20.2632 207.364 21.5055C207.604 22.7546 207.954 23.6726 208.421 24.273C208.888 24.8734 209.465 25.1702 210.166 25.1702L210.173 25.1771Z" fill="#0E2A3F"/>
<path d="M226.266 24.2799C226.527 24.4801 226.83 24.6319 227.159 24.7423C227.489 24.8528 227.798 24.908 228.08 24.908C229.797 24.908 231.129 24.2868 232.084 23.0514C233.039 21.816 233.52 20.0354 233.52 17.7165C233.52 16.2602 233.355 15.0386 233.025 14.0586C232.695 13.0786 232.242 12.3332 231.672 11.8225C231.102 11.3118 230.422 11.0633 229.625 11.0633C229.076 11.0633 228.595 11.1599 228.176 11.3463C227.757 11.5326 227.393 11.7811 227.091 12.0916V12.1262L226.926 11.9605C227.345 10.8977 228.052 10.0488 229.055 9.40691C230.058 8.76506 231.157 8.44758 232.366 8.44758C233.575 8.44758 234.715 8.79267 235.711 9.47593C236.714 10.1592 237.503 11.1185 238.087 12.3401C238.671 13.5686 238.96 14.9627 238.96 16.5294C238.96 18.4964 238.589 20.1596 237.84 21.5124C237.091 22.8651 236.027 23.9072 234.639 24.625C233.252 25.3428 231.603 25.7017 229.694 25.7017C228.835 25.7017 227.894 25.6119 226.878 25.4394C225.854 25.26 224.906 25.0322 224.027 24.7423L222.413 25.7017H222.18V3.47841C222.18 3.016 222.111 2.70543 221.98 2.55359C221.85 2.40176 221.63 2.36725 221.321 2.45697L220.462 2.69163V2.26373L228.011 0.0137939V0.414088L227.118 0.745367V24.9977L226.26 24.3006L226.266 24.2799ZM226.891 11.2634H227.42L227.386 11.6292H226.891V11.2634Z" fill="#0E2A3F"/>
<path d="M245.224 25.605C243.905 25.605 242.875 25.2392 242.126 24.5146C241.377 23.783 241.006 22.8375 241.006 21.6642C241.006 20.1596 241.679 18.938 243.019 17.9856C244.358 17.0332 246.467 16.205 249.352 15.501L250.966 15.0731V15.4389L249.647 15.8047C248.287 16.205 247.257 16.7847 246.563 17.5577C245.869 18.3307 245.526 19.29 245.526 20.4426C245.526 21.3467 245.746 22.0369 246.185 22.5131C246.625 22.9893 247.188 23.224 247.868 23.224C248.376 23.224 248.85 23.1135 249.304 22.8927C249.757 22.6718 250.121 22.3544 250.41 21.9334L250.478 22.3336C250.08 23.3482 249.414 24.1488 248.466 24.7354C247.518 25.3221 246.446 25.6119 245.237 25.6119L245.224 25.605ZM254.222 25.605C252.971 25.605 252.01 25.3428 251.351 24.8251C250.691 24.3075 250.361 23.6104 250.361 22.7477V12.6162C250.361 11.4498 250.073 10.5664 249.503 9.98663C248.933 9.4 248.143 9.11013 247.126 9.11013C246.536 9.11013 245.986 9.19295 245.478 9.35859C244.97 9.52423 244.468 9.77268 243.96 10.104L244.654 9.47591L245.904 9.17914V14.5141C245.663 14.6452 245.395 14.7626 245.093 14.8592C244.798 14.9558 244.502 15.011 244.221 15.011C243.561 15.011 243.019 14.804 242.586 14.3968C242.16 13.9896 241.94 13.4513 241.94 12.7887C241.94 11.995 242.222 11.2634 242.778 10.6009C243.342 9.93832 244.138 9.4138 245.169 9.02731C246.199 8.64082 247.422 8.44757 248.83 8.44757C250.897 8.44757 252.498 8.90998 253.624 9.8417C254.757 10.7665 255.321 12.1606 255.321 14.0172V22.0024C255.321 22.5752 255.417 23.01 255.616 23.293C255.815 23.5759 256.152 23.7209 256.639 23.7209C257.058 23.7209 257.374 23.5759 257.594 23.293C257.814 23.01 257.924 22.5959 257.924 22.0645V20.8084H258.322V22.099C258.322 23.293 257.992 24.1764 257.333 24.7492C256.674 25.3221 255.63 25.6119 254.201 25.6119L254.222 25.605ZM250.1 22.3889H250.595V22.8513H250.032L250.1 22.3889Z" fill="#0E2A3F"/>
<path d="M259.236 25.2738V24.8459H259.827C260.177 24.8459 260.438 24.7699 260.603 24.6112C260.768 24.4594 260.85 24.204 260.85 23.852V3.47841C260.85 3.016 260.781 2.70543 260.651 2.55359C260.52 2.40176 260.287 2.36725 259.957 2.45697L259.133 2.69163V2.26373L266.681 0.0137939V0.414088L265.761 0.745367V23.8658C265.761 24.2178 265.85 24.4732 266.022 24.625C266.194 24.7768 266.462 24.8597 266.812 24.8597H267.375V25.2876H259.229L259.236 25.2738Z" fill="#0E2A3F"/>
<path d="M286.669 25.7085C284.471 25.7085 282.63 25.2047 281.146 24.204C279.663 23.1964 278.66 21.7401 278.145 19.8284C277.63 17.9166 277.692 15.6391 278.323 12.9888C278.914 10.5802 279.896 8.53039 281.256 6.82569C282.616 5.12789 284.237 3.83729 286.119 2.96768C288.001 2.09808 290.028 1.65637 292.205 1.65637C294.382 1.65637 296.203 2.15329 297.679 3.14712C299.149 4.14096 300.152 5.5903 300.681 7.50205C301.21 9.4138 301.162 11.6844 300.55 14.3071C299.96 16.7157 298.984 18.7724 297.631 20.484C296.278 22.1956 294.664 23.4931 292.782 24.3765C290.9 25.2599 288.86 25.7016 286.669 25.7016V25.7085ZM286.799 24.8804C288.118 24.8804 289.341 24.5077 290.474 23.7692C291.607 23.0307 292.624 21.8643 293.524 20.277C294.424 18.6896 295.172 16.6743 295.763 14.2449C296.422 11.574 296.697 9.36549 296.587 7.61938C296.477 5.87327 296.031 4.58266 295.255 3.74066C294.472 2.89867 293.4 2.48457 292.04 2.48457C290.68 2.48457 289.506 2.85726 288.4 3.59573C287.287 4.3342 286.284 5.48678 285.384 7.06035C284.485 8.62702 283.736 10.6354 283.145 13.0924C282.486 15.7633 282.197 17.9787 282.287 19.7317C282.376 21.4848 282.809 22.7823 283.592 23.6243C284.375 24.4663 285.446 24.8804 286.806 24.8804H286.799Z" fill="#0E2A3F"/>
<path d="M298.366 33.1623L298.6 32.3341H299.589C299.877 32.3341 300.125 32.2513 300.331 32.0857C300.537 31.92 300.688 31.6716 300.777 31.3403L305.757 11.0978C305.846 10.7251 305.826 10.449 305.709 10.2696C305.585 10.0902 305.365 10.0142 305.036 10.0349L304.246 10.2006L304.445 9.46901L310.118 8.70983L310.249 8.87547L308.765 13.679H308.964C309.644 12.1537 310.544 10.9391 311.671 10.0349C312.79 9.13083 313.965 8.67532 315.201 8.67532C316.231 8.67532 317.056 8.9928 317.674 9.63465C318.292 10.2765 318.663 11.2013 318.794 12.416C318.924 13.6307 318.793 15.0662 318.395 16.7226C317.914 18.6689 317.248 20.3115 316.403 21.6573C315.558 23.0031 314.576 24.0245 313.45 24.7216C312.323 25.4187 311.107 25.7638 309.789 25.7638C308.889 25.7638 308.099 25.5843 307.433 25.2323C306.76 24.8804 306.217 24.4455 305.798 23.9417L306.361 22.8789C306.622 23.431 306.952 23.8451 307.35 24.1212C307.749 24.3972 308.216 24.5353 308.765 24.5353C309.445 24.5353 310.125 24.2661 310.812 23.7209C311.492 23.1825 312.131 22.3544 312.722 21.2363C313.312 20.1182 313.821 18.7241 314.24 17.047C314.611 15.6115 314.803 14.4382 314.803 13.5203C314.803 12.6024 314.652 11.9329 314.356 11.4981C314.061 11.0702 313.628 10.8493 313.051 10.8493C312.474 10.8493 311.884 11.1461 311.204 11.7465C310.524 12.3401 309.864 13.2166 309.226 14.3623C308.587 15.5079 308.072 16.8814 307.673 18.4687L304.507 31.3196C304.417 31.6301 304.438 31.8717 304.555 32.0511C304.678 32.2306 304.891 32.3134 305.2 32.3134H306.78L306.581 33.1416H298.373L298.366 33.1623Z" fill="#0E2A3F"/>
<path d="M316.568 33.1623L316.802 32.3341H317.791C318.079 32.3341 318.327 32.2513 318.533 32.0857C318.739 31.92 318.89 31.6716 318.979 31.3403L323.959 11.0978C324.048 10.7251 324.028 10.449 323.911 10.2696C323.787 10.0902 323.567 10.0142 323.238 10.0349L322.448 10.2006L322.647 9.46901L328.321 8.70983L328.451 8.87547L326.967 13.679H327.167C327.847 12.1537 328.746 10.9391 329.873 10.0349C330.992 9.13083 332.167 8.67532 333.403 8.67532C334.434 8.67532 335.258 8.9928 335.876 9.63465C336.494 10.2765 336.865 11.2013 336.996 12.416C337.126 13.6307 336.996 15.0662 336.597 16.7226C336.116 18.6689 335.45 20.3115 334.605 21.6573C333.761 23.0031 332.778 24.0245 331.652 24.7216C330.525 25.4187 329.31 25.7638 327.991 25.7638C327.091 25.7638 326.301 25.5843 325.635 25.2323C324.962 24.8804 324.419 24.4455 324 23.9417L324.563 22.8789C324.824 23.431 325.154 23.8451 325.553 24.1212C325.951 24.3972 326.418 24.5353 326.967 24.5353C327.647 24.5353 328.327 24.2661 329.014 23.7209C329.694 23.1825 330.333 22.3544 330.924 21.2363C331.514 20.1182 332.023 18.7241 332.442 17.047C332.813 15.6115 333.005 14.4382 333.005 13.5203C333.005 12.6024 332.854 11.9329 332.559 11.4981C332.263 11.0702 331.83 10.8493 331.253 10.8493C330.677 10.8493 330.086 11.1461 329.406 11.7465C328.726 12.3401 328.066 13.2166 327.428 14.3623C326.789 15.5079 326.274 16.8814 325.875 18.4687L322.709 31.3196C322.62 31.6301 322.64 31.8717 322.757 32.0511C322.881 32.2306 323.094 32.3134 323.403 32.3134H324.982L324.783 33.1416H316.575L316.568 33.1623Z" fill="#0E2A3F"/>
<path d="M344.661 25.7085C343.212 25.7085 342.01 25.3497 341.069 24.6319C340.121 23.9141 339.489 22.8858 339.173 21.5538C338.857 20.2148 338.912 18.6551 339.352 16.8676C340.011 14.1966 341.151 12.1676 342.779 10.7872C344.407 9.4069 346.309 8.71674 348.48 8.71674C349.909 8.71674 351.104 9.06872 352.059 9.77959C353.013 10.4836 353.659 11.5119 353.989 12.8577C354.318 14.2035 354.25 15.784 353.789 17.5922C353.171 20.201 352.045 22.2025 350.41 23.6035C348.775 25.0046 346.852 25.7085 344.654 25.7085H344.661ZM344.695 24.9149C345.705 24.9149 346.639 24.342 347.498 23.1895C348.356 22.0438 349.091 20.1941 349.709 17.6543C350.19 15.7081 350.444 14.1345 350.465 12.9198C350.486 11.7051 350.314 10.8286 349.957 10.2834C349.593 9.74508 349.084 9.46901 348.425 9.46901C347.436 9.46901 346.516 10.0418 345.657 11.1944C344.798 12.3401 344.05 14.1966 343.418 16.7571C342.958 18.6344 342.717 20.1734 342.69 21.3812C342.669 22.589 342.827 23.4724 343.171 24.0453C343.514 24.6181 344.022 24.908 344.702 24.908L344.695 24.9149Z" fill="#0E2A3F"/>
<path d="M359.497 11.0978C359.586 10.7458 359.566 10.4767 359.428 10.2834C359.298 10.0971 359.057 10.0212 358.7 10.0695L357.807 10.2006L358.006 9.46903L363.776 8.70985L363.872 8.87549L362.423 13.4789H362.622C363.323 11.8915 364.113 10.6768 364.978 9.84862C365.844 9.02042 366.84 8.60632 367.959 8.60632C368.619 8.60632 369.12 8.75816 369.456 9.06873C369.8 9.37931 369.965 9.7865 369.965 10.2972C369.965 10.7182 369.821 11.1461 369.539 11.5878C369.25 12.0295 368.934 12.3401 368.584 12.5126C368.344 12.2021 368.048 11.9605 367.691 11.7811C367.341 11.6016 366.963 11.5188 366.572 11.5188C365.473 11.5188 364.497 12.0295 363.652 13.0441C362.808 14.0586 362.086 15.7495 361.496 18.1099L359.751 25.2669H356.028L359.49 11.0909L359.497 11.0978Z" fill="#0E2A3F"/>
<path d="M373.969 25.7431C372.671 25.7431 371.751 25.3428 371.201 24.5491C370.652 23.7554 370.556 22.6511 370.906 21.2363L373.674 9.93835H371.531L371.696 9.11015H373.873L377.795 5.10031L378.324 3.20926H379.114L377.596 9.10325L382.672 8.8686L382.377 10.0626L377.431 9.93145L374.725 20.8981C374.484 21.9334 374.471 22.7064 374.691 23.2033C374.91 23.7002 375.384 23.9487 376.105 23.9487C376.566 23.9487 377.04 23.8037 377.52 23.5208C378.001 23.2309 378.496 22.7823 379.004 22.1611L379.464 22.6235C378.716 23.6381 377.884 24.4111 376.978 24.9425C376.064 25.4739 375.061 25.7362 373.962 25.7362L373.969 25.7431Z" fill="#0E2A3F"/>
<path d="M385.839 25.8052C384.389 25.8052 383.414 25.3152 382.919 24.3282C382.425 23.3482 382.432 21.9472 382.933 20.1389L385.406 11.0288C385.516 10.6768 385.509 10.4076 385.392 10.2351C385.268 10.0556 385.014 9.99353 384.616 10.0349L383.723 10.2006L383.922 9.46901L389.596 8.67532L389.726 8.84096L386.69 20.1389C386.381 21.2639 386.34 22.1266 386.56 22.7201C386.78 23.3137 387.24 23.6174 387.947 23.6174C388.538 23.6174 389.17 23.3275 389.843 22.7546C390.516 22.1818 391.155 21.3398 391.773 20.2356C392.391 19.1313 392.886 17.8476 393.257 16.3913L395.07 9.19985L398.731 8.73744L398.861 8.90308L395.599 21.9541C395.468 22.5476 395.468 23.0031 395.599 23.3137C395.729 23.6243 396.004 23.7761 396.423 23.7761C396.732 23.7761 397.041 23.6657 397.344 23.4448C397.653 23.224 397.962 22.8927 398.264 22.451L398.724 22.8789C398.106 23.8313 397.398 24.5491 396.595 25.046C395.791 25.5429 394.939 25.7914 394.04 25.7914C393.071 25.7914 392.405 25.4601 392.048 24.7975C391.684 24.135 391.691 23.1964 392.062 21.9817L392.46 20.7256H392.295C391.594 22.2301 390.66 23.4448 389.506 24.3834C388.352 25.3221 387.13 25.7914 385.832 25.7914L385.839 25.8052Z" fill="#0E2A3F"/>
<path d="M412.873 25.8052C411.864 25.8052 411.163 25.4739 410.779 24.8114C410.394 24.1488 410.38 23.1964 410.73 21.961L412.908 14.3071C413.238 13.1614 413.286 12.2849 413.059 11.6914C412.825 11.0978 412.386 10.7941 411.726 10.7941C411.108 10.7941 410.449 11.1116 409.748 11.7535C409.048 12.3953 408.368 13.3132 407.722 14.5003C407.076 15.6943 406.554 17.0815 406.156 18.6758L404.542 25.2669H400.785L404.246 11.0909C404.336 10.7389 404.315 10.4698 404.178 10.2765C404.047 10.0902 403.814 10.0143 403.484 10.0626L402.564 10.1592L402.763 9.46213L408.567 8.70295L408.663 8.86859L407.015 13.9689H407.214C407.983 12.3125 408.951 11.0012 410.112 10.0419C411.28 9.08254 412.516 8.59943 413.835 8.59943C415.243 8.59943 416.205 9.06874 416.72 10.0074C417.235 10.946 417.242 12.3332 416.734 14.1621L414.522 21.9472C414.343 22.52 414.336 22.9686 414.488 23.2861C414.639 23.6036 414.927 23.7692 415.346 23.7692C415.635 23.7692 415.937 23.6588 416.267 23.4379C416.596 23.2171 416.912 22.8858 417.221 22.4441L417.647 22.872C417.008 23.8244 416.287 24.5422 415.49 25.0391C414.687 25.536 413.814 25.7845 412.867 25.7845L412.873 25.8052Z" fill="#0E2A3F"/>
<path d="M422.661 25.8052C421.672 25.8052 420.999 25.4739 420.635 24.8114C420.271 24.1488 420.243 23.1964 420.552 21.961L423.286 11.0288C423.375 10.6768 423.348 10.4146 423.204 10.2489C423.059 10.0833 422.812 10.0143 422.462 10.035L421.438 10.2006L421.603 9.46904L427.407 8.67535L427.538 8.84099L424.309 21.961C424.158 22.5338 424.151 22.9824 424.296 23.2999C424.44 23.6174 424.721 23.783 425.134 23.783C425.443 23.783 425.752 23.6726 426.075 23.4517C426.391 23.2309 426.707 22.9134 427.016 22.4924L427.441 22.8927C426.823 23.8451 426.109 24.5629 425.298 25.0598C424.488 25.5567 423.609 25.8052 422.661 25.8052ZM426.583 6.12865C425.923 6.12865 425.388 5.88709 424.982 5.39708C424.577 4.90706 424.44 4.27901 424.57 3.50603C424.66 2.86418 424.941 2.34656 425.429 1.94626C425.91 1.54597 426.487 1.35272 427.146 1.35272C427.847 1.35272 428.396 1.59428 428.795 2.08429C429.193 2.57431 429.323 3.17475 429.193 3.90632C429.062 4.58959 428.767 5.13481 428.321 5.52821C427.867 5.9285 427.29 6.12175 426.59 6.12175L426.583 6.12865Z" fill="#0E2A3F"/>
<path d="M433.644 25.7431C432.325 25.7431 431.398 25.3428 430.855 24.5491C430.32 23.7554 430.223 22.6511 430.574 21.2363L433.342 9.93834H431.164L431.329 9.17917H433.541L437.463 5.1072L437.992 3.21616H438.747L437.264 9.11015H445.575L445.376 9.93834H437.099L434.393 20.905C434.132 21.9403 434.111 22.7133 434.345 23.2102C434.578 23.7071 435.045 23.9556 435.746 23.9556C436.206 23.9556 436.68 23.8106 437.161 23.5277C437.642 23.2378 438.15 22.7892 438.679 22.168L439.105 22.6304C438.376 23.645 437.559 24.418 436.646 24.9494C435.732 25.4808 434.729 25.7431 433.63 25.7431H433.644ZM442.91 25.8121C441.88 25.8121 441.186 25.4808 440.835 24.8183C440.485 24.1557 440.465 23.2033 440.767 21.9679L443.473 11.0357C443.583 10.663 443.576 10.387 443.459 10.2075C443.343 10.0281 443.082 9.94525 442.683 9.94525H441.66L441.825 9.48284L447.629 8.68915L447.759 8.85479L444.531 21.9748C444.38 22.5476 444.38 22.9962 444.531 23.3137C444.682 23.6312 444.97 23.7968 445.389 23.7968C445.698 23.7968 446.008 23.6864 446.31 23.4655C446.619 23.2447 446.935 22.9272 447.264 22.5062L447.663 22.9065C447.045 23.8589 446.33 24.5767 445.52 25.0736C444.709 25.5705 443.837 25.819 442.917 25.819L442.91 25.8121ZM446.797 6.13555C446.117 6.13555 445.575 5.89399 445.183 5.40397C444.792 4.91396 444.641 4.28591 444.757 3.51293C444.867 2.87108 445.156 2.35345 445.63 1.95316C446.104 1.55286 446.681 1.35962 447.361 1.35962C448.041 1.35962 448.611 1.60118 448.995 2.09119C449.38 2.58121 449.504 3.18165 449.373 3.91322C449.243 4.59648 448.954 5.14171 448.515 5.53511C448.075 5.9354 447.505 6.12864 446.797 6.12864V6.13555Z" fill="#0E2A3F"/>
<path d="M455.067 25.7431C453.79 25.7431 452.718 25.3773 451.853 24.6526C450.987 23.921 450.403 22.9134 450.108 21.6228C449.813 20.3322 449.861 18.869 450.259 17.2333C450.657 15.5562 451.317 14.0724 452.237 12.7749C453.158 11.4843 454.243 10.4836 455.486 9.77959C456.729 9.07562 458.027 8.71674 459.394 8.71674C460.603 8.71674 461.558 8.9859 462.265 9.53113C462.973 10.0764 463.323 10.7734 463.323 11.6361C463.323 12.8922 462.87 13.9413 461.956 14.7695C461.043 15.5977 459.854 16.2119 458.378 16.6053C456.908 17.0056 455.321 17.2264 453.632 17.2679L453.7 16.5087C454.888 16.488 456.015 16.2326 457.08 15.7495C458.144 15.2664 459.003 14.6176 459.648 13.8101C460.294 13.0026 460.624 12.1261 460.624 11.1737C460.624 10.663 460.5 10.2558 460.26 9.94523C460.019 9.63465 459.635 9.48282 459.106 9.48282C458.446 9.48282 457.794 9.73818 457.141 10.242C456.489 10.7458 455.905 11.4774 455.376 12.4298C454.847 13.3822 454.421 14.5072 454.092 15.8116C453.721 17.3162 453.604 18.6068 453.748 19.6903C453.893 20.7739 454.257 21.609 454.834 22.1887C455.417 22.7754 456.18 23.0652 457.128 23.0652C458.076 23.0652 458.955 22.7685 459.834 22.168C460.713 21.5745 461.462 20.6635 462.073 19.4488L462.636 19.78C461.778 21.7677 460.713 23.2585 459.436 24.2523C458.158 25.2461 456.709 25.7431 455.081 25.7431H455.067Z" fill="#0E2A3F"/>
<path d="M469.045 25.7431C468.124 25.7431 467.28 25.5981 466.524 25.3152C465.768 25.0253 465.164 24.6388 464.711 24.1557C464.257 23.6726 464.038 23.1274 464.038 22.5338C464.038 21.9403 464.216 21.5124 464.58 21.1949C464.944 20.8774 465.432 20.7118 466.05 20.7118C466.249 22.1266 466.668 23.1688 467.321 23.8451C467.966 24.5215 468.791 24.8528 469.78 24.8528C470.46 24.8528 471.037 24.6802 471.511 24.3421C471.985 23.997 472.294 23.5277 472.452 22.9341C472.63 22.2302 472.548 21.5676 472.218 20.9603C471.888 20.3529 471.373 19.7939 470.666 19.2901L469.017 18.0616C468.118 17.399 467.465 16.6398 467.074 15.7771C466.682 14.9144 466.634 13.9206 466.943 12.7956C467.273 11.5119 467.98 10.5181 469.072 9.80032C470.158 9.08255 471.421 8.72366 472.85 8.72366C473.77 8.72366 474.622 8.8617 475.405 9.13776C476.188 9.41383 476.8 9.77271 477.253 10.2144C477.706 10.6561 477.926 11.1392 477.926 11.6707C477.926 12.2021 477.734 12.5955 477.349 12.8646C476.964 13.1269 476.456 13.2649 475.817 13.2649C475.707 12.5334 475.474 11.8984 475.124 11.3463C474.773 10.7942 474.341 10.3663 473.819 10.0557C473.303 9.7451 472.768 9.59327 472.218 9.59327C471.6 9.59327 471.078 9.7382 470.652 10.0212C470.226 10.3041 469.965 10.7251 469.876 11.2773C469.725 11.9398 469.807 12.5472 470.123 13.0993C470.439 13.6514 470.941 14.1829 471.621 14.6867L473.269 15.8807C474.279 16.6122 475.014 17.4266 475.481 18.3307C475.941 19.2348 476.016 20.2977 475.714 21.5124C475.494 22.3544 475.069 23.0929 474.444 23.7347C473.818 24.3766 473.035 24.8735 472.101 25.2255C471.167 25.5774 470.151 25.7569 469.052 25.7569L469.045 25.7431Z" fill="#0E2A3F"/>
<path d="M482.892 14.4451C481.992 14.4451 481.257 14.1621 480.68 13.6031C480.11 13.0372 479.822 12.2918 479.822 11.367C479.822 10.4422 480.11 9.72439 480.68 9.16536C481.25 8.59943 481.985 8.32336 482.892 8.32336C483.799 8.32336 484.554 8.60633 485.118 9.16536C485.681 9.7313 485.955 10.4629 485.955 11.367C485.955 12.3194 485.674 13.0648 485.118 13.6169C484.554 14.169 483.812 14.4451 482.892 14.4451ZM482.892 25.8742C481.992 25.8742 481.257 25.5912 480.68 25.0322C480.11 24.4663 479.822 23.7209 479.822 22.7961C479.822 21.8713 480.11 21.1535 480.68 20.5738C481.25 19.994 481.985 19.7111 482.892 19.7111C483.799 19.7111 484.554 20.0009 485.118 20.5738C485.681 21.1466 485.955 21.8851 485.955 22.7961C485.955 23.7485 485.674 24.4939 485.118 25.046C484.554 25.5981 483.812 25.8742 482.892 25.8742Z" fill="#0E2A3F"/>
<path d="M4.71188 66.6835V66.2556H6.09934C6.53893 66.2556 6.85489 66.159 7.05408 65.9727C7.25327 65.7863 7.34943 65.4619 7.34943 64.9926V43.991H6.36035C5.41248 43.991 4.51269 44.3292 3.65411 44.9986C2.79553 45.675 2.07433 46.5446 1.49736 47.6143C0.913528 48.6841 0.576965 49.7607 0.494541 50.8443L0.39838 51.7415H0L0.892922 42.8936H1.12646L1.621 43.4872H19.0604L19.5206 42.8936H19.7816L20.6746 51.7415H20.2762L20.18 50.8443C20.0907 49.7607 19.761 48.6841 19.1909 47.6143C18.6209 46.5446 17.9065 45.6681 17.0479 44.9986C16.1894 44.3222 15.3033 43.991 14.376 43.991H13.3526V64.9926C13.3526 65.4343 13.4488 65.7518 13.648 65.952C13.8472 66.1521 14.1631 66.2487 14.6027 66.2487H15.9902V66.6766H4.71188V66.6835Z" fill="#0E2A3F"/>
<path d="M25.1871 67.0148C23.8683 67.0148 22.838 66.649 22.0893 65.9244C21.3406 65.1928 20.9697 64.2473 20.9697 63.074C20.9697 61.5694 21.6429 60.3478 22.9822 59.3954C24.3216 58.443 26.4303 57.6148 29.3151 56.9108L30.9292 56.4829V56.8487L29.6105 57.2145C28.2505 57.6148 27.2202 58.1945 26.5264 58.9675C25.8327 59.7405 25.4893 60.6998 25.4893 61.8524C25.4893 62.7565 25.7091 63.4467 26.1487 63.9229C26.5883 64.3991 27.1515 64.6338 27.8315 64.6338C28.3398 64.6338 28.8137 64.5233 29.267 64.3025C29.7204 64.0816 30.0844 63.7641 30.3729 63.3431L30.4416 63.7434C30.0432 64.758 29.3769 65.5586 28.4291 66.1452C27.4812 66.7318 26.4097 67.0217 25.2008 67.0217L25.1871 67.0148ZM34.185 67.0148C32.9349 67.0148 31.9733 66.7526 31.3139 66.2349C30.6545 65.7173 30.3248 65.0202 30.3248 64.1575V54.0259C30.3248 52.8596 30.0363 51.9762 29.4662 51.3964C28.8961 50.8167 28.1062 50.5199 27.0897 50.5199C26.499 50.5199 25.9495 50.6027 25.4412 50.7684C24.9329 50.934 24.4315 51.1825 23.9232 51.5138L24.617 50.8857L25.8671 50.5889V55.9239C25.6267 56.055 25.3588 56.1724 25.0566 56.269C24.7612 56.3656 24.4659 56.4208 24.1842 56.4208C23.5249 56.4208 22.9822 56.2138 22.5495 55.8066C22.1237 55.3994 21.9039 54.861 21.9039 54.1985C21.9039 53.4048 22.1855 52.6732 22.7418 52.0107C23.3051 51.3481 24.1018 50.8236 25.1321 50.4371C26.1624 50.0506 27.385 49.8574 28.7931 49.8574C30.8605 49.8574 32.4609 50.3198 33.5874 51.2515C34.7207 52.1763 35.2839 53.5704 35.2839 55.427V63.4122C35.2839 63.985 35.3801 64.4198 35.5793 64.7028C35.7785 64.9926 36.1151 65.1307 36.6027 65.1307C37.0217 65.1307 37.3377 64.9857 37.5575 64.7028C37.7773 64.4129 37.8872 64.0057 37.8872 63.4743V62.2182H38.2855V63.5088C38.2855 64.7028 37.9558 65.5862 37.2965 66.159C36.6371 66.7318 35.593 67.0217 34.1644 67.0217L34.185 67.0148ZM30.0638 63.7987H30.5583V64.2611H29.9951L30.0638 63.7987Z" fill="#0E2A3F"/>
<path d="M39.3643 66.6835V66.2556H39.955C40.3053 66.2556 40.5663 66.1728 40.7311 66.0072C40.896 65.8415 40.9784 65.5724 40.9784 65.1928V51.707C40.9784 51.355 40.8822 51.0927 40.6968 50.9271C40.5113 50.7615 40.216 50.6994 39.8245 50.7477L39.3643 50.8167V50.4164L45.6971 49.6227L45.8963 49.8228V65.1928C45.8963 65.5655 45.9787 65.8415 46.1436 66.0072C46.3084 66.1728 46.5694 66.2556 46.9197 66.2556H47.4486V66.6835H39.3711H39.3643ZM43.4167 48.0353C42.5582 48.0353 41.8713 47.7731 41.3562 47.2554C40.841 46.7378 40.58 46.0546 40.58 45.2195C40.58 44.3844 40.841 43.7011 41.3699 43.1835C41.8988 42.6659 42.5788 42.4036 43.4167 42.4036C44.2547 42.4036 44.9622 42.6659 45.4773 43.1835C45.9925 43.7011 46.2535 44.3844 46.2535 45.2195C46.2535 46.0546 45.9925 46.7654 45.4773 47.2761C44.9622 47.7869 44.2753 48.0353 43.4167 48.0353Z" fill="#0E2A3F"/>
<path d="M49.1934 66.6835V66.2556H49.7841C50.1344 66.2556 50.3954 66.1797 50.5602 66.021C50.7251 65.8692 50.8075 65.6138 50.8075 65.2618V44.8882C50.8075 44.4258 50.7388 44.1152 50.6083 43.9634C50.4778 43.8115 50.2443 43.777 49.9146 43.8668L49.0903 44.1014V43.6735L56.639 41.4236V41.8239L55.7186 42.1552V65.2756C55.7186 65.6276 55.8079 65.883 55.9796 66.0348C56.1582 66.1866 56.4192 66.2694 56.7695 66.2694H57.3327V66.6973H49.1865L49.1934 66.6835Z" fill="#0E2A3F"/>
<path d="M67.8141 67.0493C66.0969 67.0493 64.5996 66.7042 63.3151 66.021C62.0307 65.3377 61.0347 64.3508 60.3341 63.0533C59.6335 61.7558 59.2764 60.2443 59.2764 58.4982C59.2764 56.7521 59.6404 55.2406 60.3616 53.9569C61.0897 52.6732 62.12 51.6863 63.4594 50.9892C64.7987 50.2922 66.3579 49.9471 68.1438 49.9471C69.9296 49.9471 71.3652 50.2922 72.6633 50.9892C73.9615 51.6863 74.9574 52.6732 75.6649 53.9569C76.3655 55.2406 76.7227 56.7521 76.7227 58.4982C76.7227 60.2443 76.3586 61.7627 75.6374 63.0533C74.9162 64.3439 73.8791 65.3308 72.5397 66.021C71.2003 66.7042 69.6274 67.0493 67.8278 67.0493H67.8141ZM67.9102 66.5869C68.6383 66.5869 69.2427 66.3177 69.7373 65.7725C70.2318 65.2342 70.6027 64.3991 70.8569 63.2741C71.111 62.1492 71.2346 60.6929 71.2346 58.8985C71.2346 55.9584 70.9668 53.812 70.4241 52.4524C69.8815 51.0928 69.0916 50.4164 68.0339 50.4164C67.3058 50.4164 66.7014 50.6787 66.2206 51.2101C65.7329 51.7415 65.3688 52.5766 65.1147 53.7085C64.8606 54.8472 64.7369 56.3104 64.7369 58.0979C64.7369 60.0649 64.8537 61.673 65.101 62.9152C65.3414 64.1644 65.6917 65.0824 66.1587 65.6828C66.6258 66.2832 67.2028 66.58 67.9034 66.58L67.9102 66.5869Z" fill="#0E2A3F"/>
<path d="M78.7969 66.6835V66.2556H79.3876C79.7379 66.2556 79.9989 66.1797 80.1638 66.021C80.3286 65.8691 80.411 65.6138 80.411 65.2618V51.845C80.411 51.4447 80.3149 51.1618 80.1294 50.9823C79.944 50.8029 79.6692 50.727 79.3189 50.7477L78.79 50.8167V50.4164L85.3839 49.7538L85.5488 49.9195L85.0886 54.3227L84.7245 54.654H85.3152V64.9236C85.3152 65.386 85.4183 65.7242 85.6312 65.9313C85.8373 66.1383 86.1669 66.2487 86.6065 66.2487H87.9597V66.6766H78.7969V66.6835ZM83.2134 55.5857V54.1916H85.2259C85.9265 52.687 86.6478 51.5552 87.3827 50.7822C88.1176 50.0092 88.9625 49.6227 89.9035 49.6227C90.6934 49.6227 91.3322 49.8712 91.813 50.3681C92.2938 50.865 92.541 51.5414 92.541 52.4041C92.541 53.2668 92.3006 53.9086 91.813 54.3917C91.3322 54.8817 90.7277 55.1233 89.9996 55.1233C89.5394 55.1233 89.0999 55.0336 88.6809 54.861C88.6603 54.1985 88.5778 53.6878 88.4336 53.322C88.2894 52.9562 88.0627 52.7768 87.7605 52.7768C87.4308 52.7768 87.0461 52.9562 86.6065 53.322C86.1669 53.6878 85.7411 54.2468 85.3221 54.9922L83.2134 55.5857Z" fill="#0E2A3F"/>
<path d="M101.573 67.1804C100.055 67.1804 98.6885 66.8147 97.4659 66.09C96.2432 65.3653 95.2885 64.3508 94.5948 63.0602C93.901 61.7696 93.5576 60.3064 93.5576 58.6707C93.5576 56.9039 93.901 55.3648 94.5948 54.0466C95.2885 52.7353 96.257 51.7139 97.4933 50.9961C98.7366 50.2783 100.145 49.9195 101.731 49.9195C103.119 49.9195 104.348 50.2093 105.427 50.796C106.505 51.3826 107.343 52.2108 107.947 53.2806C108.552 54.3503 108.854 55.5857 108.854 56.9729V57.0696H98.0085L97.9741 56.5726H101.766C102.844 56.5726 103.606 56.4001 104.06 56.0619C104.513 55.7237 104.733 55.0957 104.733 54.1916C104.733 53.4876 104.602 52.8389 104.334 52.2522C104.073 51.6656 103.703 51.2101 103.229 50.8788C102.755 50.5475 102.198 50.3819 101.566 50.3819C100.866 50.3819 100.261 50.5958 99.7531 51.0306C99.2448 51.4654 98.8602 52.1073 98.5992 52.97C98.3382 53.8327 98.2008 54.8886 98.2008 56.1516C98.2008 57.7666 98.4343 59.14 98.8945 60.2788C99.3547 61.4176 100.021 62.2872 100.886 62.8945C101.752 63.5019 102.817 63.8055 104.067 63.8055C105.317 63.8055 106.313 63.495 107.185 62.8807C108.05 62.2596 108.655 61.39 108.985 60.265L109.314 60.3616C109.005 62.5287 108.174 64.2058 106.828 65.3998C105.475 66.5938 103.723 67.1873 101.566 67.1873L101.573 67.1804Z" fill="#0E2A3F"/>
<path d="M117.832 67.1529C116.602 67.1529 115.482 66.8078 114.486 66.1107C113.484 65.4136 112.701 64.4405 112.131 63.1982C111.56 61.949 111.272 60.5204 111.272 58.9054C111.272 57.0696 111.622 55.4684 112.33 54.1019C113.03 52.7353 114.013 51.6863 115.263 50.9547C116.513 50.2232 117.941 49.8643 119.549 49.8643C120.359 49.8643 121.08 49.9471 121.705 50.1127C122.33 50.2784 122.901 50.513 123.402 50.8236L123.436 51.5207C123.175 51.2998 122.846 51.1273 122.447 51.0099C122.049 50.8926 121.644 50.8305 121.225 50.8305C119.885 50.8305 118.793 51.4033 117.962 52.5559C117.124 53.7016 116.712 55.358 116.712 57.5251C116.712 58.9813 116.891 60.2374 117.241 61.2865C117.591 62.3355 118.099 63.1292 118.773 63.6744C119.446 64.2197 120.242 64.4888 121.163 64.4888C121.623 64.4888 122.056 64.406 122.447 64.2404C122.839 64.0747 123.148 63.8401 123.368 63.5295L123.402 63.7918C123.251 64.1921 122.976 64.6476 122.578 65.1652C122.179 65.6828 121.589 66.1521 120.799 66.5731C120.009 66.9941 119.02 67.1943 117.832 67.1667V67.1529ZM123.175 66.6904L123.01 66.4903L123.374 64.2404H123.141V44.8951C123.141 44.4327 123.072 44.1221 122.942 43.9703C122.811 43.8184 122.578 43.7839 122.248 43.8737L121.424 44.1083V43.6804L128.972 41.4305V41.8308L128.08 42.1621V65.2549C128.08 65.5862 128.155 65.8415 128.313 66.0141C128.464 66.1935 128.711 66.2763 129.041 66.2763H129.632V66.7042H123.168L123.175 66.6904Z" fill="#0E2A3F"/>
<path d="M140.216 66.9872L139.227 57.7804H139.653L140.347 64.3715L139.619 58.6707C140.697 61.39 141.913 63.3845 143.28 64.6682C144.64 65.9519 146.192 66.5869 147.93 66.5869C148.63 66.5869 149.262 66.442 149.812 66.159C150.361 65.8691 150.787 65.4688 151.096 64.9512C151.405 64.4336 151.556 63.84 151.556 63.1775C151.556 62.1422 151.247 61.2519 150.636 60.5135C150.018 59.775 149.173 59.1745 148.094 58.7052L145.656 57.5803C143.788 56.6762 142.359 55.6616 141.37 54.5505C140.381 53.4324 139.886 51.983 139.886 50.1955C139.886 48.8704 140.257 47.6695 140.992 46.586C141.727 45.5024 142.764 44.6604 144.09 44.0531C145.423 43.4457 146.961 43.1421 148.72 43.1421C149.599 43.1421 150.54 43.2387 151.536 43.4388C152.532 43.639 153.397 43.9012 154.125 44.2325C154.366 44.3222 154.572 44.3084 154.736 44.198C154.901 44.0876 154.963 43.9081 154.915 43.6666L154.846 43.004H155.245L156.495 51.4861H156.096L155.073 44.5638L155.993 50.4923C154.805 47.9732 153.631 46.1995 152.463 45.1573C151.295 44.1221 150.004 43.5976 148.575 43.5976C147.847 43.5976 147.215 43.7356 146.68 44.0117C146.144 44.2877 145.725 44.688 145.429 45.2056C145.134 45.7233 144.983 46.3237 144.983 47.0139C144.983 47.8766 145.251 48.6289 145.793 49.2845C146.329 49.9333 147.14 50.5061 148.218 50.9892L150.43 52.0176C152.669 53.1218 154.324 54.2675 155.389 55.4477C156.454 56.6278 156.989 58.0841 156.989 59.8026C156.989 61.2381 156.591 62.508 155.801 63.6123C155.011 64.7166 153.919 65.5655 152.518 66.1659C151.124 66.7594 149.544 67.0631 147.785 67.0631C146.467 67.0631 145.237 66.9389 144.09 66.6973C142.943 66.4558 141.981 66.1107 141.191 65.669C140.903 65.5378 140.718 65.5171 140.628 65.6C140.539 65.6897 140.505 65.8622 140.532 66.1314L140.601 66.9941H140.202L140.216 66.9872Z" fill="#0E2A3F"/>
<path d="M167.876 67.0493C166.159 67.0493 164.662 66.7042 163.377 66.021C162.093 65.3377 161.097 64.3508 160.396 63.0533C159.696 61.7558 159.338 60.2443 159.338 58.4982C159.338 56.7521 159.702 55.2406 160.424 53.9569C161.152 52.6732 162.182 51.6863 163.521 50.9892C164.861 50.2922 166.42 49.9471 168.206 49.9471C169.992 49.9471 171.427 50.2922 172.725 50.9892C174.024 51.6863 175.019 52.6732 175.727 53.9569C176.428 55.2406 176.785 56.7521 176.785 58.4982C176.785 60.2443 176.421 61.7627 175.699 63.0533C174.978 64.3439 173.941 65.3308 172.602 66.021C171.262 66.7042 169.689 67.0493 167.89 67.0493H167.876ZM167.972 66.5869C168.7 66.5869 169.305 66.3177 169.799 65.7725C170.294 65.2342 170.665 64.3991 170.919 63.2741C171.173 62.1492 171.297 60.6929 171.297 58.8985C171.297 55.9584 171.029 53.812 170.486 52.4524C169.944 51.0928 169.154 50.4164 168.096 50.4164C167.368 50.4164 166.763 50.6787 166.283 51.2101C165.795 51.7415 165.431 52.5766 165.177 53.7085C164.923 54.8472 164.799 56.3104 164.799 58.0979C164.799 60.0649 164.916 61.673 165.163 62.9152C165.403 64.1644 165.754 65.0824 166.221 65.6828C166.688 66.2832 167.265 66.58 167.965 66.58L167.972 66.5869Z" fill="#0E2A3F"/>
<path d="M178.694 66.6835V66.2556H179.285C179.635 66.2556 179.896 66.1797 180.061 66.021C180.226 65.8692 180.308 65.6138 180.308 65.2618V44.8882C180.308 44.4258 180.24 44.1152 180.109 43.9634C179.979 43.8115 179.745 43.777 179.416 43.8668L178.591 44.1014V43.6735L186.14 41.4236V41.8239L185.22 42.1552V65.2756C185.22 65.6276 185.309 65.883 185.481 66.0348C185.659 66.1866 185.92 66.2694 186.27 66.2694H186.834V66.6973H178.687L178.694 66.6835Z" fill="#0E2A3F"/>
<path d="M194.946 61.4866C194.946 62.4597 195.131 63.2258 195.509 63.7918C195.88 64.3577 196.498 64.6338 197.356 64.6338C197.885 64.6338 198.387 64.4819 198.874 64.1851C199.355 63.8884 199.719 63.5295 199.96 63.1085L202.006 62.6116L201.91 64.0333H199.534L200.063 63.4674C199.733 64.4612 199.115 65.3446 198.215 66.1176C197.315 66.8906 196.168 67.2771 194.788 67.2771C193.407 67.2771 192.246 66.7664 191.394 65.7518C190.536 64.7373 190.11 63.3777 190.11 61.6799V51.776C190.11 51.424 190.041 51.1411 189.897 50.934C189.753 50.727 189.506 50.6442 189.155 50.6856L188.235 50.8167V50.4164L194.794 49.6227L194.959 49.7883V61.4797L194.946 61.4866ZM204.836 65.1307C204.836 65.5034 204.905 65.7863 205.049 65.9727C205.194 66.159 205.448 66.2556 205.825 66.2556H206.519V66.6835H199.891L199.726 66.4834L200.021 63.9022L200.221 63.4398L199.96 63.3708V51.776C199.96 51.4033 199.877 51.1204 199.712 50.934C199.548 50.7477 199.3 50.6718 198.971 50.7201L197.981 50.8512V50.4509L204.672 49.6227L204.836 49.7883V65.1238V65.1307Z" fill="#0E2A3F"/>
<path d="M214.033 67.2149C212.646 67.2149 211.575 66.8008 210.819 65.9727C210.063 65.1445 209.679 64.054 209.679 62.7082V50.7477H208.229V50.3198H209.679L214.164 45.0193V43.494H214.59V50.3198L219.075 49.9885V50.9478L214.59 50.7477V61.9145C214.59 63.0188 214.768 63.8124 215.119 64.3025C215.469 64.7925 215.998 65.034 216.699 65.034C217.159 65.034 217.585 64.9098 217.969 64.6682C218.354 64.4267 218.69 64.0264 218.972 63.4743L219.267 63.6399C218.828 64.7856 218.162 65.669 217.275 66.2901C216.383 66.9113 215.304 67.2149 214.027 67.2149H214.033Z" fill="#0E2A3F"/>
<path d="M220.366 66.6835V66.2556H220.957C221.307 66.2556 221.568 66.1728 221.733 66.0072C221.898 65.8415 221.98 65.5724 221.98 65.1928V51.707C221.98 51.355 221.884 51.0927 221.699 50.9271C221.513 50.7615 221.218 50.6994 220.826 50.7477L220.366 50.8167V50.4164L226.699 49.6227L226.898 49.8228V65.1928C226.898 65.5655 226.981 65.8415 227.146 66.0072C227.31 66.1728 227.571 66.2556 227.922 66.2556H228.451V66.6835H220.373H220.366ZM224.419 48.0353C223.56 48.0353 222.873 47.7731 222.358 47.2554C221.843 46.7378 221.582 46.0546 221.582 45.2195C221.582 44.3844 221.843 43.7011 222.372 43.1835C222.901 42.6659 223.581 42.4036 224.419 42.4036C225.257 42.4036 225.964 42.6659 226.479 43.1835C226.994 43.7011 227.255 44.3844 227.255 45.2195C227.255 46.0546 226.994 46.7654 226.479 47.2761C225.964 47.7869 225.277 48.0353 224.419 48.0353Z" fill="#0E2A3F"/>
<path d="M238.925 67.0493C237.208 67.0493 235.711 66.7042 234.426 66.021C233.142 65.3377 232.146 64.3508 231.445 63.0533C230.745 61.7558 230.388 60.2443 230.388 58.4982C230.388 56.7521 230.752 55.2406 231.473 53.9569C232.201 52.6732 233.231 51.6863 234.571 50.9892C235.91 50.2922 237.469 49.9471 239.255 49.9471C241.041 49.9471 242.476 50.2922 243.775 50.9892C245.073 51.6863 246.069 52.6732 246.776 53.9569C247.477 55.2406 247.834 56.7521 247.834 58.4982C247.834 60.2443 247.47 61.7627 246.749 63.0533C246.028 64.3439 244.99 65.3308 243.651 66.021C242.312 66.7042 240.739 67.0493 238.939 67.0493H238.925ZM239.022 66.5869C239.75 66.5869 240.354 66.3177 240.849 65.7725C241.343 65.2342 241.714 64.3991 241.968 63.2741C242.222 62.1492 242.346 60.6929 242.346 58.8985C242.346 55.9584 242.078 53.812 241.535 52.4524C240.993 51.0928 240.203 50.4164 239.145 50.4164C238.417 50.4164 237.813 50.6787 237.332 51.2101C236.844 51.7415 236.48 52.5766 236.226 53.7085C235.972 54.8472 235.848 56.3104 235.848 58.0979C235.848 60.0649 235.965 61.673 236.212 62.9152C236.453 64.1644 236.803 65.0824 237.27 65.6828C237.737 66.2832 238.314 66.58 239.015 66.58L239.022 66.5869Z" fill="#0E2A3F"/>
<path d="M249.771 66.6835V66.2556H250.595C250.884 66.2556 251.103 66.1797 251.255 66.021C251.406 65.8691 251.488 65.6138 251.488 65.2618V51.845C251.488 51.5137 251.413 51.2446 251.275 51.0306C251.131 50.8236 250.884 50.727 250.533 50.7477L249.778 50.8167V50.4164L256.468 49.7538L256.667 49.9195L256.372 53.0666L256.138 53.5635L256.434 53.6325V65.2618C256.434 65.5724 256.509 65.8139 256.667 65.9934C256.825 66.1728 257.072 66.2556 257.423 66.2556H258.185V66.6835H249.778H249.771ZM259.861 66.6835V66.2556H260.651C260.981 66.2556 261.221 66.1728 261.379 66.0072C261.53 65.8415 261.613 65.5931 261.613 65.2618V55.5236C261.613 54.5298 261.413 53.7499 261.015 53.1908C260.617 52.6249 259.991 52.3488 259.133 52.3488C258.563 52.3488 258.027 52.5007 257.533 52.7974C257.038 53.0942 256.667 53.4531 256.427 53.8741L254.38 54.371L254.449 52.9769H256.853L256.255 53.5428C256.605 52.5283 257.258 51.638 258.199 50.8788C259.147 50.1196 260.301 49.7331 261.661 49.7331C263.13 49.7331 264.312 50.2438 265.205 51.2584C266.091 52.2729 266.537 53.6325 266.537 55.3303V65.2687C266.537 65.6207 266.613 65.876 266.771 66.0279C266.922 66.1797 267.155 66.2625 267.465 66.2625H268.254V66.6904H259.847L259.861 66.6835Z" fill="#0E2A3F"/>
<path d="M270.837 66.8492L270.178 59.8233H270.604L271.098 65.0893L270.638 60.617C271.476 62.8048 272.41 64.3577 273.44 65.2687C274.471 66.1866 275.583 66.6421 276.772 66.6421C277.582 66.6421 278.235 66.4213 278.715 65.9796C279.196 65.5379 279.444 64.9305 279.444 64.1575C279.444 63.7158 279.327 63.3155 279.1 62.9498C278.867 62.584 278.537 62.2596 278.097 61.9697C277.658 61.6799 277.122 61.4176 276.483 61.176L274.766 60.4445C273.578 59.9821 272.589 59.2988 271.799 58.4085C271.009 57.5113 270.61 56.4622 270.61 55.2475C270.61 54.1847 270.899 53.2461 271.469 52.4317C272.039 51.6173 272.836 50.9823 273.859 50.5268C274.883 50.0713 276.071 49.8505 277.438 49.8505C278.138 49.8505 278.853 49.9333 279.581 50.0989C280.309 50.2646 280.968 50.4785 281.559 50.7477C281.779 50.8167 281.923 50.8029 281.985 50.7132C282.054 50.6234 282.081 50.5061 282.081 50.3474V49.9195H282.479L283.139 56.2138H282.713L282.088 50.9133L282.782 55.7168C282.012 53.8396 281.14 52.4731 280.158 51.6242C279.183 50.7753 278.173 50.3474 277.143 50.3474C276.353 50.3474 275.728 50.5475 275.261 50.9409C274.8 51.3412 274.567 51.8795 274.567 52.5628C274.567 53.2047 274.773 53.743 275.178 54.1847C275.583 54.6264 276.16 54.9784 276.909 55.2475L279.148 56.0412C280.426 56.4829 281.463 57.1593 282.267 58.0772C283.07 58.9951 283.469 60.1615 283.469 61.5694C283.469 62.6944 283.187 63.6813 282.631 64.5164C282.067 65.3584 281.257 66.0003 280.192 66.4558C279.128 66.9113 277.857 67.1321 276.387 67.1321C275.728 67.1321 274.993 67.0286 274.175 66.8147C273.358 66.6007 272.602 66.3454 271.902 66.0348C271.593 65.9037 271.4 65.8691 271.325 65.9382C271.249 66.0072 271.208 66.1452 271.208 66.3661V66.8285H270.844L270.837 66.8492Z" fill="#0E2A3F"/>
<path d="M293.222 66.6835V66.2556H294.177C294.506 66.2556 294.754 66.1728 294.918 66.0072C295.083 65.8415 295.166 65.5931 295.166 65.2618V50.7546H292.363V50.3267H295.166V48.6013C295.166 47.2554 295.427 46.0684 295.942 45.04C296.457 44.0117 297.171 43.218 298.085 42.6521C298.998 42.0861 300.022 41.8101 301.169 41.8101C302.048 41.8101 302.845 41.9619 303.559 42.2587C304.273 42.5554 304.823 42.9626 305.208 43.4872C305.592 44.0048 305.785 44.5776 305.785 45.1919C305.785 45.7647 305.627 46.2202 305.304 46.5515C304.988 46.8828 304.541 47.0484 303.971 47.0484C303.49 47.0484 302.996 46.9587 302.488 46.7861L300.908 42.2173H302.295L303.614 43.4112C303.175 43.0593 302.707 42.7763 302.213 42.5692C301.718 42.3622 301.251 42.2518 300.812 42.2518C300.283 42.2518 299.836 42.3967 299.459 42.6797C299.088 42.9695 298.799 43.3629 298.6 43.8736C298.401 44.3844 298.305 44.9641 298.305 45.6267C298.305 45.9993 298.339 46.372 298.401 46.7378C298.469 47.1036 298.552 47.4625 298.662 47.8145C298.923 48.6772 299.335 49.5123 299.884 50.3336L304.205 50.0023V50.9616L300.084 50.7615V65.2687C300.084 65.6 300.166 65.8484 300.331 66.0141C300.496 66.1797 300.757 66.2625 301.107 66.2625H302.295V66.6904H293.229L293.222 66.6835Z" fill="#0E2A3F"/>
<path d="M312.976 67.0493C311.259 67.0493 309.762 66.7042 308.477 66.021C307.193 65.3377 306.197 64.3508 305.496 63.0533C304.796 61.7627 304.438 60.2443 304.438 58.4982C304.438 56.7521 304.803 55.2406 305.524 53.9569C306.252 52.6732 307.282 51.6863 308.621 50.9892C309.961 50.2922 311.52 49.9471 313.306 49.9471C315.092 49.9471 316.527 50.2922 317.825 50.9892C319.124 51.6863 320.12 52.6732 320.827 53.9569C321.528 55.2406 321.885 56.7521 321.885 58.4982C321.885 60.2443 321.521 61.7627 320.8 63.0533C320.071 64.3439 319.041 65.3308 317.702 66.021C316.362 66.7042 314.789 67.0493 312.99 67.0493H312.976ZM313.072 66.5869C313.8 66.5869 314.405 66.3177 314.899 65.7725C315.394 65.2342 315.765 64.3991 316.019 63.2741C316.273 62.1492 316.397 60.6929 316.397 58.8985C316.397 55.9584 316.129 53.812 315.586 52.4524C315.044 51.0928 314.254 50.4164 313.196 50.4164C312.468 50.4164 311.863 50.6787 311.383 51.2101C310.902 51.7415 310.531 52.5766 310.277 53.7085C310.023 54.8403 309.899 56.3104 309.899 58.0979C309.899 60.0649 310.023 61.673 310.263 62.9152C310.503 64.1644 310.854 65.0824 311.321 65.6828C311.781 66.2763 312.365 66.58 313.065 66.58L313.072 66.5869Z" fill="#0E2A3F"/>
<path d="M323.952 66.6835V66.2556H324.543C324.893 66.2556 325.154 66.1797 325.319 66.021C325.484 65.8691 325.566 65.6138 325.566 65.2618V51.845C325.566 51.4447 325.47 51.1618 325.285 50.9823C325.099 50.8029 324.831 50.727 324.474 50.7477L323.945 50.8167V50.4164L330.539 49.7538L330.704 49.9195L330.244 54.3227L329.88 54.654H330.471V64.9236C330.471 65.386 330.574 65.7242 330.786 65.9313C330.993 66.1383 331.322 66.2487 331.762 66.2487H333.115V66.6766H323.952V66.6835ZM328.369 55.5857V54.1916H330.381C331.082 52.687 331.803 51.5552 332.538 50.7822C333.273 50.0092 334.118 49.6227 335.059 49.6227C335.849 49.6227 336.487 49.8712 336.968 50.3681C337.449 50.865 337.696 51.5414 337.696 52.4041C337.696 53.2668 337.456 53.9086 336.968 54.3917C336.487 54.8817 335.883 55.1233 335.155 55.1233C334.695 55.1233 334.255 55.0336 333.836 54.861C333.816 54.1985 333.733 53.6878 333.589 53.322C333.445 52.9562 333.218 52.7768 332.916 52.7768C332.586 52.7768 332.201 52.9562 331.762 53.322C331.322 53.6878 330.896 54.2468 330.477 54.9922L328.369 55.5857Z" fill="#0E2A3F"/>
<path d="M345.348 66.6835V66.2556H345.808C346.467 66.2556 347.01 65.9174 347.443 65.248C347.875 64.5785 348.116 63.5295 348.184 62.1146L349.009 46.1788C349.029 45.5369 348.899 45.0055 348.61 44.5707C348.322 44.1428 347.951 43.9219 347.491 43.9219H346.9V43.494H354.813L360.253 57.5734H360.321L365.301 43.494H372.85V43.9219H371.929C371.531 43.9219 371.242 44.0462 371.057 44.3015C370.871 44.5569 370.789 44.9779 370.81 45.5783L372.032 64.8615C372.053 65.3239 372.177 65.6759 372.396 65.9036C372.616 66.1383 372.932 66.2487 373.351 66.2487H374.045V66.6766H363.659V66.2487H364.518C364.889 66.2487 365.177 66.159 365.377 65.9865C365.576 65.8139 365.665 65.4688 365.638 64.9581L364.848 46.7378H364.752L357.663 66.6835H357.072L349.558 46.7378H349.462L348.837 61.0518C348.796 62.2665 348.906 63.2672 349.167 64.0471C349.428 64.8339 349.771 65.3929 350.19 65.738C350.609 66.0831 351.035 66.2487 351.474 66.2487H352.395V66.6766H345.375L345.348 66.6835Z" fill="#0E2A3F"/>
<path d="M383.627 67.0493C381.909 67.0493 380.412 66.7042 379.128 66.021C377.843 65.3377 376.847 64.3508 376.147 63.0533C375.446 61.7627 375.089 60.2443 375.089 58.4982C375.089 56.7521 375.453 55.2406 376.174 53.9569C376.902 52.6732 377.932 51.6863 379.272 50.9892C380.611 50.2922 382.17 49.9471 383.956 49.9471C385.742 49.9471 387.178 50.2922 388.476 50.9892C389.774 51.6863 390.77 52.6732 391.477 53.9569C392.178 55.2406 392.535 56.7521 392.535 58.4982C392.535 60.2443 392.171 61.7627 391.45 63.0533C390.722 64.3439 389.692 65.3308 388.352 66.021C387.013 66.7042 385.44 67.0493 383.64 67.0493H383.627ZM383.723 66.5869C384.451 66.5869 385.055 66.3177 385.55 65.7725C386.044 65.2342 386.415 64.3991 386.669 63.2741C386.924 62.1492 387.047 60.6929 387.047 58.8985C387.047 55.9584 386.779 53.812 386.237 52.4524C385.694 51.0928 384.904 50.4164 383.846 50.4164C383.118 50.4164 382.514 50.6787 382.033 51.2101C381.552 51.7415 381.181 52.5766 380.927 53.7085C380.673 54.8403 380.549 56.3104 380.549 58.0979C380.549 60.0649 380.673 61.673 380.913 62.9152C381.154 64.1644 381.504 65.0824 381.971 65.6828C382.431 66.2763 383.015 66.58 383.716 66.58L383.723 66.5869Z" fill="#0E2A3F"/>
<path d="M401.231 67.1529C400.001 67.1529 398.882 66.8078 397.886 66.1107C396.883 65.4136 396.1 64.4405 395.53 63.1982C394.96 61.949 394.671 60.5204 394.671 58.9054C394.671 57.0696 395.022 55.4684 395.729 54.1019C396.43 52.7353 397.412 51.6863 398.662 50.9547C399.912 50.2232 401.341 49.8643 402.948 49.8643C403.759 49.8643 404.48 49.9471 405.105 50.1127C405.73 50.2784 406.3 50.513 406.801 50.8236L406.836 51.5207C406.575 51.2998 406.245 51.1273 405.847 51.0099C405.448 50.8926 405.043 50.8305 404.624 50.8305C403.285 50.8305 402.193 51.4033 401.361 52.5559C400.523 53.7016 400.111 55.358 400.111 57.5251C400.111 58.9813 400.29 60.2374 400.64 61.2865C400.991 62.3355 401.506 63.1292 402.172 63.6744C402.845 64.2197 403.642 64.4888 404.562 64.4888C405.022 64.4888 405.455 64.406 405.847 64.2404C406.245 64.0747 406.547 63.8401 406.767 63.5295L406.801 63.7918C406.65 64.1921 406.376 64.6476 405.977 65.1652C405.579 65.6828 404.988 66.1521 404.198 66.5731C403.408 66.9941 402.419 67.1943 401.231 67.1667V67.1529ZM406.575 66.6904L406.41 66.4903L406.774 64.2404H406.54V44.8951C406.54 44.4327 406.472 44.1221 406.341 43.9703C406.211 43.8184 405.977 43.7839 405.647 43.8737L404.823 44.1083V43.6804L412.372 41.4305V41.8308L411.479 42.1621V65.2549C411.479 65.5862 411.554 65.8415 411.712 66.0141C411.864 66.1935 412.111 66.2763 412.441 66.2763H413.031V66.7042H406.568L406.575 66.6904Z" fill="#0E2A3F"/>
<path d="M422.922 67.1804C421.404 67.1804 420.037 66.8147 418.815 66.09C417.592 65.3584 416.637 64.3508 415.943 63.0602C415.25 61.7696 414.906 60.3064 414.906 58.6707C414.906 56.9039 415.25 55.3648 415.943 54.0466C416.637 52.7353 417.606 51.7139 418.842 50.9961C420.085 50.2783 421.493 49.9195 423.08 49.9195C424.467 49.9195 425.697 50.2093 426.775 50.796C427.854 51.3826 428.692 52.2108 429.296 53.2806C429.9 54.3503 430.203 55.5857 430.203 56.9729V57.0696H419.357L419.323 56.5726H423.114C424.193 56.5726 424.955 56.4001 425.408 56.0619C425.862 55.7168 426.082 55.0957 426.082 54.1916C426.082 53.4876 425.951 52.8389 425.683 52.2522C425.422 51.6656 425.051 51.2101 424.577 50.8788C424.103 50.5475 423.547 50.3819 422.915 50.3819C422.214 50.3819 421.61 50.5958 421.102 51.0306C420.593 51.4654 420.209 52.1073 419.948 52.97C419.687 53.8327 419.549 54.8886 419.549 56.1516C419.549 57.7666 419.783 59.14 420.243 60.2788C420.703 61.4176 421.37 62.2872 422.235 62.8945C423.101 63.5019 424.165 63.8055 425.415 63.8055C426.665 63.8055 427.661 63.495 428.534 62.8807C429.399 62.2596 430.004 61.39 430.333 60.265L430.663 60.3616C430.354 62.5287 429.523 64.2058 428.176 65.3998C426.823 66.5938 425.072 67.1873 422.915 67.1873L422.922 67.1804Z" fill="#0E2A3F"/>
<path d="M432.552 66.6835V66.2556H433.142C433.493 66.2556 433.754 66.1797 433.919 66.021C434.083 65.8691 434.166 65.6138 434.166 65.2618V51.845C434.166 51.4447 434.07 51.1618 433.884 50.9823C433.699 50.8029 433.431 50.727 433.074 50.7477L432.545 50.8167V50.4164L439.139 49.7538L439.304 49.9195L438.843 54.3227L438.479 54.654H439.07V64.9236C439.07 65.386 439.173 65.7242 439.386 65.9313C439.592 66.1383 439.922 66.2487 440.361 66.2487H441.715V66.6766H432.552V66.6835ZM436.968 55.5857V54.1916H438.981C439.681 52.687 440.403 51.5552 441.138 50.7822C441.873 50.0092 442.717 49.6227 443.658 49.6227C444.448 49.6227 445.087 49.8712 445.568 50.3681C446.049 50.865 446.296 51.5414 446.296 52.4041C446.296 53.2668 446.056 53.9086 445.568 54.3917C445.087 54.8817 444.483 55.1233 443.755 55.1233C443.294 55.1233 442.855 55.0336 442.436 54.861C442.415 54.1985 442.333 53.6878 442.189 53.322C442.044 52.9562 441.818 52.7768 441.515 52.7768C441.186 52.7768 440.801 52.9562 440.361 53.322C439.922 53.6878 439.496 54.2468 439.077 54.9922L436.968 55.5857Z" fill="#0E2A3F"/>
<path d="M447.649 66.6835V66.2556H448.473C448.762 66.2556 448.981 66.1797 449.133 66.021C449.284 65.8691 449.366 65.6138 449.366 65.2618V51.845C449.366 51.5137 449.297 51.2446 449.153 51.0306C449.009 50.8236 448.762 50.727 448.411 50.7477L447.656 50.8167V50.4164L454.346 49.7538L454.545 49.9195L454.25 53.0666L454.016 53.5635L454.312 53.6325V65.2618C454.312 65.5724 454.387 65.8139 454.545 65.9934C454.696 66.1728 454.95 66.2556 455.301 66.2556H456.056V66.6835H447.649ZM457.739 66.6835V66.2556H458.529C458.859 66.2556 459.099 66.1728 459.257 66.0072C459.408 65.8415 459.49 65.5931 459.49 65.2618V55.5236C459.49 54.5298 459.291 53.7499 458.9 53.1908C458.501 52.6249 457.876 52.3488 457.018 52.3488C456.448 52.3488 455.912 52.5007 455.417 52.7974C454.923 53.0942 454.552 53.4531 454.312 53.8741L452.265 54.371L452.333 52.9769H454.737L454.147 53.5428C454.497 52.5283 455.149 51.638 456.09 50.8788C457.038 50.1196 458.192 49.7331 459.552 49.7331C461.022 49.7331 462.204 50.2438 463.096 51.2584C463.989 52.2729 464.429 53.6325 464.429 55.3303V65.2687C464.429 65.6207 464.505 65.876 464.663 66.0279C464.821 66.1797 465.047 66.2625 465.356 66.2625H466.146V66.6904H457.739V66.6835Z" fill="#0E2A3F"/>
<path d="M493.016 58.3394L493.216 56.6831H493.641L492.652 66.6904H475.508V66.2625H476.298C476.717 66.2625 477.026 66.1659 477.219 65.9796C477.418 65.7932 477.514 65.4895 477.514 65.0685V45.1228C477.514 44.7018 477.418 44.3982 477.219 44.2118C477.019 44.0255 476.71 43.9288 476.298 43.9288H475.508V43.5009H486.189V43.9288H484.74C484.321 43.9288 484.012 44.0255 483.819 44.2118C483.62 44.3982 483.524 44.7018 483.524 45.1228V66.1935H486.065C487.123 66.1935 488.16 65.8484 489.184 65.1514C490.207 64.4543 491.066 63.5088 491.753 62.3217C492.446 61.1277 492.865 59.8026 493.023 58.3464L493.016 58.3394Z" fill="#0E2A3F"/>
<path d="M495.358 66.6835V66.2556H495.949C496.299 66.2556 496.56 66.1728 496.725 66.0072C496.89 65.8415 496.973 65.5724 496.973 65.1928V51.707C496.973 51.355 496.876 51.0927 496.691 50.9271C496.505 50.7615 496.21 50.6994 495.819 50.7477L495.358 50.8167V50.4164L501.691 49.6227L501.89 49.8228V65.1928C501.89 65.5655 501.973 65.8415 502.138 66.0072C502.303 66.1728 502.564 66.2556 502.914 66.2556H503.443V66.6835H495.365H495.358ZM499.411 48.0353C498.552 48.0353 497.865 47.7731 497.35 47.2554C496.835 46.7378 496.574 46.0546 496.574 45.2195C496.574 44.3844 496.835 43.7011 497.364 43.1835C497.893 42.6659 498.573 42.4036 499.411 42.4036C500.249 42.4036 500.956 42.6659 501.471 43.1835C501.987 43.7011 502.248 44.3844 502.248 45.2195C502.248 46.0546 501.987 46.7654 501.471 47.2761C500.956 47.7869 500.269 48.0353 499.411 48.0353Z" fill="#0E2A3F"/>
<path d="M505.84 51.8105C505.62 51.3481 505.442 51.0513 505.297 50.9133C505.153 50.7822 504.926 50.7132 504.624 50.7132H504.26V50.3129H513.396V50.7132H512.406C511.967 50.7132 511.672 50.8581 511.514 51.1411C511.362 51.4309 511.404 51.8381 511.644 52.3695L515.696 60.686H515.793L518.3 54.9232C518.829 53.7085 518.966 52.7008 518.712 51.9071C518.458 51.1135 517.84 50.7132 516.85 50.7132H516.287V50.3129H522.153V50.7132H521.789C521.549 50.7132 521.315 50.796 521.095 50.9616C520.875 51.1273 520.635 51.4378 520.367 51.8864C520.106 52.3419 519.763 53.0321 519.344 53.9569L513.67 66.6766H513.08L505.826 51.8036L505.84 51.8105Z" fill="#0E2A3F"/>
<path d="M523.252 66.6835V66.2556H523.843C524.193 66.2556 524.454 66.1728 524.619 66.0072C524.784 65.8415 524.866 65.5724 524.866 65.1928V51.707C524.866 51.355 524.77 51.0927 524.584 50.9271C524.399 50.7615 524.104 50.6994 523.712 50.7477L523.252 50.8167V50.4164L529.585 49.6227L529.784 49.8228V65.1928C529.784 65.5655 529.866 65.8415 530.031 66.0072C530.196 66.1728 530.457 66.2556 530.807 66.2556H531.336V66.6835H523.259H523.252ZM527.304 48.0353C526.446 48.0353 525.759 47.7731 525.244 47.2554C524.729 46.7378 524.468 46.0546 524.468 45.2195C524.468 44.3844 524.729 43.7011 525.258 43.1835C525.786 42.6659 526.466 42.4036 527.304 42.4036C528.142 42.4036 528.85 42.6659 529.365 43.1835C529.88 43.7011 530.141 44.3844 530.141 45.2195C530.141 46.0546 529.88 46.7654 529.365 47.2761C528.85 47.7869 528.163 48.0353 527.304 48.0353Z" fill="#0E2A3F"/>
<path d="M533.108 66.6835V66.2556H533.933C534.221 66.2556 534.441 66.1797 534.592 66.021C534.743 65.8691 534.826 65.6138 534.826 65.2618V51.845C534.826 51.5137 534.757 51.2446 534.613 51.0306C534.468 50.8236 534.221 50.727 533.871 50.7477L533.115 50.8167V50.4164L539.805 49.7538L540.004 49.9195L539.709 53.0666L539.476 53.5635L539.771 53.6325V65.2618C539.771 65.5724 539.847 65.8139 540.004 65.9934C540.156 66.1728 540.41 66.2556 540.76 66.2556H541.516V66.6835H533.108ZM543.198 66.6835V66.2556H543.988C544.318 66.2556 544.558 66.1728 544.716 66.0072C544.867 65.8415 544.95 65.5931 544.95 65.2618V55.5236C544.95 54.5298 544.751 53.7499 544.359 53.1908C543.961 52.6249 543.336 52.3488 542.477 52.3488C541.907 52.3488 541.371 52.5007 540.877 52.7974C540.382 53.0942 540.011 53.4531 539.771 53.8741L537.724 54.371L537.793 52.9769H540.197L539.606 53.5428C539.956 52.5283 540.609 51.638 541.55 50.8788C542.498 50.1196 543.652 49.7331 545.012 49.7331C546.482 49.7331 547.663 50.2438 548.556 51.2584C549.449 52.2729 549.888 53.6325 549.888 55.3303V65.2687C549.888 65.6207 549.964 65.876 550.122 66.0279C550.28 66.1797 550.507 66.2625 550.816 66.2625H551.606V66.6904H543.198V66.6835Z" fill="#0E2A3F"/>
<path d="M560.473 75C557.815 75 555.761 74.6963 554.305 74.089C552.856 73.4816 552.128 72.6396 552.128 71.5561C552.128 70.6934 552.471 69.9963 553.151 69.4511C553.831 68.9128 554.765 68.5953 555.954 68.5056V67.6429L557.767 67.8085L558.392 69.0025C557.183 69.0232 556.263 69.2371 555.638 69.6305C555.013 70.0239 554.697 70.6382 554.697 71.4526C554.697 72.405 555.198 73.1504 556.194 73.6887C557.197 74.227 558.681 74.5031 560.659 74.5031C561.826 74.5031 562.829 74.3788 563.674 74.1373C564.519 73.8957 565.171 73.5507 565.618 73.1089C566.071 72.6672 566.291 72.1565 566.291 71.5837C566.291 70.9418 566.003 70.4104 565.432 69.9756C564.862 69.5477 564.004 69.3062 562.864 69.2647L558.378 69.0025C556.991 68.9335 555.919 68.5539 555.15 67.8568C554.381 67.1597 553.996 66.3246 553.996 65.3584C553.996 64.3232 554.312 63.4743 554.937 62.8255C555.562 62.1768 556.414 61.7282 557.492 61.4866V60.9552L558.88 61.0518L558.749 61.6453C558.159 61.6868 557.712 61.8179 557.417 62.0249C557.121 62.232 556.97 62.508 556.97 62.8393C556.97 63.1706 557.115 63.4191 557.396 63.5847C557.685 63.7503 558.097 63.8539 558.646 63.9022L563.757 64.1644C565.666 64.2749 567.15 64.7304 568.207 65.5241C569.265 66.3177 569.787 67.4013 569.787 68.7678C569.787 70.0239 569.416 71.1213 568.668 72.0461C567.919 72.9709 566.847 73.6956 565.453 74.2132C564.059 74.7308 562.39 74.9931 560.46 74.9931L560.473 75ZM560.803 61.88C559.244 61.88 557.904 61.6177 556.799 61.0863C555.693 60.5549 554.848 59.844 554.278 58.9468C553.708 58.0496 553.419 57.0765 553.419 56.0136C553.419 54.1157 554.085 52.6111 555.411 51.5068C556.744 50.4026 558.571 49.8505 560.899 49.8505C561.799 49.8505 562.644 49.9333 563.42 50.0989C564.196 50.2646 564.801 50.444 565.22 50.6441V50.9064C566.099 51.3274 566.827 51.99 567.411 52.8941C567.994 53.7982 568.283 54.8058 568.283 55.9101C568.283 57.0144 567.988 58.0841 567.39 58.9882C566.799 59.8923 565.927 60.6032 564.787 61.107C563.647 61.6177 562.314 61.8662 560.796 61.8662L560.803 61.88ZM560.803 61.3831C561.641 61.3831 562.307 60.9483 562.816 60.0718C563.324 59.2022 563.571 57.8909 563.571 56.1447C563.571 54.2468 563.331 52.8113 562.843 51.8381C562.362 50.865 561.71 50.3819 560.899 50.3819C560.041 50.3819 559.374 50.8029 558.887 51.638C558.399 52.48 558.159 53.7913 558.159 55.5788C558.159 57.3663 558.392 58.864 558.866 59.8716C559.34 60.8793 559.979 61.3762 560.796 61.3762L560.803 61.3831ZM570 51.4447L564.56 50.7132L564.031 50.3819L570 49.7193V51.4447Z" fill="#0E2A3F"/>
</g>
<defs>
<clipPath id="clip0_548_8843">
<rect width="570" height="75" fill="white"/>
</clipPath>
</defs>
</svg>
