<svg width="243" height="48" viewBox="0 0 243 48" fill="none" xmlns="http://www.w3.org/2000/svg">
<g clip-path="url(#clip0_548_8724)">
<path d="M0 15.3571V15.0737H0.568927C0.832909 15.0737 1.02407 15.0097 1.14696 14.8863C1.26984 14.7629 1.33356 14.5618 1.33356 14.283V1.07408C1.33356 0.795277 1.26984 0.594172 1.14696 0.470767C1.02407 0.347362 0.828357 0.283375 0.568927 0.283375H0V0H8.16979C9.89022 0 11.2192 0.356503 12.1568 1.06494C13.0944 1.77338 13.5723 2.8246 13.586 4.21405C13.586 5.31099 13.363 6.19768 12.9215 6.87869C12.4754 7.5597 11.7836 8.05789 10.846 8.36869C9.90843 8.68406 8.6932 8.83946 7.20944 8.83946H6.33557V8.48753H6.83622C7.7374 8.48753 8.42012 8.13559 8.87981 7.4363C9.3395 6.73243 9.56707 5.70863 9.56707 4.36488C9.56707 2.91602 9.31219 1.88307 8.80243 1.26147C8.29268 0.639878 7.5508 0.32908 6.57224 0.32908H5.30695V14.0636C5.30695 14.4155 5.38887 14.6715 5.55728 14.8315C5.72568 14.9914 5.99876 15.0737 6.37653 15.0737H7.14117V15.3571H0Z" fill="#0E2A3F"/>
<path d="M14.7692 15.3571V15.0737H15.1606C15.3927 15.0737 15.5657 15.0234 15.6749 14.9183C15.7842 14.8177 15.8388 14.6486 15.8388 14.4155V5.53037C15.8388 5.26528 15.7751 5.07789 15.6522 4.95905C15.5293 4.84022 15.3518 4.78994 15.1151 4.80366L14.7646 4.84936V4.58427L19.134 4.1455L19.2432 4.25519L18.9383 7.1712L18.6971 7.39059H19.0885V14.1916C19.0885 14.4978 19.1568 14.7218 19.2979 14.8589C19.4344 14.996 19.6529 15.0691 19.9442 15.0691H20.8408V15.3525H14.7692V15.3571ZM17.6958 8.00762V7.08436H19.0293C19.4936 6.08798 19.9715 5.33841 20.4585 4.82651C20.9455 4.31461 21.5053 4.05865 22.1288 4.05865C22.6522 4.05865 23.0755 4.22319 23.3941 4.55228C23.7127 4.88136 23.8766 5.32927 23.8766 5.90059C23.8766 6.47191 23.7173 6.89697 23.3941 7.21691C23.0755 7.53685 22.675 7.70139 22.1926 7.70139C21.8876 7.70139 21.5963 7.64197 21.3187 7.52771C21.305 7.08893 21.2504 6.75071 21.1548 6.50847C21.0593 6.26623 20.9091 6.1474 20.7088 6.1474C20.4903 6.1474 20.2354 6.26623 19.9442 6.50847C19.6529 6.75071 19.3707 7.12093 19.093 7.61455L17.6958 8.00762Z" fill="#0E2A3F"/>
<path d="M30.2121 15.5993C29.0742 15.5993 28.082 15.3708 27.2309 14.9183C26.3798 14.4658 25.7198 13.8123 25.2556 12.953C24.7914 12.0983 24.5547 11.0928 24.5547 9.93642C24.5547 8.78007 24.7959 7.77912 25.2738 6.92899C25.7563 6.07887 26.439 5.42528 27.3265 4.96365C28.214 4.50203 29.2472 4.2735 30.4306 4.2735C31.6139 4.2735 32.5652 4.50203 33.4254 4.96365C34.2856 5.42528 34.9456 6.07887 35.4144 6.92899C35.8786 7.77912 36.1153 8.78007 36.1153 9.93642C36.1153 11.0928 35.8741 12.0983 35.3962 12.953C34.9137 13.8077 34.231 14.4613 33.3435 14.9183C32.4559 15.3708 31.4137 15.5993 30.2212 15.5993H30.2121ZM30.2758 15.2931C30.7583 15.2931 31.1588 15.1149 31.4865 14.7538C31.8142 14.3973 32.06 13.8442 32.2284 13.0992C32.3968 12.3542 32.4787 11.3899 32.4787 10.2015C32.4787 8.25445 32.3012 6.83301 31.9416 5.93261C31.5866 5.03221 31.0587 4.5843 30.3577 4.5843C29.8753 4.5843 29.4748 4.75798 29.1562 5.10991C28.8376 5.46184 28.5918 6.01488 28.4234 6.76445C28.255 7.51859 28.1731 8.48755 28.1731 9.67133C28.1731 10.9739 28.255 12.0389 28.4143 12.8616C28.5736 13.6888 28.8057 14.2967 29.1152 14.6944C29.4201 15.0874 29.807 15.2885 30.2713 15.2885L30.2758 15.2931Z" fill="#0E2A3F"/>
<path d="M42.2736 20.8646C40.5122 20.8646 39.1513 20.6635 38.1864 20.2613C37.2261 19.8591 36.7437 19.3014 36.7437 18.5839C36.7437 18.0125 36.9712 17.5509 37.4218 17.1898C37.8724 16.8333 38.4914 16.6231 39.2788 16.5637V15.9924L40.4804 16.1021L40.8945 16.8928C40.0935 16.9065 39.4836 17.0482 39.0694 17.3087C38.6552 17.5738 38.4459 17.976 38.4459 18.5153C38.4459 19.146 38.7781 19.6397 39.4381 19.9962C40.1026 20.3527 41.0857 20.5355 42.3965 20.5355C43.1702 20.5355 43.8348 20.4532 44.3946 20.2933C44.9544 20.1333 45.3868 19.9048 45.6826 19.6122C45.983 19.3197 46.1287 18.9815 46.1287 18.6021C46.1287 18.1771 45.9375 17.8252 45.5597 17.5372C45.182 17.2538 44.613 17.0939 43.8575 17.0664L40.8854 16.8928C39.9661 16.8471 39.256 16.5957 38.7463 16.134C38.2365 15.6724 37.9816 15.1194 37.9816 14.4795C37.9816 13.7939 38.191 13.2317 38.6052 12.8021C39.0194 12.3725 39.5837 12.0754 40.2983 11.9154V11.5635L41.2177 11.6275L41.1312 12.0205C40.7398 12.048 40.444 12.1348 40.2482 12.2719C40.0525 12.409 39.9524 12.5919 39.9524 12.8113C39.9524 13.0306 40.048 13.1952 40.2346 13.3049C40.4257 13.4146 40.6988 13.4831 41.0629 13.5151L44.4492 13.6888C45.7145 13.7619 46.6976 14.0636 47.3985 14.5892C48.0994 15.1148 48.4453 15.8324 48.4453 16.7374C48.4453 17.5692 48.1996 18.2959 47.7035 18.9084C47.2074 19.5208 46.4973 20.0007 45.5734 20.3435C44.6495 20.6863 43.5435 20.86 42.2645 20.86L42.2736 20.8646ZM42.4921 12.1759C41.4589 12.1759 40.5714 12.0023 39.8386 11.6503C39.1013 11.2984 38.546 10.8276 38.1682 10.2335C37.7905 9.63928 37.5993 8.99483 37.5993 8.29097C37.5993 7.03407 38.0408 6.03768 38.9192 5.30639C39.8022 4.5751 41.0129 4.20946 42.5558 4.20946C43.152 4.20946 43.7119 4.26431 44.2262 4.374C44.745 4.48369 45.141 4.60253 45.4186 4.73507V4.90876C46.0012 5.18756 46.4837 5.62633 46.8705 6.22508C47.2574 6.82382 47.4486 7.49112 47.4486 8.22241C47.4486 8.9537 47.2529 9.66214 46.8569 10.2609C46.4655 10.8596 45.8874 11.3304 45.1319 11.664C44.3764 12.0023 43.4934 12.1668 42.4875 12.1668L42.4921 12.1759ZM42.4921 11.8469C43.0474 11.8469 43.4888 11.5589 43.8257 10.9785C44.1625 10.4026 44.3263 9.53416 44.3263 8.37781C44.3263 7.12091 44.167 6.17023 43.8439 5.52578C43.5253 4.88133 43.0929 4.56139 42.5558 4.56139C41.9869 4.56139 41.5454 4.8402 41.2222 5.39323C40.9036 5.95084 40.7398 6.81925 40.7398 8.00302C40.7398 9.1868 40.8945 10.1786 41.2086 10.8459C41.5226 11.5132 41.9459 11.8423 42.4875 11.8423L42.4921 11.8469ZM48.5864 5.26526L44.9817 4.78078L44.6312 4.56139L48.5864 4.12262V5.26526Z" fill="#0E2A3F"/>
<path d="M49.5465 15.3571V15.0737H49.938C50.1701 15.0737 50.343 15.0234 50.4523 14.9183C50.5615 14.8177 50.6161 14.6486 50.6161 14.4155V5.53037C50.6161 5.26528 50.5524 5.07789 50.4295 4.95905C50.3066 4.84022 50.1291 4.78994 49.8925 4.80366L49.542 4.84936V4.58427L53.9113 4.1455L54.0206 4.25519L53.7156 7.1712L53.4744 7.39059H53.8658V14.1916C53.8658 14.4978 53.9341 14.7218 54.0752 14.8589C54.2117 14.996 54.4302 15.0691 54.7215 15.0691H55.6181V15.3525H49.5465V15.3571ZM52.4731 8.00762V7.08436H53.8067C54.2709 6.08798 54.7488 5.33841 55.2358 4.82651C55.7228 4.31461 56.2826 4.05865 56.9062 4.05865C57.4296 4.05865 57.8529 4.22319 58.1715 4.55228C58.4901 4.88136 58.6539 5.32927 58.6539 5.90059C58.6539 6.47191 58.4946 6.89697 58.1715 7.21691C57.8529 7.53685 57.4524 7.70139 56.9699 7.70139C56.665 7.70139 56.3737 7.64197 56.096 7.52771C56.0824 7.08893 56.0278 6.75071 55.9322 6.50847C55.8366 6.26623 55.6864 6.1474 55.4861 6.1474C55.2677 6.1474 55.0128 6.26623 54.7215 6.50847C54.4302 6.75071 54.148 7.12093 53.8704 7.61455L52.4731 8.00762Z" fill="#0E2A3F"/>
<path d="M62.1539 15.5765C61.2801 15.5765 60.5974 15.3342 60.1013 14.8543C59.6052 14.3698 59.3594 13.7437 59.3594 12.9667C59.3594 11.9703 59.8054 11.1613 60.6929 10.5306C61.5805 9.89982 62.9778 9.35136 64.8893 8.88516L65.9589 8.60179V8.84403L65.0851 9.08626C64.1839 9.35136 63.5012 9.73528 63.0415 10.2472C62.5818 10.7591 62.3542 11.3944 62.3542 12.1577C62.3542 12.7564 62.4999 13.2135 62.7911 13.5288C63.0824 13.8442 63.4557 13.9996 63.9062 13.9996C64.243 13.9996 64.5571 13.9265 64.8575 13.7802C65.1579 13.634 65.3991 13.4237 65.5903 13.1449L65.6358 13.41C65.3718 14.0819 64.9303 14.6121 64.3022 15.0006C63.6741 15.3891 62.9641 15.581 62.163 15.581L62.1539 15.5765ZM68.1163 15.5765C67.2879 15.5765 66.6507 15.4028 66.2138 15.06C65.7769 14.7172 65.5584 14.2556 65.5584 13.6842V6.97467C65.5584 6.19767 65.3672 5.61721 64.9895 5.23328C64.6117 4.84936 64.0883 4.65282 63.4147 4.65282C63.0233 4.65282 62.6591 4.70767 62.3223 4.81736C61.9855 4.92706 61.6533 5.0916 61.3165 5.31098L61.7762 4.89506L62.6045 4.69853V8.23157C62.4452 8.31841 62.2677 8.39611 62.0675 8.4601C61.8718 8.52409 61.676 8.56065 61.4894 8.56065C61.0525 8.56065 60.6929 8.4281 60.4062 8.15387C60.124 7.88421 59.9784 7.5277 59.9784 7.08893C59.9784 6.56332 60.165 6.07884 60.5336 5.64006C60.9023 5.20129 61.4348 4.85393 62.1175 4.59798C62.8002 4.34203 63.6104 4.21405 64.5434 4.21405C65.9134 4.21405 66.9739 4.52028 67.7203 5.1373C68.4713 5.74976 68.8445 6.67301 68.8445 7.90249V13.1906C68.8445 13.57 68.9082 13.8579 69.0402 14.0453C69.1722 14.2373 69.3952 14.3287 69.7184 14.3287C69.996 14.3287 70.2054 14.2327 70.351 14.0453C70.4967 13.8534 70.5695 13.5837 70.5695 13.2318V12.3999H70.8335V13.2546C70.8335 14.0453 70.615 14.6304 70.1781 15.0097C69.7412 15.3891 69.0493 15.581 68.1026 15.581L68.1163 15.5765ZM65.3854 13.4466H65.7132V13.7528H65.3399L65.3854 13.4466Z" fill="#0E2A3F"/>
<path d="M76.0041 4.25517L75.8311 6.33935L75.6354 6.66843L75.8766 6.71413V14.4155C75.8766 14.6349 75.9267 14.7995 76.0314 14.9091C76.1315 15.0188 76.2954 15.0737 76.5138 15.0737H77.0145V15.3571H71.4663V15.0737H71.967C72.1718 15.0737 72.3265 15.028 72.4358 14.932C72.545 14.836 72.5996 14.6669 72.5996 14.4155V5.53036C72.5996 5.31097 72.5541 5.13272 72.4585 4.99103C72.3629 4.85392 72.2082 4.78993 71.9897 4.80364L71.4663 4.84935V4.58425L75.8994 4.14548L76.0086 4.25517H76.0041ZM82.5353 14.411C82.5353 14.6303 82.59 14.7949 82.6992 14.9046C82.8084 15.0143 82.9632 15.0691 83.168 15.0691H83.6686V15.3525H78.1205V15.0691H78.6211C78.8396 15.0691 78.9989 15.0143 79.1036 14.9046C79.2037 14.7949 79.2583 14.6303 79.2583 14.411V7.9619C79.2583 7.31745 79.1309 6.80554 78.876 6.42619C78.6211 6.04683 78.2115 5.85487 77.6426 5.85487C77.2785 5.85487 76.928 5.95542 76.5957 6.15195C76.2589 6.34849 76.0223 6.58616 75.8766 6.86496L74.4793 7.21689L74.5431 6.27536H76.1588L75.7674 6.65015C75.9995 5.97827 76.4273 5.38867 77.0463 4.88591C77.6653 4.38315 78.4254 4.1272 79.3312 4.1272C80.2915 4.1272 81.0698 4.46542 81.6569 5.13729C82.2486 5.80916 82.5399 6.70956 82.5399 7.83392V14.4155L82.5353 14.411ZM89.1986 14.411C89.1986 14.6441 89.2487 14.8132 89.3534 14.9137C89.4535 15.0143 89.6173 15.0691 89.8358 15.0691H90.3183V15.3525H84.7928V15.0691H85.2935C85.4983 15.0691 85.6531 15.0143 85.7623 14.9046C85.8715 14.7949 85.9261 14.6303 85.9261 14.411V7.9619C85.9261 7.33116 85.8033 6.82383 85.5529 6.43533C85.3072 6.04683 84.8702 5.85487 84.2421 5.85487C83.8917 5.85487 83.523 5.95542 83.1407 6.1611C82.7538 6.36677 82.4762 6.59987 82.2987 6.86496L80.9651 7.21689L81.0288 6.27536H82.5809L82.2076 6.65015C82.3669 6.22508 82.6218 5.82287 82.9723 5.44352C83.3227 5.06416 83.746 4.74879 84.2512 4.50198C84.7519 4.25517 85.3117 4.1272 85.9216 4.1272C86.9138 4.1272 87.7057 4.46542 88.302 5.13729C88.8982 5.80916 89.1986 6.70956 89.1986 7.83392V14.4155V14.411Z" fill="#0E2A3F"/>
<path d="M93.9183 8.18128C93.322 8.18128 92.835 7.99389 92.4527 7.62367C92.0749 7.24889 91.8838 6.75527 91.8838 6.14281C91.8838 5.53036 92.0749 5.05502 92.4527 4.68481C92.8305 4.31002 93.3175 4.1272 93.9183 4.1272C94.5191 4.1272 95.0197 4.31459 95.3929 4.68481C95.7661 5.05959 95.9482 5.54407 95.9482 6.14281C95.9482 6.77355 95.7616 7.26717 95.3929 7.63282C95.0197 7.99846 94.5282 8.18128 93.9183 8.18128ZM93.9183 15.7501C93.322 15.7501 92.835 15.5627 92.4527 15.1925C92.0749 14.8177 91.8838 14.3241 91.8838 13.7117C91.8838 13.0992 92.0749 12.6239 92.4527 12.2399C92.8305 11.8606 93.3175 11.6686 93.9183 11.6686C94.5191 11.6686 95.0197 11.8606 95.3929 12.2399C95.7661 12.6193 95.9482 13.1083 95.9482 13.7117C95.9482 14.3424 95.7616 14.836 95.3929 15.2017C95.0197 15.5673 94.5282 15.7501 93.9183 15.7501Z" fill="#0E2A3F"/>
<path d="M0 42.7804V42.497H0.523413C0.787395 42.497 0.987657 42.4331 1.1242 42.3096C1.26074 42.1862 1.33356 41.9851 1.33356 41.7063V28.4974C1.33356 28.2506 1.26984 28.0541 1.14696 27.917C1.02407 27.7798 0.814703 27.7067 0.523413 27.7067H0V27.4233H7.95132C9.87202 27.4233 11.3512 27.7159 12.3844 28.3009C13.4176 28.8859 13.9364 29.8732 13.9364 31.2626C13.9364 32.3321 13.6998 33.1594 13.2264 33.7536C12.7531 34.3477 12.0521 34.7591 11.1191 34.9922C10.1861 35.2253 8.94808 35.3441 7.40515 35.3441H6.42204C6.74064 35.7372 7.06835 35.9931 7.40515 36.1028C7.74196 36.2125 8.25626 36.2674 8.95718 36.2674H10.9234L14.6146 41.7749C14.7739 42.008 14.9377 42.1862 15.1061 42.3142C15.2745 42.4376 15.4429 42.5016 15.6205 42.5016H15.8844V42.785H10.6867L6.05338 35.3487H5.3115V41.5372C5.3115 41.8434 5.38887 42.0811 5.53907 42.2502C5.69382 42.4193 5.9487 42.5016 6.31281 42.5016H6.79526V42.785H0V42.7804ZM7.01373 35.015C7.96042 35.015 8.67955 34.7362 9.17565 34.1832C9.67175 33.6256 9.91753 32.6932 9.91753 31.3769C9.91753 30.4262 9.81285 29.6903 9.59893 29.1739C9.38957 28.6574 9.06186 28.2872 8.61583 28.0769C8.16979 27.8667 7.55535 27.757 6.76795 27.757H5.3024V35.0196H7.00463L7.01373 35.015Z" fill="#0E2A3F"/>
<path d="M20.8183 43.1095C19.8125 43.1095 18.9067 42.8673 18.0966 42.3873C17.2864 41.9029 16.6538 41.2356 16.1941 40.3809C15.7344 39.5262 15.5068 38.5572 15.5068 37.474C15.5068 36.3039 15.7344 35.2847 16.1941 34.4117C16.6538 33.5433 17.2955 32.8669 18.1148 32.3915C18.9386 31.9162 19.8716 31.6785 20.923 31.6785C21.8424 31.6785 22.6571 31.8705 23.3717 32.259C24.0863 32.6475 24.6415 33.196 25.042 33.9044C25.4426 34.6128 25.6428 35.431 25.6428 36.3496V36.4136H18.4562L18.4334 36.0845H20.9458C21.6603 36.0845 22.1656 35.9703 22.4659 35.7463C22.7663 35.5178 22.912 35.1064 22.912 34.5077C22.912 34.0415 22.8255 33.6119 22.648 33.2234C22.4705 32.8349 22.2293 32.5332 21.9152 32.3138C21.6012 32.0944 21.2325 31.9848 20.8138 31.9848C20.3495 31.9848 19.949 32.1264 19.6122 32.4144C19.2754 32.6978 19.0205 33.1274 18.8476 33.6987C18.6746 34.27 18.5836 34.9693 18.5836 35.8057C18.5836 36.8753 18.7383 37.7848 19.0433 38.5389C19.3482 39.2931 19.7897 39.869 20.3632 40.2712C20.9367 40.6734 21.6421 40.8745 22.4705 40.8745C23.2989 40.8745 23.9588 40.6688 24.5368 40.262C25.1103 39.8507 25.5108 39.2748 25.7293 38.5298L25.9478 38.5938C25.743 40.0289 25.1922 41.1396 24.3002 41.9303C23.4035 42.721 22.2429 43.1141 20.8138 43.1141L20.8183 43.1095Z" fill="#0E2A3F"/>
<path d="M27.809 42.8901L27.3721 38.2373H27.6543L27.982 41.7246L27.677 38.7629C28.2323 40.2117 28.8513 41.2401 29.534 41.8434C30.2167 42.4513 30.954 42.753 31.7414 42.753C32.2785 42.753 32.7109 42.6067 33.0295 42.3142C33.3481 42.0217 33.5119 41.6195 33.5119 41.1076C33.5119 40.8151 33.4346 40.55 33.2844 40.3077C33.1296 40.0655 32.9111 39.8507 32.6198 39.6587C32.3286 39.4667 31.9735 39.2931 31.5503 39.1331L30.4124 38.6486C29.625 38.3424 28.9696 37.8899 28.4462 37.3003C27.9228 36.7061 27.6588 36.0114 27.6588 35.207C27.6588 34.5031 27.85 33.8815 28.2277 33.3422C28.6055 32.8029 29.1335 32.3824 29.8116 32.0807C30.4898 31.7791 31.2772 31.6328 32.1829 31.6328C32.6472 31.6328 33.1205 31.6877 33.603 31.7974C34.0854 31.907 34.5223 32.0487 34.9138 32.227C35.0594 32.2727 35.155 32.2635 35.196 32.2041C35.2415 32.1447 35.2597 32.067 35.2597 31.9619V31.6785H35.5237L35.9606 35.8469H35.6784L35.2642 32.3367L35.7239 35.5178C35.2142 34.2746 34.6361 33.3696 33.9853 32.8074C33.339 32.2453 32.6699 31.9619 31.9872 31.9619C31.4638 31.9619 31.0496 32.0944 30.7401 32.355C30.4352 32.6201 30.2804 32.9766 30.2804 33.429C30.2804 33.8541 30.417 34.2106 30.6855 34.5031C30.954 34.7956 31.3364 35.0287 31.8325 35.207L33.3162 35.7326C34.1628 36.0251 34.85 36.473 35.3826 37.0809C35.9151 37.6888 36.1791 38.4612 36.1791 39.3936C36.1791 40.1386 35.9924 40.7922 35.6238 41.3452C35.2506 41.9029 34.7135 42.3279 34.008 42.6296C33.3026 42.9312 32.4606 43.0775 31.4865 43.0775C31.0496 43.0775 30.5626 43.0089 30.021 42.8672C29.4839 42.7301 28.9787 42.5564 28.5145 42.3508C28.3097 42.2639 28.1822 42.2411 28.1322 42.2868C28.0821 42.3325 28.0548 42.4239 28.0548 42.5702V42.8764H27.8136L27.809 42.8901Z" fill="#0E2A3F"/>
<path d="M37.7314 42.7804V42.497H38.1229C38.355 42.497 38.5279 42.4422 38.6372 42.3325C38.7464 42.2228 38.801 42.0445 38.801 41.7932V32.8623C38.801 32.6292 38.7373 32.4555 38.6144 32.3458C38.4915 32.2361 38.2958 32.195 38.0364 32.227L37.7314 32.2727V32.0076L41.9278 31.482L42.0598 31.6145V41.7932C42.0598 42.04 42.1145 42.2228 42.2237 42.3325C42.3329 42.4422 42.5059 42.497 42.738 42.497H43.0885V42.7804H37.736H37.7314ZM40.4168 30.4307C39.8479 30.4307 39.3927 30.2571 39.0514 29.9143C38.71 29.5715 38.537 29.119 38.537 28.566C38.537 28.0129 38.71 27.5604 39.0605 27.2176C39.4109 26.8749 39.8615 26.7012 40.4168 26.7012C40.9721 26.7012 41.4408 26.8749 41.7822 27.2176C42.1236 27.5604 42.2965 28.0129 42.2965 28.566C42.2965 29.119 42.1236 29.5898 41.7822 29.928C41.4408 30.2662 40.9857 30.4307 40.4168 30.4307Z" fill="#0E2A3F"/>
<path d="M48.7411 43.0867C47.9264 43.0867 47.1845 42.8581 46.5246 42.3965C45.8601 41.9349 45.3412 41.2904 44.9635 40.4677C44.5857 39.6405 44.3945 38.6943 44.3945 37.6248C44.3945 36.4091 44.6267 35.3487 45.0954 34.4437C45.5597 33.5388 46.2105 32.844 47.0389 32.3596C47.8673 31.8751 48.814 31.6374 49.879 31.6374C50.416 31.6374 50.894 31.6923 51.3081 31.8019C51.7223 31.9116 52.1001 32.067 52.4323 32.2727L52.4551 32.7343C52.2821 32.5881 52.0637 32.4738 51.7997 32.3961C51.5357 32.3184 51.2672 32.2773 50.9895 32.2773C50.102 32.2773 49.3783 32.6566 48.8276 33.4199C48.2723 34.1832 47.9992 35.2756 47.9992 36.7107C47.9992 37.6751 48.1176 38.507 48.3497 39.2017C48.5818 39.8964 48.9232 40.422 49.3647 40.7831C49.8107 41.1396 50.3387 41.3224 50.9486 41.3224C51.2535 41.3224 51.5402 41.2676 51.7997 41.1579C52.0637 41.0482 52.2639 40.8928 52.4096 40.6871L52.4323 40.8608C52.3322 41.1259 52.1501 41.4275 51.8862 41.7703C51.6222 42.1131 51.2308 42.4239 50.7073 42.7027C50.1839 42.9815 49.5285 43.1141 48.7411 43.0958V43.0867ZM52.2821 42.7804L52.1729 42.6479L52.4141 41.1579H52.2594V28.3466C52.2594 28.0404 52.2139 27.8347 52.1274 27.7342C52.0409 27.6336 51.8862 27.6107 51.6677 27.6702L51.1215 27.8256V27.5422L56.1235 26.0522V26.3173L55.5318 26.5367V41.8298C55.5318 42.0491 55.5819 42.2183 55.6866 42.3325C55.7867 42.4513 55.9506 42.5062 56.169 42.5062H56.5605V42.7896H52.2776L52.2821 42.7804Z" fill="#0E2A3F"/>
<path d="M63.1142 43.1095C62.1084 43.1095 61.2026 42.8673 60.3925 42.3873C59.5823 41.9029 58.9497 41.2356 58.49 40.3809C58.0303 39.5262 57.8027 38.5572 57.8027 37.474C57.8027 36.3039 58.0303 35.2847 58.49 34.4117C58.9497 33.5433 59.5914 32.8669 60.4107 32.3915C61.2345 31.9162 62.1675 31.6785 63.2189 31.6785C64.1383 31.6785 64.953 31.8705 65.6676 32.259C66.3821 32.6475 66.9374 33.196 67.3379 33.9044C67.7385 34.6128 67.9387 35.431 67.9387 36.3496V36.4136H60.752L60.7293 36.0845H63.2417C63.9562 36.0845 64.4615 35.9703 64.7618 35.7463C65.0622 35.5224 65.2079 35.1064 65.2079 34.5077C65.2079 34.0415 65.1214 33.6119 64.9439 33.2234C64.7664 32.8349 64.5252 32.5332 64.2111 32.3138C63.8971 32.0944 63.5284 31.9848 63.1097 31.9848C62.6454 31.9848 62.2449 32.1264 61.9081 32.4144C61.5713 32.6978 61.3164 33.1274 61.1435 33.6987C60.9705 34.27 60.8795 34.9693 60.8795 35.8057C60.8795 36.8753 61.0342 37.7848 61.3392 38.5389C61.6441 39.2931 62.0856 39.869 62.6591 40.2712C63.2326 40.6734 63.938 40.8745 64.7664 40.8745C65.5948 40.8745 66.2547 40.6688 66.8327 40.262C67.4062 39.8507 67.8067 39.2748 68.0252 38.5298L68.2437 38.5938C68.0389 40.0289 67.4881 41.1396 66.5961 41.9303C65.6994 42.721 64.5388 43.1141 63.1097 43.1141L63.1142 43.1095Z" fill="#0E2A3F"/>
<path d="M69.4043 42.7804V42.497H69.9505C70.1416 42.497 70.2873 42.4468 70.3874 42.3416C70.4875 42.2411 70.5422 42.072 70.5422 41.8389V32.9537C70.5422 32.7343 70.4966 32.5561 70.4011 32.4144C70.3055 32.2773 70.1416 32.2133 69.9095 32.227L69.4088 32.2727V32.0076L73.8419 31.5688L73.9739 31.6785L73.7782 33.7627L73.6235 34.0918L73.8192 34.1375V41.8389C73.8192 42.0445 73.8692 42.2045 73.9739 42.3233C74.074 42.4422 74.2424 42.497 74.4746 42.497H74.9752V42.7804H69.4043ZM76.0903 42.7804V42.497H76.6137C76.8322 42.497 76.9915 42.4422 77.0962 42.3325C77.1963 42.2228 77.2509 42.0583 77.2509 41.8389V35.3898C77.2509 34.7317 77.1189 34.2152 76.8595 33.845C76.5955 33.4702 76.1814 33.2874 75.6124 33.2874C75.2347 33.2874 74.8796 33.3879 74.5519 33.5844C74.2242 33.781 73.9785 34.0186 73.8192 34.2974L72.4628 34.6265L72.5084 33.7033H74.1014L73.7099 34.0781C73.9421 33.4062 74.3744 32.8166 74.998 32.3138C75.6261 31.8111 76.3907 31.5551 77.2919 31.5551C78.2659 31.5551 79.0487 31.8933 79.6404 32.5652C80.2321 33.2371 80.5234 34.1375 80.5234 35.2618V41.8434C80.5234 42.0765 80.5735 42.2457 80.6781 42.3462C80.7783 42.4468 80.933 42.5016 81.1378 42.5016H81.6613V42.785H76.0903V42.7804Z" fill="#0E2A3F"/>
<path d="M88.1927 43.1095C87.1277 43.1095 86.1855 42.8718 85.3617 42.3965C84.5379 41.9212 83.9007 41.2447 83.4501 40.3672C82.9995 39.4896 82.772 38.4749 82.772 37.3186C82.772 36.2537 83.0177 35.2893 83.5048 34.4346C83.9918 33.5799 84.6836 32.908 85.5802 32.4144C86.4768 31.9208 87.5145 31.6785 88.6934 31.6785C89.4808 31.6785 90.2044 31.8156 90.8689 32.0853C91.5334 32.355 92.0523 32.7298 92.4301 33.2051C92.8078 33.6804 92.999 34.2106 92.999 34.7956C92.999 35.2481 92.8488 35.6549 92.553 36.0114C92.2526 36.3679 91.8338 36.5507 91.2968 36.5507C90.9463 36.5507 90.5594 36.4411 90.1407 36.2217V32.2727C89.9814 32.1996 89.8039 32.1356 89.6173 32.0762C89.4261 32.0168 89.2259 31.9893 89.0074 31.9893C88.4248 31.9893 87.906 32.1584 87.4554 32.4921C87.0048 32.8303 86.6452 33.3102 86.3858 33.941C86.1264 34.5717 85.9944 35.3076 85.9944 36.1577C85.9944 37.0626 86.1673 37.8762 86.5087 38.5938C86.85 39.3114 87.3188 39.869 87.9196 40.2712C88.5159 40.6734 89.1713 40.8745 89.8858 40.8745C90.7461 40.8745 91.447 40.678 91.9931 40.2803C92.5393 39.8873 92.9216 39.2839 93.1401 38.4795L93.3813 38.5435C93.1628 39.9924 92.603 41.1122 91.6973 41.912C90.7961 42.7073 89.6309 43.1095 88.2018 43.1095H88.1927Z" fill="#0E2A3F"/>
<path d="M94.5282 32.8852C94.4099 32.6201 94.3006 32.4418 94.1914 32.3459C94.0822 32.2499 93.9183 32.2042 93.6999 32.2042H93.5679V31.9391H99.6622V32.2042H98.7883C98.4971 32.2042 98.3013 32.291 98.1967 32.4693C98.0965 32.6429 98.1102 32.8715 98.2422 33.1503L101.278 39.7319L99.4437 43.4615L94.5282 32.8852ZM94.7467 48V47.8446L99.4437 43.3472L103.071 35.2299C103.29 34.7317 103.417 34.2472 103.454 33.7719C103.49 33.2965 103.422 32.9172 103.244 32.6292C103.067 32.3413 102.798 32.1996 102.434 32.1996H102.043V31.9345H105.693V32.1996H105.584C105.32 32.1996 105.074 32.3184 104.842 32.5607C104.61 32.8029 104.346 33.2463 104.054 33.8861L97.7188 47.9909H94.7467V48ZM100.691 39.7273L100.645 39.4211H101.496L101.364 39.7273H100.686H100.691Z" fill="#0E2A3F"/>
<path d="M114.104 42.1223C114.277 42.2548 114.477 42.3554 114.695 42.4285C114.914 42.5016 115.119 42.5382 115.305 42.5382C116.443 42.5382 117.326 42.1268 117.959 41.3087C118.591 40.4906 118.91 39.3114 118.91 37.7757C118.91 36.8113 118.801 36.0023 118.582 35.3533C118.364 34.7042 118.063 34.2106 117.686 33.8724C117.308 33.5342 116.857 33.3696 116.329 33.3696C115.965 33.3696 115.647 33.4336 115.369 33.557C115.091 33.6804 114.85 33.845 114.65 34.0507V34.0735L114.541 33.9638C114.818 33.2599 115.287 32.6978 115.952 32.2727C116.616 31.8476 117.344 31.6374 118.145 31.6374C118.946 31.6374 119.702 31.8659 120.362 32.3184C121.022 32.7709 121.55 33.4062 121.937 34.2152C122.324 35.0288 122.515 35.952 122.515 36.9895C122.515 38.2921 122.269 39.3936 121.773 40.2895C121.277 41.1899 120.571 41.8755 119.652 42.3508C118.733 42.8261 117.64 43.0638 116.375 43.0638C115.806 43.0638 115.182 43.0044 114.509 42.8901C113.831 42.7713 113.203 42.6205 112.62 42.4285L111.55 43.0638H111.396V28.342C111.396 28.0358 111.35 27.8301 111.264 27.7296C111.177 27.629 111.032 27.6062 110.827 27.6656L110.258 27.821V27.5376L115.26 26.0476V26.3127L114.668 26.5321V42.593L114.099 42.1314L114.104 42.1223ZM114.518 33.5022H114.868L114.846 33.7444H114.518V33.5022Z" fill="#0E2A3F"/>
<path d="M123.694 32.8852C123.575 32.6201 123.466 32.4418 123.357 32.3459C123.248 32.2499 123.084 32.2042 122.865 32.2042H122.733V31.9391H128.828V32.2042H127.954C127.663 32.2042 127.467 32.291 127.362 32.4693C127.262 32.6429 127.276 32.8715 127.408 33.1503L130.443 39.7319L128.609 43.4615L123.694 32.8852ZM123.912 48V47.8446L128.609 43.3472L132.237 35.2299C132.455 34.7317 132.583 34.2472 132.619 33.7719C132.655 33.2965 132.587 32.9172 132.41 32.6292C132.232 32.3413 131.964 32.1996 131.6 32.1996H131.208V31.9345H134.858V32.1996H134.749C134.485 32.1996 134.239 32.3184 134.007 32.5607C133.775 32.8029 133.511 33.2463 133.22 33.8861L126.884 47.9909H123.912V48ZM129.856 39.7273L129.811 39.4211H130.662L130.53 39.7273H129.852H129.856Z" fill="#0E2A3F"/>
<path d="M138.9 42.7804L138.945 42.5382H139.555C139.819 42.5382 140.038 42.465 140.211 42.3188C140.384 42.1725 140.502 41.9668 140.561 41.7063L143.793 28.4974C143.852 28.2186 143.834 28.0129 143.738 27.8712C143.642 27.7341 143.465 27.661 143.201 27.661H142.591L142.655 27.4188H147.812L147.766 27.661H147.156C146.91 27.661 146.701 27.7296 146.533 27.8712C146.364 28.0084 146.25 28.2186 146.196 28.4974L142.964 41.7063C142.891 41.9851 142.901 42.1908 142.987 42.3325C143.074 42.4696 143.251 42.5427 143.51 42.5427H144.102L144.057 42.785H138.9V42.7804Z" fill="#0E2A3F"/>
<path d="M154.521 43.0866C153.911 43.0866 153.487 42.8947 153.255 42.5153C153.023 42.136 153.009 41.5738 153.21 40.8242L154.693 35.4492C154.898 34.6585 154.903 34.0552 154.703 33.6301C154.507 33.2051 154.147 32.9948 153.619 32.9948C153.182 32.9948 152.723 33.1731 152.245 33.5342C151.767 33.8952 151.316 34.4026 150.902 35.0699C150.488 35.7372 150.169 36.5142 149.951 37.4054L148.64 42.7804H146.587L148.945 33.2142C149.004 32.9948 148.986 32.8212 148.89 32.6886C148.795 32.5561 148.631 32.5058 148.399 32.5332L147.916 32.5972L147.98 32.355L151.344 31.8933L151.407 32.003L150.424 35.1613H150.488C150.952 34.1969 151.567 33.4062 152.322 32.7937C153.078 32.1813 153.874 31.8705 154.703 31.8705C155.663 31.8705 156.318 32.1721 156.669 32.78C157.019 33.3879 157.033 34.2837 156.714 35.4675L155.231 40.9293C155.13 41.3087 155.13 41.6012 155.231 41.8069C155.331 42.0126 155.513 42.1131 155.777 42.1131C155.982 42.1131 156.2 42.0308 156.432 41.8709C156.664 41.7109 156.883 41.4687 157.088 41.1487L157.283 41.2813C156.905 41.88 156.482 42.3325 156.018 42.6296C155.554 42.9267 155.048 43.0775 154.511 43.0775L154.521 43.0866Z" fill="#0E2A3F"/>
<path d="M164.397 32.2727C163.55 33.164 162.877 34.0324 162.376 34.8734C161.875 35.7143 161.529 36.5873 161.338 37.4969C161.134 38.347 161.102 39.0828 161.238 39.7136C161.375 40.3443 161.648 40.8242 162.048 41.1624C162.449 41.5007 162.95 41.6652 163.546 41.6652C164.142 41.6652 164.766 41.455 165.325 41.0299C165.885 40.6048 166.372 40.0518 166.791 39.3616C167.21 38.6715 167.515 37.9448 167.719 37.1678C167.851 36.6422 167.929 36.0343 167.961 35.3487C167.988 34.6631 167.974 34.0918 167.915 33.6393L168.375 33.7947L168.266 35.1567L166.081 32.9172C166.181 32.5789 166.349 32.323 166.582 32.1493C166.814 31.9756 167.064 31.8842 167.323 31.8842C167.774 31.8842 168.097 32.1127 168.297 32.5744C168.493 33.036 168.58 33.6347 168.557 34.3752C168.534 35.1156 168.425 35.9063 168.22 36.7564C167.929 37.9128 167.487 38.9732 166.9 39.9375C166.308 40.9019 165.598 41.6698 164.77 42.232C163.942 42.7941 163.05 43.0775 162.103 43.0775C161.347 43.0775 160.697 42.8993 160.16 42.5382C159.622 42.1771 159.245 41.6744 159.035 41.0253C158.826 40.3763 158.826 39.6267 159.044 38.7766C159.29 37.7117 159.732 36.8021 160.364 36.0571C160.997 35.3121 161.73 34.6814 162.558 34.1695L162.713 33.8861H159.545L159.654 33.4931C159.773 33.068 159.977 32.7481 160.278 32.5287C160.578 32.3093 160.965 32.1996 161.448 32.1996H164.333L164.397 32.2864V32.2727Z" fill="#0E2A3F"/>
<path d="M173.049 43.0638C172.262 43.0638 171.593 42.8261 171.038 42.3508C170.482 41.8754 170.105 41.2173 169.9 40.3763C169.695 39.5353 169.727 38.5801 169.986 37.5151C170.25 36.4045 170.692 35.4264 171.32 34.5854C171.948 33.7444 172.672 33.0954 173.495 32.6338C174.319 32.1721 175.152 31.9436 175.999 31.9436C176.713 31.9436 177.3 32.1173 177.756 32.4601C178.215 32.8029 178.443 33.2554 178.443 33.8084C178.443 34.6402 178.129 35.3258 177.505 35.8606C176.882 36.3953 176.062 36.7793 175.057 37.0124C174.051 37.2455 172.967 37.3643 171.802 37.3643L171.78 37.0809C172.699 37.0809 173.555 36.9255 174.356 36.6193C175.157 36.3131 175.803 35.8834 176.29 35.335C176.777 34.7865 177.023 34.174 177.023 33.5022C177.023 33.1091 176.923 32.7937 176.718 32.5606C176.513 32.3275 176.208 32.2087 175.798 32.2087C175.289 32.2087 174.793 32.3915 174.315 32.7572C173.837 33.1228 173.395 33.6347 173.004 34.2929C172.612 34.951 172.303 35.696 172.084 36.5324C171.839 37.5562 171.757 38.4521 171.843 39.2199C171.93 39.9878 172.176 40.5865 172.576 41.0207C172.977 41.4504 173.514 41.6698 174.183 41.6698C174.852 41.6698 175.48 41.4641 176.103 41.0573C176.731 40.6459 177.269 40.0244 177.719 39.1925L177.915 39.3022C177.346 40.5591 176.65 41.5052 175.83 42.1314C175.011 42.7575 174.078 43.0729 173.045 43.0729L173.049 43.0638Z" fill="#0E2A3F"/>
<path d="M182.157 43.0455C181.574 43.0455 181.028 42.945 180.518 42.7485C180.008 42.5519 179.603 42.2914 179.307 41.9715C179.007 41.6515 178.861 41.3042 178.861 40.9385C178.861 40.6003 178.961 40.3398 179.157 40.1478C179.353 39.9558 179.626 39.8644 179.976 39.8644C180.136 40.8288 180.441 41.5373 180.882 41.9806C181.328 42.4285 181.883 42.6479 182.553 42.6479C183.035 42.6479 183.449 42.5199 183.8 42.264C184.15 42.008 184.373 41.6607 184.478 41.2219C184.61 40.71 184.56 40.2347 184.323 39.7959C184.086 39.3571 183.718 38.964 183.208 38.6121L182.179 37.8443C181.583 37.3918 181.151 36.889 180.891 36.3405C180.632 35.7921 180.586 35.1796 180.759 34.5077C180.964 33.7033 181.406 33.0726 182.093 32.6201C182.776 32.1676 183.54 31.9391 184.387 31.9391C184.997 31.9391 185.561 32.0351 186.071 32.2225C186.581 32.4144 186.981 32.6567 187.272 32.9583C187.564 33.26 187.709 33.5708 187.709 33.8907C187.709 34.2107 187.605 34.4255 187.391 34.5717C187.181 34.718 186.89 34.7911 186.526 34.7911C186.439 34.2929 186.28 33.8587 186.043 33.4839C185.811 33.1092 185.525 32.8212 185.179 32.6155C184.837 32.4099 184.469 32.3093 184.077 32.3093C183.654 32.3093 183.285 32.419 182.962 32.6384C182.644 32.8578 182.443 33.1594 182.37 33.5388C182.27 34.0507 182.325 34.4986 182.543 34.878C182.762 35.2573 183.112 35.623 183.59 35.9749L184.619 36.7427C185.261 37.2135 185.739 37.7391 186.062 38.3242C186.38 38.9092 186.449 39.5765 186.257 40.3215C186.125 40.8608 185.866 41.3407 185.47 41.7566C185.074 42.1726 184.592 42.4925 184.018 42.7119C183.445 42.9313 182.821 43.041 182.152 43.041L182.157 43.0455Z" fill="#0E2A3F"/>
<path d="M190.458 43.0638C189.757 43.0638 189.248 42.8353 188.929 42.3828C188.611 41.9303 188.551 41.3087 188.756 40.518L190.722 32.4464H189.544L189.607 32.1813H190.786L193.212 29.5944L193.517 28.3878H193.799L192.839 32.1813L196.139 32.0488L196.029 32.5333L192.775 32.4464L190.854 40.2575C190.709 40.8882 190.704 41.3544 190.845 41.6607C190.982 41.9669 191.278 42.1223 191.728 42.1223C192.065 42.1223 192.397 42.008 192.734 41.7841C193.071 41.5601 193.412 41.2173 193.763 40.7648L193.917 40.8974C193.481 41.583 192.962 42.1177 192.365 42.4971C191.769 42.8764 191.132 43.0684 190.463 43.0684L190.458 43.0638Z" fill="#0E2A3F"/>
<path d="M209.333 43.0866C208.737 43.0866 208.318 42.8947 208.077 42.5153C207.836 42.136 207.817 41.5738 208.022 40.8242L209.506 35.4492C209.725 34.6585 209.738 34.0552 209.552 33.6302C209.36 33.2051 209.014 32.9948 208.505 32.9948C208.095 32.9948 207.658 33.1731 207.185 33.5342C206.711 33.8952 206.27 34.4072 205.865 35.079C205.455 35.7509 205.146 36.5279 204.927 37.4054L203.571 42.7804H201.541L203.421 35.4538C203.612 34.6631 203.612 34.0598 203.421 33.6347C203.23 33.2097 202.884 32.9994 202.374 32.9994C201.964 32.9994 201.527 33.1777 201.054 33.5387C200.581 33.8952 200.135 34.4117 199.721 35.0836C199.306 35.7555 198.988 36.5325 198.769 37.41L197.458 42.785H195.406L197.763 33.2188C197.823 32.9857 197.804 32.8075 197.709 32.6932C197.613 32.5744 197.458 32.5241 197.24 32.5378L196.739 32.6246L196.803 32.3595L200.167 31.8979L200.23 32.0076L199.247 35.1659H199.311C199.775 34.2015 200.385 33.4108 201.136 32.7983C201.887 32.1859 202.661 31.8751 203.462 31.8751C204.349 31.8751 204.95 32.1539 205.264 32.7069C205.578 33.2645 205.61 34.0826 205.364 35.1659H205.451C205.901 34.2015 206.507 33.4108 207.262 32.7983C208.018 32.1859 208.801 31.8751 209.602 31.8751C210.521 31.8751 211.149 32.1813 211.49 32.7983C211.832 33.4153 211.845 34.3066 211.522 35.4767L210.057 40.9385C209.957 41.3178 209.957 41.6103 210.057 41.816C210.157 42.0217 210.348 42.1223 210.626 42.1223C210.831 42.1223 211.044 42.04 211.272 41.88C211.5 41.72 211.718 41.4778 211.936 41.1579L212.109 41.2904C211.745 41.8892 211.327 42.3416 210.853 42.6387C210.38 42.9404 209.875 43.0866 209.333 43.0866Z" fill="#0E2A3F"/>
<path d="M216.893 43.0638C216.106 43.0638 215.437 42.8261 214.881 42.3508C214.326 41.8754 213.948 41.2173 213.744 40.3763C213.539 39.5353 213.571 38.5801 213.83 37.5151C214.094 36.4045 214.535 35.4264 215.164 34.5854C215.792 33.7444 216.515 33.0954 217.339 32.6338C218.163 32.1721 218.996 31.9436 219.842 31.9436C220.557 31.9436 221.144 32.1173 221.599 32.4601C222.059 32.8029 222.287 33.2554 222.287 33.8084C222.287 34.6402 221.972 35.3258 221.349 35.8606C220.725 36.3953 219.906 36.7793 218.9 37.0124C217.894 37.2455 216.811 37.3643 215.646 37.3643L215.623 37.0809C216.543 37.0809 217.398 36.9255 218.199 36.6193C219 36.3131 219.647 35.8834 220.134 35.335C220.621 34.7865 220.867 34.174 220.867 33.5022C220.867 33.1091 220.766 32.7937 220.562 32.5606C220.357 32.3275 220.052 32.2087 219.642 32.2087C219.132 32.2087 218.636 32.3915 218.158 32.7572C217.681 33.1228 217.239 33.6347 216.848 34.2929C216.456 34.951 216.147 35.696 215.928 36.5324C215.682 37.5562 215.601 38.4521 215.687 39.2199C215.773 39.9878 216.019 40.5865 216.42 41.0207C216.82 41.4504 217.357 41.6698 218.026 41.6698C218.695 41.6698 219.324 41.4641 219.947 41.0573C220.575 40.6459 221.112 40.0244 221.563 39.1925L221.759 39.3022C221.19 40.5591 220.493 41.5052 219.674 42.1314C218.855 42.7575 217.922 43.0729 216.889 43.0729L216.893 43.0638Z" fill="#0E2A3F"/>
<path d="M231.048 43.0866C230.438 43.0866 230.015 42.8947 229.783 42.5153C229.55 42.136 229.537 41.5738 229.737 40.8242L231.221 35.4492C231.426 34.6585 231.43 34.0552 231.23 33.6301C231.034 33.2051 230.675 32.9948 230.147 32.9948C229.71 32.9948 229.25 33.1731 228.772 33.5342C228.29 33.8907 227.844 34.4026 227.429 35.0699C227.015 35.7372 226.697 36.5142 226.478 37.4054L225.167 42.7804H223.115L225.472 33.2142C225.532 32.9948 225.513 32.8212 225.418 32.6886C225.322 32.5561 225.158 32.5058 224.926 32.5332L224.444 32.5972L224.507 32.355L227.871 31.8933L227.935 32.003L226.952 35.1613H227.015C227.48 34.1969 228.094 33.4062 228.85 32.7937C229.605 32.1813 230.402 31.8705 231.23 31.8705C232.19 31.8705 232.846 32.1721 233.196 32.78C233.547 33.3879 233.56 34.2837 233.242 35.4675L231.758 40.9293C231.658 41.3087 231.658 41.6012 231.758 41.8069C231.858 42.0126 232.04 42.1131 232.304 42.1131C232.509 42.1131 232.727 42.0308 232.959 41.8709C233.192 41.7109 233.41 41.4687 233.615 41.1487L233.811 41.2813C233.433 41.88 233.01 42.3325 232.545 42.6296C232.081 42.9312 231.576 43.0775 231.039 43.0775L231.048 43.0866Z" fill="#0E2A3F"/>
<path d="M237.32 43.0638C236.619 43.0638 236.109 42.8353 235.79 42.3828C235.472 41.9303 235.413 41.3087 235.617 40.518L237.584 32.4464H236.405L236.469 32.1813H237.647L240.073 29.5944L240.378 28.3878H240.66L239.7 32.1813L243 32.0488L242.891 32.5333L239.636 32.4464L237.716 40.2575C237.57 40.8882 237.566 41.3544 237.707 41.6607C237.843 41.9669 238.139 42.1223 238.59 42.1223C238.926 42.1223 239.259 42.008 239.595 41.7841C239.932 41.5601 240.274 41.2173 240.624 40.7648L240.779 40.8974C240.342 41.583 239.823 42.1177 239.227 42.4971C238.631 42.8764 237.993 43.0684 237.324 43.0684L237.32 43.0638Z" fill="#0E2A3F"/>
</g>
<defs>
<clipPath id="clip0_548_8724">
<rect width="243" height="48" fill="white"/>
</clipPath>
</defs>
</svg>
