<svg width="175" height="36" viewBox="0 0 175 36" fill="none" xmlns="http://www.w3.org/2000/svg">
<g clip-path="url(#clip0_358_5419)">
<path d="M0 35.18V34.56H0.67C1.63 34.56 2.42 34.07 3.05 33.1C3.68 32.13 4.03 30.61 4.13 28.56L5.33 5.46996C5.36 4.53996 5.17 3.76996 4.75 3.13996C4.33 2.51996 3.79 2.19996 3.12 2.19996H2.26V1.57996H13.78L21.7 21.98H21.8L29.04 1.57996H40.03V2.19996H38.69C38.11 2.19996 37.69 2.37996 37.42 2.74996C37.15 3.11996 37.03 3.72996 37.06 4.59996L38.84 32.54C38.87 33.21 39.05 33.72 39.37 34.05C39.69 34.39 40.15 34.55 40.76 34.55H41.77V35.17H26.65V34.55H27.9C28.44 34.55 28.86 34.42 29.15 34.17C29.44 33.92 29.57 33.42 29.53 32.68L28.38 6.27996H28.24L17.92 35.18H17.06L6.1 6.28996H5.96L5.05 27.03C4.99 28.79 5.15 30.24 5.53 31.37C5.91 32.51 6.41 33.32 7.02 33.82C7.63 34.32 8.25 34.56 8.89 34.56H10.23V35.18H0Z" fill="#1C3661"/>
<path d="M44.35 35.18V34.56H45.21C45.72 34.56 46.1 34.44 46.34 34.2C46.58 33.96 46.7 33.57 46.7 33.02V13.49C46.7 12.98 46.56 12.6 46.29 12.36C46.02 12.12 45.59 12.03 45.02 12.1L44.35 12.2V11.62L53.57 10.47L53.86 10.76V33.03C53.86 33.57 53.98 33.97 54.22 34.21C54.46 34.45 54.84 34.57 55.35 34.57H56.12V35.19H44.36L44.35 35.18ZM50.25 8.16C49 8.16 48 7.78 47.25 7.03C46.5 6.28 46.12 5.29 46.12 4.08C46.12 2.87 46.5 1.88 47.27 1.13C48.04 0.38 49.03 0 50.25 0C51.47 0 52.5 0.38 53.25 1.13C54 1.88 54.38 2.87 54.38 4.08C54.38 5.29 54 6.32 53.25 7.06C52.5 7.8 51.5 8.16 50.25 8.16Z" fill="#1C3661"/>
<path d="M60.24 35.42L59.28 25.24H59.9L60.62 32.87L59.95 26.39C61.17 29.56 62.53 31.81 64.03 33.13C65.53 34.46 67.15 35.12 68.88 35.12C70.06 35.12 71.01 34.8 71.71 34.16C72.41 33.52 72.77 32.64 72.77 31.52C72.77 30.88 72.6 30.3 72.27 29.77C71.94 29.24 71.45 28.77 70.81 28.35C70.17 27.93 69.39 27.55 68.46 27.2L65.96 26.14C64.23 25.47 62.79 24.48 61.64 23.19C60.49 21.89 59.91 20.37 59.91 18.61C59.91 17.07 60.33 15.71 61.16 14.53C61.99 13.35 63.15 12.43 64.64 11.77C66.13 11.11 67.86 10.79 69.85 10.79C70.87 10.79 71.91 10.91 72.97 11.15C74.03 11.39 74.99 11.7 75.85 12.09C76.17 12.19 76.38 12.17 76.47 12.04C76.57 11.91 76.61 11.74 76.61 11.51V10.89H77.19L78.15 20.01H77.53L76.62 12.33L77.63 19.29C76.51 16.57 75.24 14.59 73.81 13.36C72.39 12.13 70.92 11.51 69.42 11.51C68.27 11.51 67.36 11.8 66.68 12.37C66.01 12.95 65.67 13.73 65.67 14.72C65.67 15.65 65.97 16.43 66.56 17.07C67.15 17.71 67.99 18.22 69.08 18.61L72.34 19.76C74.2 20.4 75.71 21.38 76.88 22.71C78.05 24.04 78.63 25.73 78.63 27.77C78.63 29.4 78.22 30.83 77.41 32.04C76.59 33.26 75.41 34.19 73.86 34.85C72.31 35.51 70.46 35.83 68.32 35.83C67.36 35.83 66.29 35.68 65.1 35.37C63.92 35.07 62.81 34.69 61.79 34.24C61.34 34.05 61.06 34 60.95 34.1C60.84 34.2 60.78 34.4 60.78 34.72V35.39H60.25L60.24 35.42Z" fill="#1C3661"/>
<path d="M83.38 35.42L82.42 25.24H83.04L83.76 32.87L83.09 26.39C84.31 29.56 85.67 31.81 87.17 33.13C88.67 34.46 90.29 35.12 92.02 35.12C93.2 35.12 94.15 34.8 94.85 34.16C95.55 33.52 95.91 32.64 95.91 31.52C95.91 30.88 95.74 30.3 95.41 29.77C95.08 29.24 94.59 28.77 93.95 28.35C93.31 27.93 92.53 27.55 91.6 27.2L89.1 26.14C87.37 25.47 85.93 24.48 84.78 23.19C83.63 21.89 83.05 20.37 83.05 18.61C83.05 17.07 83.47 15.71 84.3 14.53C85.13 13.35 86.29 12.43 87.78 11.77C89.27 11.11 91 10.79 92.99 10.79C94.01 10.79 95.05 10.91 96.11 11.15C97.17 11.39 98.13 11.7 98.99 12.09C99.31 12.19 99.52 12.17 99.61 12.04C99.71 11.91 99.75 11.74 99.75 11.51V10.89H100.33L101.29 20.01H100.67L99.76 12.33L100.77 19.29C99.65 16.57 98.38 14.59 96.95 13.36C95.53 12.13 94.06 11.51 92.56 11.51C91.41 11.51 90.5 11.8 89.82 12.37C89.15 12.95 88.81 13.73 88.81 14.72C88.81 15.65 89.11 16.43 89.7 17.07C90.29 17.71 91.13 18.22 92.22 18.61L95.48 19.76C97.34 20.4 98.85 21.38 100.02 22.71C101.19 24.04 101.77 25.73 101.77 27.77C101.77 29.4 101.36 30.83 100.55 32.04C99.73 33.26 98.55 34.19 97 34.85C95.45 35.51 93.6 35.83 91.46 35.83C90.5 35.83 89.43 35.68 88.24 35.37C87.06 35.07 85.95 34.69 84.93 34.24C84.48 34.05 84.2 34 84.09 34.1C83.98 34.2 83.92 34.4 83.92 34.72V35.39H83.39L83.38 35.42Z" fill="#1C3661"/>
<path d="M105.17 35.18V34.56H106.03C106.54 34.56 106.92 34.44 107.16 34.2C107.4 33.96 107.52 33.57 107.52 33.02V13.49C107.52 12.98 107.38 12.6 107.11 12.36C106.84 12.12 106.41 12.03 105.84 12.1L105.17 12.2V11.62L114.39 10.47L114.68 10.76V33.03C114.68 33.57 114.8 33.97 115.04 34.21C115.28 34.45 115.66 34.57 116.17 34.57H116.94V35.19H105.18L105.17 35.18ZM111.07 8.16C109.82 8.16 108.82 7.78 108.07 7.03C107.32 6.28 106.94 5.29 106.94 4.08C106.94 2.87 107.32 1.88 108.09 1.13C108.86 0.38 109.85 0 111.07 0C112.29 0 113.32 0.38 114.07 1.13C114.82 1.88 115.2 2.87 115.2 4.08C115.2 5.29 114.82 6.32 114.07 7.06C113.32 7.8 112.32 8.16 111.07 8.16Z" fill="#1C3661"/>
<path d="M132.19 35.7101C129.69 35.7101 127.51 35.2101 125.64 34.2201C123.77 33.2301 122.32 31.8001 121.3 29.9201C120.28 28.0501 119.76 25.8501 119.76 23.3201C119.76 20.7901 120.29 18.6001 121.34 16.7401C122.4 14.8801 123.9 13.4501 125.85 12.4401C127.8 11.4301 130.07 10.9301 132.67 10.9301C135.27 10.9301 137.36 11.4301 139.25 12.4401C141.14 13.4501 142.59 14.8801 143.62 16.7401C144.64 18.6001 145.16 20.7901 145.16 23.3201C145.16 25.8501 144.63 28.0501 143.58 29.9201C142.52 31.7901 141.02 33.2201 139.07 34.2201C137.12 35.2101 134.83 35.7101 132.21 35.7101H132.19ZM132.33 35.0401C133.39 35.0401 134.27 34.6501 134.99 33.8601C135.71 33.0801 136.25 31.8701 136.62 30.2401C136.99 28.6101 137.17 26.5001 137.17 23.9001C137.17 19.6401 136.78 16.5301 135.99 14.5601C135.21 12.5901 134.05 11.6101 132.51 11.6101C131.45 11.6101 130.57 11.9901 129.87 12.7601C129.17 13.5301 128.63 14.7401 128.26 16.3801C127.89 18.0301 127.71 20.1501 127.71 22.7401C127.71 25.5901 127.89 27.9201 128.24 29.7201C128.59 31.5301 129.1 32.8601 129.78 33.7301C130.46 34.6001 131.3 35.0301 132.32 35.0301L132.33 35.0401Z" fill="#1C3661"/>
<path d="M147.98 35.18V34.56H149.18C149.6 34.56 149.92 34.45 150.14 34.22C150.36 34 150.48 33.63 150.48 33.12V13.68C150.48 13.2 150.38 12.81 150.17 12.5C149.96 12.2 149.6 12.06 149.09 12.09L147.99 12.19V11.61L157.73 10.65L158.02 10.89L157.59 15.45L157.25 16.17L157.68 16.27V33.12C157.68 33.57 157.79 33.92 158.02 34.18C158.24 34.44 158.61 34.56 159.12 34.56H160.22V35.18H147.98ZM162.67 35.18V34.56H163.82C164.3 34.56 164.65 34.44 164.88 34.2C165.1 33.96 165.22 33.6 165.22 33.12V19.01C165.22 17.57 164.93 16.44 164.36 15.63C163.78 14.81 162.87 14.41 161.62 14.41C160.79 14.41 160.01 14.63 159.29 15.06C158.57 15.49 158.03 16.01 157.68 16.62L154.7 17.34L154.8 15.32H158.3L157.44 16.14C157.95 14.67 158.9 13.38 160.27 12.28C161.65 11.18 163.33 10.62 165.31 10.62C167.45 10.62 169.17 11.36 170.47 12.83C171.77 14.3 172.41 16.27 172.41 18.73V33.13C172.41 33.64 172.52 34.01 172.75 34.23C172.97 34.45 173.31 34.57 173.76 34.57H174.91V35.19H162.67V35.18Z" fill="#1C3661"/>
</g>
<defs>
<clipPath id="clip0_358_5419">
<rect width="174.91" height="35.86" fill="white"/>
</clipPath>
</defs>
</svg>
