<svg width="259" height="48" viewBox="0 0 259 48" fill="none" xmlns="http://www.w3.org/2000/svg">
<g clip-path="url(#clip0_548_8756)">
<path d="M0.0229492 15.3571V15.0737H0.590603C0.853994 15.0737 1.04473 15.0097 1.16734 14.8863C1.28995 14.7629 1.35353 14.5618 1.35353 14.283V1.07408C1.35353 0.795277 1.28995 0.594173 1.16734 0.470767C1.04473 0.347362 0.849453 0.283375 0.590603 0.283375H0.0229492V0H8.17446C9.89104 0 11.2171 0.356504 12.1526 1.06494C13.0881 1.77338 13.5649 2.8246 13.5785 4.21405C13.5785 5.31099 13.356 6.19768 12.9155 6.87869C12.4705 7.5597 11.7802 8.05789 10.8447 8.36869C9.90921 8.68406 8.6967 8.83946 7.21626 8.83946H6.34434V8.48753H6.84388C7.74304 8.48753 8.42422 8.13559 8.88289 7.4363C9.34155 6.73243 9.56861 5.70863 9.56861 4.36488C9.56861 2.91602 9.31431 1.88307 8.80569 1.26147C8.29707 0.639878 7.55685 0.32908 6.58049 0.32908H5.31802V14.0636C5.31802 14.4155 5.39977 14.6715 5.56779 14.8315C5.73582 14.9914 6.00829 15.0737 6.38521 15.0737H7.14814V15.3571H0.0229492Z" fill="#0E2A3F"/>
<path d="M14.7589 15.3571V15.0737H15.1495C15.3811 15.0737 15.5537 15.0234 15.6626 14.9183C15.7716 14.8177 15.8261 14.6486 15.8261 14.4155V5.53037C15.8261 5.26528 15.7625 5.07789 15.6399 4.95905C15.5173 4.84022 15.3402 4.78994 15.1041 4.80366L14.7544 4.84936V4.58427L19.114 4.1455L19.223 4.25519L18.9187 7.1712L18.678 7.39059H19.0686V14.1916C19.0686 14.4978 19.1367 14.7218 19.2775 14.8589C19.4137 14.996 19.6317 15.0691 19.9223 15.0691H20.8169V15.3525H14.7589V15.3571ZM17.6789 8.00762V7.08436H19.0095C19.4727 6.08798 19.9496 5.33841 20.4355 4.82651C20.9214 4.31461 21.48 4.05865 22.1021 4.05865C22.6243 4.05865 23.0467 4.22319 23.3646 4.55228C23.6825 4.88136 23.8459 5.32927 23.8459 5.90059C23.8459 6.47191 23.687 6.89697 23.3646 7.21691C23.0467 7.54142 22.6471 7.70139 22.1657 7.70139C21.8614 7.70139 21.5708 7.64197 21.2938 7.52771C21.2801 7.08893 21.2256 6.75071 21.1303 6.50847C21.0349 6.26623 20.8851 6.1474 20.6852 6.1474C20.4673 6.1474 20.213 6.26623 19.9223 6.50847C19.6317 6.75071 19.3501 7.12093 19.0731 7.61455L17.6789 8.00762Z" fill="#0E2A3F"/>
<path d="M30.1677 15.5993C29.0324 15.5993 28.0424 15.3708 27.1932 14.9183C26.344 14.4658 25.6855 13.8123 25.2223 12.953C24.7591 12.0983 24.5229 11.0928 24.5229 9.93642C24.5229 8.78007 24.7636 7.77912 25.2405 6.92899C25.7218 6.07887 26.403 5.42528 27.2886 4.96365C28.1741 4.50203 29.205 4.2735 30.3857 4.2735C31.5664 4.2735 32.5155 4.50203 33.3738 4.96365C34.2321 5.42528 34.8906 6.07887 35.3583 6.92899C35.8215 7.77912 36.0577 8.78007 36.0577 9.93642C36.0577 11.0928 35.817 12.0983 35.3402 12.953C34.8588 13.8077 34.1776 14.4613 33.2921 14.9183C32.4065 15.3708 31.3666 15.5993 30.1768 15.5993H30.1677ZM30.2313 15.2931C30.7126 15.2931 31.1123 15.1149 31.4392 14.7538C31.7662 14.3973 32.0114 13.8442 32.1795 13.0992C32.3475 12.3542 32.4292 11.3899 32.4292 10.2015C32.4292 8.25445 32.2521 6.83301 31.8934 5.93261C31.5392 5.03221 31.0124 4.5843 30.313 4.5843C29.8316 4.5843 29.432 4.75798 29.1141 5.10991C28.7962 5.46184 28.551 6.01488 28.383 6.76445C28.215 7.51859 28.1332 8.48755 28.1332 9.67133C28.1332 10.9739 28.215 12.0389 28.3739 12.8616C28.5329 13.6888 28.7645 14.2967 29.0733 14.6944C29.3821 15.092 29.7635 15.2885 30.2267 15.2885L30.2313 15.2931Z" fill="#0E2A3F"/>
<path d="M42.2017 20.8646C40.4442 20.8646 39.0864 20.6635 38.1237 20.2613C37.1609 19.8591 36.6841 19.3014 36.6841 18.5839C36.6841 18.0125 36.9111 17.5509 37.3607 17.1898C37.8103 16.8333 38.4279 16.6231 39.2135 16.5637V15.9924L40.4124 16.1021L40.8257 16.8928C40.0264 16.9065 39.4179 17.0482 39.0047 17.3087C38.5914 17.5738 38.3825 17.976 38.3825 18.5153C38.3825 19.146 38.714 19.6397 39.3725 19.9962C40.0355 20.3527 41.0164 20.5355 42.3243 20.5355C43.0963 20.5355 43.7593 20.4532 44.3179 20.2933C44.8765 20.1333 45.3079 19.9048 45.6031 19.6122C45.9028 19.3197 46.0481 18.9815 46.0481 18.6021C46.0481 18.1771 45.8574 17.8252 45.4804 17.5372C45.1035 17.2538 44.5359 17.0939 43.782 17.0664L40.8166 16.8928C39.8993 16.8471 39.1908 16.5957 38.6822 16.134C38.1736 15.6724 37.9193 15.1194 37.9193 14.4795C37.9193 13.7939 38.1282 13.2317 38.5414 12.8021C38.9547 12.3725 39.5178 12.0754 40.2308 11.9154V11.5635L41.1481 11.6275L41.0618 12.0205C40.6713 12.048 40.3761 12.1348 40.1808 12.2719C39.9856 12.409 39.8857 12.5919 39.8857 12.8113C39.8857 13.0306 39.981 13.1952 40.1672 13.3049C40.3579 13.4146 40.6304 13.4831 40.9937 13.5151L44.3724 13.6888C45.6348 13.7619 46.6158 14.0636 47.3151 14.5892C48.0145 15.1148 48.3596 15.8324 48.3596 16.7374C48.3596 17.5692 48.1144 18.2959 47.6194 18.9084C47.1244 19.5208 46.4159 20.0007 45.4941 20.3435C44.5722 20.6863 43.4687 20.86 42.1926 20.86L42.2017 20.8646ZM42.4197 12.1759C41.3888 12.1759 40.5033 12.0023 39.7721 11.6503C39.0364 11.2984 38.4824 10.8276 38.1055 10.2335C37.7286 9.63928 37.5378 8.99483 37.5378 8.29097C37.5378 7.03407 37.9783 6.03768 38.8548 5.30639C39.7358 4.5751 40.9438 4.20946 42.4832 4.20946C43.0781 4.20946 43.6367 4.26431 44.1499 4.374C44.6676 4.48369 45.0627 4.60253 45.3397 4.73507V4.90876C45.9209 5.18756 46.4023 5.62633 46.7883 6.22508C47.1743 6.82382 47.3651 7.49112 47.3651 8.22241C47.3651 8.9537 47.1698 9.66214 46.7747 10.2609C46.3842 10.8596 45.8074 11.3304 45.0536 11.664C44.2997 12.0023 43.4187 12.1668 42.4151 12.1668L42.4197 12.1759ZM42.4197 11.8469C42.9737 11.8469 43.4142 11.5589 43.7502 10.9785C44.0863 10.4026 44.2498 9.53416 44.2498 8.37781C44.2498 7.12091 44.0908 6.17023 43.7684 5.52578C43.4505 4.88133 43.0191 4.56139 42.4832 4.56139C41.9156 4.56139 41.4751 4.8402 41.1527 5.39323C40.8348 5.95084 40.6713 6.81925 40.6713 8.00302C40.6713 9.1868 40.8257 10.1786 41.139 10.8459C41.4524 11.5132 41.8747 11.8423 42.4151 11.8423L42.4197 11.8469ZM48.5004 5.26526L44.9037 4.78078L44.554 4.56139L48.5004 4.12262V5.26526Z" fill="#0E2A3F"/>
<path d="M49.4586 15.3571V15.0737H49.8492C50.0808 15.0737 50.2534 15.0234 50.3623 14.9183C50.4713 14.8177 50.5258 14.6486 50.5258 14.4155V5.53037C50.5258 5.26528 50.4623 5.07789 50.3396 4.95905C50.217 4.84022 50.0399 4.78994 49.8038 4.80366L49.4541 4.84936V4.58427L53.8137 4.1455L53.9227 4.25519L53.6184 7.1712L53.3777 7.39059H53.7683V14.1916C53.7683 14.4978 53.8364 14.7218 53.9772 14.8589C54.1134 14.996 54.3314 15.0691 54.622 15.0691H55.5166V15.3525H49.4586V15.3571ZM52.3787 8.00762V7.08436H53.7092C54.1724 6.08798 54.6493 5.33841 55.1352 4.82651C55.6211 4.31461 56.1797 4.05865 56.8018 4.05865C57.3241 4.05865 57.7464 4.22319 58.0643 4.55228C58.3822 4.88136 58.5456 5.32927 58.5456 5.90059C58.5456 6.47191 58.3867 6.89697 58.0643 7.21691C57.7464 7.54142 57.3468 7.70139 56.8654 7.70139C56.5611 7.70139 56.2705 7.64197 55.9935 7.52771C55.9799 7.08893 55.9254 6.75071 55.83 6.50847C55.7346 6.26623 55.5848 6.1474 55.3849 6.1474C55.167 6.1474 54.9127 6.26623 54.622 6.50847C54.3314 6.75071 54.0498 7.12093 53.7728 7.61455L52.3787 8.00762Z" fill="#0E2A3F"/>
<path d="M62.0378 15.5765C61.1659 15.5765 60.4847 15.3342 59.9897 14.8543C59.4947 14.3698 59.2495 13.7437 59.2495 12.9667C59.2495 11.9703 59.6945 11.1613 60.5801 10.5306C61.4656 9.89982 62.8598 9.35136 64.7671 8.88516L65.8343 8.60179V8.84403L64.9624 9.08626C64.0632 9.35136 63.382 9.73528 62.9234 10.2472C62.4647 10.7591 62.2376 11.3944 62.2376 12.1577C62.2376 12.7564 62.383 13.2135 62.6736 13.5288C62.9642 13.8442 63.3366 13.9996 63.7862 13.9996C64.1223 13.9996 64.4356 13.9265 64.7353 13.7802C65.035 13.634 65.2757 13.4237 65.4665 13.1449L65.5119 13.41C65.2485 14.0819 64.808 14.6121 64.1813 15.0006C63.5546 15.3891 62.8462 15.581 62.0469 15.581L62.0378 15.5765ZM67.9868 15.5765C67.1603 15.5765 66.5246 15.4028 66.0886 15.06C65.6526 14.7172 65.4347 14.2556 65.4347 13.6842V6.97467C65.4347 6.20224 65.2439 5.61721 64.867 5.23328C64.4901 4.84936 63.9679 4.65282 63.2958 4.65282C62.9052 4.65282 62.5419 4.70767 62.2059 4.81736C61.8698 4.92706 61.5383 5.0916 61.2022 5.31098L61.6609 4.89506L62.4874 4.69853V8.23157C62.3285 8.31841 62.1514 8.39611 61.9515 8.4601C61.7563 8.52409 61.561 8.56065 61.3748 8.56065C60.9388 8.56065 60.5801 8.42353 60.294 8.15387C60.0124 7.88421 59.8671 7.5277 59.8671 7.08893C59.8671 6.56332 60.0533 6.07884 60.4212 5.64006C60.789 5.20129 61.3203 4.85393 62.0015 4.59798C62.6827 4.34203 63.491 4.21405 64.422 4.21405C65.7889 4.21405 66.847 4.52028 67.5918 5.1373C68.3411 5.74976 68.7134 6.67301 68.7134 7.90249V13.1906C68.7134 13.57 68.777 13.8579 68.9087 14.0453C69.0404 14.2373 69.2629 14.3287 69.5854 14.3287C69.8624 14.3287 70.0713 14.2327 70.2166 14.0453C70.3619 13.8534 70.4346 13.5837 70.4346 13.2318V12.3999H70.698V13.2546C70.698 14.0453 70.48 14.6304 70.044 15.0097C69.6081 15.3891 68.9178 15.581 67.9732 15.581L67.9868 15.5765ZM65.2621 13.4466H65.5891V13.7528H65.2167L65.2621 13.4466Z" fill="#0E2A3F"/>
<path d="M75.8567 4.25517L75.6841 6.33935L75.4889 6.66843L75.7295 6.71413V14.4155C75.7295 14.6349 75.7795 14.7995 75.884 14.9091C75.9839 15.0188 76.1473 15.0737 76.3653 15.0737H76.8649V15.3571H71.3291V15.0737H71.8286C72.033 15.0737 72.1874 15.028 72.2964 14.932C72.4054 14.836 72.4599 14.6669 72.4599 14.4155V5.53036C72.4599 5.31097 72.4145 5.13272 72.3191 4.99103C72.2237 4.85392 72.0693 4.78993 71.8513 4.80364L71.3291 4.84935V4.58425L75.7523 4.14548L75.8612 4.25517H75.8567ZM82.3734 14.411C82.3734 14.6303 82.4279 14.7949 82.5369 14.9046C82.6458 15.0143 82.8002 15.0691 83.0046 15.0691H83.5041V15.3525H77.9684V15.0691H78.4679C78.6859 15.0691 78.8448 15.0143 78.9493 14.9046C79.0492 14.7949 79.1037 14.6303 79.1037 14.411V7.9619C79.1037 7.31745 78.9765 6.80554 78.7222 6.42619C78.4679 6.04683 78.0592 5.85487 77.4915 5.85487C77.1282 5.85487 76.7786 5.95542 76.4471 6.15195C76.111 6.34849 75.8749 6.58616 75.7295 6.86496L74.3354 7.21689L74.399 6.27536H76.0111L75.6206 6.65015C75.8522 5.97827 76.279 5.38867 76.8966 4.88591C77.5143 4.38315 78.2726 4.1272 79.1763 4.1272C80.1345 4.1272 80.9111 4.46542 81.4969 5.13729C82.0873 5.80916 82.3779 6.70956 82.3779 7.83392V14.4155L82.3734 14.411ZM89.0217 14.411C89.0217 14.6441 89.0717 14.8132 89.1761 14.9137C89.2806 15.0143 89.4395 15.0691 89.6575 15.0691H90.1389V15.3525H84.6258V15.0691H85.1254C85.3297 15.0691 85.4841 15.0143 85.5931 14.9046C85.7021 14.7949 85.7566 14.6303 85.7566 14.411V7.9619C85.7566 7.33116 85.634 6.82383 85.3842 6.43533C85.139 6.04683 84.703 5.85487 84.0763 5.85487C83.7267 5.85487 83.3588 5.95542 82.9774 6.1611C82.5913 6.36677 82.3143 6.59987 82.1372 6.86496L80.8066 7.21689L80.8702 6.27536H82.4188L82.0464 6.65015C82.2053 6.22508 82.4597 5.82287 82.8093 5.44352C83.159 5.06416 83.5813 4.74879 84.0854 4.50198C84.585 4.25517 85.1435 4.1272 85.752 4.1272C86.742 4.1272 87.5322 4.46542 88.1271 5.13729C88.722 5.80916 89.0217 6.70956 89.0217 7.83392V14.4155V14.411Z" fill="#0E2A3F"/>
<path d="M93.7311 8.18128C93.1362 8.18128 92.6503 7.99389 92.2688 7.62367C91.8919 7.24889 91.7012 6.75527 91.7012 6.14281C91.7012 5.53036 91.8919 5.05502 92.2688 4.68481C92.6457 4.31002 93.1317 4.1272 93.7311 4.1272C94.3305 4.1272 94.8301 4.31459 95.2025 4.68481C95.5748 5.05502 95.7565 5.54407 95.7565 6.14281C95.7565 6.77355 95.5703 7.26717 95.2025 7.63282C94.8301 7.99846 94.3396 8.18128 93.7311 8.18128ZM93.7311 15.7501C93.1362 15.7501 92.6503 15.5627 92.2688 15.1925C91.8919 14.8177 91.7012 14.3241 91.7012 13.7117C91.7012 13.0992 91.8919 12.6239 92.2688 12.2399C92.6457 11.8606 93.1317 11.6686 93.7311 11.6686C94.3305 11.6686 94.8301 11.8606 95.2025 12.2399C95.5748 12.6193 95.7565 13.1083 95.7565 13.7117C95.7565 14.3424 95.5703 14.836 95.2025 15.2017C94.8301 15.5673 94.3396 15.7501 93.7311 15.7501Z" fill="#0E2A3F"/>
<path d="M8.52423 43.0638C6.7804 43.0638 5.26817 42.7667 3.99208 42.1771C2.71146 41.5829 1.73055 40.7191 1.04028 39.5765C0.350016 38.4338 0.00488281 37.0672 0.00488281 35.4721C0.00488281 33.5845 0.395429 32.0213 1.17198 30.7781C1.94853 29.5349 2.98847 28.6208 4.28726 28.0358C5.58605 27.4508 7.02108 27.1583 8.59235 27.1583C9.23266 27.1583 9.87298 27.2222 10.5224 27.3457C11.1672 27.4691 11.7303 27.6107 12.2117 27.7753C12.357 27.821 12.4706 27.821 12.5478 27.7753C12.6295 27.7296 12.6658 27.6382 12.6658 27.4919V27.1171H12.9065L13.9737 33.4154H13.6922L13.5377 32.5378C13.0564 30.9427 12.4024 29.6995 11.5759 28.8082C10.7494 27.917 9.79578 27.4691 8.7195 27.4691C7.83396 27.4691 7.05741 27.7479 6.38531 28.3009C5.71775 28.8585 5.19551 29.6538 4.82767 30.6913C4.45529 31.7288 4.27364 32.9492 4.27364 34.3569C4.27364 36.1257 4.47799 37.6386 4.88216 38.9C5.29087 40.1569 5.85853 41.1167 6.59421 41.7749C7.32989 42.4331 8.18818 42.7621 9.17817 42.7621C10.3135 42.7621 11.2581 42.3142 12.021 41.423C12.7839 40.5317 13.4106 39.2017 13.9056 37.4283L14.06 36.5736H14.3415L13.2517 43.1095H12.9883L13.0337 42.7164C13.0473 42.5839 13.011 42.4971 12.9247 42.4513C12.8384 42.4056 12.7203 42.4011 12.575 42.4285C12.08 42.6022 11.4942 42.753 10.8085 42.8764C10.1273 42.9998 9.36436 43.0638 8.51969 43.0638H8.52423Z" fill="#0E2A3F"/>
<path d="M15.8491 42.7804V42.497H16.2397C16.4713 42.497 16.6438 42.4422 16.7528 42.3325C16.8618 42.2228 16.9163 42.0445 16.9163 41.7932V32.8623C16.9163 32.6292 16.8527 32.4555 16.7301 32.3458C16.6075 32.2361 16.4122 32.195 16.1534 32.227L15.8491 32.2727V32.0076L20.0361 31.482L20.1678 31.6145V41.7932C20.1678 42.04 20.2223 42.2228 20.3313 42.3325C20.4403 42.4422 20.6129 42.497 20.8445 42.497H21.1941V42.7804H15.8537H15.8491ZM18.5284 30.4307C17.9608 30.4307 17.5067 30.2571 17.1661 29.9143C16.8255 29.5715 16.6529 29.119 16.6529 28.566C16.6529 28.0129 16.8255 27.5604 17.1752 27.2176C17.5248 26.8749 17.9744 26.7012 18.5284 26.7012C19.0825 26.7012 19.5502 26.8749 19.8908 27.2176C20.2314 27.5604 20.404 28.0129 20.404 28.566C20.404 29.119 20.2314 29.5898 19.8908 29.928C19.5502 30.2662 19.0961 30.4307 18.5284 30.4307Z" fill="#0E2A3F"/>
<path d="M26.2031 43.1323C25.2857 43.1323 24.5773 42.8581 24.0778 42.3096C23.5782 41.7612 23.3239 41.039 23.3239 40.1478V32.227H22.3657V31.9436H23.3239L26.2893 28.4334V27.4233H26.5709V31.9436L29.5363 31.7242V32.3595L26.5709 32.227V39.6222C26.5709 40.3534 26.689 40.8791 26.9206 41.2036C27.1522 41.5235 27.5019 41.6881 27.9651 41.6881C28.2693 41.6881 28.5509 41.6058 28.8052 41.4458C29.0595 41.2858 29.282 41.0207 29.4682 40.6551L29.6635 40.7648C29.3728 41.5235 28.9323 42.1085 28.3465 42.5199C27.7562 42.9312 27.0432 43.1323 26.1985 43.1323H26.2031Z" fill="#0E2A3F"/>
<path d="M30.9304 32.8852C30.8123 32.6201 30.7033 32.4418 30.5943 32.3459C30.4853 32.2499 30.3218 32.2042 30.1039 32.2042H29.9722V31.9391H36.0529V32.2042H35.181C34.8903 32.2042 34.695 32.291 34.5906 32.4693C34.4907 32.6429 34.5043 32.8715 34.636 33.1503L37.665 39.7319L35.8349 43.4615L30.9304 32.8852ZM31.1483 48V47.8446L35.8349 43.3472L39.4543 35.2299C39.6722 34.7317 39.7994 34.2472 39.8357 33.7719C39.8721 33.2965 39.8039 32.9172 39.6268 32.6292C39.4543 32.3459 39.1818 32.1996 38.8185 32.1996H38.4279V31.9345H42.07V32.1996H41.961C41.6976 32.1996 41.4524 32.3184 41.2208 32.5607C40.9892 32.8029 40.7258 33.2463 40.4352 33.8861L34.1138 47.9909H31.1483V48ZM37.0792 39.7273L37.0338 39.4211H37.883L37.7513 39.7273H37.0747H37.0792Z" fill="#0E2A3F"/>
<path d="M42.5059 42.7804V42.4971L48.0643 32.2956V32.2316H47.1061C46.4522 32.2316 45.8346 32.387 45.2533 32.6932C44.672 32.9994 44.1907 33.4108 43.8047 33.9227C43.4186 34.4346 43.1689 34.9968 43.0508 35.6138L42.9191 36.3359H42.6557L43.2461 31.5323H43.3778L43.7275 31.9482H51.9652V32.2133L46.4295 42.4148V42.5016H47.5421C48.691 42.5016 49.6447 42.1406 50.4076 41.4138C51.1705 40.6917 51.6474 39.6999 51.8335 38.443L51.9652 37.6523H52.2059L51.8154 42.785H42.5059V42.7804Z" fill="#0E2A3F"/>
<path d="M58.8997 43.1095C57.8961 43.1095 56.9924 42.8673 56.1841 42.3873C55.3757 41.9029 54.7445 41.2356 54.2858 40.3809C53.8272 39.5262 53.6001 38.5572 53.6001 37.474C53.6001 36.3039 53.8272 35.2847 54.2858 34.4117C54.7445 33.5433 55.3848 32.8669 56.2022 32.3915C57.0242 31.9162 57.9551 31.6785 59.0042 31.6785C59.9215 31.6785 60.7344 31.8705 61.4473 32.259C62.1603 32.6475 62.7143 33.196 63.114 33.9044C63.5136 34.6128 63.7134 35.431 63.7134 36.3496V36.4136H56.5428L56.5201 36.0845H59.0269C59.7398 36.0845 60.2439 35.9703 60.5436 35.7463C60.8434 35.5178 60.9887 35.1064 60.9887 34.5077C60.9887 34.0415 60.9024 33.6119 60.7253 33.2234C60.5527 32.8349 60.3075 32.5332 59.9942 32.3138C59.6808 32.0944 59.313 31.9848 58.8952 31.9848C58.432 31.9848 58.0323 32.1264 57.6963 32.4144C57.3602 32.6978 57.1059 33.1274 56.9334 33.6987C56.7608 34.27 56.67 34.9693 56.67 35.8057C56.67 36.8753 56.8244 37.7848 57.1286 38.5389C57.4329 39.2931 57.8734 39.869 58.4456 40.2712C59.0178 40.6734 59.7217 40.8745 60.5482 40.8745C61.3747 40.8745 62.0332 40.6688 62.6099 40.262C63.1821 39.8507 63.5817 39.2748 63.7997 38.5298L64.0177 38.5938C63.8133 40.0289 63.2638 41.1396 62.3738 41.9303C61.4791 42.721 60.3211 43.1141 58.8952 43.1141L58.8997 43.1095Z" fill="#0E2A3F"/>
<path d="M65.1758 42.7804V42.497H65.7207C65.9115 42.497 66.0568 42.4468 66.1567 42.3416C66.2566 42.2411 66.3111 42.072 66.3111 41.8389V32.9537C66.3111 32.7343 66.2657 32.5561 66.1703 32.4144C66.0749 32.2773 65.9115 32.2133 65.6799 32.227L65.1803 32.2727V32.0076L69.6035 31.5688L69.7352 31.6785L69.5399 33.7627L69.3855 34.0918L69.5808 34.1375V41.8389C69.5808 42.0445 69.6307 42.2045 69.7352 42.3233C69.8351 42.4422 70.0031 42.497 70.2347 42.497H70.7342V42.7804H65.1758ZM71.8468 42.7804V42.497H72.3691C72.5871 42.497 72.746 42.4422 72.8505 42.3325C72.9549 42.2228 73.0049 42.0583 73.0049 41.8389V35.3898C73.0049 34.7317 72.8732 34.2152 72.6143 33.845C72.3509 33.4702 71.9377 33.2874 71.37 33.2874C70.9931 33.2874 70.6389 33.3879 70.3119 33.5844C69.9849 33.781 69.7397 34.0186 69.5808 34.2974L68.2275 34.6265L68.2729 33.7033H69.8623L69.4718 34.0781C69.7034 33.4062 70.1348 32.8166 70.7569 32.3138C71.3836 31.8111 72.1466 31.5551 73.0457 31.5551C74.0176 31.5551 74.7986 31.8933 75.389 32.5652C75.9794 33.2371 76.27 34.1375 76.27 35.2618V41.8434C76.27 42.0765 76.32 42.2457 76.4244 42.3462C76.5289 42.4468 76.6787 42.5016 76.8831 42.5016H77.4053V42.785H71.8468V42.7804Z" fill="#0E2A3F"/>
<path d="M79.1039 42.8901L78.668 38.2373H78.9495L79.2765 41.7246L78.9722 38.7629C79.5263 40.2118 80.1439 41.2401 80.8251 41.8434C81.5062 42.4468 82.2419 42.753 83.0276 42.753C83.5634 42.753 83.9948 42.6067 84.3127 42.3142C84.6306 42.0217 84.7941 41.6195 84.7941 41.1076C84.7941 40.8151 84.7169 40.55 84.567 40.3077C84.4172 40.0655 84.1946 39.8507 83.904 39.6587C83.6134 39.4667 83.2592 39.2931 82.8368 39.1331L81.7015 38.6486C80.9159 38.3424 80.2619 37.8899 79.7397 37.3003C79.2175 36.7061 78.9541 36.0114 78.9541 35.207C78.9541 34.5031 79.1448 33.8815 79.5217 33.3422C79.8986 32.8029 80.4254 32.3824 81.1021 32.0807C81.7787 31.7791 82.5643 31.6328 83.4681 31.6328C83.9313 31.6328 84.4035 31.6877 84.8849 31.7974C85.3663 31.907 85.8022 32.0487 86.1928 32.227C86.3381 32.2727 86.4335 32.2635 86.4743 32.2041C86.5198 32.1447 86.5379 32.067 86.5379 31.9619V31.6785H86.8013L87.2373 35.8469H86.9557L86.5425 32.3367L87.0011 35.5178C86.4925 34.2746 85.9158 33.3696 85.2664 32.8074C84.6215 32.2453 83.954 31.9619 83.2728 31.9619C82.7505 31.9619 82.3373 32.0944 82.0285 32.355C81.7242 32.6201 81.5698 32.9766 81.5698 33.429C81.5698 33.8541 81.7061 34.2106 81.974 34.5031C82.2419 34.7956 82.6234 35.0287 83.1184 35.207L84.5988 35.7326C85.4435 36.0251 86.1292 36.473 86.6605 37.0809C87.1919 37.6888 87.4553 38.4612 87.4553 39.3936C87.4553 40.1386 87.2691 40.7922 86.9012 41.3452C86.5288 41.9029 85.993 42.3279 85.2891 42.6296C84.5852 42.9312 83.7451 43.0775 82.7732 43.0775C82.3373 43.0775 81.8514 43.0089 81.311 42.8672C80.7751 42.7301 80.271 42.5564 79.8078 42.3508C79.6035 42.2639 79.4763 42.2411 79.4264 42.2868C79.3764 42.3325 79.3492 42.4239 79.3492 42.5702V42.8764H79.1085L79.1039 42.8901Z" fill="#0E2A3F"/>
<path d="M88.8902 42.7804V42.4971H89.2808C89.4988 42.4971 89.6577 42.4468 89.7622 42.3417C89.8666 42.2365 89.9166 42.072 89.9166 41.8389V28.3466C89.9166 28.0404 89.8711 27.8347 89.7849 27.7342C89.6986 27.6336 89.5442 27.6107 89.3262 27.6702L88.7812 27.8256V27.5422L93.7494 26.0522V26.3173L93.159 26.5367V41.848C93.159 42.0811 93.218 42.2502 93.3316 42.3508C93.4496 42.4513 93.6131 42.5062 93.8311 42.5062H94.2216V42.7896H88.8812L88.8902 42.7804ZM99.8528 41.8389C99.8528 42.072 99.9073 42.2411 100.016 42.3417C100.125 42.4422 100.28 42.4971 100.484 42.4971H100.984V42.7804H95.4478V42.4971H95.97C96.1744 42.4971 96.3288 42.4422 96.4378 42.3325C96.5468 42.2228 96.6013 42.0583 96.6013 41.8389V35.3898C96.6013 34.7317 96.4696 34.2152 96.2107 33.845C95.9473 33.4702 95.5341 33.2874 94.9664 33.2874C94.5759 33.2874 94.2126 33.3879 93.8856 33.5845C93.5586 33.781 93.3134 34.0187 93.1545 34.2975L91.8012 34.6494L91.8647 33.6393H93.436L93.0636 34.0781C93.2952 33.4062 93.7176 32.8166 94.3261 32.3138C94.9346 31.8111 95.7066 31.5551 96.6376 31.5551C97.5685 31.5551 98.3723 31.8934 98.9581 32.5652C99.5485 33.2371 99.8391 34.1375 99.8391 35.2619V41.8435L99.8528 41.8389Z" fill="#0E2A3F"/>
<path d="M102.078 42.7804V42.497H102.469C102.7 42.497 102.873 42.4422 102.982 42.3325C103.091 42.2228 103.145 42.0445 103.145 41.7932V32.8623C103.145 32.6292 103.082 32.4555 102.959 32.3458C102.837 32.2361 102.641 32.195 102.382 32.227L102.078 32.2727V32.0076L106.265 31.482L106.397 31.6145V41.7932C106.397 42.04 106.451 42.2228 106.56 42.3325C106.669 42.4422 106.842 42.497 107.073 42.497H107.423V42.7804H102.083H102.078ZM104.757 30.4307C104.19 30.4307 103.736 30.2571 103.395 29.9143C103.054 29.5715 102.882 29.119 102.882 28.566C102.882 28.0129 103.054 27.5604 103.404 27.2176C103.754 26.8749 104.203 26.7012 104.757 26.7012C105.311 26.7012 105.779 26.8749 106.12 27.2176C106.46 27.5604 106.633 28.0129 106.633 28.566C106.633 29.119 106.46 29.5898 106.12 29.928C105.779 30.2662 105.325 30.4307 104.757 30.4307Z" fill="#0E2A3F"/>
<path d="M108.381 48V47.7166H108.99C109.208 47.7166 109.371 47.6663 109.48 47.5612C109.589 47.4607 109.644 47.2916 109.644 47.0585V33.0177C109.644 32.7389 109.585 32.5332 109.471 32.4053C109.358 32.2773 109.172 32.2133 108.926 32.2316L108.49 32.2773V32.0122L112.895 31.5277L113.027 31.6603L112.764 33.525H112.895V47.063C112.895 47.2824 112.945 47.447 113.05 47.5567C113.15 47.6664 113.318 47.7212 113.549 47.7212H114.444V48.0046H108.386L108.381 48ZM115.248 43.0866C114.725 43.0866 114.253 43.0318 113.831 42.9221C113.408 42.8124 113.036 42.657 112.718 42.4513L112.673 41.9897C112.864 42.136 113.082 42.2502 113.336 42.3279C113.59 42.4102 113.849 42.4468 114.108 42.4468C115.025 42.4468 115.756 42.0674 116.31 41.3041C116.864 40.5454 117.137 39.4622 117.137 38.059C117.137 37.0809 117.019 36.24 116.778 35.5361C116.537 34.8322 116.197 34.302 115.752 33.9455C115.307 33.589 114.789 33.4062 114.194 33.4062C113.89 33.4062 113.604 33.4656 113.331 33.5799C113.063 33.6987 112.85 33.8496 112.686 34.0415L112.709 33.8678C112.809 33.589 112.991 33.2828 113.245 32.9446C113.499 32.6064 113.89 32.3047 114.412 32.035C114.934 31.7654 115.597 31.6283 116.397 31.6283C117.196 31.6283 117.927 31.8614 118.585 32.3321C119.249 32.7983 119.771 33.4519 120.157 34.2838C120.543 35.1156 120.733 36.0617 120.733 37.1129C120.733 38.3287 120.502 39.3845 120.034 40.2849C119.571 41.1853 118.917 41.8755 118.081 42.3599C117.246 42.8444 116.297 43.0821 115.239 43.0821L115.248 43.0866Z" fill="#0E2A3F"/>
<path d="M130.393 42.1223C130.565 42.2548 130.765 42.3554 130.983 42.4285C131.201 42.5016 131.405 42.5382 131.591 42.5382C132.727 42.5382 133.608 42.1268 134.239 41.3087C134.87 40.4906 135.188 39.3114 135.188 37.7757C135.188 36.8113 135.079 36.0023 134.861 35.3533C134.643 34.7042 134.343 34.2106 133.966 33.8724C133.59 33.5342 133.14 33.3696 132.613 33.3696C132.25 33.3696 131.932 33.4336 131.655 33.557C131.378 33.6804 131.137 33.845 130.937 34.0507V34.0735L130.828 33.9638C131.105 33.2599 131.573 32.6978 132.236 32.2727C132.899 31.8476 133.626 31.6374 134.425 31.6374C135.224 31.6374 135.978 31.8659 136.637 32.3184C137.3 32.7709 137.822 33.4062 138.208 34.2152C138.594 35.0242 138.785 35.952 138.785 36.9895C138.785 38.2921 138.539 39.3936 138.044 40.2895C137.55 41.1899 136.846 41.8755 135.928 42.3508C135.011 42.8261 133.921 43.0638 132.659 43.0638C132.091 43.0638 131.469 43.0044 130.797 42.8901C130.12 42.7713 129.493 42.6205 128.912 42.4285L127.845 43.0638H127.69V28.342C127.69 28.0358 127.645 27.8301 127.559 27.7296C127.473 27.629 127.327 27.6062 127.123 27.6656L126.555 27.821V27.5376L131.546 26.0476V26.3127L130.956 26.5321V42.593L130.388 42.1314L130.393 42.1223ZM130.806 33.5022H131.155L131.133 33.7444H130.806V33.5022Z" fill="#0E2A3F"/>
<path d="M139.966 32.8852C139.847 32.6201 139.738 32.4418 139.629 32.3459C139.52 32.2499 139.357 32.2042 139.139 32.2042H139.007V31.9391H145.088V32.2042H144.216C143.925 32.2042 143.73 32.291 143.626 32.4693C143.526 32.6429 143.539 32.8715 143.671 33.1503L146.7 39.7319L144.87 43.4615L139.966 32.8852ZM140.184 48V47.8446L144.87 43.3472L148.489 35.2299C148.707 34.7317 148.835 34.2472 148.871 33.7719C148.907 33.2965 148.839 32.9172 148.662 32.6292C148.489 32.3459 148.217 32.1996 147.854 32.1996H147.463V31.9345H151.105V32.1996H150.996C150.733 32.1996 150.488 32.3184 150.256 32.5607C150.024 32.8029 149.761 33.2463 149.47 33.8861L143.149 47.9909H140.184V48ZM146.114 39.7273L146.069 39.4211H146.918L146.786 39.7273H146.11H146.114Z" fill="#0E2A3F"/>
<path d="M155.133 42.7804L155.179 42.5382H155.787C156.051 42.5382 156.269 42.465 156.441 42.3188C156.614 42.1725 156.732 41.9668 156.791 41.7063L160.015 28.4974C160.074 28.2186 160.056 28.0129 159.961 27.8712C159.865 27.7341 159.688 27.661 159.425 27.661H158.816L158.88 27.4188H164.025L163.98 27.661H163.371C163.126 27.661 162.917 27.7296 162.749 27.8712C162.581 28.0084 162.467 28.2186 162.413 28.4974L159.189 41.7063C159.116 41.9851 159.125 42.1908 159.211 42.3325C159.298 42.4696 159.475 42.5427 159.734 42.5427H160.324L160.279 42.785H155.133V42.7804Z" fill="#0E2A3F"/>
<path d="M170.719 43.0866C170.11 43.0866 169.688 42.8947 169.452 42.5153C169.215 42.136 169.206 41.5738 169.406 40.8242L170.887 35.4492C171.091 34.6585 171.096 34.0506 170.9 33.6301C170.705 33.2051 170.346 32.9948 169.819 32.9948C169.383 32.9948 168.925 33.1731 168.448 33.5342C167.967 33.8952 167.522 34.4026 167.108 35.0699C166.695 35.7372 166.377 36.5142 166.159 37.4054L164.851 42.7804H162.803L165.156 33.2142C165.215 32.9948 165.196 32.8212 165.101 32.6886C165.006 32.5561 164.842 32.5058 164.611 32.5332L164.129 32.5972L164.193 32.355L167.549 31.8933L167.612 32.003L166.631 35.1613H166.695C167.158 34.1969 167.771 33.4062 168.525 32.7937C169.279 32.1813 170.074 31.8705 170.9 31.8705C171.858 31.8705 172.512 32.1767 172.862 32.78C173.212 33.3879 173.225 34.2837 172.907 35.4675L171.427 40.9293C171.327 41.3087 171.327 41.6012 171.427 41.8069C171.527 42.0126 171.709 42.1131 171.972 42.1131C172.176 42.1131 172.394 42.0308 172.626 41.8709C172.858 41.7109 173.075 41.4687 173.28 41.1487L173.475 41.2813C173.098 41.88 172.676 42.3325 172.213 42.6296C171.745 42.9312 171.245 43.0775 170.71 43.0775L170.719 43.0866Z" fill="#0E2A3F"/>
<path d="M180.573 32.2727C179.728 33.164 179.056 34.0324 178.557 34.8734C178.057 35.7143 177.712 36.5873 177.521 37.4969C177.317 38.347 177.285 39.0828 177.421 39.7136C177.557 40.3443 177.83 40.8242 178.23 41.1624C178.629 41.5007 179.129 41.6652 179.724 41.6652C180.319 41.6652 180.941 41.455 181.499 41.0299C182.058 40.6048 182.544 40.0518 182.962 39.3616C183.375 38.6761 183.684 37.9448 183.888 37.1678C184.02 36.6422 184.097 36.0343 184.129 35.3487C184.156 34.6631 184.142 34.0918 184.083 33.6393L184.542 33.7947L184.433 35.1567L182.253 32.9172C182.353 32.5789 182.521 32.323 182.753 32.1493C182.984 31.9756 183.234 31.8842 183.493 31.8842C183.942 31.8842 184.265 32.1127 184.465 32.5744C184.66 33.036 184.746 33.6347 184.728 34.3752C184.705 35.1156 184.592 35.9063 184.392 36.7564C184.101 37.9128 183.661 38.9732 183.075 39.9375C182.489 40.9019 181.776 41.6652 180.95 42.232C180.123 42.7941 179.233 43.0775 178.289 43.0775C177.535 43.0775 176.885 42.8993 176.35 42.5382C175.814 42.1817 175.437 41.6744 175.228 41.0253C175.019 40.3763 175.019 39.6267 175.237 38.7766C175.482 37.7071 175.923 36.8021 176.554 36.0571C177.185 35.3121 177.916 34.6814 178.743 34.1695L178.897 33.8861H175.736L175.845 33.4931C175.964 33.068 176.168 32.7481 176.468 32.5287C176.767 32.3093 177.153 32.1996 177.635 32.1996H180.514L180.577 32.2864L180.573 32.2727Z" fill="#0E2A3F"/>
<path d="M189.206 43.0638C188.42 43.0638 187.753 42.8261 187.199 42.3508C186.645 41.8754 186.268 41.2173 186.064 40.3763C185.859 39.5353 185.891 38.5801 186.15 37.5151C186.413 36.4045 186.854 35.4264 187.48 34.5854C188.107 33.7444 188.829 33.0954 189.651 32.6338C190.473 32.1721 191.304 31.9436 192.149 31.9436C192.862 31.9436 193.448 32.1173 193.902 32.4601C194.36 32.8029 194.587 33.2554 194.587 33.8084C194.587 34.6402 194.274 35.3258 193.652 35.8606C193.025 36.3953 192.212 36.7793 191.209 37.0124C190.205 37.2455 189.124 37.3643 187.962 37.3643L187.939 37.0809C188.856 37.0809 189.71 36.9255 190.509 36.6193C191.309 36.3131 191.954 35.8834 192.439 35.335C192.925 34.7865 193.171 34.174 193.171 33.5022C193.171 33.1091 193.071 32.7937 192.866 32.5606C192.662 32.3275 192.358 32.2087 191.949 32.2087C191.44 32.2087 190.945 32.3915 190.469 32.7572C189.987 33.1228 189.551 33.6347 189.161 34.2929C188.77 34.951 188.461 35.696 188.243 36.5324C187.998 37.5562 187.916 38.4521 188.003 39.2199C188.089 39.9878 188.334 40.5865 188.734 41.0207C189.133 41.4504 189.669 41.6698 190.337 41.6698C191.004 41.6698 191.631 41.4641 192.253 41.0573C192.88 40.6459 193.416 40.0244 193.865 39.1925L194.061 39.3022C193.493 40.5591 192.798 41.5052 191.981 42.1314C191.159 42.7621 190.232 43.0729 189.202 43.0729L189.206 43.0638Z" fill="#0E2A3F"/>
<path d="M198.293 43.0455C197.711 43.0455 197.167 42.945 196.658 42.7485C196.149 42.5519 195.745 42.2914 195.45 41.9715C195.15 41.6515 195.005 41.3042 195.005 40.9385C195.005 40.6003 195.105 40.3398 195.3 40.1478C195.495 39.9558 195.768 39.8644 196.117 39.8644C196.276 40.8288 196.581 41.5373 197.021 41.9806C197.466 42.4285 198.02 42.6479 198.688 42.6479C199.169 42.6479 199.582 42.5199 199.932 42.264C200.282 42.008 200.504 41.6607 200.609 41.2219C200.74 40.71 200.691 40.2347 200.454 39.7959C200.218 39.3571 199.85 38.964 199.342 38.6121L198.315 37.8443C197.721 37.3918 197.289 36.889 197.03 36.3405C196.767 35.7921 196.726 35.1796 196.899 34.5077C197.103 33.7033 197.543 33.0726 198.229 32.6201C198.91 32.1676 199.673 31.9391 200.518 31.9391C201.126 31.9391 201.69 32.0351 202.198 32.2225C202.707 32.4099 203.106 32.6567 203.397 32.9583C203.688 33.26 203.833 33.5708 203.833 33.8907C203.833 34.2107 203.729 34.4255 203.515 34.5717C203.306 34.718 203.016 34.7911 202.652 34.7911C202.566 34.2929 202.407 33.8587 202.171 33.4839C201.939 33.1092 201.653 32.8212 201.308 32.6155C200.968 32.4099 200.6 32.3093 200.209 32.3093C199.787 32.3093 199.419 32.419 199.097 32.6384C198.779 32.8578 198.579 33.1594 198.506 33.5388C198.406 34.0507 198.461 34.4986 198.679 34.878C198.897 35.2573 199.246 35.623 199.723 35.9749L200.75 36.7427C201.39 37.2089 201.867 37.7391 202.189 38.3242C202.507 38.9092 202.575 39.5765 202.384 40.3215C202.253 40.8608 201.994 41.3407 201.599 41.7566C201.204 42.1726 200.722 42.4925 200.15 42.7119C199.578 42.9313 198.956 43.041 198.288 43.041L198.293 43.0455Z" fill="#0E2A3F"/>
<path d="M206.576 43.0638C205.877 43.0638 205.368 42.8353 205.051 42.3828C204.733 41.9303 204.674 41.3087 204.878 40.518L206.84 32.4464H205.664L205.727 32.1813H206.903L209.324 29.5944L209.628 28.3878H209.91L208.951 32.1813L212.244 32.0488L212.135 32.5333L208.888 32.4464L206.971 40.2575C206.826 40.8882 206.822 41.3544 206.962 41.6607C207.099 41.9669 207.394 42.1223 207.843 42.1223C208.179 42.1223 208.511 42.008 208.847 41.7841C209.183 41.5555 209.524 41.2173 209.873 40.7648L210.028 40.8974C209.592 41.583 209.074 42.1177 208.479 42.4971C207.884 42.8764 207.248 43.0684 206.581 43.0684L206.576 43.0638Z" fill="#0E2A3F"/>
<path d="M225.413 43.0866C224.818 43.0866 224.401 42.8947 224.16 42.5153C223.919 42.136 223.901 41.5738 224.105 40.8242L225.586 35.4492C225.804 34.6585 225.817 34.0506 225.631 33.6302C225.441 33.2051 225.095 32.9948 224.587 32.9948C224.178 32.9948 223.742 33.1731 223.27 33.5342C222.798 33.8952 222.357 34.4072 221.953 35.079C221.544 35.7509 221.235 36.5279 221.017 37.4054L219.664 42.7804H217.639L219.514 35.4538C219.705 34.6631 219.705 34.0552 219.514 33.6347C219.323 33.2097 218.978 32.9994 218.47 32.9994C218.061 32.9994 217.625 33.1777 217.153 33.5387C216.68 33.8998 216.235 34.4117 215.822 35.0836C215.409 35.7555 215.091 36.5325 214.873 37.41L213.565 42.785H211.517L213.869 33.2188C213.928 32.9857 213.91 32.8075 213.815 32.6932C213.72 32.5744 213.565 32.5241 213.347 32.5378L212.848 32.6246L212.911 32.3595L216.267 31.8979L216.331 32.0076L215.35 35.1659H215.413C215.877 34.2015 216.485 33.4108 217.234 32.7983C217.984 32.1859 218.756 31.8751 219.555 31.8751C220.441 31.8751 221.04 32.1539 221.353 32.7069C221.667 33.2645 221.699 34.0826 221.453 35.1659H221.54C221.989 34.2015 222.593 33.4108 223.347 32.7983C224.101 32.1859 224.882 31.8751 225.681 31.8751C226.599 31.8751 227.225 32.1813 227.566 32.7983C227.906 33.4108 227.92 34.3066 227.598 35.4767L226.135 40.9385C226.035 41.3178 226.035 41.6103 226.135 41.816C226.235 42.0217 226.426 42.1223 226.703 42.1223C226.907 42.1223 227.121 42.04 227.348 41.88C227.575 41.72 227.793 41.4778 228.011 41.1579L228.183 41.2904C227.82 41.8892 227.402 42.3416 226.93 42.6387C226.458 42.9404 225.954 43.0866 225.413 43.0866Z" fill="#0E2A3F"/>
<path d="M232.952 43.0638C232.166 43.0638 231.498 42.8261 230.944 42.3508C230.39 41.8754 230.014 41.2173 229.809 40.3763C229.605 39.5353 229.637 38.5801 229.895 37.5151C230.159 36.4045 230.599 35.4264 231.226 34.5854C231.853 33.7444 232.575 33.0954 233.397 32.6338C234.219 32.1721 235.05 31.9436 235.894 31.9436C236.607 31.9436 237.193 32.1173 237.647 32.4601C238.106 32.8029 238.333 33.2554 238.333 33.8084C238.333 34.6402 238.02 35.3258 237.398 35.8606C236.771 36.3953 235.958 36.7793 234.954 37.0124C233.951 37.2455 232.87 37.3643 231.707 37.3643L231.685 37.0809C232.602 37.0809 233.456 36.9255 234.255 36.6193C235.054 36.3131 235.699 35.8834 236.185 35.335C236.671 34.7865 236.916 34.174 236.916 33.5022C236.916 33.1091 236.816 32.7937 236.612 32.5606C236.408 32.3275 236.103 32.2087 235.695 32.2087C235.186 32.2087 234.691 32.3915 234.214 32.7572C233.733 33.1228 233.297 33.6347 232.906 34.2929C232.516 34.951 232.207 35.696 231.989 36.5324C231.744 37.5562 231.662 38.4521 231.748 39.2199C231.835 39.9878 232.08 40.5865 232.479 41.0207C232.879 41.4504 233.415 41.6698 234.082 41.6698C234.75 41.6698 235.377 41.4641 235.999 41.0573C236.626 40.6459 237.161 40.0244 237.611 39.1925L237.806 39.3022C237.239 40.5591 236.544 41.5052 235.726 42.1314C234.904 42.7621 233.978 43.0729 232.947 43.0729L232.952 43.0638Z" fill="#0E2A3F"/>
<path d="M247.079 43.0866C246.471 43.0866 246.049 42.8947 245.817 42.5153C245.585 42.136 245.572 41.5738 245.772 40.8242L247.252 35.4492C247.456 34.6585 247.461 34.0506 247.261 33.6301C247.066 33.2051 246.707 32.9948 246.18 32.9948C245.744 32.9948 245.286 33.1731 244.809 33.5342C244.327 33.8952 243.882 34.4026 243.469 35.0699C243.056 35.7372 242.738 36.5142 242.52 37.4054L241.212 42.7804H239.164L241.516 33.2142C241.575 32.9948 241.557 32.8212 241.462 32.6886C241.367 32.5561 241.203 32.5058 240.971 32.5332L240.49 32.5972L240.554 32.355L243.91 31.8933L243.973 32.003L242.992 35.1613H243.056C243.519 34.1969 244.132 33.4062 244.886 32.7937C245.64 32.1813 246.435 31.8705 247.261 31.8705C248.219 31.8705 248.873 32.1767 249.223 32.78C249.573 33.3879 249.586 34.2837 249.268 35.4675L247.788 40.9293C247.688 41.3087 247.688 41.6012 247.788 41.8069C247.888 42.0126 248.069 42.1131 248.333 42.1131C248.537 42.1131 248.755 42.0308 248.987 41.8709C249.218 41.7109 249.436 41.4687 249.641 41.1487L249.836 41.2813C249.459 41.88 249.037 42.3325 248.573 42.6296C248.11 42.9312 247.606 43.0775 247.07 43.0775L247.079 43.0866Z" fill="#0E2A3F"/>
<path d="M253.333 43.0638C252.633 43.0638 252.125 42.8353 251.807 42.3828C251.489 41.9303 251.43 41.3087 251.634 40.518L253.596 32.4464H252.42L252.484 32.1813H253.66L256.08 29.5944L256.384 28.3878H256.666L255.708 32.1813L259 32.0488L258.891 32.5333L255.644 32.4464L253.728 40.2575C253.582 40.8882 253.578 41.3544 253.719 41.6607C253.855 41.9669 254.15 42.1223 254.6 42.1223C254.936 42.1223 255.267 42.008 255.603 41.7841C255.939 41.5555 256.28 41.2173 256.63 40.7648L256.784 40.8974C256.348 41.583 255.83 42.1177 255.236 42.4971C254.641 42.8764 254.005 43.0684 253.337 43.0684L253.333 43.0638Z" fill="#0E2A3F"/>
</g>
<defs>
<clipPath id="clip0_548_8756">
<rect width="259" height="48" fill="white"/>
</clipPath>
</defs>
</svg>
