<svg width="142" height="36" viewBox="0 0 142 36" fill="none" xmlns="http://www.w3.org/2000/svg">
<g clip-path="url(#clip0_358_5429)">
<path d="M2.3 3.45997C2.11 3.00997 1.88 2.68997 1.63 2.49997C1.37 2.30997 1.07 2.20997 0.72 2.20997H0V1.58997H15.22V2.20997H13.4C12.63 2.20997 12.14 2.41997 11.94 2.82997C11.73 3.24997 11.8 3.83997 12.16 4.60997L21.28 24.87H21.42L27.13 10.71C27.8 9.00997 28.14 7.52997 28.14 6.24997C28.14 4.96997 27.82 3.97997 27.18 3.26997C26.54 2.56997 25.64 2.20997 24.49 2.20997H23.53V1.58997H34.19V2.20997H33.95C33.09 2.20997 32.21 2.78997 31.33 3.95997C30.45 5.12997 29.34 7.37997 27.99 10.7L18.1 35.18H17.28L2.3 3.45997Z" fill="#1C3661"/>
<path d="M34.46 35.18V34.56H35.32C35.83 34.56 36.21 34.44 36.45 34.2C36.69 33.96 36.81 33.57 36.81 33.02V13.49C36.81 12.98 36.67 12.6 36.4 12.36C36.13 12.12 35.7 12.03 35.13 12.1L34.46 12.2V11.62L43.68 10.47L43.97 10.76V33.03C43.97 33.57 44.09 33.97 44.33 34.21C44.57 34.45 44.95 34.57 45.46 34.57H46.23V35.19H34.47L34.46 35.18ZM40.36 8.16C39.11 8.16 38.11 7.78 37.36 7.03C36.61 6.28 36.23 5.29 36.23 4.08C36.23 2.87 36.61 1.88 37.38 1.13C38.15 0.38 39.14 0 40.36 0C41.58 0 42.61 0.38 43.36 1.13C44.11 1.88 44.49 2.87 44.49 4.08C44.49 5.29 44.11 6.32 43.36 7.06C42.61 7.8 41.61 8.16 40.36 8.16Z" fill="#1C3661"/>
<path d="M50.35 35.42L49.39 25.24H50.01L50.73 32.87L50.06 26.39C51.28 29.56 52.64 31.81 54.14 33.13C55.64 34.46 57.26 35.12 58.99 35.12C60.17 35.12 61.12 34.8 61.82 34.16C62.52 33.52 62.88 32.64 62.88 31.52C62.88 30.88 62.71 30.3 62.38 29.77C62.04 29.24 61.56 28.77 60.92 28.35C60.28 27.93 59.5 27.55 58.57 27.2L56.07 26.14C54.34 25.47 52.9 24.48 51.75 23.19C50.6 21.89 50.02 20.37 50.02 18.61C50.02 17.07 50.44 15.71 51.27 14.53C52.1 13.35 53.26 12.43 54.75 11.77C56.24 11.11 57.97 10.79 59.96 10.79C60.98 10.79 62.02 10.91 63.08 11.15C64.14 11.39 65.1 11.7 65.96 12.09C66.28 12.19 66.49 12.17 66.58 12.04C66.68 11.91 66.72 11.74 66.72 11.51V10.89H67.3L68.26 20.01H67.64L66.73 12.33L67.74 19.29C66.62 16.57 65.35 14.59 63.92 13.36C62.5 12.13 61.03 11.51 59.53 11.51C58.38 11.51 57.47 11.8 56.79 12.37C56.12 12.95 55.78 13.73 55.78 14.72C55.78 15.65 56.08 16.43 56.67 17.07C57.26 17.71 58.1 18.22 59.19 18.61L62.45 19.76C64.31 20.4 65.82 21.38 66.99 22.71C68.16 24.04 68.74 25.73 68.74 27.77C68.74 29.4 68.33 30.83 67.52 32.04C66.7 33.26 65.52 34.19 63.97 34.85C62.42 35.51 60.57 35.83 58.43 35.83C57.47 35.83 56.4 35.68 55.21 35.37C54.03 35.07 52.92 34.69 51.9 34.24C51.45 34.05 51.17 34 51.06 34.1C50.95 34.2 50.89 34.4 50.89 34.72V35.39H50.36L50.35 35.42Z" fill="#1C3661"/>
<path d="M72.14 35.18V34.56H73C73.51 34.56 73.89 34.44 74.13 34.2C74.37 33.96 74.49 33.57 74.49 33.02V13.49C74.49 12.98 74.35 12.6 74.08 12.36C73.81 12.12 73.38 12.03 72.81 12.1L72.14 12.2V11.62L81.36 10.47L81.65 10.76V33.03C81.65 33.57 81.77 33.97 82.01 34.21C82.25 34.45 82.63 34.57 83.14 34.57H83.91V35.19H72.15L72.14 35.18ZM78.04 8.16C76.79 8.16 75.79 7.78 75.04 7.03C74.29 6.28 73.91 5.29 73.91 4.08C73.91 2.87 74.29 1.88 75.06 1.13C75.83 0.38 76.82 0 78.04 0C79.26 0 80.29 0.38 81.04 1.13C81.79 1.88 82.17 2.87 82.17 4.08C82.17 5.29 81.79 6.32 81.04 7.06C80.29 7.8 79.29 8.16 78.04 8.16Z" fill="#1C3661"/>
<path d="M99.17 35.7101C96.67 35.7101 94.49 35.2101 92.62 34.2201C90.75 33.2301 89.3 31.8001 88.28 29.9201C87.26 28.0501 86.74 25.8501 86.74 23.3201C86.74 20.7901 87.27 18.6001 88.32 16.7401C89.38 14.8801 90.88 13.4501 92.83 12.4401C94.78 11.4301 97.05 10.9301 99.65 10.9301C102.25 10.9301 104.34 11.4301 106.23 12.4401C108.12 13.4501 109.57 14.8801 110.6 16.7401C111.62 18.6001 112.14 20.7901 112.14 23.3201C112.14 25.8501 111.61 28.0501 110.56 29.9201C109.5 31.7901 108 33.2201 106.05 34.2201C104.1 35.2101 101.81 35.7101 99.19 35.7101H99.17ZM99.31 35.0401C100.37 35.0401 101.25 34.6501 101.97 33.8601C102.69 33.0801 103.23 31.8701 103.6 30.2401C103.97 28.6101 104.15 26.5001 104.15 23.9001C104.15 19.6401 103.76 16.5301 102.97 14.5601C102.19 12.5901 101.03 11.6101 99.49 11.6101C98.43 11.6101 97.55 11.9901 96.85 12.7601C96.15 13.5301 95.61 14.7401 95.24 16.3801C94.87 18.0301 94.69 20.1501 94.69 22.7401C94.69 25.5901 94.87 27.9201 95.22 29.7201C95.57 31.5301 96.08 32.8601 96.76 33.7301C97.43 34.5901 98.28 35.0301 99.3 35.0301L99.31 35.0401Z" fill="#1C3661"/>
<path d="M114.96 35.18V34.56H116.16C116.58 34.56 116.9 34.45 117.12 34.22C117.34 34 117.46 33.63 117.46 33.12V13.68C117.46 13.2 117.36 12.81 117.15 12.5C116.94 12.2 116.58 12.06 116.07 12.09L114.97 12.19V11.61L124.71 10.65L125 10.89L124.57 15.45L124.23 16.17L124.66 16.27V33.12C124.66 33.57 124.77 33.92 125 34.18C125.22 34.44 125.59 34.56 126.1 34.56H127.2V35.18H114.96ZM129.65 35.18V34.56H130.8C131.28 34.56 131.63 34.44 131.86 34.2C132.08 33.96 132.2 33.6 132.2 33.12V19.01C132.2 17.57 131.91 16.44 131.34 15.63C130.76 14.81 129.85 14.41 128.6 14.41C127.77 14.41 126.99 14.63 126.27 15.06C125.55 15.49 125.01 16.01 124.66 16.62L121.68 17.34L121.78 15.32H125.28L124.42 16.14C124.93 14.67 125.88 13.38 127.25 12.28C128.63 11.18 130.31 10.62 132.29 10.62C134.43 10.62 136.15 11.36 137.45 12.83C138.75 14.3 139.39 16.27 139.39 18.73V33.13C139.39 33.64 139.5 34.01 139.73 34.23C139.95 34.45 140.29 34.57 140.74 34.57H141.89V35.19H129.65V35.18Z" fill="#1C3661"/>
</g>
<defs>
<clipPath id="clip0_358_5429">
<rect width="141.89" height="35.86" fill="white"/>
</clipPath>
</defs>
</svg>
