<svg width="221" height="46" viewBox="0 0 221 46" fill="none" xmlns="http://www.w3.org/2000/svg">
<g clip-path="url(#clip0_548_8691)">
<path d="M0 33.6V32.98H1.25C1.83 32.98 2.25 32.84 2.52 32.57C2.79 32.3 2.93 31.86 2.93 31.25V2.35C2.93 1.74 2.79 1.3 2.52 1.03C2.25 0.76 1.82 0.62 1.25 0.62H0V0H17.95C21.73 0 24.65 0.78 26.71 2.33C28.77 3.88 29.82 6.18 29.85 9.22C29.85 11.62 29.36 13.56 28.39 15.05C27.41 16.54 25.89 17.63 23.83 18.31C21.77 19 19.1 19.34 15.84 19.34H13.92V18.57H15.02C17 18.57 18.5 17.8 19.51 16.27C20.52 14.73 21.02 12.49 21.02 9.55C21.02 6.38 20.46 4.12 19.34 2.76C18.22 1.4 16.59 0.72 14.44 0.72H11.66V30.77C11.66 31.54 11.84 32.1 12.21 32.45C12.58 32.8 13.18 32.98 14.01 32.98H15.69V33.6H0Z" fill="white"/>
<path d="M32.4499 33.6V32.98H33.3099C33.8199 32.98 34.1999 32.87 34.4399 32.64C34.6799 32.42 34.7999 32.05 34.7999 31.54V12.1C34.7999 11.52 34.6599 11.11 34.3899 10.85C34.1199 10.59 33.7299 10.48 33.2099 10.51L32.4399 10.61V10.03L42.0399 9.07L42.2799 9.31L41.6099 15.69L41.0799 16.17H41.9399V31.05C41.9399 31.72 42.0899 32.21 42.3999 32.51C42.6999 32.81 43.1799 32.97 43.8199 32.97H45.7899V33.59H32.4499V33.6ZM38.8799 17.52V15.5H41.8099C42.8299 13.32 43.8799 11.68 44.9499 10.56C46.0199 9.44 47.2499 8.88 48.6199 8.88C49.7699 8.88 50.6999 9.24 51.3999 9.96C52.0999 10.68 52.4599 11.66 52.4599 12.91C52.4599 14.16 52.1099 15.09 51.3999 15.79C50.6999 16.5 49.8199 16.85 48.7599 16.85C48.0899 16.85 47.4499 16.72 46.8399 16.47C46.8099 15.51 46.6899 14.77 46.4799 14.24C46.2699 13.71 45.9399 13.45 45.4999 13.45C45.0199 13.45 44.4599 13.71 43.8199 14.24C43.1799 14.77 42.5599 15.58 41.9499 16.66L38.8799 17.52Z" fill="white"/>
<path d="M66.3802 34.13C63.8802 34.13 61.7002 33.63 59.8302 32.64C57.9602 31.65 56.5102 30.22 55.4902 28.34C54.4702 26.47 53.9502 24.27 53.9502 21.74C53.9502 19.21 54.4802 17.02 55.5302 15.16C56.5902 13.3 58.0902 11.87 60.0402 10.86C61.9902 9.85 64.2602 9.35 66.8602 9.35C69.4602 9.35 71.5502 9.85 73.4402 10.86C75.3302 11.87 76.7802 13.3 77.8102 15.16C78.8302 17.02 79.3502 19.21 79.3502 21.74C79.3502 24.27 78.8202 26.47 77.7702 28.34C76.7102 30.21 75.2102 31.64 73.2602 32.64C71.3102 33.63 69.0202 34.13 66.4002 34.13H66.3802ZM66.5202 33.46C67.5802 33.46 68.4602 33.07 69.1802 32.28C69.9002 31.5 70.4402 30.29 70.8102 28.66C71.1802 27.03 71.3602 24.92 71.3602 22.32C71.3602 18.06 70.9702 14.95 70.1802 12.98C69.4002 11.01 68.2402 10.03 66.7002 10.03C65.6402 10.03 64.7602 10.41 64.0602 11.18C63.3602 11.95 62.8202 13.16 62.4502 14.8C62.0802 16.45 61.9002 18.57 61.9002 21.16C61.9002 24.01 62.0802 26.34 62.4302 28.14C62.7802 29.95 63.2902 31.28 63.9702 32.15C64.6502 33.02 65.4902 33.45 66.5102 33.45L66.5202 33.46Z" fill="white"/>
<path d="M92.88 45.65C89.01 45.65 86.02 45.21 83.9 44.33C81.78 43.45 80.73 42.23 80.73 40.66C80.73 39.41 81.23 38.4 82.22 37.61C83.21 36.83 84.57 36.37 86.3 36.24V34.99L88.94 35.23L89.85 36.96C88.09 36.99 86.75 37.3 85.84 37.87C84.93 38.45 84.47 39.33 84.47 40.51C84.47 41.89 85.2 42.97 86.65 43.75C88.11 44.53 90.27 44.93 93.15 44.93C94.85 44.93 96.31 44.75 97.54 44.4C98.77 44.05 99.72 43.55 100.37 42.91C101.03 42.27 101.35 41.53 101.35 40.7C101.35 39.77 100.93 39 100.1 38.37C99.27 37.75 98.02 37.4 96.36 37.34L89.83 36.96C87.81 36.86 86.25 36.31 85.13 35.3C84.01 34.29 83.45 33.08 83.45 31.68C83.45 30.18 83.91 28.95 84.82 28.01C85.73 27.07 86.97 26.42 88.54 26.07V25.3L90.56 25.44L90.37 26.3C89.51 26.36 88.86 26.55 88.43 26.85C88 27.15 87.78 27.55 87.78 28.03C87.78 28.51 87.99 28.87 88.4 29.11C88.82 29.35 89.42 29.5 90.22 29.57L97.66 29.95C100.44 30.11 102.6 30.77 104.14 31.92C105.68 33.07 106.44 34.64 106.44 36.62C106.44 38.44 105.9 40.03 104.81 41.37C103.72 42.71 102.16 43.76 100.13 44.51C98.1 45.26 95.67 45.64 92.86 45.64L92.88 45.65ZM93.36 26.64C91.09 26.64 89.14 26.26 87.53 25.49C85.91 24.72 84.69 23.69 83.86 22.39C83.03 21.09 82.61 19.68 82.61 18.14C82.61 15.39 83.58 13.21 85.51 11.61C87.45 10.01 90.11 9.21 93.5 9.21C94.81 9.21 96.04 9.33 97.17 9.57C98.31 9.81 99.18 10.07 99.79 10.36V10.74C101.07 11.35 102.13 12.31 102.98 13.62C103.83 14.93 104.25 16.39 104.25 17.99C104.25 19.59 103.82 21.14 102.95 22.45C102.09 23.76 100.82 24.79 99.16 25.52C97.5 26.26 95.56 26.62 93.35 26.62L93.36 26.64ZM93.36 25.92C94.58 25.92 95.55 25.29 96.29 24.02C97.03 22.76 97.39 20.86 97.39 18.33C97.39 15.58 97.04 13.5 96.33 12.09C95.63 10.68 94.68 9.98 93.5 9.98C92.25 9.98 91.28 10.59 90.57 11.8C89.87 13.02 89.51 14.92 89.51 17.51C89.51 20.1 89.85 22.27 90.54 23.73C91.23 25.19 92.16 25.91 93.35 25.91L93.36 25.92ZM106.75 11.52L98.83 10.46L98.06 9.98L106.75 9.02V11.52Z" fill="white"/>
<path d="M108.86 33.6V32.98H109.72C110.23 32.98 110.61 32.87 110.85 32.64C111.09 32.42 111.21 32.05 111.21 31.54V12.1C111.21 11.52 111.07 11.11 110.8 10.85C110.53 10.59 110.14 10.48 109.62 10.51L108.85 10.61V10.03L118.45 9.07L118.69 9.31L118.02 15.69L117.49 16.17H118.35V31.05C118.35 31.72 118.5 32.21 118.81 32.51C119.11 32.81 119.59 32.97 120.23 32.97H122.2V33.59H108.86V33.6ZM115.29 17.52V15.5H118.22C119.24 13.32 120.29 11.68 121.36 10.56C122.43 9.44 123.66 8.88 125.03 8.88C126.18 8.88 127.11 9.24 127.81 9.96C128.51 10.68 128.87 11.66 128.87 12.91C128.87 14.16 128.52 15.09 127.81 15.79C127.11 16.5 126.23 16.85 125.17 16.85C124.5 16.85 123.86 16.72 123.25 16.47C123.22 15.51 123.1 14.77 122.89 14.24C122.68 13.71 122.35 13.45 121.91 13.45C121.43 13.45 120.87 13.71 120.23 14.24C119.59 14.77 118.97 15.58 118.36 16.66L115.29 17.52Z" fill="white"/>
<path d="M136.56 34.08C134.64 34.08 133.14 33.55 132.05 32.5C130.96 31.44 130.42 30.07 130.42 28.37C130.42 26.19 131.4 24.42 133.35 23.04C135.3 21.66 138.37 20.46 142.57 19.44L144.92 18.82V19.35L143 19.88C141.02 20.46 139.52 21.3 138.51 22.42C137.5 23.54 137 24.93 137 26.6C137 27.91 137.32 28.91 137.96 29.6C138.6 30.29 139.42 30.63 140.41 30.63C141.15 30.63 141.84 30.47 142.5 30.15C143.16 29.83 143.69 29.37 144.11 28.76L144.21 29.34C143.63 30.81 142.66 31.97 141.28 32.82C139.9 33.67 138.34 34.09 136.58 34.09L136.56 34.08ZM149.66 34.08C147.84 34.08 146.44 33.7 145.48 32.95C144.52 32.2 144.04 31.19 144.04 29.94V15.26C144.04 13.57 143.62 12.29 142.79 11.45C141.96 10.6 140.81 10.18 139.33 10.18C138.47 10.18 137.67 10.3 136.93 10.54C136.19 10.78 135.46 11.14 134.72 11.62L135.73 10.71L137.55 10.28V18.01C137.2 18.2 136.81 18.37 136.37 18.51C135.94 18.65 135.51 18.73 135.1 18.73C134.14 18.73 133.35 18.43 132.72 17.84C132.1 17.25 131.78 16.47 131.78 15.51C131.78 14.36 132.19 13.3 133 12.34C133.81 11.38 134.98 10.62 136.48 10.06C137.98 9.5 139.76 9.22 141.81 9.22C144.82 9.22 147.15 9.89 148.79 11.24C150.44 12.58 151.26 14.6 151.26 17.29V28.86C151.26 29.69 151.4 30.32 151.69 30.73C151.98 31.15 152.47 31.35 153.18 31.35C153.79 31.35 154.25 31.14 154.57 30.73C154.89 30.31 155.05 29.72 155.05 28.95V27.13H155.63V29C155.63 30.73 155.15 32.01 154.19 32.84C153.23 33.67 151.71 34.09 149.63 34.09L149.66 34.08ZM143.66 29.42H144.38V30.09H143.56L143.66 29.42Z" fill="white"/>
<path d="M166.99 9.31L166.61 13.87L166.18 14.59L166.71 14.69V31.54C166.71 32.02 166.82 32.38 167.05 32.62C167.27 32.86 167.63 32.98 168.11 32.98H169.21V33.6H157.02V32.98H158.12C158.57 32.98 158.91 32.88 159.15 32.67C159.39 32.46 159.51 32.09 159.51 31.54V12.1C159.51 11.62 159.41 11.23 159.2 10.92C158.99 10.62 158.65 10.48 158.17 10.51L157.02 10.61V10.03L166.76 9.07L167 9.31H166.99ZM181.34 31.53C181.34 32.01 181.46 32.37 181.7 32.61C181.94 32.85 182.28 32.97 182.73 32.97H183.83V33.59H171.64V32.97H172.74C173.22 32.97 173.57 32.85 173.8 32.61C174.02 32.37 174.14 32.01 174.14 31.53V17.42C174.14 16.01 173.86 14.89 173.3 14.06C172.74 13.23 171.84 12.81 170.59 12.81C169.79 12.81 169.02 13.03 168.29 13.46C167.55 13.89 167.03 14.41 166.71 15.02L163.64 15.79L163.78 13.73H167.33L166.47 14.55C166.98 13.08 167.92 11.79 169.28 10.69C170.64 9.59 172.31 9.03 174.3 9.03C176.41 9.03 178.12 9.77 179.41 11.24C180.71 12.71 181.35 14.68 181.35 17.14V31.54L181.34 31.53ZM195.98 31.53C195.98 32.04 196.09 32.41 196.32 32.63C196.54 32.85 196.9 32.97 197.38 32.97H198.44V33.59H186.3V32.97H187.4C187.85 32.97 188.19 32.85 188.43 32.61C188.67 32.37 188.79 32.01 188.79 31.53V17.42C188.79 16.04 188.52 14.93 187.97 14.08C187.43 13.23 186.47 12.81 185.09 12.81C184.32 12.81 183.51 13.03 182.67 13.48C181.82 13.93 181.21 14.44 180.82 15.02L177.89 15.79L178.03 13.73H181.44L180.62 14.55C180.97 13.62 181.53 12.74 182.3 11.91C183.07 11.08 184 10.39 185.11 9.85C186.22 9.31 187.44 9.03 188.78 9.03C190.96 9.03 192.7 9.77 194.01 11.24C195.32 12.71 195.98 14.68 195.98 17.14V31.54V31.53Z" fill="white"/>
<path d="M202.22 33.84L201.26 23.66H201.88L202.6 31.29L201.93 24.81C203.15 27.98 204.51 30.23 206.01 31.55C207.51 32.88 209.13 33.54 210.86 33.54C212.04 33.54 212.99 33.22 213.69 32.58C214.39 31.94 214.75 31.06 214.75 29.94C214.75 29.3 214.58 28.72 214.25 28.19C213.92 27.66 213.43 27.19 212.79 26.77C212.15 26.35 211.37 25.97 210.44 25.62L207.94 24.56C206.21 23.89 204.77 22.9 203.62 21.61C202.47 20.31 201.89 18.79 201.89 17.03C201.89 15.49 202.31 14.13 203.14 12.95C203.97 11.77 205.13 10.85 206.62 10.19C208.11 9.53 209.84 9.21 211.83 9.21C212.85 9.21 213.89 9.33 214.95 9.57C216.01 9.81 216.97 10.12 217.83 10.51C218.15 10.61 218.36 10.59 218.45 10.46C218.55 10.33 218.59 10.16 218.59 9.93V9.31H219.17L220.13 18.43H219.51L218.6 10.75L219.61 17.71C218.49 14.99 217.22 13.01 215.79 11.78C214.37 10.55 212.9 9.93 211.4 9.93C210.25 9.93 209.34 10.22 208.66 10.79C207.99 11.37 207.65 12.15 207.65 13.14C207.65 14.07 207.95 14.85 208.54 15.49C209.13 16.13 209.97 16.64 211.06 17.03L214.32 18.18C216.18 18.82 217.69 19.8 218.86 21.13C220.03 22.46 220.61 24.15 220.61 26.19C220.61 27.82 220.2 29.25 219.39 30.46C218.57 31.68 217.39 32.61 215.84 33.27C214.29 33.93 212.44 34.25 210.3 34.25C209.34 34.25 208.27 34.1 207.08 33.79C205.9 33.49 204.79 33.11 203.77 32.66C203.32 32.47 203.04 32.42 202.93 32.52C202.82 32.62 202.76 32.82 202.76 33.14V33.81H202.23L202.22 33.84Z" fill="white"/>
</g>
<defs>
<clipPath id="clip0_548_8691">
<rect width="220.61" height="45.65" fill="white"/>
</clipPath>
</defs>
</svg>
