<svg width="570" height="106" viewBox="0 0 570 106" fill="none" xmlns="http://www.w3.org/2000/svg">
<g clip-path="url(#clip0_548_8790)">
<path d="M0.0498047 33.9135V33.2878H1.29908C1.87875 33.2878 2.2985 33.1465 2.56835 32.8739C2.83819 32.6014 2.97811 32.1573 2.97811 31.5416V2.37193C2.97811 1.75624 2.83819 1.31213 2.56835 1.03961C2.2985 0.767092 1.86875 0.625786 1.29908 0.625786H0.0498047V0H17.9894C21.7672 0 24.6855 0.787279 26.7443 2.35174C28.8032 3.91621 29.8525 6.23767 29.8825 9.30604C29.8825 11.7284 29.3928 13.6865 28.4234 15.1904C27.4439 16.6943 25.9248 17.7945 23.866 18.4809C21.8072 19.1773 19.1388 19.5205 15.8806 19.5205H13.9617V18.7433H15.0611C17.04 18.7433 18.5391 17.9661 19.5485 16.4218C20.5579 14.8675 21.0576 12.6066 21.0576 9.63912C21.0576 6.43954 20.498 4.15845 19.3786 2.78576C18.2593 1.41306 16.6302 0.726719 14.4814 0.726719H11.7031V31.0571C11.7031 31.8343 11.883 32.3995 12.2527 32.7528C12.6225 33.1061 13.2222 33.2878 14.0517 33.2878H15.7307V33.9135H0.0498047Z" fill="#0E2A3F"/>
<path d="M32.4812 33.9136V33.2878H33.3407C33.8504 33.2878 34.2302 33.1768 34.47 32.9446C34.7099 32.7226 34.8298 32.3491 34.8298 31.8343V12.2129C34.8298 11.6275 34.6899 11.2137 34.4201 10.9513C34.1502 10.6888 33.7604 10.5778 33.2407 10.6081L32.4712 10.709V10.1236L42.0656 9.15466L42.3055 9.3969L41.6359 15.8364L41.1062 16.3209H41.9657V31.3398C41.9657 32.016 42.1156 32.5106 42.4254 32.8134C42.7253 33.1162 43.205 33.2777 43.8446 33.2777H45.8135V33.9035H32.4812V33.9136ZM38.9075 17.6835V15.6447H41.8358C42.8552 13.4443 43.9046 11.789 44.974 10.6586C46.0433 9.52812 47.2726 8.96289 48.6418 8.96289C49.7912 8.96289 50.7206 9.32625 51.4202 10.053C52.1198 10.7797 52.4796 11.7688 52.4796 13.0305C52.4796 14.2922 52.1298 15.2308 51.4202 15.9374C50.7206 16.654 49.8411 17.0073 48.7817 17.0073C48.1121 17.0073 47.4725 16.876 46.8629 16.6237C46.8329 15.6548 46.7129 14.9079 46.5031 14.3729C46.2932 13.838 45.9634 13.5755 45.5236 13.5755C45.0439 13.5755 44.4842 13.838 43.8446 14.3729C43.205 14.9079 42.5853 15.7254 41.9757 16.8155L38.9075 17.6835Z" fill="#0E2A3F"/>
<path d="M66.3916 34.4485C63.893 34.4485 61.7143 33.9438 59.8453 32.9446C57.9764 31.9453 56.5273 30.502 55.5079 28.6045C54.4885 26.717 53.9688 24.4965 53.9688 21.9429C53.9688 19.3893 54.4984 17.1788 55.5478 15.3015C56.6072 13.4241 58.1064 11.9808 60.0552 10.9613C62.0041 9.94192 64.2728 9.43726 66.8713 9.43726C69.4698 9.43726 71.5586 9.94192 73.4475 10.9613C75.3364 11.9808 76.7855 13.4241 77.8149 15.3015C78.8344 17.1788 79.3541 19.3893 79.3541 21.9429C79.3541 24.4965 78.8244 26.717 77.775 28.6045C76.7156 30.4919 75.2164 31.9353 73.2676 32.9446C71.3187 33.9438 69.03 34.4485 66.4115 34.4485H66.3916ZM66.5315 33.7722C67.5909 33.7722 68.4704 33.3786 69.1899 32.5812C69.9095 31.7939 70.4492 30.5727 70.819 28.9274C71.1888 27.2822 71.3687 25.1525 71.3687 22.5283C71.3687 18.2285 70.9789 15.0895 70.1894 13.1011C69.4098 11.1127 68.2505 10.1236 66.7114 10.1236C65.652 10.1236 64.7725 10.5071 64.0729 11.2843C63.3733 12.0615 62.8336 13.2828 62.4638 14.9381C62.094 16.6035 61.9142 18.7433 61.9142 21.3575C61.9142 24.2341 62.094 26.5858 62.4438 28.4026C62.7936 30.2295 63.3033 31.5719 63.9829 32.45C64.6626 33.3281 65.5021 33.7621 66.5215 33.7621L66.5315 33.7722Z" fill="#0E2A3F"/>
<path d="M92.8764 46.0759C89.0086 46.0759 86.0203 45.6318 83.9016 44.7436C81.7828 43.8554 80.7334 42.624 80.7334 41.0394C80.7334 39.7777 81.2331 38.7583 82.2225 37.9609C83.212 37.1736 84.5712 36.7093 86.3002 36.5781V35.3165L88.9386 35.5587L89.8481 37.3049C88.0891 37.3351 86.7499 37.648 85.8404 38.2233C84.931 38.8088 84.4712 39.697 84.4712 40.888C84.4712 42.2809 85.2008 43.3709 86.65 44.1582C88.1091 44.9455 90.2679 45.3492 93.1462 45.3492C94.8452 45.3492 96.3044 45.1675 97.5337 44.8143C98.763 44.461 99.7124 43.9563 100.362 43.3104C101.022 42.6644 101.341 41.9175 101.341 41.0798C101.341 40.1411 100.922 39.3639 100.092 38.728C99.2627 38.1022 98.0134 37.749 96.3544 37.6884L89.8281 37.3049C87.8093 37.2039 86.2502 36.6488 85.1309 35.6294C84.0115 34.6099 83.4518 33.3886 83.4518 31.9756C83.4518 30.4616 83.9116 29.2201 84.821 28.2713C85.7305 27.3226 86.9698 26.6665 88.5389 26.3132V25.536L90.5577 25.6774L90.3678 26.5454C89.5083 26.6059 88.8587 26.7977 88.4289 27.1005C87.9992 27.4033 87.7793 27.807 87.7793 28.2915C87.7793 28.776 87.9892 29.1394 88.399 29.3816C88.8187 29.6238 89.4184 29.7752 90.2179 29.8459L97.6536 30.2294C100.432 30.3909 102.591 31.0571 104.13 32.2178C105.669 33.3786 106.429 34.9632 106.429 36.9617C106.429 38.7987 105.889 40.4035 104.799 41.756C103.71 43.1085 102.151 44.1683 100.122 44.9253C98.0933 45.6823 95.6648 46.0659 92.8564 46.0659L92.8764 46.0759ZM93.3561 26.8885C91.0874 26.8885 89.1385 26.505 87.5295 25.7278C85.9104 24.9506 84.6911 23.911 83.8616 22.5989C83.0321 21.2868 82.6123 19.8636 82.6123 18.3092C82.6123 15.5336 83.5817 13.3332 85.5106 11.7183C87.4495 10.1034 90.108 9.2959 93.496 9.2959C94.8053 9.2959 96.0345 9.41702 97.1639 9.65926C98.3032 9.9015 99.1727 10.1639 99.7824 10.4566V10.8402C101.062 11.4559 102.121 12.4248 102.971 13.7471C103.82 15.0693 104.24 16.5429 104.24 18.1578C104.24 19.7728 103.81 21.3372 102.941 22.6595C102.081 23.9817 100.812 25.0213 99.1527 25.7581C97.4937 26.505 95.5548 26.8684 93.3461 26.8684L93.3561 26.8885ZM93.3561 26.1618C94.5754 26.1618 95.5448 25.526 96.2844 24.2441C97.024 22.9723 97.3838 21.0546 97.3838 18.501C97.3838 15.7253 97.034 13.6259 96.3244 12.2028C95.6248 10.7796 94.6753 10.0731 93.496 10.0731C92.2467 10.0731 91.2773 10.6888 90.5677 11.9101C89.8681 13.1415 89.5083 15.0592 89.5083 17.6734C89.5083 20.2875 89.8481 22.4778 90.5377 23.9514C91.2273 25.425 92.1568 26.1517 93.3461 26.1517L93.3561 26.1618ZM106.738 11.6275L98.8229 10.5576L98.0534 10.0731L106.738 9.10413V11.6275Z" fill="#0E2A3F"/>
<path d="M108.847 33.9136V33.2878H109.707C110.217 33.2878 110.596 33.1768 110.836 32.9446C111.076 32.7226 111.196 32.3491 111.196 31.8343V12.2129C111.196 11.6275 111.056 11.2137 110.786 10.9513C110.516 10.6888 110.127 10.5778 109.607 10.6081L108.837 10.709V10.1236L118.432 9.15466L118.672 9.3969L118.002 15.8364L117.472 16.3209H118.332V31.3398C118.332 32.016 118.482 32.5106 118.792 32.8134C119.091 33.1162 119.571 33.2777 120.211 33.2777H122.18V33.9035H108.847V33.9136ZM115.274 17.6835V15.6447H118.202C119.221 13.4443 120.271 11.789 121.34 10.6586C122.41 9.52812 123.639 8.96289 125.008 8.96289C126.157 8.96289 127.087 9.32625 127.786 10.053C128.486 10.7797 128.846 11.7688 128.846 13.0305C128.846 14.2922 128.496 15.2308 127.786 15.9374C127.087 16.654 126.207 17.0073 125.148 17.0073C124.478 17.0073 123.839 16.876 123.229 16.6237C123.199 15.6548 123.079 14.9079 122.869 14.3729C122.659 13.838 122.33 13.5755 121.89 13.5755C121.41 13.5755 120.85 13.838 120.211 14.3729C119.571 14.9079 118.952 15.7254 118.342 16.8155L115.274 17.6835Z" fill="#0E2A3F"/>
<path d="M136.531 34.398C134.612 34.398 133.113 33.8631 132.024 32.8033C130.934 31.7334 130.395 30.3506 130.395 28.6347C130.395 26.4344 131.374 24.6479 133.323 23.255C135.272 21.8621 138.34 20.6509 142.537 19.6214L144.886 18.9956V19.5306L142.967 20.0655C140.988 20.6509 139.489 21.4988 138.48 22.6292C137.47 23.7597 136.971 25.1626 136.971 26.8482C136.971 28.1704 137.291 29.1798 137.93 29.8762C138.57 30.5726 139.389 30.9158 140.379 30.9158C141.118 30.9158 141.808 30.7543 142.468 30.4313C143.127 30.1084 143.657 29.6441 144.077 29.0284L144.177 29.6138C143.597 31.0975 142.627 32.2683 141.248 33.1263C139.869 33.9842 138.31 34.4081 136.551 34.4081L136.531 34.398ZM149.623 34.398C147.804 34.398 146.405 34.0145 145.446 33.2575C144.486 32.5005 144.007 31.481 144.007 30.2194V15.4024C144.007 13.6966 143.587 12.4047 142.757 11.5568C141.928 10.709 140.779 10.275 139.299 10.275C138.44 10.275 137.64 10.3961 136.901 10.6383C136.161 10.8806 135.432 11.2439 134.692 11.7284L135.701 10.8099L137.52 10.3759V18.1781C137.171 18.3698 136.781 18.5414 136.341 18.6827C135.911 18.824 135.482 18.9048 135.072 18.9048C134.112 18.9048 133.323 18.602 132.693 18.0065C132.074 17.411 131.754 16.6237 131.754 15.6547C131.754 14.494 132.164 13.4241 132.973 12.4551C133.783 11.4862 134.952 10.7191 136.451 10.1539C137.95 9.58864 139.729 9.30603 141.778 9.30603C144.786 9.30603 147.115 9.98228 148.754 11.3449C150.403 12.6974 151.222 14.7362 151.222 17.4513V29.1293C151.222 29.967 151.362 30.6029 151.652 31.0168C151.942 31.4407 152.432 31.6425 153.141 31.6425C153.751 31.6425 154.211 31.4306 154.531 31.0168C154.85 30.5928 155.01 29.9973 155.01 29.2201V27.3832H155.59V29.2706C155.59 31.0168 155.11 32.3087 154.151 33.1464C153.191 33.9842 151.672 34.4081 149.593 34.4081L149.623 34.398ZM143.627 29.6945H144.346V30.3708H143.527L143.627 29.6945Z" fill="#0E2A3F"/>
<path d="M166.944 9.39687L166.564 13.9994L166.134 14.7261L166.664 14.8271V31.8343C166.664 32.3188 166.774 32.6821 167.004 32.9244C167.224 33.1666 167.583 33.2878 168.063 33.2878H169.162V33.9135H156.979V33.2878H158.079C158.529 33.2878 158.868 33.1868 159.108 32.9749C159.348 32.7629 159.468 32.3894 159.468 31.8343V12.2129C159.468 11.7284 159.368 11.3348 159.158 11.0219C158.948 10.7191 158.609 10.5778 158.129 10.6081L156.979 10.709V10.1236L166.714 9.15463L166.954 9.39687H166.944ZM181.285 31.8242C181.285 32.3087 181.405 32.6721 181.645 32.9143C181.885 33.1565 182.225 33.2777 182.675 33.2777H183.774V33.9034H171.591V33.2777H172.69C173.17 33.2777 173.52 33.1565 173.75 32.9143C173.97 32.6721 174.09 32.3087 174.09 31.8242V17.5826C174.09 16.1594 173.81 15.0289 173.25 14.1912C172.69 13.3535 171.791 12.9295 170.542 12.9295C169.742 12.9295 168.973 13.1516 168.243 13.5856C167.503 14.0196 166.984 14.5445 166.664 15.1602L163.596 15.9373L163.736 13.8581H167.284L166.424 14.6858C166.934 13.2021 167.873 11.9 169.232 10.7897C170.592 9.67948 172.261 9.11426 174.249 9.11426C176.358 9.11426 178.067 9.86116 179.357 11.3449C180.656 12.8286 181.295 14.817 181.295 17.2999V31.8343L181.285 31.8242ZM195.917 31.8242C195.917 32.339 196.027 32.7124 196.257 32.9345C196.487 33.1565 196.836 33.2777 197.316 33.2777H198.376V33.9034H186.243V33.2777H187.342C187.792 33.2777 188.131 33.1565 188.371 32.9143C188.611 32.6721 188.731 32.3087 188.731 31.8242V17.5826C188.731 16.1897 188.461 15.0693 187.912 14.2114C187.372 13.3535 186.412 12.9295 185.033 12.9295C184.264 12.9295 183.454 13.1516 182.615 13.6058C181.765 14.06 181.155 14.5747 180.766 15.1602L177.837 15.9373L177.977 13.8581H181.385L180.566 14.6858C180.916 13.7471 181.475 12.8589 182.245 12.0211C183.014 11.1834 183.944 10.4869 185.053 9.94191C186.153 9.39687 187.382 9.11426 188.721 9.11426C190.9 9.11426 192.639 9.86116 193.948 11.3449C195.257 12.8286 195.917 14.817 195.917 17.2999V31.8343V31.8242Z" fill="#0E2A3F"/>
<path d="M206.281 18.067C204.972 18.067 203.902 17.6532 203.063 16.8356C202.233 16.008 201.813 14.9179 201.813 13.5654C201.813 12.2129 202.233 11.1632 203.063 10.3456C203.892 9.51799 204.962 9.11426 206.281 9.11426C207.6 9.11426 208.699 9.52808 209.519 10.3456C210.339 11.1632 210.738 12.2432 210.738 13.5654C210.738 14.9583 210.329 16.0484 209.519 16.8558C208.699 17.6633 207.62 18.067 206.281 18.067ZM206.281 34.7816C204.972 34.7816 203.902 34.3677 203.063 33.5502C202.233 32.7225 201.813 31.6324 201.813 30.2799C201.813 28.9274 202.233 27.8777 203.063 27.0299C203.892 26.1921 204.962 25.7682 206.281 25.7682C207.6 25.7682 208.699 26.1921 209.519 27.0299C210.339 27.8676 210.738 28.9476 210.738 30.2799C210.738 31.6728 210.329 32.7629 209.519 33.5704C208.699 34.3778 207.62 34.7816 206.281 34.7816Z" fill="#0E2A3F"/>
<path d="M18.7594 95.0992C14.9216 95.0992 11.5935 94.4432 8.78517 93.1411C5.96681 91.829 3.80806 89.9214 2.28893 87.398C0.769814 84.8747 0.0102539 81.8568 0.0102539 78.3342C0.0102539 74.1657 0.869756 70.7138 2.57877 67.9684C4.28778 65.223 6.57645 63.2044 9.4348 61.9124C12.2931 60.6205 15.4513 59.9745 18.9093 59.9745C20.3185 59.9745 21.7277 60.1158 23.1569 60.3883C24.576 60.6609 25.8153 60.9737 26.8747 61.3371C27.1945 61.438 27.4444 61.438 27.6143 61.3371C27.7942 61.2362 27.8741 61.0343 27.8741 60.7113V59.8837H28.4038L30.7525 73.7923H30.1328L29.793 71.8543C28.7336 68.3318 27.2945 65.5864 25.4755 63.6182C23.6566 61.65 21.5578 60.6608 19.1892 60.6608C17.2403 60.6608 15.5313 61.2765 14.0521 62.4978C12.583 63.7292 11.4336 65.4855 10.6241 67.7766C9.80458 70.0678 9.40481 72.7627 9.40481 75.8715C9.40481 79.7776 9.85456 83.1185 10.744 85.9042C11.6435 88.6799 12.8928 90.7995 14.5119 92.2529C16.1309 93.7064 18.0198 94.4331 20.1986 94.4331C22.6971 94.4331 24.7759 93.4439 26.4549 91.4757C28.134 89.5075 29.5132 86.5704 30.6025 82.6542L30.9423 80.7667H31.562L29.1634 95.2002H28.5837L28.6837 94.3321C28.7136 94.0394 28.6337 93.8477 28.4438 93.7467C28.2539 93.6458 27.9941 93.6357 27.6742 93.6963C26.5849 94.0798 25.2956 94.4129 23.7865 94.6854C22.2874 94.9579 20.6083 95.0992 18.7494 95.0992H18.7594Z" fill="#0E2A3F"/>
<path d="M34.8799 94.4735V93.8477H35.7394C36.2491 93.8477 36.6289 93.7266 36.8687 93.4844C37.1086 93.2421 37.2285 92.8485 37.2285 92.2933V72.571C37.2285 72.0562 37.0886 71.6727 36.8188 71.4305C36.5489 71.1882 36.1192 71.0974 35.5495 71.168L34.8799 71.269V70.6835L44.0945 69.5228L44.3844 69.8155V92.2933C44.3844 92.8384 44.5043 93.2421 44.7442 93.4844C44.984 93.7266 45.3638 93.8477 45.8735 93.8477H46.6431V94.4735H34.8899H34.8799ZM40.7765 67.2014C39.5272 67.2014 38.5278 66.8178 37.7782 66.0608C37.0286 65.3038 36.6489 64.3046 36.6489 63.0833C36.6489 61.862 37.0286 60.8628 37.7982 60.1058C38.5677 59.3488 39.5572 58.9652 40.7765 58.9652C41.9958 58.9652 43.0252 59.3488 43.7747 60.1058C44.5243 60.8628 44.9041 61.862 44.9041 63.0833C44.9041 64.3046 44.5243 65.3442 43.7747 66.0911C43.0252 66.838 42.0257 67.2014 40.7765 67.2014Z" fill="#0E2A3F"/>
<path d="M57.6668 95.2507C55.648 95.2507 54.0889 94.6451 52.9895 93.4339C51.8901 92.2227 51.3305 90.6279 51.3305 88.6597V71.168H49.2217V70.5422H51.3305L57.8567 62.7906V60.5599H58.4763V70.5422L65.0025 70.0577V71.4607L58.4763 71.168V87.499C58.4763 89.1139 58.7362 90.2747 59.2459 90.9913C59.7556 91.6978 60.5251 92.0612 61.5445 92.0612C62.2142 92.0612 62.8338 91.8795 63.3935 91.5262C63.9532 91.173 64.4429 90.5875 64.8526 89.7801L65.2824 90.0223C64.6428 91.6978 63.6733 92.9898 62.3841 93.8982C61.0848 94.8066 59.5157 95.2507 57.6568 95.2507H57.6668Z" fill="#0E2A3F"/>
<path d="M68.0707 72.6214C67.8108 72.036 67.571 71.6423 67.3311 71.4304C67.0913 71.2184 66.7315 71.1175 66.2517 71.1175H65.9619V70.5321H79.3442V71.1175H77.4253C76.7856 71.1175 76.3559 71.3092 76.126 71.7029C75.9062 72.0864 75.9361 72.5911 76.226 73.2068L82.8921 87.7412L78.8644 95.9773L68.0707 72.6214ZM68.5504 106V105.657L78.8644 95.725L86.8298 77.7993C87.3096 76.6991 87.5894 75.6292 87.6693 74.5795C87.7493 73.5298 87.5994 72.692 87.2096 72.0562C86.8298 71.4304 86.2302 71.1074 85.4306 71.1074H84.5711V70.522H92.5865V71.1074H92.3466C91.767 71.1074 91.2273 71.3698 90.7176 71.9048C90.2079 72.4397 89.6282 73.4188 88.9886 74.8318L75.0766 105.98H68.5504V106ZM81.6029 87.7311L81.5029 87.0548H83.3718L83.082 87.7311H81.5929H81.6029Z" fill="#0E2A3F"/>
<path d="M93.5459 94.4734V93.8477L105.779 71.3194V71.1781H103.67C102.231 71.1781 100.872 71.5212 99.5924 72.1975C98.3131 72.8737 97.2538 73.7821 96.4042 74.9126C95.5547 76.043 95.0051 77.2845 94.7452 78.6471L94.4554 80.2419H93.8757L95.175 69.6338H95.4648L96.2343 70.5523H114.364V71.1377L102.181 93.666V93.8577H104.629C107.158 93.8577 109.257 93.0604 110.936 91.4555C112.615 89.8608 113.664 87.6705 114.074 84.8949L114.364 83.1487H114.894L114.034 94.4835H93.5459V94.4734Z" fill="#0E2A3F"/>
<path d="M129.625 95.2002C127.416 95.2002 125.428 94.6652 123.649 93.6054C121.87 92.5355 120.48 91.0619 119.471 89.1745C118.462 87.287 117.962 85.1472 117.962 82.7551C117.962 80.1712 118.462 77.9204 119.471 75.9926C120.48 74.0749 121.89 72.5811 123.689 71.5313C125.498 70.4816 127.546 69.9568 129.855 69.9568C131.874 69.9568 133.663 70.3807 135.232 71.2386C136.801 72.0966 138.02 73.3078 138.9 74.8722C139.779 76.4367 140.219 78.2434 140.219 80.2722V80.4135H124.438L124.388 79.6867H129.905C131.474 79.6867 132.583 79.4344 133.243 78.9398C133.903 78.4352 134.223 77.5268 134.223 76.2046C134.223 75.175 134.033 74.2263 133.643 73.3683C133.263 72.5104 132.723 71.8442 132.034 71.3598C131.344 70.8753 130.535 70.633 129.615 70.633C128.596 70.633 127.716 70.9459 126.977 71.5818C126.237 72.2076 125.677 73.1564 125.298 74.418C124.918 75.6797 124.718 77.224 124.718 79.071C124.718 81.4329 125.058 83.4415 125.727 85.1069C126.397 86.7723 127.366 88.044 128.626 88.9322C129.885 89.8204 131.434 90.2645 133.253 90.2645C135.072 90.2645 136.521 89.8103 137.79 88.912C139.05 88.0036 139.929 86.7319 140.409 85.0867L140.889 85.228C140.439 88.3973 139.23 90.85 137.271 92.5961C135.302 94.3422 132.753 95.2103 129.615 95.2103L129.625 95.2002Z" fill="#0E2A3F"/>
<path d="M143.437 94.4734V93.8476H144.636C145.056 93.8476 145.376 93.7366 145.596 93.5044C145.816 93.2824 145.936 92.9089 145.936 92.3942V72.7728C145.936 72.2883 145.836 71.8946 145.626 71.5817C145.416 71.2789 145.056 71.1376 144.546 71.1679L143.447 71.2689V70.6834L153.181 69.7145L153.471 69.9567L153.041 74.5593L152.702 75.286L153.131 75.3869V92.3942C153.131 92.8484 153.241 93.2016 153.471 93.4641C153.691 93.7265 154.061 93.8476 154.571 93.8476H155.67V94.4734H143.437ZM158.119 94.4734V93.8476H159.268C159.748 93.8476 160.097 93.7265 160.327 93.4842C160.557 93.242 160.667 92.8786 160.667 92.3942V78.1525C160.667 76.6991 160.377 75.5585 159.808 74.741C159.228 73.9133 158.318 73.5096 157.069 73.5096C156.24 73.5096 155.46 73.7316 154.74 74.1656C154.021 74.5997 153.481 75.1245 153.131 75.7402L150.153 76.4669L150.253 74.4281H153.751L152.892 75.2557C153.401 73.772 154.351 72.47 155.72 71.3597C157.099 70.2494 158.778 69.6842 160.757 69.6842C162.896 69.6842 164.615 70.4311 165.914 71.9148C167.213 73.3985 167.853 75.3869 167.853 77.8699V92.4043C167.853 92.919 167.963 93.2925 168.193 93.5145C168.423 93.7366 168.752 93.8577 169.202 93.8577H170.351V94.4835H158.119V94.4734Z" fill="#0E2A3F"/>
<path d="M174.089 94.7157L173.13 84.4407H173.75L174.469 92.1419L173.799 85.6014C175.019 88.801 176.378 91.072 177.877 92.4043C179.376 93.7366 180.995 94.4129 182.724 94.4129C183.904 94.4129 184.853 94.0899 185.553 93.4439C186.252 92.7979 186.612 91.9097 186.612 90.7793C186.612 90.1333 186.442 89.5479 186.112 89.013C185.783 88.478 185.293 88.0036 184.653 87.5797C184.014 87.1558 183.234 86.7722 182.305 86.419L179.806 85.3491C178.077 84.6728 176.638 83.6736 175.489 82.3715C174.339 81.0594 173.76 79.5252 173.76 77.7488C173.76 76.1944 174.179 74.8217 175.009 73.6307C175.838 72.4397 176.998 71.5111 178.487 70.845C179.976 70.1788 181.705 69.8558 183.694 69.8558C184.713 69.8558 185.753 69.977 186.812 70.2192C187.871 70.4614 188.831 70.7743 189.69 71.168C190.01 71.2689 190.22 71.2487 190.31 71.1175C190.41 70.9863 190.45 70.8147 190.45 70.5826V69.9568H191.03L191.989 79.1619H191.369L190.46 71.4102L191.469 78.4352C190.35 75.6898 189.081 73.6913 187.651 72.4498C186.232 71.2083 184.763 70.5826 183.264 70.5826C182.115 70.5826 181.205 70.8753 180.526 71.4506C179.856 72.036 179.516 72.8233 179.516 73.8225C179.516 74.7612 179.816 75.5485 180.406 76.1944C180.995 76.8404 181.835 77.3552 182.924 77.7488L186.182 78.9095C188.041 79.5555 189.55 80.5447 190.72 81.8871C191.889 83.2295 192.469 84.9353 192.469 86.9943C192.469 88.6395 192.059 90.0828 191.249 91.3041C190.43 92.5355 189.251 93.4742 187.701 94.1404C186.152 94.8065 184.303 95.1295 182.165 95.1295C181.205 95.1295 180.136 94.9781 178.947 94.6652C177.767 94.3624 176.658 93.9789 175.638 93.5247C175.189 93.3329 174.909 93.2824 174.799 93.3834C174.689 93.4843 174.629 93.6862 174.629 94.0091V94.6854H174.099L174.089 94.7157Z" fill="#0E2A3F"/>
<path d="M195.627 94.4734V93.8476H196.487C196.966 93.8476 197.316 93.7366 197.546 93.5044C197.776 93.2723 197.886 92.9089 197.886 92.3942V62.5987C197.886 61.9225 197.786 61.4683 197.596 61.2462C197.406 61.0241 197.066 60.9737 196.587 61.1049L195.387 61.4481V60.8223L206.321 57.5319V58.1173L205.022 58.6018V92.4144C205.022 92.9291 205.152 93.3026 205.401 93.5246C205.661 93.7467 206.021 93.8678 206.501 93.8678H207.36V94.4936H195.607L195.627 94.4734ZM219.753 92.3942C219.753 92.9089 219.873 93.2824 220.113 93.5044C220.353 93.7265 220.693 93.8476 221.142 93.8476H222.242V94.4734H210.059V93.8476H211.208C211.658 93.8476 211.998 93.7265 212.237 93.4843C212.477 93.242 212.597 92.8787 212.597 92.3942V78.1525C212.597 76.6991 212.307 75.5585 211.738 74.741C211.158 73.9133 210.249 73.5096 208.999 73.5096C208.14 73.5096 207.34 73.7316 206.621 74.1656C205.901 74.5997 205.361 75.1245 205.012 75.7402L202.033 76.5174L202.173 74.2868H205.631L204.812 75.2557C205.321 73.772 206.251 72.47 207.59 71.3597C208.929 70.2494 210.628 69.6842 212.677 69.6842C214.726 69.6842 216.495 70.4311 217.784 71.9148C219.083 73.3986 219.723 75.3869 219.723 77.8699V92.4043L219.753 92.3942Z" fill="#0E2A3F"/>
<path d="M224.65 94.4735V93.8477H225.51C226.02 93.8477 226.399 93.7266 226.639 93.4844C226.879 93.2421 226.999 92.8485 226.999 92.2933V72.571C226.999 72.0562 226.859 71.6727 226.589 71.4305C226.319 71.1882 225.89 71.0974 225.32 71.168L224.65 71.269V70.6835L233.865 69.5228L234.155 69.8155V92.2933C234.155 92.8384 234.275 93.2421 234.515 93.4844C234.755 93.7266 235.134 93.8477 235.644 93.8477H236.414V94.4735H224.66H224.65ZM230.547 67.2014C229.298 67.2014 228.298 66.8178 227.549 66.0608C226.799 65.3038 226.419 64.3046 226.419 63.0833C226.419 61.862 226.799 60.8628 227.569 60.1058C228.338 59.3488 229.328 58.9652 230.547 58.9652C231.766 58.9652 232.796 59.3488 233.545 60.1058C234.295 60.8628 234.675 61.862 234.675 63.0833C234.675 64.3046 234.295 65.3442 233.545 66.0911C232.796 66.838 231.796 67.2014 230.547 67.2014Z" fill="#0E2A3F"/>
<path d="M238.522 106V105.374H239.861C240.341 105.374 240.701 105.263 240.941 105.031C241.18 104.809 241.3 104.436 241.3 103.921V72.9141C241.3 72.2984 241.17 71.8442 240.921 71.5616C240.671 71.279 240.261 71.1376 239.721 71.178L238.762 71.279V70.6935L248.456 69.6237L248.746 69.9164L248.166 74.0344H248.456V103.931C248.456 104.415 248.566 104.779 248.796 105.021C249.016 105.263 249.386 105.384 249.895 105.384H251.864V106.01H238.532L238.522 106ZM253.633 95.1496C252.484 95.1496 251.444 95.0285 250.515 94.7863C249.586 94.5441 248.766 94.2009 248.066 93.7467L247.967 92.7273C248.386 93.0502 248.866 93.3026 249.426 93.4742C249.985 93.6558 250.555 93.7366 251.125 93.7366C253.144 93.7366 254.753 92.8988 255.972 91.2133C257.191 89.5378 257.791 87.1456 257.791 84.047C257.791 81.887 257.531 80.0299 257.001 78.4755C256.472 76.9211 255.722 75.7503 254.743 74.963C253.763 74.1757 252.624 73.772 251.315 73.772C250.645 73.772 250.015 73.9032 249.416 74.1556C248.826 74.418 248.356 74.7511 247.996 75.175L248.046 74.7914C248.266 74.1757 248.666 73.4995 249.226 72.7526C249.785 72.0057 250.645 71.3395 251.794 70.744C252.944 70.1485 254.403 69.8457 256.162 69.8457C257.921 69.8457 259.53 70.3605 260.979 71.4001C262.438 72.4296 263.587 73.8729 264.437 75.7099C265.286 77.5469 265.706 79.6362 265.706 81.9577C265.706 84.6425 265.197 86.9741 264.167 88.9624C263.148 90.9508 261.709 92.4749 259.87 93.5448C258.031 94.6147 255.942 95.1396 253.613 95.1396L253.633 95.1496Z" fill="#0E2A3F"/>
<path d="M286.964 93.02C287.344 93.3128 287.784 93.5348 288.263 93.6963C288.743 93.8578 289.193 93.9385 289.603 93.9385C292.101 93.9385 294.04 93.0301 295.429 91.2234C296.818 89.4167 297.518 86.8127 297.518 83.4213C297.518 81.2916 297.278 79.5051 296.798 78.0718C296.319 76.6386 295.659 75.5485 294.83 74.8016C294 74.0547 293.011 73.6913 291.851 73.6913C291.052 73.6913 290.352 73.8326 289.743 74.1052C289.133 74.3777 288.603 74.741 288.163 75.1952V75.2457L287.924 75.0035C288.533 73.4491 289.563 72.2076 291.022 71.2689C292.481 70.3303 294.08 69.866 295.839 69.866C297.598 69.866 299.257 70.3706 300.706 71.3699C302.165 72.3691 303.315 73.7721 304.164 75.5586C305.014 77.3451 305.433 79.3941 305.433 81.6852C305.433 84.5618 304.894 86.9943 303.804 88.9726C302.715 90.961 301.166 92.475 299.147 93.5247C297.128 94.5744 294.73 95.0993 291.951 95.0993C290.702 95.0993 289.333 94.968 287.854 94.7157C286.364 94.4533 284.985 94.1202 283.706 93.6963L281.357 95.0993H281.018V62.5887C281.018 61.9124 280.918 61.4582 280.728 61.2362C280.538 61.0141 280.218 60.9637 279.768 61.0949L278.519 61.4381V60.8123L289.503 57.5219V58.1073L288.203 58.5917V94.0597L286.954 93.0402L286.964 93.02ZM287.874 73.9841H288.643L288.593 74.519H287.874V73.9841Z" fill="#0E2A3F"/>
<path d="M308.032 72.6214C307.772 72.036 307.532 71.6423 307.292 71.4304C307.052 71.2184 306.692 71.1175 306.213 71.1175H305.923V70.5321H319.305V71.1175H317.386C316.747 71.1175 316.317 71.3092 316.087 71.7029C315.867 72.0864 315.897 72.5911 316.187 73.2068L322.853 87.7412L318.825 95.9773L308.032 72.6214ZM308.511 106V105.657L318.825 95.725L326.791 77.7993C327.27 76.6991 327.55 75.6292 327.63 74.5795C327.71 73.5298 327.56 72.692 327.171 72.0562C326.791 71.4304 326.191 71.1074 325.392 71.1074H324.532V70.522H332.547V71.1074H332.308C331.728 71.1074 331.188 71.3698 330.679 71.9048C330.169 72.4397 329.589 73.4188 328.95 74.8318L315.038 105.98H308.511V106ZM321.564 87.7311L321.464 87.0548H323.333L323.043 87.7311H321.554H321.564Z" fill="#0E2A3F"/>
<path d="M341.413 94.4734L341.513 93.9385H342.852C343.431 93.9385 343.911 93.777 344.291 93.454C344.671 93.131 344.931 92.6768 345.061 92.1015L352.156 62.9318C352.286 62.3161 352.246 61.8619 352.036 61.549C351.827 61.2462 351.437 61.0847 350.857 61.0847H349.518L349.658 60.5498H360.981L360.881 61.0847H359.542C359.002 61.0847 358.543 61.2361 358.173 61.549C357.803 61.8518 357.553 62.3161 357.433 62.9318L350.337 92.1015C350.178 92.7172 350.198 93.1714 350.387 93.4843C350.577 93.7871 350.967 93.9486 351.537 93.9486H352.836L352.736 94.4835H341.413V94.4734Z" fill="#0E2A3F"/>
<path d="M375.713 95.1497C374.374 95.1497 373.444 94.7258 372.925 93.8881C372.405 93.0503 372.385 91.8088 372.825 90.1535L376.083 78.2838C376.532 76.5377 376.542 75.1952 376.113 74.2667C375.683 73.328 374.893 72.8637 373.734 72.8637C372.775 72.8637 371.765 73.2573 370.716 74.0547C369.656 74.8521 368.677 75.9724 367.767 77.4461C366.858 78.9197 366.158 80.6355 365.679 82.6037L362.8 94.4735H358.293L363.47 73.3482C363.6 72.8637 363.56 72.4801 363.35 72.1874C363.14 71.8947 362.78 71.7837 362.271 71.8443L361.211 71.9856L361.351 71.4506L368.737 70.4312L368.877 70.6734L366.718 77.6479H366.858C367.877 75.5182 369.227 73.7721 370.886 72.4196C372.545 71.0671 374.294 70.3807 376.113 70.3807C378.221 70.3807 379.661 71.057 380.43 72.3893C381.2 73.7317 381.23 75.71 380.53 78.3242L377.272 90.3857C377.052 91.2234 377.052 91.8694 377.272 92.3236C377.492 92.7778 377.892 92.9999 378.471 92.9999C378.921 92.9999 379.401 92.8182 379.91 92.4649C380.42 92.1116 380.9 91.5767 381.35 90.8702L381.779 91.1629C380.95 92.4851 380.02 93.4843 379.001 94.1404C377.972 94.8066 376.872 95.1295 375.693 95.1295L375.713 95.1497Z" fill="#0E2A3F"/>
<path d="M397.4 71.2689C395.541 73.2371 394.062 75.1549 392.963 77.012C391.863 78.8692 391.104 80.797 390.684 82.8056C390.234 84.683 390.164 86.308 390.464 87.7009C390.764 89.0937 391.363 90.1535 392.243 90.9004C393.122 91.6473 394.222 92.0107 395.531 92.0107C396.84 92.0107 398.21 91.5464 399.439 90.6077C400.668 89.6691 401.737 88.4478 402.657 86.9237C403.566 85.4097 404.246 83.7947 404.696 82.0789C404.986 80.9181 405.155 79.5757 405.225 78.0617C405.285 76.5477 405.255 75.2861 405.125 74.2868L406.135 74.63L405.895 77.6378L401.098 72.6921C401.318 71.9452 401.687 71.38 402.197 70.9964C402.707 70.6129 403.257 70.411 403.826 70.411C404.816 70.411 405.525 70.9157 405.965 71.9351C406.395 72.9545 406.585 74.2767 406.545 75.9119C406.495 77.547 406.245 79.2931 405.805 81.1705C405.165 83.7241 404.196 86.0657 402.907 88.1954C401.618 90.3251 400.048 92.0107 398.229 93.2623C396.411 94.5038 394.452 95.1295 392.373 95.1295C390.714 95.1295 389.285 94.7359 388.105 93.9385C386.926 93.1512 386.096 92.0309 385.637 90.5976C385.177 89.1644 385.177 87.5091 385.657 85.6317C386.196 83.2699 387.166 81.2714 388.555 79.6262C389.944 77.981 391.553 76.5881 393.372 75.4577L393.712 74.8319H386.756L386.996 73.9639C387.256 73.0252 387.706 72.3186 388.365 71.8342C389.025 71.3497 389.874 71.1074 390.934 71.1074H397.27L397.41 71.2992L397.4 71.2689Z" fill="#0E2A3F"/>
<path d="M416.399 95.0993C414.67 95.0993 413.201 94.5744 411.982 93.5247C410.762 92.475 409.933 91.0216 409.483 89.1644C409.033 87.3072 409.103 85.1977 409.673 82.846C410.253 80.3933 411.222 78.2333 412.601 76.3762C413.98 74.519 415.569 73.0858 417.378 72.0663C419.187 71.0469 421.016 70.5422 422.875 70.5422C424.444 70.5422 425.734 70.9258 426.733 71.6828C427.742 72.4398 428.242 73.439 428.242 74.6603C428.242 76.4973 427.553 78.0113 426.183 79.1922C424.804 80.3731 423.015 81.221 420.806 81.7357C418.598 82.2505 416.219 82.5129 413.661 82.5129L413.611 81.8871C415.629 81.8871 417.508 81.544 419.267 80.8677C421.026 80.1915 422.445 79.2427 423.515 78.0315C424.584 76.8203 425.124 75.4678 425.124 73.9841C425.124 73.116 424.904 72.4196 424.454 71.9048C424.005 71.3901 423.335 71.1277 422.435 71.1277C421.316 71.1277 420.227 71.5314 419.177 72.3388C418.118 73.1463 417.159 74.2768 416.299 75.7302C415.44 77.1836 414.76 78.8288 414.28 80.6759C413.741 82.9368 413.561 84.9151 413.751 86.6108C413.94 88.3065 414.48 89.6287 415.36 90.5876C416.239 91.5363 417.418 92.0208 418.888 92.0208C420.357 92.0208 421.736 91.5666 423.105 90.6683C424.484 89.7599 425.664 88.3872 426.653 86.5502L427.083 86.7925C425.834 89.5681 424.304 91.6575 422.505 93.0402C420.696 94.4331 418.658 95.1195 416.389 95.1195L416.399 95.0993Z" fill="#0E2A3F"/>
<path d="M436.397 95.0589C435.118 95.0589 433.919 94.8368 432.799 94.4028C431.68 93.9688 430.791 93.3935 430.141 92.6869C429.481 91.9804 429.162 91.2133 429.162 90.4058C429.162 89.6589 429.381 89.0836 429.811 88.6597C430.241 88.2358 430.841 88.0339 431.61 88.0339C431.96 90.1636 432.63 91.7281 433.599 92.7071C434.578 93.6963 435.798 94.1807 437.267 94.1807C438.326 94.1807 439.236 93.8981 440.005 93.3329C440.775 92.7677 441.265 92.0006 441.494 91.0316C441.784 89.9012 441.674 88.8515 441.155 87.8825C440.635 86.9136 439.825 86.0455 438.706 85.2684L436.447 83.5727C435.138 82.5734 434.189 81.4632 433.619 80.252C433.039 79.0408 432.949 77.6883 433.329 76.2046C433.779 74.4281 434.748 73.0353 436.258 72.036C437.757 71.0368 439.436 70.5321 441.295 70.5321C442.634 70.5321 443.873 70.7441 444.992 71.1579C446.112 71.5717 446.991 72.1168 447.631 72.7829C448.271 73.4491 448.59 74.1354 448.59 74.842C448.59 75.5485 448.36 76.0229 447.891 76.3459C447.431 76.6688 446.791 76.8303 445.992 76.8303C445.802 75.7302 445.452 74.7713 444.932 73.9437C444.423 73.116 443.793 72.4801 443.034 72.0259C442.284 71.5717 441.474 71.3497 440.615 71.3497C439.686 71.3497 438.876 71.5919 438.166 72.0764C437.467 72.5609 437.027 73.227 436.867 74.0648C436.647 75.1952 436.767 76.1844 437.247 77.0221C437.727 77.8599 438.496 78.6673 439.546 79.4445L441.804 81.1402C443.213 82.1697 444.263 83.3405 444.972 84.6325C445.672 85.9244 445.822 87.398 445.402 89.0432C445.112 90.2343 444.543 91.2941 443.673 92.2126C442.804 93.131 441.744 93.8376 440.485 94.3221C439.226 94.8065 437.857 95.0488 436.387 95.0488L436.397 95.0589Z" fill="#0E2A3F"/>
<path d="M454.627 95.0992C453.088 95.0992 451.969 94.5945 451.269 93.5953C450.569 92.5961 450.44 91.2234 450.889 89.4772L455.207 71.6524H452.618L452.758 71.067H455.347L460.674 65.3542L461.343 62.6896H461.963L459.854 71.067L467.1 70.7743L466.86 71.8442L459.714 71.6524L455.497 88.9019C455.177 90.2948 455.167 91.3243 455.477 92.0006C455.776 92.6768 456.426 93.02 457.415 93.02C458.155 93.02 458.885 92.7677 459.624 92.2731C460.364 91.7684 461.113 91.0215 461.883 90.0223L462.223 90.315C461.263 91.829 460.124 93.0099 458.815 93.8476C457.505 94.6854 456.106 95.1093 454.637 95.1093L454.627 95.0992Z" fill="#0E2A3F"/>
<path d="M496.083 95.1496C494.774 95.1496 493.854 94.7257 493.324 93.888C492.795 93.0502 492.755 91.8088 493.204 90.1535L496.463 78.2837C496.942 76.5376 496.972 75.1952 496.563 74.2666C496.143 73.3279 495.383 72.8636 494.264 72.8636C493.364 72.8636 492.405 73.2573 491.366 74.0546C490.326 74.852 489.357 75.9824 488.467 77.4662C487.568 78.9499 486.888 80.6657 486.408 82.6037L483.43 94.4734H478.973L483.1 78.2938C483.52 76.5477 483.52 75.2053 483.1 74.2767C482.681 73.338 481.921 72.8737 480.802 72.8737C479.902 72.8737 478.943 73.2673 477.903 74.0647C476.864 74.8621 475.884 75.9925 474.975 77.4763C474.066 78.96 473.366 80.6758 472.886 82.6138L470.008 94.4835H465.5L470.678 73.3582C470.807 72.8434 470.767 72.4498 470.558 72.1975C470.348 71.935 470.008 71.824 469.528 71.8543L468.429 72.0461L468.569 71.4606L475.954 70.4412L476.094 70.6835L473.936 77.6579H474.076C475.095 75.5282 476.434 73.7821 478.083 72.4296C479.732 71.0771 481.431 70.3907 483.19 70.3907C485.139 70.3907 486.458 71.0064 487.148 72.2277C487.838 73.4591 487.908 75.2658 487.368 77.6579H487.558C488.547 75.5282 489.876 73.7821 491.535 72.4296C493.194 71.0771 494.913 70.3907 496.672 70.3907C498.691 70.3907 500.07 71.067 500.82 72.4296C501.57 73.7821 501.6 75.7604 500.89 78.3443L497.672 90.4058C497.452 91.2435 497.452 91.8895 497.672 92.3437C497.892 92.7979 498.311 93.02 498.921 93.02C499.371 93.02 499.841 92.8383 500.34 92.485C500.84 92.1317 501.32 91.5968 501.799 90.8903L502.179 91.183C501.38 92.5052 500.46 93.5044 499.421 94.1605C498.381 94.8267 497.272 95.1496 496.083 95.1496Z" fill="#0E2A3F"/>
<path d="M512.673 95.0993C510.944 95.0993 509.475 94.5744 508.256 93.5247C507.037 92.475 506.207 91.0216 505.757 89.1644C505.308 87.3072 505.378 85.1977 505.947 82.846C506.527 80.3933 507.496 78.2333 508.876 76.3762C510.255 74.519 511.844 73.0858 513.653 72.0663C515.462 71.0469 517.291 70.5422 519.15 70.5422C520.719 70.5422 522.008 70.9258 523.007 71.6828C524.017 72.4398 524.517 73.439 524.517 74.6603C524.517 76.4973 523.827 78.0113 522.458 79.1922C521.079 80.3731 519.29 81.221 517.081 81.7357C514.872 82.2505 512.494 82.5129 509.935 82.5129L509.885 81.8871C511.904 81.8871 513.783 81.544 515.542 80.8677C517.301 80.1915 518.72 79.2427 519.789 78.0315C520.859 76.8203 521.398 75.4678 521.398 73.9841C521.398 73.116 521.179 72.4196 520.729 71.9048C520.279 71.3901 519.609 71.1277 518.71 71.1277C517.591 71.1277 516.501 71.5314 515.452 72.3388C514.392 73.1463 513.433 74.2768 512.573 75.7302C511.714 77.1836 511.034 78.8288 510.555 80.6759C510.015 82.9368 509.835 84.9151 510.025 86.6108C510.215 88.3065 510.755 89.6287 511.634 90.5876C512.513 91.5363 513.693 92.0208 515.162 92.0208C516.631 92.0208 518.01 91.5666 519.38 90.6683C520.759 89.7599 521.938 88.3872 522.927 86.5502L523.357 86.7925C522.108 89.5681 520.579 91.6575 518.78 93.0402C516.971 94.4331 514.932 95.1195 512.663 95.1195L512.673 95.0993Z" fill="#0E2A3F"/>
<path d="M543.766 95.1497C542.426 95.1497 541.497 94.7258 540.987 93.8881C540.477 93.0503 540.448 91.8088 540.887 90.1535L544.145 78.2838C544.595 76.5377 544.605 75.1952 544.165 74.2667C543.736 73.328 542.946 72.8637 541.787 72.8637C540.827 72.8637 539.818 73.2573 538.769 74.0547C537.709 74.8521 536.73 75.9724 535.82 77.4461C534.911 78.9197 534.211 80.6355 533.731 82.6037L530.853 94.4735H526.346L531.523 73.3482C531.653 72.8637 531.613 72.4801 531.403 72.1874C531.193 71.8947 530.833 71.7837 530.323 71.8443L529.264 71.9856L529.404 71.4506L536.79 70.4312L536.93 70.6734L534.771 77.6479H534.911C535.93 75.5182 537.279 73.7721 538.938 72.4196C540.597 71.0671 542.346 70.3807 544.165 70.3807C546.274 70.3807 547.713 71.057 548.483 72.3893C549.252 73.7317 549.282 75.71 548.583 78.3242L545.325 90.3857C545.105 91.2234 545.105 91.8694 545.325 92.3236C545.545 92.7778 545.944 92.9999 546.524 92.9999C546.974 92.9999 547.453 92.8182 547.963 92.4649C548.473 92.1116 548.953 91.5767 549.402 90.8702L549.832 91.1629C549.003 92.4851 548.073 93.4843 547.054 94.1404C546.034 94.8066 544.925 95.1295 543.746 95.1295L543.766 95.1497Z" fill="#0E2A3F"/>
<path d="M557.527 95.0992C555.988 95.0992 554.869 94.5945 554.169 93.5953C553.47 92.5961 553.34 91.2234 553.79 89.4772L558.107 71.6524H555.519L555.659 71.067H558.247L563.574 65.3542L564.244 62.6896H564.863L562.754 71.067L570 70.7743L569.76 71.8442L562.615 71.6524L558.397 88.9019C558.077 90.2948 558.067 91.3243 558.377 92.0006C558.677 92.6768 559.326 93.02 560.316 93.02C561.055 93.02 561.785 92.7677 562.525 92.2731C563.264 91.7684 564.014 91.0215 564.783 90.0223L565.123 90.315C564.164 91.829 563.024 93.0099 561.715 93.8476C560.406 94.6854 559.007 95.1093 557.537 95.1093L557.527 95.0992Z" fill="#0E2A3F"/>
</g>
<defs>
<clipPath id="clip0_548_8790">
<rect width="570" height="106" fill="white"/>
</clipPath>
</defs>
</svg>
