<svg width="533" height="75" viewBox="0 0 533 75" fill="none" xmlns="http://www.w3.org/2000/svg">
<g clip-path="url(#clip0_457_4759)">
<path d="M19.3146 17.5475L19.4808 16.4831H19.8825L18.8853 25.3087H0.402344V24.8802H1.19872C1.62115 24.8802 1.93278 24.7835 2.12668 24.5969C2.32751 24.4103 2.42446 24.1062 2.42446 23.6846V3.71821C2.42446 3.29663 2.32751 2.99254 2.12668 2.80594C1.92585 2.61933 1.61423 2.52258 1.19872 2.52258H0.402344V2.09409H18.0889L18.8507 10.422H18.4213L18.2897 9.33008C18.1789 8.22429 17.805 7.15306 17.1748 6.10948C16.5446 5.0728 15.6998 4.22273 14.6472 3.57308C13.5946 2.92343 12.4381 2.59169 11.1708 2.59169H8.47695V13.2072H10.6376C11.7871 13.2072 12.6943 12.8755 13.3453 12.212C13.9962 11.5486 14.3286 10.6501 14.3286 9.52359V8.82556H14.758V18.0796H14.3286V17.347C14.3286 16.5937 14.1901 15.9441 13.9131 15.3912C13.6361 14.8383 13.2206 14.4167 12.6666 14.1333C12.1126 13.8431 11.4339 13.7048 10.6376 13.7048H8.47695V24.818H11.5655C12.9367 24.818 14.197 24.4448 15.3397 23.7053C16.4823 22.9658 17.3964 22.0328 18.082 20.9201C18.7676 19.8005 19.1761 18.6809 19.3146 17.5544V17.5475Z" fill="#0E2A3F"/>
<path d="M26.2938 20.8026C25.7605 21.5352 25.4004 22.2125 25.2135 22.8414C25.0265 23.4703 25.0265 23.9679 25.2135 24.3342C25.4004 24.7005 25.7536 24.8802 26.2591 24.8802H26.7924V25.3087H20.8438V24.8802H20.9753C21.5086 24.8802 22.0418 24.6936 22.5889 24.3135C23.1359 23.9334 23.7107 23.339 24.334 22.5235L29.1192 16.1238L29.1538 16.8563L26.2938 20.8026ZM37.5608 23.885C37.5816 23.9265 37.6093 23.9748 37.6439 24.0163C37.6785 24.0578 37.7062 24.0923 37.727 24.1131C37.9278 24.4033 38.1287 24.5968 38.3226 24.7074C38.5234 24.818 38.7519 24.8733 39.022 24.8733H39.486V25.3018H29.9779V24.8733H30.8089C31.2729 24.8733 31.5637 24.7489 31.6745 24.4932C31.7853 24.2375 31.6953 23.8781 31.4114 23.415L23.3368 10.346C23.0944 9.94517 22.8728 9.67563 22.6858 9.5305C22.4988 9.38536 22.2357 9.31625 21.9033 9.31625H21.4393V8.91541H30.9128V9.31625H30.1164C29.6524 9.31625 29.3546 9.44065 29.2369 9.69637C29.1123 9.95208 29.2092 10.3184 29.5208 10.8091L37.5677 23.8781L37.5608 23.885ZM27.9211 18.28V17.7479H28.5513V18.28H27.9211ZM33.9736 12.8755C34.4168 12.2328 34.7008 11.6384 34.8185 11.0855C34.9431 10.5326 34.9016 10.1041 34.7008 9.79312C34.4999 9.48212 34.1606 9.33008 33.6689 9.33008H33.2396V8.92923H38.7242V9.33008H38.558C38.1356 9.33008 37.6578 9.53741 37.1315 9.94517C36.5982 10.3529 36.0442 10.9542 35.4694 11.7559L30.9128 18.0243V17.195L33.9736 12.8824V12.8755ZM31.8476 15.7298V15.1977H32.4778V15.7298H31.8476Z" fill="#0E2A3F"/>
<path d="M39.7559 33.2082V32.7797H40.6838C41.0162 32.7797 41.2655 32.7036 41.4317 32.5447C41.5979 32.3926 41.681 32.1369 41.681 31.7845V10.5464C41.681 10.1249 41.591 9.81385 41.4179 9.62034C41.2378 9.41992 40.9608 9.33007 40.5869 9.35772L39.9221 9.42683V9.02598L46.6394 8.2934L46.8402 8.49382L46.4385 11.3136H46.6394V31.7845C46.6394 32.1162 46.7155 32.365 46.8748 32.5309C47.0272 32.6967 47.2834 32.7797 47.6366 32.7797H49.0008V33.2082H39.7628H39.7559ZM50.2265 25.7787C49.4301 25.7787 48.7099 25.6957 48.0659 25.5299C47.4219 25.364 46.861 25.129 46.3693 24.818L46.3 24.12C46.5909 24.3411 46.9233 24.5139 47.3111 24.6314C47.6989 24.7489 48.0936 24.8111 48.4883 24.8111C49.8872 24.8111 51.0021 24.2375 51.847 23.0833C52.6918 21.936 53.1074 20.2981 53.1074 18.1764C53.1074 16.6974 52.9273 15.4257 52.5603 14.3614C52.1932 13.2971 51.6739 12.4954 50.9952 11.9563C50.3166 11.4172 49.5271 11.1408 48.6199 11.1408C48.1559 11.1408 47.7197 11.2306 47.3042 11.4034C46.8887 11.5762 46.5701 11.8112 46.3208 12.1015L46.3554 11.8388C46.5078 11.4172 46.7848 10.9542 47.1726 10.4428C47.5604 9.93134 48.1559 9.47521 48.9523 9.06745C49.7487 8.65969 50.7598 8.45235 51.9786 8.45235C53.1974 8.45235 54.3123 8.80482 55.3164 9.51667C56.3275 10.2216 57.1239 11.2099 57.7125 12.4677C58.3011 13.7256 58.592 15.1562 58.592 16.7458C58.592 18.5841 58.2388 20.1806 57.5255 21.5421C56.8192 22.9036 55.822 23.9472 54.5478 24.6798C53.2735 25.4124 51.8262 25.7717 50.2127 25.7717L50.2265 25.7787Z" fill="#0E2A3F"/>
<path d="M60.5668 25.3087V24.8802H61.1623C61.5155 24.8802 61.7786 24.8042 61.9449 24.6452C62.1111 24.4932 62.1942 24.2375 62.1942 23.885V3.48323C62.1942 3.02018 62.1249 2.70918 61.9933 2.55713C61.8617 2.40509 61.6263 2.37053 61.2939 2.46038L60.4629 2.69536V2.26687L68.0735 0.0138245V0.414672L67.1456 0.746408V23.8988C67.1456 24.2513 67.2356 24.507 67.4087 24.6591C67.5888 24.8111 67.8519 24.894 68.2051 24.894H68.7729V25.3225H60.5598L60.5668 25.3087Z" fill="#0E2A3F"/>
<path d="M79.3403 25.675C77.609 25.675 76.0993 25.3294 74.8043 24.6452C73.5094 23.961 72.5052 22.9727 71.7989 21.6734C71.0925 20.381 70.7324 18.8606 70.7324 17.112C70.7324 15.3635 71.0995 13.85 71.8266 12.5645C72.5606 11.279 73.5994 10.2907 74.9498 9.59269C76.3002 8.89466 77.8721 8.5491 79.6727 8.5491C81.4732 8.5491 82.9205 8.89466 84.2293 9.59269C85.5382 10.2907 86.5423 11.279 87.2556 12.5645C87.9619 13.85 88.322 15.3635 88.322 17.112C88.322 18.8606 87.955 20.381 87.2279 21.6734C86.4938 22.9658 85.4551 23.9541 84.1047 24.6452C82.7543 25.3294 81.1685 25.675 79.3541 25.675H79.3403ZM79.4372 25.2119C80.1713 25.2119 80.7807 24.9424 81.2793 24.3964C81.7779 23.8504 82.1518 23.0211 82.408 21.8946C82.6643 20.7681 82.7889 19.3098 82.7889 17.5129C82.7889 14.5687 82.5189 12.4194 81.9718 11.0579C81.4316 9.69636 80.6283 9.01906 79.5619 9.01906C78.8278 9.01906 78.2184 9.28169 77.7336 9.81385C77.2489 10.346 76.8749 11.1823 76.6187 12.3157C76.3625 13.456 76.2378 14.9212 76.2378 16.7112C76.2378 18.6809 76.3625 20.2912 76.6049 21.5352C76.8472 22.7861 77.2004 23.7053 77.6713 24.3066C78.1353 24.9009 78.7239 25.205 79.4303 25.205L79.4372 25.2119Z" fill="#0E2A3F"/>
<path d="M90.4132 25.3087V24.8802H91.0087C91.3619 24.8802 91.6251 24.8042 91.7913 24.6452C91.9575 24.4932 92.0406 24.2375 92.0406 23.885V10.4497C92.0406 10.0488 91.9436 9.76546 91.7566 9.58577C91.5697 9.40608 91.2996 9.33006 90.9395 9.35079L90.4062 9.41991V9.01906L97.0543 8.35559L97.2205 8.52145L96.7565 12.9308L96.3895 13.2625H96.985V23.5463C96.985 24.0094 97.0889 24.348 97.3036 24.5554C97.5113 24.7627 97.8437 24.8733 98.2869 24.8733H99.6512V25.3018H90.4132V25.3087ZM94.866 14.1955V12.7995H96.895C97.6014 11.2928 98.3285 10.1594 99.0695 9.38535C99.8105 8.6113 100.662 8.22427 101.611 8.22427C102.407 8.22427 103.051 8.47308 103.536 8.97068C104.021 9.46828 104.27 10.1456 104.27 11.0095C104.27 11.8734 104.028 12.5161 103.536 12.9999C103.044 13.4837 102.442 13.7325 101.708 13.7325C101.244 13.7325 100.801 13.6426 100.378 13.4699C100.358 12.8064 100.274 12.295 100.129 11.9287C99.9836 11.5624 99.7551 11.3827 99.4504 11.3827C99.118 11.3827 98.7301 11.5624 98.2869 11.9287C97.8437 12.295 97.4144 12.8548 96.992 13.6012L94.866 14.1955Z" fill="#0E2A3F"/>
<path d="M113.376 25.8063C111.846 25.8063 110.468 25.44 109.235 24.7143C108.003 23.9817 107.04 22.9727 106.341 21.6803C105.641 20.3879 105.295 18.9228 105.295 17.2848C105.295 15.5156 105.641 13.9744 106.341 12.6543C107.04 11.3412 108.016 10.3184 109.263 9.5996C110.509 8.88083 111.936 8.52145 113.536 8.52145C114.935 8.52145 116.174 8.81172 117.261 9.39917C118.349 9.98662 119.193 10.816 119.803 11.8872C120.412 12.9584 120.717 14.1955 120.717 15.5847V15.6814H109.782L109.748 15.1838H113.57C114.658 15.1838 115.426 15.011 115.883 14.6724C116.34 14.3337 116.562 13.7048 116.562 12.7995C116.562 12.0945 116.43 11.4449 116.16 10.8574C115.89 10.27 115.523 9.81384 115.045 9.48211C114.568 9.15037 114.007 8.9845 113.37 8.9845C112.663 8.9845 112.054 9.19875 111.541 9.63415C111.029 10.0696 110.641 10.7123 110.378 11.5762C110.115 12.4401 109.976 13.4975 109.976 14.7622C109.976 16.3795 110.212 17.7548 110.676 18.8951C111.14 20.0355 111.811 20.9063 112.684 21.5144C113.557 22.1226 114.63 22.4267 115.89 22.4267C117.151 22.4267 118.155 22.1157 119.034 21.5006C119.907 20.8786 120.516 20.0078 120.849 18.8813L121.181 18.9781C120.869 21.1482 120.031 22.8276 118.674 24.0232C117.31 25.2188 115.544 25.8132 113.37 25.8132L113.376 25.8063Z" fill="#0E2A3F"/>
<path d="M130.163 10.3529C129.983 9.93133 129.837 9.65489 129.713 9.52357C129.588 9.39226 129.408 9.32315 129.166 9.32315H128.736V8.9223H137.614V9.32315H136.451C136.049 9.32315 135.772 9.45446 135.62 9.724C135.467 9.99353 135.474 10.346 135.654 10.7883L138.778 18.8813H138.847L142.905 8.92921H143.473L148.39 18.8813H148.459L150.287 13.7048C150.578 12.8617 150.703 12.1153 150.668 11.4518C150.633 10.7883 150.453 10.27 150.121 9.88987C149.788 9.51666 149.324 9.32315 148.722 9.32315H147.891V8.9223H153.805V9.32315H153.403C153.112 9.32315 152.863 9.413 152.655 9.58577C152.448 9.76546 152.233 10.0765 152.025 10.5326C151.818 10.9887 151.541 11.666 151.208 12.5714L146.624 25.3087H146.056L141.139 14.5964H141.042L136.589 25.3087H136.021L130.17 10.346L130.163 10.3529Z" fill="#0E2A3F"/>
<path d="M154.664 25.3087V24.8802H155.26C155.592 24.8802 155.835 24.8042 155.994 24.6452C156.153 24.4863 156.229 24.2375 156.229 23.885V3.48323C156.229 3.02018 156.16 2.70918 156.028 2.55713C155.897 2.40509 155.661 2.37053 155.329 2.46038L154.498 2.69536V2.26687L162.074 0.0138245V0.414672L161.174 0.746408V23.8988C161.174 24.2513 161.264 24.507 161.437 24.6591C161.617 24.8111 161.866 24.894 162.199 24.894H162.794V25.3225H154.65L154.664 25.3087ZM171.381 23.885C171.381 24.2375 171.464 24.4932 171.631 24.6452C171.797 24.7973 172.032 24.8802 172.344 24.8802H173.106V25.3087H164.664V24.8802H165.46C165.772 24.8802 166.007 24.7973 166.174 24.6314C166.34 24.4655 166.423 24.2167 166.423 23.885V14.1333C166.423 13.1381 166.222 12.3572 165.827 11.7974C165.426 11.2307 164.796 10.9542 163.93 10.9542C163.334 10.9542 162.78 11.1063 162.282 11.4034C161.783 11.7006 161.409 12.06 161.167 12.4816L159.103 13.0137L159.2 11.4864H161.596L161.028 12.1498C161.382 11.1339 162.026 10.2424 162.954 9.48213C163.881 8.7219 165.059 8.33487 166.478 8.33487C167.898 8.33487 169.124 8.8463 170.017 9.86224C170.917 10.8782 171.361 12.2397 171.361 13.9398V23.8919L171.381 23.885Z" fill="#0E2A3F"/>
<path d="M179.061 25.6404C177.731 25.6404 176.692 25.2741 175.937 24.5485C175.183 23.8159 174.809 22.869 174.809 21.6941C174.809 20.1875 175.487 18.9642 176.838 18.0105C178.188 17.0568 180.314 16.2274 183.223 15.5225L184.85 15.094V15.4603L183.52 15.8266C182.149 16.2274 181.11 16.808 180.411 17.582C179.712 18.3561 179.365 19.3167 179.365 20.4709C179.365 21.3762 179.587 22.0673 180.03 22.5442C180.473 23.0211 181.041 23.2561 181.727 23.2561C182.239 23.2561 182.717 23.1455 183.174 22.9243C183.631 22.7032 183.998 22.3853 184.289 21.9637L184.358 22.3645C183.957 23.3805 183.285 24.1822 182.329 24.7696C181.374 25.3571 180.293 25.6473 179.074 25.6473L179.061 25.6404ZM188.132 25.6404C186.872 25.6404 185.903 25.3778 185.238 24.8595C184.573 24.3411 184.241 23.6431 184.241 22.7792V12.6336C184.241 11.4587 183.95 10.581 183.375 10.0004C182.8 9.413 182.004 9.12273 180.979 9.12273C180.383 9.12273 179.829 9.20567 179.317 9.37153C178.804 9.5374 178.299 9.7862 177.786 10.1179L178.486 9.48902L179.746 9.19184V14.5342C179.504 14.6655 179.234 14.783 178.929 14.8797C178.631 14.9765 178.333 15.0318 178.05 15.0318C177.385 15.0318 176.838 14.8314 176.401 14.4167C175.972 14.0089 175.75 13.4699 175.75 12.8064C175.75 12.0116 176.034 11.279 176.595 10.6155C177.163 9.95207 177.966 9.42682 179.005 9.0398C180.044 8.65277 181.277 8.45926 182.696 8.45926C184.781 8.45926 186.387 8.92231 187.53 9.85532C188.673 10.7814 189.24 12.1775 189.24 14.0366V22.0328C189.24 22.6064 189.337 23.0418 189.538 23.3252C189.739 23.6155 190.078 23.7537 190.57 23.7537C190.992 23.7537 191.311 23.6085 191.533 23.3252C191.754 23.0349 191.865 22.6272 191.865 22.095V20.8372H192.267V22.1295C192.267 23.3252 191.934 24.2098 191.269 24.7834C190.605 25.3571 189.552 25.6473 188.112 25.6473L188.132 25.6404ZM183.977 22.4198H184.476V22.8829H183.908L183.977 22.4198Z" fill="#0E2A3F"/>
<path d="M199.074 25.8409C197.675 25.8409 196.595 25.4262 195.833 24.5969C195.072 23.7675 194.684 22.6755 194.684 21.3279V9.35772H193.223V8.92923H194.684L199.206 3.62145V2.09409H199.635V8.92923L204.157 8.5975V9.55815L199.635 9.35772V20.54C199.635 21.6458 199.815 22.4406 200.168 22.9313C200.522 23.415 201.055 23.6638 201.761 23.6638C202.225 23.6638 202.655 23.5394 203.042 23.2976C203.43 23.0557 203.77 22.6548 204.053 22.1019L204.351 22.2678C203.908 23.415 203.236 24.2997 202.343 24.9217C201.443 25.5437 200.355 25.8478 199.067 25.8478L199.074 25.8409Z" fill="#0E2A3F"/>
<path d="M221.276 25.675C219.545 25.675 218.035 25.3294 216.74 24.6452C215.445 23.961 214.441 22.9727 213.734 21.6734C213.028 20.3741 212.668 18.8606 212.668 17.112C212.668 15.3635 213.035 13.85 213.762 12.5645C214.496 11.279 215.535 10.2907 216.885 9.59269C218.236 8.89466 219.808 8.5491 221.608 8.5491C223.409 8.5491 224.856 8.89466 226.165 9.59269C227.474 10.2907 228.478 11.279 229.191 12.5645C229.897 13.85 230.258 15.3635 230.258 17.112C230.258 18.8606 229.891 20.381 229.163 21.6734C228.436 22.9658 227.391 23.9541 226.04 24.6452C224.69 25.3294 223.104 25.675 221.29 25.675H221.276ZM221.373 25.2119C222.107 25.2119 222.716 24.9424 223.215 24.3964C223.713 23.8573 224.087 23.0211 224.344 21.8946C224.6 20.7681 224.724 19.3098 224.724 17.5129C224.724 14.5687 224.454 12.4194 223.907 11.0579C223.36 9.69636 222.564 9.01906 221.497 9.01906C220.763 9.01906 220.154 9.28169 219.669 9.81385C219.178 10.346 218.81 11.1823 218.554 12.3157C218.298 13.456 218.173 14.9212 218.173 16.7112C218.173 18.6809 218.291 20.2912 218.54 21.5352C218.783 22.7861 219.136 23.7053 219.607 24.3066C220.071 24.9009 220.659 25.205 221.366 25.205L221.373 25.2119Z" fill="#0E2A3F"/>
<path d="M238.596 20.1046C238.596 21.079 238.783 21.8462 239.164 22.4129C239.538 22.9796 240.161 23.2561 241.027 23.2561C241.56 23.2561 242.065 23.104 242.557 22.8068C243.042 22.5097 243.409 22.1503 243.651 21.7287L245.715 21.2311L245.618 22.6548H243.222L243.755 22.0881C243.423 23.0833 242.799 23.9679 241.892 24.742C240.985 25.516 239.829 25.903 238.437 25.903C237.045 25.903 235.874 25.3916 235.016 24.3757C234.157 23.3597 233.721 21.9982 233.721 20.2981V10.3806C233.721 10.0281 233.651 9.74473 233.506 9.5374C233.361 9.33006 233.111 9.24713 232.758 9.28859L231.83 9.41991V9.01906L238.444 8.22427L238.61 8.39014V20.0977L238.596 20.1046ZM248.568 23.7537C248.568 24.1269 248.637 24.4102 248.783 24.5968C248.928 24.7834 249.184 24.8802 249.565 24.8802H250.265V25.3087H243.582L243.416 25.1083L243.713 22.5235L243.914 22.0604L243.651 21.9913V10.3806C243.651 10.0074 243.568 9.724 243.402 9.5374C243.236 9.35079 242.986 9.27477 242.654 9.32315L241.657 9.45446V9.05361L248.402 8.22427L248.568 8.39014V23.7468V23.7537Z" fill="#0E2A3F"/>
<path d="M252.128 25.3087V24.8802H252.724C253.077 24.8802 253.34 24.8042 253.506 24.6452C253.672 24.4932 253.755 24.2375 253.755 23.885V10.4497C253.755 10.0488 253.658 9.76546 253.471 9.58577C253.284 9.40608 253.014 9.33006 252.654 9.35079L252.121 9.41991V9.01906L258.769 8.35559L258.935 8.52145L258.471 12.9308L258.104 13.2625H258.7V23.5463C258.7 24.0094 258.804 24.348 259.018 24.5554C259.226 24.7627 259.559 24.8733 260.002 24.8733H261.366V25.3018H252.128V25.3087ZM256.581 14.1955V12.7995H258.61C259.316 11.2928 260.043 10.1594 260.784 9.38535C261.525 8.6113 262.377 8.22427 263.326 8.22427C264.122 8.22427 264.766 8.47308 265.251 8.97068C265.736 9.46828 265.985 10.1456 265.985 11.0095C265.985 11.8734 265.743 12.5161 265.251 12.9999C264.766 13.4837 264.157 13.7325 263.423 13.7325C262.959 13.7325 262.516 13.6426 262.093 13.4699C262.072 12.8064 261.989 12.295 261.844 11.9287C261.698 11.5624 261.47 11.3827 261.165 11.3827C260.833 11.3827 260.445 11.5624 260.002 11.9287C259.559 12.295 259.129 12.8548 258.707 13.6012L256.581 14.1955Z" fill="#0E2A3F"/>
<path d="M282.404 25.8063C280.784 25.8063 279.35 25.4469 278.097 24.7281C276.843 24.0094 275.874 22.9865 275.188 21.6596C274.502 20.3326 274.156 18.7984 274.156 17.0498C274.156 15.4395 274.53 13.9813 275.271 12.6889C276.012 11.3965 277.065 10.3806 278.429 9.63415C279.793 8.88775 281.372 8.52145 283.166 8.52145C284.364 8.52145 285.465 8.72879 286.476 9.13655C287.487 9.54431 288.276 10.111 288.851 10.8298C289.426 11.5485 289.717 12.3502 289.717 13.2349C289.717 13.9191 289.488 14.5342 289.038 15.0732C288.588 15.6123 287.944 15.8888 287.127 15.8888C286.594 15.8888 286.005 15.7229 285.368 15.3912V9.41991C285.126 9.30933 284.855 9.21257 284.572 9.12273C284.281 9.03288 283.976 8.99141 283.644 8.99141C282.757 8.99141 281.968 9.24713 281.282 9.75164C280.597 10.2631 280.049 10.9887 279.655 11.9425C279.26 12.8962 279.059 14.0089 279.059 15.2944C279.059 16.6628 279.322 17.893 279.842 18.9781C280.361 20.0631 281.074 20.9063 281.988 21.5145C282.896 22.1226 283.893 22.4267 284.98 22.4267C286.289 22.4267 287.355 22.1295 288.186 21.5283C289.017 20.9339 289.599 20.0216 289.932 18.8053L290.299 18.902C289.966 21.0929 289.114 22.7861 287.736 23.9956C286.365 25.1981 284.592 25.8063 282.418 25.8063H282.404Z" fill="#0E2A3F"/>
<path d="M291.842 25.3087V24.8802H292.438C292.791 24.8802 293.054 24.8042 293.22 24.6452C293.386 24.4932 293.47 24.2375 293.47 23.885V3.48323C293.47 3.02018 293.4 2.70918 293.269 2.55713C293.137 2.40509 292.902 2.37053 292.569 2.46038L291.738 2.69536V2.26687L299.349 0.0138245V0.414672L298.421 0.746408V23.8988C298.421 24.2513 298.511 24.507 298.684 24.6591C298.864 24.8111 299.127 24.894 299.48 24.894H300.048V25.3225H291.835L291.842 25.3087Z" fill="#0E2A3F"/>
<path d="M301.98 25.3087V24.8802H302.576C302.929 24.8802 303.192 24.7973 303.359 24.6314C303.525 24.4655 303.608 24.196 303.608 23.8159V10.3184C303.608 9.96591 303.511 9.70328 303.324 9.53741C303.137 9.37155 302.839 9.30935 302.444 9.35772L301.98 9.42684V9.02599L308.365 8.2312L308.566 8.43163V23.8228C308.566 24.196 308.649 24.4725 308.815 24.6383C308.982 24.8042 309.245 24.8871 309.598 24.8871H310.131V25.3156H301.987L301.98 25.3087ZM306.066 6.63472C305.201 6.63472 304.508 6.3721 303.989 5.85376C303.469 5.33542 303.206 4.65122 303.206 3.81497C303.206 2.97871 303.469 2.29451 304.003 1.77617C304.536 1.25783 305.221 0.995209 306.066 0.995209C306.911 0.995209 307.624 1.25783 308.144 1.77617C308.663 2.29451 308.926 2.97871 308.926 3.81497C308.926 4.65122 308.663 5.36307 308.144 5.87449C307.624 6.38592 306.932 6.63472 306.066 6.63472Z" fill="#0E2A3F"/>
<path d="M320.166 25.8063C318.635 25.8063 317.257 25.44 316.024 24.7143C314.792 23.9817 313.829 22.9727 313.13 21.6803C312.43 20.3879 312.084 18.9228 312.084 17.2848C312.084 15.5156 312.43 13.9744 313.13 12.6543C313.829 11.3412 314.806 10.3184 316.052 9.5996C317.299 8.88083 318.725 8.52145 320.325 8.52145C321.724 8.52145 322.963 8.81172 324.05 9.39917C325.138 9.98662 325.983 10.816 326.592 11.8872C327.201 12.9584 327.506 14.1955 327.506 15.5847V15.6814H316.571L316.537 15.1838H320.359C321.447 15.1838 322.215 15.011 322.672 14.6724C323.129 14.3268 323.351 13.7048 323.351 12.7995C323.351 12.0945 323.219 11.4449 322.949 10.8574C322.686 10.27 322.312 9.81384 321.834 9.48211C321.357 9.15037 320.796 8.9845 320.159 8.9845C319.452 8.9845 318.843 9.19875 318.33 9.63415C317.818 10.0696 317.43 10.7123 317.167 11.5762C316.904 12.4401 316.765 13.4975 316.765 14.7622C316.765 16.3795 317.001 17.7548 317.465 18.8951C317.929 20.0355 318.6 20.9063 319.473 21.5144C320.346 22.1226 321.419 22.4267 322.679 22.4267C323.94 22.4267 324.944 22.1157 325.823 21.5006C326.696 20.8786 327.305 20.0078 327.638 18.8813L327.97 18.9781C327.658 21.1482 326.82 22.8276 325.463 24.0232C324.099 25.2188 322.333 25.8132 320.159 25.8132L320.166 25.8063Z" fill="#0E2A3F"/>
<path d="M329.736 25.3087V24.8802H330.567C330.858 24.8802 331.08 24.8042 331.232 24.6452C331.384 24.4863 331.468 24.2375 331.468 23.885V10.4497C331.468 10.118 331.398 9.84841 331.253 9.63417C331.107 9.42683 330.858 9.33008 330.505 9.35081L329.743 9.41992V9.01907L336.488 8.3556L336.689 8.52147L336.391 11.673L336.156 12.1706L336.454 12.2397V23.885C336.454 24.196 336.53 24.4379 336.689 24.6176C336.841 24.7973 337.098 24.8802 337.451 24.8802H338.213V25.3087H329.736ZM339.909 25.3087V24.8802H340.706C341.038 24.8802 341.28 24.7973 341.44 24.6314C341.592 24.4655 341.675 24.2167 341.675 23.885V14.1333C341.675 13.1381 341.474 12.3572 341.08 11.7974C340.678 11.2306 340.048 10.9542 339.182 10.9542C338.607 10.9542 338.067 11.1062 337.569 11.4034C337.07 11.7006 336.696 12.06 336.454 12.4816L334.39 12.9792L334.459 11.5831H336.883L336.287 12.1498C336.641 11.1339 337.298 10.2424 338.247 9.48212C339.203 8.72189 340.366 8.33487 341.737 8.33487C343.219 8.33487 344.411 8.8463 345.311 9.86224C346.211 10.8782 346.654 12.2397 346.654 13.9398V23.8919C346.654 24.2444 346.73 24.5001 346.89 24.6521C347.042 24.8042 347.277 24.8871 347.589 24.8871H348.385V25.3156H339.909V25.3087Z" fill="#0E2A3F"/>
<path d="M355.768 25.8409C354.369 25.8409 353.289 25.4262 352.527 24.5969C351.765 23.7675 351.377 22.6755 351.377 21.3279V9.35772H349.916V8.92923H351.377L355.899 3.62145V2.09409H356.329V8.92923L360.851 8.5975V9.55815L356.329 9.35772V20.54C356.329 21.6458 356.509 22.4406 356.862 22.9313C357.215 23.415 357.748 23.6638 358.455 23.6638C358.919 23.6638 359.348 23.5394 359.736 23.2976C360.124 23.0557 360.463 22.6548 360.747 22.1019L361.045 22.2678C360.601 23.415 359.93 24.2997 359.036 24.9217C358.143 25.5437 357.049 25.8478 355.761 25.8478L355.768 25.8409Z" fill="#0E2A3F"/>
<path d="M362.88 25.4746L362.215 18.439H362.644L363.143 23.7122L362.679 19.2338C363.524 21.4246 364.465 22.9796 365.504 23.8919C366.543 24.8111 367.665 25.2672 368.863 25.2672C369.68 25.2672 370.338 25.0461 370.823 24.6038C371.307 24.1614 371.557 23.5533 371.557 22.7792C371.557 22.3369 371.439 21.9361 371.21 21.5698C370.975 21.2035 370.643 20.8786 370.199 20.5884C369.756 20.2981 369.216 20.0355 368.572 19.7936L366.841 19.061C365.643 18.598 364.646 17.9138 363.849 17.0222C363.053 16.1238 362.651 15.0733 362.651 13.8569C362.651 12.7926 362.942 11.8527 363.517 11.0371C364.092 10.2216 364.895 9.58579 365.927 9.12966C366.958 8.67352 368.157 8.45236 369.535 8.45236C370.241 8.45236 370.961 8.5353 371.695 8.70116C372.429 8.86703 373.094 9.08128 373.69 9.35081C373.911 9.41993 374.057 9.4061 374.119 9.31626C374.188 9.22641 374.216 9.10892 374.216 8.94997V8.52147H374.618L375.282 14.8245H374.853L374.223 9.51668L374.922 14.3269C374.147 12.447 373.267 11.0786 372.277 10.2285C371.287 9.37846 370.276 8.94997 369.237 8.94997C368.44 8.94997 367.81 9.15039 367.339 9.54433C366.868 9.93826 366.64 10.4842 366.64 11.1685C366.64 11.8112 366.848 12.3503 367.256 12.7926C367.665 13.2349 368.247 13.5874 369.001 13.8569L371.259 14.6517C372.547 15.094 373.593 15.7713 374.403 16.6905C375.213 17.6097 375.615 18.7776 375.615 20.1875C375.615 21.314 375.331 22.3023 374.77 23.1386C374.202 23.9818 373.385 24.6245 372.312 25.0806C371.238 25.5368 369.957 25.7579 368.475 25.7579C367.81 25.7579 367.069 25.6543 366.245 25.44C365.421 25.2258 364.659 24.9701 363.953 24.6591C363.641 24.5277 363.447 24.4932 363.371 24.5623C363.295 24.6314 363.254 24.7696 363.254 24.9908V25.4538H362.887L362.88 25.4746Z" fill="#0E2A3F"/>
<path d="M386.245 25.4746L385.58 18.439H386.009L386.508 23.7122L386.044 19.2338C386.889 21.4246 387.831 22.9796 388.869 23.8919C389.908 24.8111 391.03 25.2672 392.228 25.2672C393.045 25.2672 393.703 25.0461 394.188 24.6038C394.673 24.1614 394.922 23.5533 394.922 22.7792C394.922 22.3369 394.804 21.9361 394.576 21.5698C394.34 21.2035 394.008 20.8786 393.565 20.5884C393.121 20.2981 392.581 20.0355 391.937 19.7936L390.206 19.061C389.008 18.598 388.011 17.9138 387.214 17.0222C386.418 16.1238 386.016 15.0733 386.016 13.8569C386.016 12.7926 386.307 11.8527 386.882 11.0371C387.457 10.2216 388.26 9.58579 389.292 9.12966C390.324 8.67352 391.522 8.45236 392.9 8.45236C393.606 8.45236 394.326 8.5353 395.06 8.70116C395.795 8.86703 396.459 9.08128 397.055 9.35081C397.276 9.41993 397.422 9.4061 397.484 9.31626C397.553 9.22641 397.581 9.10892 397.581 8.94997V8.52147H397.983L398.648 14.8245H398.218L397.588 9.51668L398.288 14.3269C397.512 12.447 396.632 11.0786 395.642 10.2285C394.652 9.37846 393.641 8.94997 392.602 8.94997C391.806 8.94997 391.176 9.15039 390.705 9.54433C390.234 9.93826 390.005 10.4842 390.005 11.1685C390.005 11.8112 390.213 12.3503 390.622 12.7926C391.03 13.2349 391.612 13.5874 392.367 13.8569L394.624 14.6517C395.912 15.094 396.958 15.7713 397.768 16.6905C398.578 17.6097 398.98 18.7776 398.98 20.1875C398.98 21.314 398.696 22.3023 398.135 23.1386C397.567 23.9818 396.75 24.6245 395.677 25.0806C394.603 25.5368 393.322 25.7579 391.84 25.7579C391.176 25.7579 390.435 25.6543 389.61 25.44C388.786 25.2258 388.025 24.9701 387.318 24.6591C387.007 24.5277 386.813 24.4932 386.737 24.5623C386.66 24.6314 386.619 24.7696 386.619 24.9908V25.4538H386.252L386.245 25.4746Z" fill="#0E2A3F"/>
<path d="M405.627 25.6404C404.297 25.6404 403.259 25.2741 402.504 24.5485C401.749 23.8159 401.375 22.869 401.375 21.6941C401.375 20.1875 402.054 18.9642 403.404 18.0105C404.754 17.0568 406.88 16.2274 409.789 15.5225L411.416 15.094V15.4603L410.087 15.8266C408.709 16.2274 407.677 16.808 406.977 17.582C406.278 18.3561 405.932 19.3167 405.932 20.4709C405.932 21.3762 406.153 22.0673 406.597 22.5442C407.04 23.0211 407.608 23.2561 408.293 23.2561C408.806 23.2561 409.283 23.1455 409.74 22.9243C410.198 22.7032 410.565 22.3853 410.855 21.9637L410.925 22.3645C410.523 23.3805 409.851 24.1822 408.896 24.7696C407.94 25.3571 406.86 25.6473 405.641 25.6473L405.627 25.6404ZM414.699 25.6404C413.438 25.6404 412.469 25.3778 411.804 24.8595C411.139 24.3411 410.807 23.6431 410.807 22.7792V12.6336C410.807 11.4587 410.516 10.581 409.941 10.0004C409.367 9.41991 408.57 9.12273 407.545 9.12273C406.95 9.12273 406.396 9.20567 405.883 9.37153C405.371 9.5374 404.865 9.7862 404.353 10.1179L405.052 9.48902L406.313 9.19184V14.5342C406.07 14.6655 405.8 14.783 405.495 14.8797C405.198 14.9765 404.9 15.0318 404.616 15.0318C403.951 15.0318 403.404 14.8314 402.968 14.4167C402.538 14.0089 402.317 13.4699 402.317 12.8064C402.317 12.0116 402.601 11.279 403.162 10.6155C403.73 9.95207 404.526 9.42682 405.572 9.0398C406.61 8.65277 407.843 8.45926 409.263 8.45926C411.347 8.45926 412.961 8.92231 414.096 9.85532C415.239 10.7814 415.807 12.1775 415.807 14.0366V22.0328C415.807 22.6064 415.904 23.0418 416.105 23.3252C416.305 23.6155 416.645 23.7537 417.136 23.7537C417.559 23.7537 417.877 23.6085 418.099 23.3252C418.321 23.0349 418.431 22.6272 418.431 22.095V20.8372H418.833V22.1295C418.833 23.3252 418.501 24.2098 417.836 24.7834C417.171 25.3571 416.118 25.6473 414.678 25.6473L414.699 25.6404ZM410.544 22.4198H411.042V22.8829H410.475L410.544 22.4198Z" fill="#0E2A3F"/>
<path d="M419.221 10.3529C419.041 9.95208 418.875 9.68255 418.708 9.53741C418.542 9.39228 418.293 9.32316 417.961 9.32316H417.76V8.92232H427.032V9.32316H425.703C425.26 9.32316 424.962 9.45448 424.803 9.72401C424.643 9.99355 424.671 10.3322 424.872 10.7538L429.491 20.7059L426.7 26.3454L419.221 10.3529ZM419.553 33.2082V32.9732L426.7 26.1726L432.219 13.8984C432.552 13.145 432.746 12.4125 432.801 11.6937C432.856 10.9749 432.752 10.4013 432.482 9.9659C432.219 9.53741 431.804 9.31625 431.25 9.31625H430.654V8.91541H436.208V9.31625H436.042C435.64 9.31625 435.266 9.49594 434.913 9.86224C434.56 10.2285 434.158 10.8989 433.715 11.8665L424.075 33.1943H419.553V33.2082ZM428.597 20.6989L428.528 20.2359H429.823L429.622 20.6989H428.591H428.597Z" fill="#0E2A3F"/>
<path d="M448.037 25.6404C446.707 25.6404 445.669 25.2741 444.914 24.5485C444.159 23.8159 443.785 22.869 443.785 21.6941C443.785 20.1875 444.464 18.9642 445.814 18.0105C447.165 17.0568 449.291 16.2274 452.199 15.5225L453.826 15.094V15.4603L452.497 15.8266C451.119 16.2274 450.087 16.808 449.387 17.582C448.688 18.3561 448.342 19.3167 448.342 20.4709C448.342 21.3762 448.563 22.0673 449.007 22.5442C449.45 23.0211 450.018 23.2561 450.703 23.2561C451.216 23.2561 451.694 23.1455 452.151 22.9243C452.608 22.7032 452.975 22.3853 453.266 21.9637L453.335 22.3645C452.933 23.3805 452.261 24.1822 451.306 24.7696C450.35 25.3571 449.27 25.6473 448.051 25.6473L448.037 25.6404ZM457.109 25.6404C455.849 25.6404 454.879 25.3778 454.214 24.8595C453.549 24.3411 453.217 23.6431 453.217 22.7792V12.6336C453.217 11.4587 452.926 10.581 452.351 10.0004C451.777 9.41991 450.98 9.12273 449.955 9.12273C449.36 9.12273 448.806 9.20567 448.293 9.37153C447.781 9.5374 447.275 9.7862 446.763 10.1179L447.462 9.48902L448.723 9.19184V14.5342C448.48 14.6655 448.21 14.783 447.906 14.8797C447.608 14.9765 447.31 15.0318 447.026 15.0318C446.361 15.0318 445.814 14.8314 445.378 14.4167C444.949 14.0089 444.727 13.4699 444.727 12.8064C444.727 12.0116 445.011 11.279 445.572 10.6155C446.14 9.95207 446.936 9.42682 447.982 9.0398C449.02 8.65277 450.253 8.45926 451.673 8.45926C453.757 8.45926 455.371 8.92231 456.506 9.85532C457.649 10.7814 458.217 12.1775 458.217 14.0366V22.0328C458.217 22.6064 458.314 23.0418 458.515 23.3252C458.716 23.6155 459.055 23.7537 459.547 23.7537C459.969 23.7537 460.288 23.6085 460.509 23.3252C460.731 23.0349 460.842 22.6272 460.842 22.095V20.8372H461.243V22.1295C461.243 23.3252 460.911 24.2098 460.246 24.7834C459.581 25.3571 458.529 25.6473 457.088 25.6473L457.109 25.6404ZM452.954 22.4198H453.452V22.8829H452.885L452.954 22.4198Z" fill="#0E2A3F"/>
<path d="M467.586 24.3135C467.849 24.5139 468.154 24.666 468.486 24.7765C468.819 24.8871 469.13 24.9424 469.414 24.9424C471.145 24.9424 472.489 24.3204 473.452 23.0833C474.414 21.8462 474.899 20.0631 474.899 17.741C474.899 16.2827 474.733 15.0594 474.4 14.0781C474.068 13.0967 473.611 12.3503 473.036 11.8388C472.461 11.3274 471.776 11.0786 470.972 11.0786C470.418 11.0786 469.934 11.1754 469.511 11.362C469.089 11.5486 468.722 11.7974 468.417 12.1084V12.1429L468.251 11.9771C468.673 10.9127 469.387 10.0627 470.398 9.41992C471.409 8.77719 472.517 8.45927 473.735 8.45927C474.954 8.45927 476.104 8.80483 477.108 9.48904C478.119 10.1732 478.915 11.1339 479.504 12.3572C480.093 13.5874 480.384 14.9834 480.384 16.5523C480.384 18.5219 480.01 20.1875 479.255 21.5421C478.5 22.9036 477.427 23.9403 476.028 24.6591C474.629 25.3778 472.967 25.7372 471.042 25.7372C470.176 25.7372 469.227 25.6473 468.202 25.4746C467.177 25.3018 466.215 25.0668 465.328 24.7765L463.701 25.7372H463.466V3.48323C463.466 3.02018 463.396 2.70918 463.265 2.55713C463.133 2.40509 462.912 2.37053 462.6 2.46038L461.734 2.69536V2.26687L469.345 0.0138245V0.414672L468.445 0.746408V25.0323L467.579 24.3342L467.586 24.3135ZM468.216 11.279H468.749L468.715 11.6453H468.216V11.279Z" fill="#0E2A3F"/>
<path d="M491.153 25.675C489.421 25.675 487.912 25.3294 486.617 24.6452C485.322 23.961 484.318 22.9727 483.611 21.6734C482.905 20.381 482.545 18.8606 482.545 17.112C482.545 15.3635 482.912 13.85 483.639 12.5645C484.373 11.279 485.412 10.2907 486.762 9.59269C488.113 8.89466 489.685 8.5491 491.485 8.5491C493.286 8.5491 494.733 8.89466 496.042 9.59269C497.351 10.2907 498.355 11.279 499.068 12.5645C499.774 13.85 500.135 15.3635 500.135 17.112C500.135 18.8606 499.768 20.381 499.04 21.6734C498.306 22.9658 497.268 23.9541 495.917 24.6452C494.567 25.3294 492.981 25.675 491.167 25.675H491.153ZM491.25 25.2119C491.984 25.2119 492.593 24.9424 493.092 24.3964C493.59 23.8573 493.964 23.0211 494.221 21.8946C494.477 20.7681 494.601 19.3098 494.601 17.5129C494.601 14.5687 494.331 12.4194 493.784 11.0579C493.237 9.69636 492.441 9.01906 491.374 9.01906C490.64 9.01906 490.031 9.28169 489.546 9.81385C489.061 10.346 488.687 11.1823 488.431 12.3157C488.175 13.456 488.05 14.9212 488.05 16.7112C488.05 18.6809 488.175 20.2912 488.417 21.5352C488.66 22.7861 489.013 23.7053 489.484 24.3066C489.948 24.9009 490.536 25.205 491.243 25.205L491.25 25.2119Z" fill="#0E2A3F"/>
<path d="M508.471 20.1046C508.471 21.079 508.658 21.8462 509.039 22.4129C509.413 22.9796 510.036 23.2561 510.902 23.2561C511.435 23.2561 511.94 23.104 512.432 22.8068C512.917 22.5097 513.284 22.1503 513.526 21.7287L515.59 21.2311L515.493 22.6548H513.097L513.63 22.0881C513.298 23.0833 512.674 23.9679 511.767 24.742C510.86 25.516 509.704 25.903 508.312 25.903C506.92 25.903 505.749 25.3916 504.891 24.3757C504.032 23.3597 503.596 21.9982 503.596 20.2981V10.3806C503.596 10.0281 503.526 9.74473 503.381 9.5374C503.236 9.33006 502.986 9.24713 502.633 9.28859L501.705 9.41991V9.01906L508.319 8.22427L508.485 8.39014V20.0977L508.471 20.1046ZM518.443 23.7537C518.443 24.1269 518.512 24.4102 518.658 24.5968C518.803 24.7834 519.059 24.8802 519.44 24.8802H520.14V25.3087H513.457L513.291 25.1083L513.588 22.5235L513.789 22.0604L513.526 21.9913V10.3806C513.526 10.0074 513.443 9.724 513.277 9.5374C513.111 9.35079 512.861 9.27477 512.529 9.32315L511.532 9.45446V9.05361L518.277 8.22427L518.443 8.39014V23.7468V23.7537Z" fill="#0E2A3F"/>
<path d="M527.717 25.8409C526.318 25.8409 525.238 25.4262 524.476 24.5969C523.714 23.7675 523.326 22.6755 523.326 21.3279V9.35772H521.865V8.92923H523.326L527.848 3.62145V2.09409H528.278V8.92923L532.8 8.5975V9.55815L528.278 9.35772V20.54C528.278 21.6458 528.458 22.4406 528.811 22.9313C529.164 23.415 529.697 23.6638 530.404 23.6638C530.868 23.6638 531.297 23.5394 531.685 23.2976C532.073 23.0557 532.412 22.6548 532.696 22.1019L532.994 22.2678C532.551 23.415 531.879 24.2997 530.986 24.9217C530.092 25.5437 528.998 25.8478 527.71 25.8478L527.717 25.8409Z" fill="#0E2A3F"/>
<path d="M8.60783 67.142C6.87657 67.142 5.36691 66.7964 4.07193 66.1122C2.77694 65.428 1.77281 64.4397 1.06646 63.1404C0.360102 61.848 0 60.3276 0 58.5791C0 56.8305 0.367027 55.317 1.09416 54.0315C1.82821 52.746 2.86697 51.7577 4.21735 51.0597C5.56774 50.3617 7.13972 50.0161 8.94023 50.0161C10.7407 50.0161 12.1881 50.3617 13.4969 51.0597C14.8057 51.7577 15.8099 52.746 16.5232 54.0315C17.2295 55.317 17.5896 56.8305 17.5896 58.5791C17.5896 60.3276 17.2226 61.848 16.4955 63.1404C15.7614 64.4328 14.7226 65.4211 13.3723 66.1122C12.0219 66.7964 10.436 67.142 8.62168 67.142H8.60783ZM8.70478 66.6789C9.43884 66.6789 10.0482 66.4094 10.5468 65.8634C11.0454 65.3174 11.4194 64.4881 11.6756 63.3616C11.9319 62.2351 12.0565 60.7768 12.0565 58.9799C12.0565 56.0357 11.7864 53.8864 11.2393 52.5249C10.6992 51.1634 9.89589 50.4861 8.82943 50.4861C8.09538 50.4861 7.48597 50.7487 7.00122 51.2809C6.51647 51.813 6.14252 52.6493 5.88629 53.7827C5.63006 54.923 5.50541 56.3882 5.50541 58.1782C5.50541 60.1479 5.63006 61.7582 5.87244 63.0022C6.11482 64.2531 6.46799 65.1723 6.9389 65.7736C7.40287 66.3679 7.9915 66.672 8.69786 66.672L8.70478 66.6789Z" fill="#0E2A3F"/>
<path d="M25.9279 61.5716C25.9279 62.5461 26.1149 63.3132 26.4957 63.8799C26.8697 64.4466 27.4929 64.7231 28.3586 64.7231C28.8918 64.7231 29.3973 64.571 29.889 64.2738C30.3738 63.9767 30.7408 63.6173 30.9832 63.1957L33.0468 62.6981L32.9499 64.1218H30.5538L31.087 63.5551C30.7546 64.5503 30.1314 65.4349 29.2242 66.209C28.317 66.983 27.1605 67.3701 25.7686 67.3701C24.3767 67.3701 23.2063 66.8586 22.3476 65.8427C21.4889 64.8267 21.0526 63.4652 21.0526 61.7651V51.8476C21.0526 51.4951 20.9834 51.2117 20.838 51.0044C20.6925 50.7971 20.4432 50.7141 20.0901 50.7556L19.1621 50.8869V50.4861L25.7755 49.6913L25.9417 49.8572V61.5647L25.9279 61.5716ZM35.8999 65.2207C35.8999 65.5939 35.9692 65.8772 36.1146 66.0638C36.26 66.2504 36.5163 66.3472 36.8972 66.3472H37.5966V66.7757H30.9139L30.7477 66.5753L31.0455 63.9905L31.2463 63.5274L30.9832 63.4583V51.8476C30.9832 51.4744 30.9001 51.191 30.7339 51.0044C30.5677 50.8178 30.3184 50.7418 29.986 50.7902L28.9887 50.9215V50.5206L35.7337 49.6913L35.8999 49.8572V65.2138V65.2207Z" fill="#0E2A3F"/>
<path d="M39.4522 66.7757V66.3472H40.0478C40.401 66.3472 40.6641 66.2712 40.8303 66.1122C40.9965 65.9602 41.0796 65.7045 41.0796 65.352V51.9167C41.0796 51.5158 40.9827 51.2325 40.7957 51.0528C40.6087 50.8731 40.3317 50.7971 39.9785 50.8178L39.4453 50.8869V50.4861L46.0934 49.8226L46.2596 49.9885L45.7956 54.3978L45.4286 54.7295H46.0241V65.0133C46.0241 65.4764 46.128 65.815 46.3427 66.0224C46.5504 66.2297 46.8828 66.3403 47.326 66.3403H48.6902V66.7688H39.4522V66.7757ZM43.905 55.6625V54.2665H45.9341C46.6404 52.7598 47.3676 51.6264 48.1085 50.8524C48.8495 50.0783 49.7013 49.6913 50.65 49.6913C51.4464 49.6913 52.0904 49.9401 52.5752 50.4377C53.06 50.9353 53.3093 51.6126 53.3093 52.4765C53.3093 53.3404 53.0669 53.9831 52.5752 54.4669C52.0904 54.9507 51.481 55.1995 50.747 55.1995C50.283 55.1995 49.8398 55.1096 49.4174 54.9369C49.3966 54.2734 49.3135 53.762 49.1681 53.3957C49.0227 53.0294 48.7941 52.8497 48.4894 52.8497C48.157 52.8497 47.7692 53.0294 47.326 53.3957C46.8828 53.762 46.4535 54.3218 46.031 55.0682L43.905 55.6625Z" fill="#0E2A3F"/>
<path d="M67.0352 67.2595C65.6709 67.2595 64.5283 66.8586 63.5934 66.0708C62.6586 65.276 62.0422 64.1633 61.7375 62.7327C61.4397 61.302 61.5159 59.6779 61.9799 57.8603C62.3954 56.1532 63.0671 54.6673 63.9882 53.4026C64.9092 52.1378 66.0033 51.1703 67.2637 50.4999C68.5241 49.8295 69.8398 49.4978 71.2248 49.4978C72.0558 49.4978 72.8245 49.6567 73.5309 49.9816C74.2372 50.3064 74.7982 50.7487 75.2275 51.3085C75.6569 51.8752 75.8646 52.5249 75.8646 53.2644C75.8646 54.073 75.6292 54.7226 75.1513 55.2202C74.6735 55.7178 74.071 55.9666 73.337 55.9666C73.15 55.9666 72.8661 55.9182 72.4713 55.8284L71.8827 50.2649L73.4062 50.645L73.7525 51.3361C73.4547 51.0113 73.0946 50.7625 72.6791 50.5759C72.2636 50.3893 71.7927 50.2995 71.2595 50.2995C70.5462 50.2995 69.8329 50.5552 69.1335 51.0597C68.4271 51.5642 67.8039 52.2761 67.2637 53.1883C66.7236 54.1006 66.308 55.1165 66.031 56.2431C65.6155 57.9916 65.4701 59.4844 65.6017 60.7215C65.7263 61.9517 66.1003 62.8778 66.7097 63.4998C67.3191 64.1218 68.1432 64.4328 69.1819 64.4328C70.2207 64.4328 71.1279 64.1356 72.0351 63.5344C72.9492 62.9331 73.7386 61.9793 74.4104 60.6662L74.9644 60.9772C74.0641 63.099 72.9422 64.6747 71.6057 65.7114C70.2692 66.748 68.7457 67.2664 67.0352 67.2664V67.2595Z" fill="#0E2A3F"/>
<path d="M83.5508 67.2249C82.0273 67.2249 80.7669 66.8517 79.7766 66.1053C78.7863 65.3589 78.1215 64.2877 77.7822 62.8916C77.4498 61.4956 77.5121 59.8645 77.9692 57.9985C78.6617 55.2133 79.8597 53.0985 81.5702 51.661C83.2807 50.2235 85.2751 49.5047 87.5604 49.5047C89.0631 49.5047 90.3096 49.871 91.3137 50.6105C92.3179 51.35 92.9896 52.4212 93.3359 53.8242C93.6821 55.2271 93.6129 56.8789 93.1281 58.7657C92.4841 61.4818 91.2999 63.5758 89.5825 65.041C87.8651 66.5062 85.8499 67.2318 83.5369 67.2318L83.5508 67.2249ZM83.5854 66.3956C84.6449 66.3956 85.6283 65.7943 86.5285 64.5987C87.4288 63.4031 88.2044 61.4748 88.8484 58.8279C89.354 56.8029 89.624 55.1511 89.6448 53.8864C89.6656 52.6216 89.4855 51.7025 89.1047 51.1357C88.7238 50.569 88.1836 50.2926 87.4911 50.2926C86.4524 50.2926 85.4829 50.8938 84.5826 52.0895C83.6823 53.2851 82.8998 55.2202 82.2281 57.8949C81.7433 59.8507 81.4871 61.461 81.4663 62.7119C81.4456 63.9698 81.6118 64.8959 81.9719 65.4971C82.332 66.0984 82.8652 66.3956 83.5854 66.3956Z" fill="#0E2A3F"/>
<path d="M117.864 67.3286C116.805 67.3286 116.078 66.983 115.683 66.2919C115.288 65.6008 115.281 64.6125 115.648 63.3201L117.933 55.3377C118.28 54.1421 118.335 53.2298 118.107 52.6078C117.878 51.9858 117.428 51.6748 116.756 51.6748C116.084 51.6748 115.42 51.9996 114.679 52.6562C113.938 53.3127 113.238 54.2665 112.58 55.5243C111.922 56.7821 111.375 58.2266 110.932 59.8576L109.132 66.7688H105.15L108.266 55.2617C108.564 54.0868 108.592 53.1952 108.349 52.5802C108.107 51.972 107.636 51.661 106.943 51.661C106.32 51.661 105.635 51.9927 104.887 52.6631C104.139 53.3335 103.425 54.2872 102.754 55.5312C102.082 56.7752 101.542 58.2266 101.126 59.8853L99.4297 66.7619H95.4824L99.1181 51.972C99.2081 51.578 99.1873 51.2947 99.0488 51.1081C98.9103 50.9215 98.6679 50.8524 98.3217 50.9007L97.3522 51.039L97.5599 50.2787L103.654 49.4839L103.758 49.6567L102.027 54.9783H102.234C103.045 53.2713 104.056 51.9167 105.281 50.9007C106.507 49.8848 107.774 49.3803 109.09 49.3803C110.475 49.3803 111.403 49.8433 111.874 50.7763C112.345 51.7093 112.317 53.1123 111.791 54.9783H111.999C112.83 53.2505 113.855 51.889 115.08 50.8869C116.306 49.8848 117.587 49.3872 118.924 49.3872C120.378 49.3872 121.368 49.8779 121.901 50.8524C122.435 51.8337 122.435 53.2782 121.901 55.1857L119.582 63.3063C119.422 63.9076 119.415 64.3706 119.568 64.7093C119.72 65.041 120.011 65.2069 120.447 65.2069C120.773 65.2069 121.098 65.0894 121.431 64.8613C121.763 64.6332 122.095 64.2877 122.421 63.8246L122.871 64.2738C122.199 65.2621 121.444 66.0155 120.606 66.5338C119.762 67.0521 118.848 67.3079 117.85 67.3079L117.864 67.3286Z" fill="#0E2A3F"/>
<path d="M147.4 67.3286C146.341 67.3286 145.614 66.983 145.219 66.2919C144.824 65.6008 144.817 64.6125 145.184 63.3201L147.469 55.3377C147.816 54.1421 147.871 53.2298 147.643 52.6078C147.414 51.9858 146.964 51.6748 146.292 51.6748C145.62 51.6748 144.956 51.9996 144.215 52.6562C143.474 53.3127 142.774 54.2665 142.123 55.5243C141.465 56.7821 140.918 58.2266 140.475 59.8576L138.675 66.7688H134.693L137.809 55.2617C138.107 54.0868 138.141 53.1952 137.892 52.5802C137.65 51.972 137.186 51.661 136.493 51.661C135.87 51.661 135.184 51.9927 134.43 52.6631C133.675 53.3335 132.968 54.2872 132.297 55.5312C131.625 56.7752 131.085 58.2266 130.669 59.8853L128.973 66.7619H125.025L128.661 51.972C128.751 51.578 128.73 51.2947 128.592 51.1081C128.453 50.9215 128.211 50.8524 127.865 50.9007L126.895 51.039L127.103 50.2787L133.197 49.4839L133.301 49.6567L131.57 54.9783H131.777C132.588 53.2713 133.599 51.9167 134.824 50.9007C136.05 49.8848 137.317 49.3803 138.633 49.3803C140.018 49.3803 140.946 49.8433 141.424 50.7763C141.895 51.7093 141.867 53.1123 141.341 54.9783H141.549C142.38 53.2505 143.404 51.889 144.63 50.8869C145.856 49.8848 147.137 49.3872 148.474 49.3872C149.928 49.3872 150.918 49.8779 151.451 50.8524C151.985 51.8337 151.985 53.2782 151.451 55.1857L149.131 63.3063C148.972 63.9076 148.965 64.3706 149.111 64.7093C149.256 65.0479 149.554 65.2069 149.997 65.2069C150.323 65.2069 150.648 65.0894 150.98 64.8613C151.313 64.6332 151.645 64.2877 151.964 63.8246L152.414 64.2738C151.742 65.2621 150.987 66.0155 150.143 66.5338C149.298 67.0521 148.384 67.3079 147.393 67.3079L147.4 67.3286Z" fill="#0E2A3F"/>
<path d="M157.683 67.3286C156.644 67.3286 155.931 66.983 155.55 66.2919C155.169 65.6008 155.142 64.6125 155.467 63.3201L158.341 51.9167C158.431 51.5504 158.403 51.2809 158.258 51.1081C158.106 50.9353 157.849 50.8593 157.482 50.88L156.409 51.0528L156.582 50.2926L162.676 49.4632L162.815 49.636L159.421 63.3201C159.262 63.9214 159.255 64.3844 159.401 64.7231C159.546 65.0617 159.844 65.2207 160.287 65.2207C160.612 65.2207 160.938 65.1032 161.27 64.8751C161.603 64.6471 161.935 64.3084 162.254 63.873L162.704 64.2877C162.06 65.276 161.305 66.0293 160.453 66.5476C159.601 67.066 158.673 67.3217 157.683 67.3217V67.3286ZM161.804 46.8024C161.111 46.8024 160.55 46.5467 160.128 46.0422C159.698 45.5377 159.553 44.8811 159.698 44.0725C159.788 43.4021 160.093 42.8631 160.599 42.4484C161.104 42.0337 161.707 41.8264 162.399 41.8264C163.14 41.8264 163.715 42.0821 164.13 42.5866C164.546 43.0911 164.684 43.727 164.546 44.4872C164.407 45.199 164.103 45.7658 163.625 46.1804C163.154 46.5951 162.545 46.8024 161.81 46.8024H161.804Z" fill="#0E2A3F"/>
<path d="M169.179 67.2595C167.815 67.2595 166.845 66.8448 166.27 66.0155C165.696 65.1861 165.592 64.032 165.959 62.5599L168.867 50.7763H166.617L166.79 49.9124H169.075L173.195 45.7312L173.749 43.7615H174.58L172.988 49.9124L178.32 49.6706L178.008 50.9146L172.814 50.7763L169.975 62.2143C169.719 63.2994 169.712 64.0942 169.941 64.6125C170.169 65.1308 170.668 65.3866 171.429 65.3866C171.914 65.3866 172.413 65.2345 172.918 64.9373C173.424 64.6401 173.943 64.1633 174.476 63.5205L174.961 64.0043C174.179 65.0617 173.306 65.8703 172.344 66.4232C171.381 66.9761 170.328 67.2526 169.179 67.2526V67.2595Z" fill="#0E2A3F"/>
<path d="M199.892 67.3286C198.833 67.3286 198.106 66.983 197.711 66.2919C197.316 65.6008 197.309 64.6125 197.676 63.3201L199.962 55.3377C200.308 54.1421 200.363 53.2298 200.135 52.6078C199.906 51.9858 199.456 51.6748 198.784 51.6748C198.113 51.6748 197.448 51.9996 196.707 52.6562C195.966 53.3127 195.266 54.2665 194.616 55.5243C193.958 56.7821 193.411 58.2266 192.967 59.8576L191.167 66.7688H187.185L190.301 55.2617C190.599 54.0868 190.634 53.1952 190.384 52.5802C190.142 51.972 189.678 51.661 188.985 51.661C188.362 51.661 187.677 51.9927 186.922 52.6631C186.167 53.3335 185.461 54.2872 184.789 55.5312C184.117 56.7752 183.577 58.2266 183.161 59.8853L181.465 66.7619H177.518L181.153 51.972C181.243 51.578 181.222 51.2947 181.084 51.1081C180.945 50.9215 180.703 50.8524 180.357 50.9007L179.387 51.039L179.595 50.2787L185.689 49.4839L185.793 49.6567L184.062 54.9783H184.269C185.08 53.2713 186.091 51.9167 187.317 50.9007C188.542 49.8848 189.81 49.3803 191.125 49.3803C192.51 49.3803 193.438 49.8433 193.916 50.7763C194.387 51.7093 194.359 53.1123 193.833 54.9783H194.041C194.872 53.2505 195.897 51.889 197.122 50.8869C198.348 49.8848 199.629 49.3872 200.966 49.3872C202.42 49.3872 203.41 49.8779 203.944 50.8524C204.477 51.8337 204.477 53.2782 203.944 55.1857L201.624 63.3063C201.464 63.9076 201.457 64.3706 201.603 64.7093C201.748 65.0479 202.046 65.2069 202.489 65.2069C202.815 65.2069 203.14 65.0894 203.473 64.8613C203.805 64.6332 204.137 64.2877 204.456 63.8246L204.906 64.2738C204.234 65.2621 203.48 66.0155 202.635 66.5338C201.79 67.0521 200.876 67.3079 199.885 67.3079L199.892 67.3286Z" fill="#0E2A3F"/>
<path d="M212.738 67.2595C211.401 67.2595 210.273 66.8794 209.359 66.1192C208.444 65.3589 207.835 64.3084 207.523 62.9607C207.212 61.6131 207.26 60.0857 207.683 58.3856C208.098 56.637 208.791 55.082 209.76 53.7343C210.73 52.3867 211.865 51.3431 213.167 50.6105C214.469 49.871 215.84 49.5047 217.267 49.5047C218.534 49.5047 219.538 49.7881 220.279 50.3548C221.02 50.9215 221.387 51.6541 221.387 52.5456C221.387 53.8587 220.91 54.9438 219.947 55.8077C218.991 56.6716 217.738 57.3074 216.194 57.729C214.649 58.1437 212.987 58.3717 211.208 58.4201L211.277 57.6253C212.523 57.6046 213.707 57.3351 214.822 56.8305C215.937 56.326 216.845 55.6487 217.523 54.8056C218.202 53.9624 218.541 53.0501 218.541 52.0618C218.541 51.5297 218.417 51.1081 218.16 50.7833C217.904 50.4584 217.502 50.2995 216.948 50.2995C216.256 50.2995 215.57 50.5621 214.892 51.0943C214.213 51.6264 213.59 52.3867 213.043 53.375C212.489 54.3633 212.039 55.5382 211.692 56.8997C211.298 58.4685 211.18 59.8162 211.325 60.9427C211.478 62.0692 211.858 62.94 212.468 63.5551C213.077 64.1633 213.881 64.4743 214.871 64.4743C215.861 64.4743 216.789 64.1633 217.71 63.5413C218.631 62.9193 219.421 61.9724 220.065 60.7077L220.653 61.0533C219.753 63.1266 218.631 64.6816 217.295 65.7183C215.958 66.755 214.435 67.2733 212.724 67.2733L212.738 67.2595Z" fill="#0E2A3F"/>
<path d="M235.589 67.3286C234.53 67.3286 233.796 66.983 233.394 66.2919C232.992 65.6008 232.972 64.6125 233.339 63.3201L235.624 55.3377C235.97 54.1421 236.026 53.2298 235.776 52.6078C235.534 51.9858 235.07 51.6748 234.378 51.6748C233.733 51.6748 233.041 52.0065 232.3 52.6769C231.559 53.3473 230.853 54.301 230.167 55.545C229.488 56.7891 228.934 58.2404 228.519 59.8991L226.822 66.7757H222.875L226.511 51.9858C226.601 51.6195 226.58 51.3361 226.441 51.1357C226.303 50.9422 226.061 50.8662 225.714 50.9077L224.745 51.0113L224.953 50.2856L231.047 49.4909L231.15 49.6636L229.419 54.9852H229.627C230.437 53.2574 231.448 51.8959 232.674 50.8938C233.9 49.8917 235.202 49.3941 236.587 49.3941C238.062 49.3941 239.073 49.8848 239.62 50.8593C240.16 51.8407 240.167 53.2851 239.634 55.1926L237.314 63.3132C237.127 63.9145 237.12 64.3775 237.279 64.7162C237.438 65.0479 237.743 65.2138 238.179 65.2138C238.477 65.2138 238.803 65.0963 239.149 64.8682C239.495 64.6401 239.828 64.2946 240.153 63.8315L240.603 64.2808C239.931 65.2691 239.177 66.0224 238.332 66.5407C237.487 67.059 236.573 67.3148 235.582 67.3148L235.589 67.3286Z" fill="#0E2A3F"/>
<path d="M247.052 67.2595C245.688 67.2595 244.718 66.8448 244.143 66.0155C243.569 65.1861 243.465 64.032 243.832 62.5599L246.74 50.7763H244.49L244.663 49.9124H246.948L251.068 45.7312L251.622 43.7615H252.453L250.861 49.9124L256.193 49.6706L255.881 50.9146L250.688 50.7763L247.848 62.2143C247.592 63.2994 247.585 64.0942 247.814 64.6125C248.042 65.1308 248.541 65.3866 249.303 65.3866C249.787 65.3866 250.286 65.2345 250.791 64.9373C251.297 64.6401 251.816 64.1633 252.35 63.5205L252.834 64.0043C252.052 65.0617 251.179 65.8703 250.217 66.4232C249.261 66.9761 248.201 67.2526 247.045 67.2526L247.052 67.2595Z" fill="#0E2A3F"/>
<path d="M267.03 67.2941C266.012 67.2941 265.195 66.9692 264.572 66.3265C263.949 65.6838 263.561 64.7507 263.416 63.5275C263.263 62.3042 263.402 60.8874 263.817 59.2771C264.35 57.183 265.071 55.3999 265.978 53.9348C266.892 52.4696 267.951 51.3638 269.163 50.6036C270.375 49.8434 271.684 49.4632 273.097 49.4632C273.907 49.4632 274.634 49.6153 275.292 49.9263C275.95 50.2373 276.518 50.6589 277.003 51.191L280.015 49.4287L280.465 49.4978L276.933 63.3201C276.774 63.9214 276.767 64.3845 276.912 64.7231C277.058 65.0617 277.342 65.2207 277.764 65.2207C278.062 65.2207 278.381 65.1032 278.72 64.8751C279.052 64.6471 279.392 64.3015 279.738 63.8385L280.188 64.2877C279.565 65.276 278.831 66.0293 277.986 66.5476C277.141 67.066 276.241 67.3217 275.271 67.3217C274.232 67.3217 273.547 66.9831 273.215 66.3058C272.882 65.6285 272.896 64.6402 273.27 63.3478L273.685 61.8273H273.478C272.716 63.5067 271.774 64.8406 270.652 65.8151C269.53 66.7965 268.325 67.2802 267.037 67.2802L267.03 67.2941ZM269.35 65.0134C269.925 65.0134 270.541 64.6885 271.199 64.032C271.857 63.3754 272.515 62.3595 273.173 60.9911C273.831 59.6227 274.413 57.9225 274.918 55.8906L275.922 51.9167C275.694 51.5504 275.382 51.2601 274.987 51.0528C274.593 50.8455 274.212 50.7418 273.845 50.7418C273.104 50.7418 272.384 51.039 271.684 51.6403C270.978 52.2415 270.327 53.14 269.724 54.3356C269.122 55.5312 268.616 56.9826 268.201 58.6896C267.806 60.1617 267.605 61.3712 267.591 62.318C267.578 63.2648 267.723 63.949 268.021 64.3775C268.319 64.806 268.762 65.0134 269.336 65.0134H269.35Z" fill="#0E2A3F"/>
<path d="M294.937 67.3286C293.877 67.3286 293.143 66.983 292.735 66.2919C292.326 65.6008 292.312 64.6125 292.686 63.3201L294.972 55.3377C295.318 54.1421 295.373 53.2298 295.124 52.6078C294.882 51.9858 294.418 51.6748 293.725 51.6748C293.081 51.6748 292.389 52.0065 291.648 52.6769C290.907 53.3473 290.2 54.301 289.515 55.545C288.836 56.7891 288.282 58.2404 287.867 59.8991L286.17 66.7757H282.223L285.858 51.9858C285.948 51.6195 285.928 51.3361 285.789 51.1357C285.651 50.9422 285.408 50.8662 285.062 50.9077L284.092 51.0113L284.3 50.2856L290.394 49.4909L290.498 49.6636L288.767 54.9852H288.975C289.785 53.2574 290.796 51.8959 292.022 50.8938C293.247 49.8917 294.549 49.3941 295.934 49.3941C297.409 49.3941 298.42 49.8848 298.967 50.8593C299.514 51.8337 299.514 53.2851 298.988 55.1926L296.668 63.3132C296.481 63.9145 296.474 64.3775 296.634 64.7162C296.793 65.0548 297.098 65.2138 297.534 65.2138C297.832 65.2138 298.157 65.0963 298.503 64.8682C298.85 64.6401 299.182 64.2946 299.508 63.8315L299.958 64.2808C299.286 65.2691 298.531 66.0224 297.686 66.5407C296.841 67.059 295.927 67.3148 294.937 67.3148V67.3286Z" fill="#0E2A3F"/>
<path d="M306.045 67.2941C304.985 67.2941 304.119 66.9692 303.469 66.3127C302.811 65.6561 302.409 64.6955 302.257 63.4307C302.104 62.166 302.236 60.6801 302.651 58.973C303.136 56.9204 303.829 55.1926 304.729 53.7896C305.629 52.3867 306.682 51.3154 307.88 50.5967C309.078 49.871 310.387 49.5047 311.792 49.5047C312.741 49.5047 313.572 49.6913 314.285 50.0576C314.999 50.4239 315.567 50.9008 315.982 51.4744L315.255 52.3037C314.957 51.7992 314.604 51.4122 314.202 51.1496C313.801 50.8869 313.344 50.7487 312.831 50.7487C312.09 50.7487 311.363 51.0321 310.65 51.5988C309.936 52.1655 309.258 53.0294 308.621 54.1905C307.984 55.3516 307.45 56.8098 307.014 58.5652C306.619 60.065 306.425 61.2952 306.425 62.2627C306.425 63.2303 306.585 63.9352 306.91 64.3706C307.236 64.806 307.707 65.0272 308.33 65.0272C308.905 65.0272 309.535 64.73 310.22 64.1287C310.899 63.5275 311.571 62.5875 312.229 61.309C312.887 60.0304 313.448 58.4616 313.905 56.5887L317.263 43.3883C317.353 43.022 317.332 42.7594 317.194 42.6143C317.055 42.4622 316.827 42.4208 316.501 42.4968L315.463 42.8423L315.67 42.0476L323.011 40.4234L322.838 41.2182L321.626 41.5638L316.086 63.2994C315.947 63.9214 315.947 64.3983 316.086 64.7369C316.224 65.0756 316.488 65.2345 316.882 65.2345C317.159 65.2345 317.45 65.117 317.748 64.889C318.046 64.6609 318.35 64.3153 318.648 63.8523L319.064 64.267C318.461 65.2553 317.755 66.0155 316.931 66.5476C316.107 67.0798 315.283 67.3424 314.459 67.3424C313.42 67.3424 312.727 67.0176 312.381 66.361C312.035 65.7045 312.049 64.7162 312.416 63.41L313.177 60.7837L314.043 61.9586H312.623C311.862 63.638 310.906 64.9512 309.75 65.898C308.593 66.8448 307.36 67.3148 306.045 67.3148V67.2941Z" fill="#0E2A3F"/>
<path d="M335.095 67.2595C333.759 67.2595 332.63 66.8794 331.716 66.1192C330.802 65.3589 330.192 64.3084 329.881 62.9607C329.569 61.6131 329.618 60.0857 330.04 58.3856C330.456 56.637 331.148 55.082 332.118 53.7343C333.087 52.3867 334.223 51.3431 335.525 50.6105C336.827 49.871 338.198 49.5047 339.624 49.5047C340.892 49.5047 341.896 49.7881 342.637 50.3548C343.378 50.9215 343.745 51.6541 343.745 52.5456C343.745 53.8587 343.267 54.9438 342.304 55.8077C341.349 56.6716 340.095 57.3074 338.551 57.729C337.007 58.1437 335.345 58.3717 333.565 58.4201L333.634 57.6253C334.881 57.6046 336.065 57.3351 337.18 56.8305C338.302 56.326 339.202 55.6487 339.881 54.8056C340.559 53.9624 340.906 53.0501 340.906 52.0618C340.906 51.5297 340.781 51.1081 340.525 50.7833C340.268 50.4584 339.867 50.2995 339.313 50.2995C338.62 50.2995 337.935 50.5621 337.256 51.0943C336.577 51.6264 335.954 52.3867 335.407 53.375C334.86 54.3633 334.403 55.5382 334.057 56.8997C333.662 58.4685 333.544 59.8162 333.69 60.9427C333.842 62.0692 334.223 62.94 334.832 63.5551C335.442 64.1633 336.245 64.4743 337.235 64.4743C338.226 64.4743 339.153 64.1633 340.075 63.5413C340.996 62.9193 341.785 61.9724 342.429 60.7077L343.018 61.0533C342.117 63.1266 340.996 64.6816 339.659 65.7183C338.322 66.755 336.799 67.2733 335.088 67.2733L335.095 67.2595Z" fill="#0E2A3F"/>
<path d="M345.275 67.3286C344.672 67.3286 344.202 67.1489 343.855 66.7964C343.509 66.444 343.336 65.974 343.336 65.3935C343.336 64.6125 343.599 63.8937 344.132 63.251C344.666 62.6083 345.365 62.0968 346.244 61.7306L346.591 62.1798C346.293 62.4078 346.071 62.6566 345.933 62.9193C345.794 63.1819 345.725 63.4583 345.725 63.7348C345.725 63.9905 345.808 64.1978 345.967 64.3568C346.127 64.5158 346.348 64.5987 346.625 64.5987C347.02 64.5987 347.436 64.4328 347.872 64.0942C348.308 63.7624 348.834 63.2095 349.451 62.4355C350.06 61.6614 350.863 60.5764 351.854 59.1665L352.269 59.6848C351.14 61.6407 350.226 63.1335 349.534 64.1633C348.841 65.193 348.149 65.974 347.456 66.5131C346.764 67.0522 346.037 67.3217 345.275 67.3217V67.3286ZM356.355 67.3286C355.365 67.3286 354.603 67.0383 354.07 66.4509C353.537 65.8634 353.086 64.9581 352.719 63.7417L349.153 51.889C349.035 51.4951 348.89 51.2256 348.703 51.0804C348.516 50.9353 348.267 50.88 347.941 50.9215L347.006 51.0597L347.179 50.2995L353.031 49.5047L357.29 63.2579C357.498 63.9698 357.705 64.4743 357.913 64.7576C358.121 65.0479 358.384 65.1861 358.71 65.1861C358.987 65.1861 359.284 65.0686 359.61 64.8198C359.935 64.578 360.254 64.2117 360.579 63.7348L361.064 64.184C360.441 65.2414 359.728 66.0293 358.931 66.5476C358.135 67.066 357.276 67.3217 356.348 67.3217L356.355 67.3286ZM351.473 60.2446H352.477V60.9012H351.473V60.2446ZM354.485 56.9618C355.642 54.9576 356.563 53.4579 357.255 52.4696C357.948 51.4813 358.626 50.7141 359.298 50.1751C359.97 49.636 360.683 49.3596 361.445 49.3596C362.047 49.3596 362.518 49.5392 362.865 49.8986C363.211 50.258 363.384 50.7211 363.384 51.3016C363.384 52.1102 363.114 52.8359 362.574 53.4786C362.034 54.1214 361.32 54.619 360.441 54.9645L360.129 54.5153C360.406 54.308 360.621 54.0661 360.766 53.7896C360.912 53.5132 360.995 53.2367 360.995 52.9603C360.995 52.6838 360.912 52.4696 360.752 52.3245C360.593 52.1724 360.358 52.0964 360.06 52.0964C359.693 52.0964 359.291 52.2553 358.862 52.5802C358.433 52.905 357.92 53.4372 357.325 54.1905C356.722 54.9369 355.926 56.0288 354.935 57.4525L354.485 56.9688V56.9618ZM354.485 55.7524H355.386V56.3744H354.485V55.7524Z" fill="#0E2A3F"/>
<path d="M359.576 75L359.819 74.1361H360.857C361.155 74.1361 361.418 74.0532 361.633 73.8735C361.855 73.7007 362.007 73.445 362.097 73.0994L367.325 51.9858C367.415 51.5919 367.401 51.3085 367.277 51.1219C367.152 50.9353 366.91 50.8593 366.564 50.88L365.733 51.0528L365.94 50.2926L371.896 49.4978L372.034 49.6706L370.476 54.6812H370.684C371.397 53.0916 372.346 51.8268 373.523 50.88C374.7 49.9332 375.933 49.4632 377.228 49.4632C378.315 49.4632 379.181 49.795 379.825 50.4653C380.469 51.1357 380.864 52.1033 381.002 53.368C381.141 54.6328 381.002 56.1325 380.587 57.8603C380.081 59.8853 379.382 61.6061 378.488 63.0091C377.602 64.4121 376.57 65.4833 375.393 66.2021C374.216 66.9277 372.935 67.294 371.55 67.294C370.601 67.294 369.777 67.1074 369.07 66.7411C368.364 66.3749 367.796 65.9256 367.36 65.3935L367.949 64.2877C368.226 64.8613 368.572 65.2967 368.987 65.587C369.403 65.8773 369.901 66.0155 370.476 66.0155C371.189 66.0155 371.91 65.7321 372.623 65.1654C373.336 64.5987 374.008 63.7348 374.631 62.5737C375.254 61.4126 375.788 59.9544 376.224 58.2059C376.619 56.7061 376.813 55.4829 376.813 54.5222C376.813 53.5615 376.66 52.8635 376.349 52.4143C376.037 51.9651 375.58 51.737 374.984 51.737C374.389 51.737 373.759 52.048 373.045 52.67C372.332 53.292 371.64 54.2043 370.968 55.3999C370.296 56.5956 369.756 58.0262 369.341 59.6848L366.016 73.0925C365.926 73.4173 365.94 73.6661 366.072 73.8527C366.197 74.0393 366.425 74.1292 366.744 74.1292H368.406L368.198 74.9931H359.576V75Z" fill="#0E2A3F"/>
<path d="M388.453 67.2595C387.116 67.2595 385.988 66.8794 385.073 66.1192C384.159 65.3589 383.55 64.3084 383.238 62.9607C382.927 61.6131 382.975 60.0857 383.398 58.3856C383.813 56.637 384.506 55.082 385.475 53.7343C386.445 52.3867 387.58 51.3431 388.882 50.6105C390.184 49.871 391.555 49.5047 392.982 49.5047C394.249 49.5047 395.253 49.7881 395.994 50.3548C396.735 50.9215 397.102 51.6541 397.102 52.5456C397.102 53.8587 396.624 54.9438 395.662 55.8077C394.706 56.6716 393.453 57.3074 391.908 57.729C390.364 58.1437 388.702 58.3717 386.922 58.4201L386.992 57.6253C388.238 57.6046 389.422 57.3351 390.537 56.8305C391.659 56.326 392.559 55.6487 393.238 54.8056C393.917 53.9624 394.263 53.0501 394.263 52.0618C394.263 51.5297 394.138 51.1081 393.882 50.7833C393.626 50.4584 393.224 50.2995 392.67 50.2995C391.978 50.2995 391.292 50.5621 390.613 51.0943C389.935 51.6264 389.312 52.3867 388.764 53.375C388.217 54.3633 387.76 55.5382 387.414 56.8997C387.019 58.4685 386.902 59.8162 387.047 60.9427C387.199 62.0692 387.58 62.94 388.19 63.5551C388.799 64.1633 389.602 64.4743 390.593 64.4743C391.583 64.4743 392.511 64.1633 393.432 63.5413C394.353 62.9193 395.142 61.9724 395.786 60.7077L396.375 61.0533C395.475 63.1266 394.353 64.6816 393.016 65.7183C391.68 66.755 390.156 67.2733 388.446 67.2733L388.453 67.2595Z" fill="#0E2A3F"/>
<path d="M402.234 51.9858C402.324 51.6195 402.303 51.3362 402.165 51.1357C402.026 50.9422 401.77 50.8662 401.403 50.9077L400.468 51.0459L400.676 50.2857L406.736 49.4909L406.839 49.6637L405.316 54.4669H405.524C406.265 52.8082 407.089 51.5504 408.003 50.6865C408.917 49.8226 409.963 49.3872 411.14 49.3872C411.832 49.3872 412.359 49.5462 412.712 49.871C413.072 50.1958 413.252 50.6174 413.252 51.1496C413.252 51.585 413.1 52.0342 412.802 52.4972C412.504 52.9603 412.165 53.2782 411.798 53.4648C411.541 53.14 411.23 52.8912 410.863 52.7046C410.496 52.518 410.101 52.4281 409.686 52.4281C408.529 52.4281 407.511 52.9603 406.625 54.0177C405.738 55.0751 404.977 56.8374 404.353 59.3047L402.518 66.7688H398.605L402.241 51.9789L402.234 51.9858Z" fill="#0E2A3F"/>
<path d="M417.401 67.2595C416.016 67.2595 415.039 66.8448 414.478 66.0155C413.911 65.1861 413.814 64.032 414.188 62.5599L417.096 50.7764H414.811L414.984 49.9816H417.304L421.424 45.7312L421.978 43.7615H422.775L421.216 49.9125H429.942L429.734 50.7764H421.043L418.204 62.2143C417.927 63.2994 417.913 64.0942 418.149 64.6125C418.391 65.1308 418.883 65.3866 419.617 65.3866C420.102 65.3866 420.6 65.2345 421.106 64.9373C421.611 64.6402 422.144 64.1633 422.698 63.5205L423.149 64.0043C422.387 65.0617 421.528 65.8703 420.566 66.4232C419.61 66.9761 418.55 67.2526 417.394 67.2526L417.401 67.2595ZM427.13 67.3286C426.043 67.3286 425.316 66.983 424.949 66.2919C424.582 65.6008 424.554 64.6125 424.88 63.3201L427.719 51.9167C427.837 51.5228 427.83 51.2394 427.698 51.0528C427.574 50.8662 427.304 50.7764 426.888 50.7764H425.815L425.988 50.2926L432.082 49.4632L432.22 49.636L428.827 63.3201C428.668 63.9214 428.668 64.3844 428.827 64.7231C428.986 65.0617 429.291 65.2207 429.727 65.2207C430.053 65.2207 430.371 65.1032 430.697 64.8751C431.022 64.6471 431.355 64.3084 431.701 63.873L432.117 64.2877C431.472 65.276 430.718 66.0293 429.866 66.5476C429.014 67.066 428.1 67.3217 427.13 67.3217V67.3286ZM431.216 46.8024C430.503 46.8024 429.935 46.5467 429.52 46.0422C429.104 45.5377 428.952 44.8811 429.07 44.0725C429.187 43.4021 429.492 42.8631 429.991 42.4484C430.489 42.0337 431.092 41.8264 431.805 41.8264C432.518 41.8264 433.114 42.0821 433.515 42.5866C433.917 43.0911 434.056 43.727 433.917 44.4872C433.779 45.199 433.481 45.7658 433.017 46.1804C432.553 46.5951 431.957 46.8024 431.216 46.8024Z" fill="#0E2A3F"/>
<path d="M438.763 67.2595C437.794 67.2595 436.914 67.1074 436.118 66.8102C435.321 66.5131 434.684 66.1053 434.213 65.6008C433.742 65.0963 433.5 64.5296 433.5 63.9076C433.5 63.2856 433.694 62.8432 434.075 62.5046C434.456 62.1729 434.968 62.007 435.612 62.007C435.82 63.4791 436.263 64.571 436.942 65.2691C437.62 65.974 438.486 66.3265 439.525 66.3265C440.238 66.3265 440.847 66.1468 441.339 65.7874C441.838 65.428 442.163 64.9442 442.323 64.3222C442.509 63.5827 442.426 62.8985 442.08 62.2696C441.734 61.6407 441.194 61.0532 440.453 60.5211L438.722 59.2425C437.773 58.5514 437.094 57.7566 436.679 56.8582C436.263 55.9597 436.215 54.923 436.54 53.7481C436.886 52.4143 437.627 51.3707 438.77 50.6174C439.913 49.871 441.235 49.4978 442.731 49.4978C443.701 49.4978 444.594 49.6429 445.418 49.9263C446.235 50.2165 446.886 50.5897 447.357 51.0459C447.828 51.5089 448.063 52.0134 448.063 52.5663C448.063 53.1192 447.863 53.5339 447.454 53.8103C447.052 54.0868 446.512 54.225 445.84 54.225C445.723 53.4648 445.48 52.7944 445.113 52.2208C444.746 51.6471 444.289 51.1979 443.749 50.8731C443.209 50.5483 442.648 50.3893 442.073 50.3893C441.429 50.3893 440.875 50.5414 440.425 50.8385C439.975 51.1357 439.705 51.578 439.608 52.1517C439.449 52.8428 439.532 53.4786 439.871 54.0522C440.21 54.6259 440.73 55.1788 441.45 55.7109L443.181 56.9549C444.241 57.7152 445.016 58.5652 445.501 59.5121C445.986 60.4589 446.069 61.5647 445.743 62.8294C445.515 63.7071 445.065 64.4743 444.414 65.1447C443.756 65.815 442.939 66.3334 441.955 66.6997C440.972 67.066 439.906 67.2526 438.756 67.2526L438.763 67.2595Z" fill="#0E2A3F"/>
<path d="M454.761 67.2595C453.425 67.2595 452.296 66.8794 451.382 66.1192C450.468 65.3589 449.858 64.3084 449.547 62.9607C449.235 61.6131 449.284 60.0857 449.706 58.3856C450.122 56.637 450.814 55.082 451.784 53.7343C452.753 52.3867 453.889 51.3431 455.191 50.6105C456.493 49.871 457.864 49.5047 459.29 49.5047C460.558 49.5047 461.562 49.7881 462.303 50.3548C463.044 50.9215 463.411 51.6541 463.411 52.5456C463.411 53.8587 462.933 54.9438 461.97 55.8077C461.015 56.6716 459.761 57.3074 458.217 57.729C456.673 58.1437 455.011 58.3717 453.231 58.4201L453.3 57.6253C454.547 57.6046 455.731 57.3351 456.846 56.8305C457.968 56.326 458.868 55.6487 459.547 54.8056C460.225 53.9624 460.572 53.0501 460.572 52.0618C460.572 51.5297 460.447 51.1081 460.191 50.7833C459.934 50.4584 459.533 50.2995 458.979 50.2995C458.286 50.2995 457.601 50.5621 456.922 51.0943C456.243 51.6264 455.62 52.3867 455.073 53.375C454.526 54.3633 454.069 55.5382 453.723 56.8997C453.328 58.4685 453.21 59.8162 453.356 60.9427C453.508 62.0692 453.889 62.94 454.498 63.5551C455.108 64.1633 455.911 64.4743 456.901 64.4743C457.892 64.4743 458.819 64.1633 459.741 63.5413C460.662 62.9193 461.451 61.9724 462.095 60.7077L462.684 61.0533C461.783 63.1266 460.662 64.6816 459.325 65.7183C457.989 66.755 456.465 67.2733 454.754 67.2733L454.761 67.2595Z" fill="#0E2A3F"/>
</g>
<defs>
<clipPath id="clip0_457_4759">
<rect width="533" height="75" fill="white"/>
</clipPath>
</defs>
</svg>
