<svg width="287" height="38" viewBox="0 0 287 38" fill="none" xmlns="http://www.w3.org/2000/svg">
<g clip-path="url(#clip0_548_12111)">
<path d="M6.86977 36.62V36H8.88977C9.52977 36 9.98977 35.86 10.2798 35.59C10.5698 35.32 10.7098 34.85 10.7098 34.17V3.74H9.26977C7.88977 3.74 6.57977 4.23 5.32977 5.2C4.07977 6.18 3.02977 7.44 2.18977 8.99C1.33977 10.54 0.849766 12.1 0.729766 13.67L0.589766 14.97H0.00976562L1.29977 2.16H1.63977L2.35977 3.02H27.7498L28.4198 2.16H28.7998L30.0998 14.98H29.5198L29.3798 13.68C29.2498 12.11 28.7698 10.55 27.9398 9C27.1098 7.45 26.0698 6.18 24.8198 5.21C23.5698 4.23 22.2798 3.75 20.9298 3.75H19.4398V34.18C19.4398 34.82 19.5798 35.28 19.8698 35.57C20.1598 35.86 20.6198 36 21.2598 36H23.2798V36.62H6.86977Z" fill="white"/>
<path d="M41.0391 37.34C38.8291 37.34 36.8391 36.81 35.0591 35.76C33.2791 34.7 31.8891 33.24 30.8791 31.37C29.8691 29.5 29.3691 27.38 29.3691 25.01C29.3691 22.45 29.8691 20.22 30.8791 18.31C31.8891 16.41 33.2991 14.93 35.0991 13.89C36.9091 12.85 38.9591 12.33 41.2691 12.33C43.2891 12.33 45.0791 12.75 46.6491 13.6C48.2191 14.45 49.4391 15.65 50.3191 17.2C51.1991 18.75 51.6391 20.54 51.6391 22.55V22.69H35.8491L35.7991 21.97H41.3191C42.8891 21.97 43.9991 21.72 44.6591 21.23C45.3191 20.74 45.6391 19.83 45.6391 18.52C45.6391 17.5 45.4491 16.56 45.0591 15.71C44.6791 14.86 44.1391 14.2 43.4491 13.72C42.7591 13.24 41.9491 13 41.0291 13C39.9991 13 39.1291 13.31 38.3891 13.94C37.6491 14.57 37.0991 15.5 36.7091 16.75C36.3291 18 36.1291 19.53 36.1291 21.36C36.1291 23.7 36.4691 25.69 37.1391 27.34C37.8091 28.99 38.7791 30.25 40.0391 31.13C41.2991 32.01 42.8491 32.45 44.6691 32.45C46.4891 32.45 47.9391 32 49.2091 31.11C50.4691 30.21 51.3491 28.95 51.8291 27.32L52.3091 27.46C51.8591 30.6 50.6491 33.03 48.6891 34.76C46.7191 36.49 44.1691 37.35 41.0291 37.35L41.0391 37.34Z" fill="white"/>
<path d="M56.3995 36.86L55.4395 26.68H56.0595L56.7795 34.31L56.1095 27.83C57.3295 31 58.6895 33.25 60.1895 34.57C61.6895 35.9 63.3095 36.56 65.0395 36.56C66.2195 36.56 67.1695 36.24 67.8695 35.6C68.5695 34.96 68.9295 34.08 68.9295 32.96C68.9295 32.32 68.7595 31.74 68.4295 31.21C68.0995 30.68 67.6095 30.21 66.9695 29.79C66.3295 29.37 65.5495 28.99 64.6195 28.64L62.1195 27.58C60.3895 26.91 58.9495 25.92 57.7995 24.63C56.6495 23.33 56.0695 21.81 56.0695 20.05C56.0695 18.51 56.4895 17.15 57.3195 15.97C58.1495 14.79 59.3095 13.87 60.7995 13.21C62.2895 12.55 64.0195 12.23 66.0095 12.23C67.0295 12.23 68.0695 12.35 69.1295 12.59C70.1895 12.83 71.1495 13.14 72.0095 13.53C72.3295 13.63 72.5395 13.61 72.6295 13.48C72.7295 13.35 72.7695 13.18 72.7695 12.95V12.33H73.3495L74.3095 21.45H73.6895L72.7795 13.77L73.7895 20.73C72.6695 18.01 71.3995 16.03 69.9695 14.8C68.5495 13.57 67.0795 12.95 65.5795 12.95C64.4295 12.95 63.5195 13.24 62.8395 13.81C62.1695 14.39 61.8295 15.17 61.8295 16.16C61.8295 17.09 62.1195 17.87 62.7195 18.51C63.3095 19.15 64.1495 19.66 65.2395 20.05L68.4995 21.2C70.3595 21.84 71.8695 22.82 73.0395 24.15C74.2095 25.48 74.7895 27.17 74.7895 29.21C74.7895 30.84 74.3795 32.27 73.5695 33.48C72.7495 34.7 71.5695 35.63 70.0195 36.29C68.4695 36.95 66.6195 37.27 64.4795 37.27C63.5195 37.27 62.4495 37.12 61.2595 36.81C60.0695 36.5 58.9695 36.13 57.9495 35.68C57.4995 35.49 57.2195 35.44 57.1095 35.54C56.9995 35.64 56.9395 35.84 56.9395 36.16V36.83H56.4095L56.3995 36.86Z" fill="white"/>
<path d="M86.45 37.39C84.43 37.39 82.87 36.79 81.77 35.59C80.67 34.39 80.11 32.81 80.11 30.86V13.54H78V12.92H80.11L86.64 5.24V3.03H87.26V12.92L93.79 12.44V13.83L87.26 13.54V29.72C87.26 31.32 87.52 32.47 88.03 33.18C88.54 33.88 89.31 34.24 90.33 34.24C91 34.24 91.62 34.06 92.18 33.71C92.74 33.36 93.23 32.78 93.64 31.98L94.07 32.22C93.43 33.88 92.46 35.16 91.17 36.06C89.88 36.96 88.3 37.4 86.44 37.4L86.45 37.39Z" fill="white"/>
<path d="M95.6602 36.62V36H96.5201C97.0301 36 97.4102 35.88 97.6502 35.64C97.8902 35.4 98.0102 35.01 98.0102 34.46V14.93C98.0102 14.42 97.8702 14.04 97.6002 13.8C97.3302 13.56 96.9002 13.47 96.3302 13.54L95.6602 13.64V13.06L104.88 11.91L105.17 12.2V34.47C105.17 35.01 105.29 35.41 105.53 35.65C105.77 35.89 106.15 36.01 106.66 36.01H107.43V36.63H95.6702L95.6602 36.62ZM101.56 9.6C100.31 9.6 99.3102 9.22 98.5602 8.47C97.8102 7.72 97.4302 6.73 97.4302 5.52C97.4302 4.31 97.8102 3.32 98.5802 2.57C99.3502 1.82 100.34 1.44 101.56 1.44C102.78 1.44 103.81 1.82 104.56 2.57C105.31 3.32 105.69 4.31 105.69 5.52C105.69 6.73 105.31 7.76 104.56 8.5C103.81 9.24 102.81 9.6 101.56 9.6Z" fill="white"/>
<path d="M120 12.34L119.62 16.9L119.19 17.62L119.72 17.72V34.57C119.72 35.05 119.83 35.41 120.06 35.65C120.28 35.89 120.64 36.01 121.11 36.01H122.21V36.63H110.02V36.01H111.12C111.57 36.01 111.91 35.91 112.15 35.7C112.39 35.49 112.51 35.12 112.51 34.57V15.12C112.51 14.64 112.41 14.25 112.2 13.94C111.99 13.64 111.65 13.5 111.17 13.53L110.02 13.63V13.05L119.76 12.09L120 12.33V12.34ZM134.35 34.56C134.35 35.04 134.47 35.4 134.71 35.64C134.95 35.88 135.29 36 135.74 36H136.84V36.62H124.65V36H125.75C126.23 36 126.58 35.88 126.81 35.64C127.03 35.4 127.15 35.04 127.15 34.56V20.45C127.15 19.04 126.87 17.92 126.31 17.09C125.75 16.26 124.85 15.84 123.6 15.84C122.8 15.84 122.03 16.06 121.3 16.49C120.56 16.92 120.03 17.44 119.72 18.05L116.65 18.82L116.79 16.76H120.34L119.48 17.58C119.99 16.11 120.93 14.82 122.29 13.72C123.65 12.62 125.32 12.06 127.31 12.06C129.42 12.06 131.13 12.8 132.42 14.27C133.72 15.74 134.36 17.71 134.36 20.17V34.57L134.35 34.56ZM148.99 34.56C148.99 35.07 149.1 35.44 149.33 35.66C149.55 35.88 149.91 36 150.39 36H151.44V36.62H139.3V36H140.4C140.85 36 141.19 35.88 141.43 35.64C141.67 35.4 141.79 35.04 141.79 34.56V20.45C141.79 19.07 141.52 17.96 140.97 17.11C140.43 16.26 139.47 15.84 138.09 15.84C137.32 15.84 136.51 16.06 135.67 16.51C134.82 16.96 134.21 17.47 133.82 18.05L130.89 18.82L131.03 16.76H134.44L133.62 17.58C133.97 16.65 134.53 15.77 135.3 14.94C136.07 14.11 137 13.42 138.11 12.88C139.22 12.34 140.44 12.06 141.78 12.06C143.96 12.06 145.7 12.8 147.01 14.27C148.32 15.74 148.98 17.71 148.98 20.17V34.57L148.99 34.56Z" fill="white"/>
<path d="M166.369 37.15C163.869 37.15 161.689 36.65 159.819 35.66C157.949 34.67 156.499 33.24 155.479 31.36C154.459 29.49 153.939 27.29 153.939 24.76C153.939 22.23 154.469 20.04 155.519 18.18C156.579 16.32 158.079 14.89 160.029 13.88C161.979 12.87 164.249 12.37 166.849 12.37C169.449 12.37 171.539 12.87 173.429 13.88C175.319 14.89 176.769 16.32 177.799 18.18C178.819 20.04 179.339 22.23 179.339 24.76C179.339 27.29 178.809 29.49 177.759 31.36C176.709 33.23 175.199 34.66 173.249 35.66C171.299 36.65 169.009 37.15 166.389 37.15H166.369ZM166.509 36.48C167.569 36.48 168.449 36.09 169.169 35.3C169.889 34.52 170.429 33.31 170.799 31.68C171.169 30.05 171.349 27.94 171.349 25.34C171.349 21.08 170.959 17.97 170.169 16C169.379 14.03 168.229 13.05 166.689 13.05C165.629 13.05 164.749 13.43 164.049 14.2C163.349 14.97 162.809 16.18 162.439 17.82C162.069 19.47 161.889 21.59 161.889 24.18C161.889 27.03 162.059 29.36 162.419 31.16C162.769 32.97 163.279 34.3 163.959 35.17C164.639 36.04 165.479 36.47 166.499 36.47L166.509 36.48Z" fill="white"/>
<path d="M182.16 36.62V36H183.36C183.78 36 184.09 35.89 184.32 35.66C184.54 35.44 184.66 35.07 184.66 34.56V15.12C184.66 14.64 184.56 14.25 184.35 13.94C184.14 13.64 183.78 13.5 183.27 13.53L182.17 13.63V13.05L191.91 12.09L192.2 12.33L191.77 16.89L191.43 17.61L191.86 17.71V34.56C191.86 35.01 191.97 35.36 192.2 35.62C192.42 35.88 192.79 36 193.3 36H194.4V36.62H182.16ZM196.85 36.62V36H198C198.48 36 198.83 35.88 199.06 35.64C199.28 35.4 199.4 35.04 199.4 34.56V20.45C199.4 19.01 199.11 17.88 198.54 17.07C197.96 16.25 197.05 15.85 195.8 15.85C194.97 15.85 194.19 16.07 193.47 16.5C192.75 16.93 192.21 17.45 191.86 18.06L188.88 18.78L188.98 16.76H192.48L191.62 17.58C192.13 16.11 193.08 14.82 194.45 13.72C195.83 12.62 197.5 12.06 199.49 12.06C201.63 12.06 203.35 12.8 204.65 14.27C205.95 15.74 206.59 17.71 206.59 20.17V34.57C206.59 35.08 206.7 35.45 206.93 35.67C207.16 35.89 207.49 36.01 207.94 36.01H209.09V36.63H196.85V36.62Z" fill="white"/>
<path d="M211.49 36.62V36H212.35C212.86 36 213.24 35.88 213.48 35.64C213.72 35.4 213.84 35.01 213.84 34.46V14.93C213.84 14.42 213.7 14.04 213.43 13.8C213.16 13.56 212.73 13.47 212.16 13.54L211.49 13.64V13.06L220.71 11.91L221 12.2V34.47C221 35.01 221.12 35.41 221.36 35.65C221.6 35.89 221.98 36.01 222.49 36.01H223.26V36.63H211.5L211.49 36.62ZM217.39 9.6C216.14 9.6 215.14 9.22 214.39 8.47C213.64 7.72 213.26 6.73 213.26 5.52C213.26 4.31 213.64 3.32 214.41 2.57C215.18 1.82 216.17 1.44 217.39 1.44C218.61 1.44 219.64 1.82 220.39 2.57C221.14 3.32 221.52 4.31 221.52 5.52C221.52 6.73 221.14 7.76 220.39 8.5C219.64 9.24 218.64 9.6 217.39 9.6Z" fill="white"/>
<path d="M232.22 37.1C230.3 37.1 228.8 36.57 227.71 35.52C226.62 34.46 226.08 33.09 226.08 31.39C226.08 29.21 227.06 27.44 229.01 26.06C230.96 24.68 234.03 23.48 238.23 22.46L240.58 21.84V22.37L238.66 22.9C236.68 23.48 235.18 24.32 234.17 25.44C233.16 26.56 232.66 27.95 232.66 29.62C232.66 30.93 232.98 31.93 233.62 32.62C234.26 33.31 235.08 33.65 236.07 33.65C236.81 33.65 237.5 33.49 238.16 33.17C238.82 32.85 239.35 32.39 239.77 31.78L239.87 32.36C239.29 33.83 238.32 34.99 236.94 35.84C235.56 36.69 234 37.11 232.24 37.11L232.22 37.1ZM245.32 37.1C243.5 37.1 242.1 36.72 241.14 35.97C240.18 35.22 239.7 34.21 239.7 32.96V18.28C239.7 16.59 239.28 15.31 238.45 14.47C237.62 13.62 236.47 13.2 234.99 13.2C234.13 13.2 233.33 13.32 232.59 13.56C231.85 13.8 231.12 14.16 230.38 14.64L231.39 13.73L233.21 13.3V21.03C232.86 21.22 232.47 21.39 232.03 21.53C231.6 21.67 231.17 21.75 230.76 21.75C229.8 21.75 229.01 21.45 228.38 20.86C227.76 20.27 227.44 19.49 227.44 18.53C227.44 17.38 227.85 16.32 228.66 15.36C229.47 14.4 230.64 13.64 232.14 13.08C233.64 12.52 235.42 12.24 237.47 12.24C240.48 12.24 242.81 12.91 244.45 14.26C246.09 15.61 246.92 17.62 246.92 20.31V31.88C246.92 32.71 247.06 33.34 247.35 33.75C247.64 34.17 248.13 34.37 248.84 34.37C249.45 34.37 249.91 34.16 250.23 33.75C250.55 33.33 250.71 32.74 250.71 31.97V30.15H251.29V32.02C251.29 33.75 250.81 35.03 249.85 35.86C248.89 36.69 247.37 37.11 245.29 37.11L245.32 37.1ZM239.32 32.44H240.04V33.11H239.22L239.32 32.44Z" fill="white"/>
<path d="M252.621 36.62V36H253.481C253.991 36 254.371 35.89 254.611 35.66C254.851 35.44 254.971 35.07 254.971 34.56V5.04C254.971 4.37 254.871 3.92 254.681 3.7C254.491 3.48 254.151 3.43 253.671 3.56L252.471 3.9V3.28L263.461 0.0200005V0.600001L262.121 1.08V34.58C262.121 35.09 262.251 35.46 262.501 35.68C262.751 35.9 263.141 36.02 263.651 36.02H264.471V36.64H252.611L252.621 36.62Z" fill="white"/>
<path d="M268.61 36.86L267.65 26.68H268.27L268.99 34.31L268.32 27.83C269.53 31 270.9 33.25 272.4 34.57C273.9 35.9 275.52 36.56 277.25 36.56C278.43 36.56 279.38 36.24 280.08 35.6C280.78 34.96 281.14 34.08 281.14 32.96C281.14 32.32 280.97 31.74 280.64 31.21C280.31 30.68 279.82 30.21 279.18 29.79C278.54 29.37 277.76 28.99 276.83 28.64L274.33 27.58C272.6 26.91 271.16 25.92 270.01 24.63C268.86 23.34 268.28 21.81 268.28 20.05C268.28 18.51 268.7 17.15 269.53 15.97C270.36 14.79 271.52 13.87 273.01 13.21C274.5 12.55 276.23 12.23 278.22 12.23C279.24 12.23 280.28 12.35 281.34 12.59C282.4 12.83 283.36 13.14 284.22 13.53C284.54 13.63 284.75 13.61 284.84 13.48C284.94 13.35 284.98 13.18 284.98 12.95V12.33H285.56L286.52 21.45H285.9L284.99 13.77L286 20.73C284.88 18.01 283.61 16.03 282.18 14.8C280.76 13.57 279.29 12.95 277.79 12.95C276.64 12.95 275.73 13.24 275.05 13.81C274.38 14.39 274.04 15.17 274.04 16.16C274.04 17.09 274.34 17.87 274.93 18.51C275.52 19.15 276.36 19.66 277.45 20.05L280.71 21.2C282.57 21.84 284.08 22.82 285.25 24.15C286.42 25.48 287 27.17 287 29.21C287 30.84 286.59 32.27 285.78 33.48C284.96 34.7 283.78 35.63 282.23 36.29C280.68 36.95 278.83 37.27 276.69 37.27C275.73 37.27 274.66 37.12 273.47 36.81C272.29 36.51 271.18 36.13 270.16 35.68C269.71 35.49 269.43 35.44 269.32 35.54C269.21 35.64 269.15 35.84 269.15 36.16V36.83H268.62L268.61 36.86Z" fill="white"/>
</g>
<defs>
<clipPath id="clip0_548_12111">
<rect width="286.99" height="37.39" fill="white"/>
</clipPath>
</defs>
</svg>
