<svg width="13" height="13" viewBox="0 0 13 13" fill="none" xmlns="http://www.w3.org/2000/svg">
<path d="M3.5087 3.5087H3.51489M5.65327 1H3.97342C2.93262 1 2.41222 1 2.0147 1.20255C1.66502 1.38072 1.38072 1.66502 1.20255 2.0147C1 2.41222 1 2.93262 1 3.97342V5.65327C1 6.10777 1 6.33505 1.05135 6.54895C1.09687 6.73857 1.17196 6.91982 1.27385 7.08615C1.38877 7.27366 1.54948 7.43435 1.8709 7.75579L4.78237 10.6673C5.51829 11.4032 5.88631 11.7712 6.31058 11.909C6.68387 12.0303 7.0859 12.0303 7.45919 11.909C7.88346 11.7712 8.25148 11.4032 8.9874 10.6673L10.6673 8.9874C11.4032 8.25148 11.7712 7.88346 11.909 7.45919C12.0303 7.0859 12.0303 6.68387 11.909 6.31058C11.7712 5.88631 11.4032 5.51829 10.6673 4.78237L7.75579 1.8709C7.43435 1.54948 7.27366 1.38877 7.08615 1.27385C6.91982 1.17196 6.73857 1.09687 6.54895 1.05135C6.33505 1 6.10777 1 5.65327 1ZM3.81843 3.5087C3.81843 3.67976 3.67976 3.81843 3.5087 3.81843C3.33764 3.81843 3.19897 3.67976 3.19897 3.5087C3.19897 3.33764 3.33764 3.19897 3.5087 3.19897C3.67976 3.19897 3.81843 3.33764 3.81843 3.5087Z" stroke="#5E5E5E" stroke-width="1.5" stroke-linecap="round" stroke-linejoin="round"/>
</svg>
